<svg id="レイヤー_1" data-name="レイヤー 1" xmlns="http://www.w3.org/2000/svg" viewBox="0 0 21 18"><title>rexicon_new-window-l</title><path d="M16.5,19.5H3V9.75H4.5V8.25H3a1.5,1.5,0,0,0-1.5,1.5V19.5A1.5,1.5,0,0,0,3,21H16.5A1.5,1.5,0,0,0,18,19.5V17.25H16.5Z" transform="translate(-1.5 -3)" style="fill-rule:evenodd"/><path d="M7.5,6H21V4.5H7.5Zm0,8.25H21V7.5H7.5ZM21,3H7.5A1.5,1.5,0,0,0,6,4.5v9.75a1.5,1.5,0,0,0,1.5,1.5H21a1.5,1.5,0,0,0,1.5-1.5V4.5A1.5,1.5,0,0,0,21,3Z" transform="translate(-1.5 -3)" style="fill-rule:evenodd"/></svg>