<svg id="レイヤー_1" data-name="レイヤー 1" xmlns="http://www.w3.org/2000/svg" viewBox="0 0 121.43 278.62"><title>balloon</title><path d="M643.45,344l5.34-11.16L655.1,344Zm5.82-15.83c-32.15,0-58.21-29.22-58.21-65.25s26.06-65.26,58.21-65.26,58.22,29.22,58.22,65.26S681.43,328.15,649.27,328.15Z" transform="translate(-588.56 -195.14)" style="fill:none"/><ellipse cx="60.72" cy="67.75" rx="58.22" ry="65.25" style="fill:none;stroke:#fff;stroke-miterlimit:10;stroke-width:5px"/><polygon points="60.23 137.68 54.9 148.83 66.54 148.83 60.23 137.68" style="fill:none;stroke:#fff;stroke-miterlimit:10;stroke-width:5px"/><path d="M695,269.64s1.41,24.74-24,37.71" transform="translate(-588.56 -195.14)" style="fill:none;stroke:#fff;stroke-linecap:round;stroke-miterlimit:10;stroke-width:5px"/><path d="M648.69,345.33s-12,25.65-2.73,49.42c11.21,21.05,16.37,40.26,6.63,76.52" transform="translate(-588.56 -195.14)" style="fill:none;stroke:#fff;stroke-linecap:round;stroke-miterlimit:10;stroke-width:5px"/></svg>