<svg xmlns="http://www.w3.org/2000/svg" viewBox="0 0 1286.94 432.34"><title>ill_main</title><g id="建物"><rect x="36.23" y="281.32" width="90.15" height="150.18" style="fill:#97d8f5;stroke:#fff;stroke-miterlimit:10;stroke-width:1.59316244423389px"/><rect x="50.34" y="295.17" width="15.82" height="15.82" style="fill:#97d8f5;stroke:#fff;stroke-miterlimit:10;stroke-width:1.59316244423389px"/><rect x="73.39" y="295.17" width="15.82" height="15.82" style="fill:#97d8f5;stroke:#fff;stroke-miterlimit:10;stroke-width:1.59316244423389px"/><rect x="96.44" y="295.17" width="15.82" height="15.82" style="fill:#97d8f5;stroke:#fff;stroke-miterlimit:10;stroke-width:1.59316244423389px"/><rect x="50.34" y="320.88" width="15.82" height="15.82" style="fill:#97d8f5;stroke:#fff;stroke-miterlimit:10;stroke-width:1.59316244423389px"/><rect x="73.39" y="320.88" width="15.82" height="15.82" style="fill:#97d8f5;stroke:#fff;stroke-miterlimit:10;stroke-width:1.59316244423389px"/><rect x="96.44" y="320.88" width="15.82" height="15.82" style="fill:#97d8f5;stroke:#fff;stroke-miterlimit:10;stroke-width:1.59316244423389px"/><rect x="50.34" y="346.59" width="15.82" height="15.82" style="fill:#97d8f5;stroke:#fff;stroke-miterlimit:10;stroke-width:1.59316244423389px"/><rect x="73.39" y="346.59" width="15.82" height="15.82" style="fill:#97d8f5;stroke:#fff;stroke-miterlimit:10;stroke-width:1.59316244423389px"/><rect x="96.44" y="346.59" width="15.82" height="15.82" style="fill:#97d8f5;stroke:#fff;stroke-miterlimit:10;stroke-width:1.59316244423389px"/><rect x="41.94" y="265.13" width="79.1" height="15.82" style="fill:#97d8f5;stroke:#fff;stroke-miterlimit:10;stroke-width:1.59316244423389px"/><rect x="60.52" y="375.51" width="21.34" height="56.03" style="fill:#97d8f5;stroke:#fff;stroke-miterlimit:10;stroke-width:1.59316244423389px"/><rect x="81.42" y="375.51" width="21.34" height="56.03" style="fill:#97d8f5;stroke:#fff;stroke-miterlimit:10;stroke-width:1.59316244423389px"/><polygon points="233.27 370.86 223.8 339.61 148.94 339.61 139.47 370.86 143.11 370.86 143.11 431.55 229.63 431.55 229.63 370.86 233.27 370.86" style="fill:#97d8f5;stroke:#fff;stroke-miterlimit:10;stroke-width:1.59316244423389px"/><rect x="160.03" y="379.87" width="7.1" height="7.1" style="fill:#97d8f5;stroke:#fff;stroke-miterlimit:10;stroke-width:1.59316244423389px"/><rect x="149.75" y="379.87" width="7.1" height="7.1" style="fill:#97d8f5;stroke:#fff;stroke-miterlimit:10;stroke-width:1.59316244423389px"/><rect x="149.75" y="390.15" width="7.1" height="7.1" style="fill:#97d8f5;stroke:#fff;stroke-miterlimit:10;stroke-width:1.59316244423389px"/><rect x="160.03" y="390.15" width="7.1" height="7.1" style="fill:#97d8f5;stroke:#fff;stroke-miterlimit:10;stroke-width:1.59316244423389px"/><rect x="187.96" y="379.87" width="7.1" height="7.1" style="fill:#97d8f5;stroke:#fff;stroke-miterlimit:10;stroke-width:1.59316244423389px"/><rect x="177.67" y="379.87" width="7.1" height="7.1" style="fill:#97d8f5;stroke:#fff;stroke-miterlimit:10;stroke-width:1.59316244423389px"/><rect x="177.67" y="390.15" width="7.1" height="7.1" style="fill:#97d8f5;stroke:#fff;stroke-miterlimit:10;stroke-width:1.59316244423389px"/><rect x="187.96" y="390.15" width="7.1" height="7.1" style="fill:#97d8f5;stroke:#fff;stroke-miterlimit:10;stroke-width:1.59316244423389px"/><rect x="205.6" y="379.87" width="7.1" height="7.1" style="fill:#97d8f5;stroke:#fff;stroke-miterlimit:10;stroke-width:1.59316244423389px"/><rect x="215.89" y="379.87" width="7.1" height="7.1" style="fill:#97d8f5;stroke:#fff;stroke-miterlimit:10;stroke-width:1.59316244423389px"/><rect x="215.89" y="390.15" width="7.1" height="7.1" style="fill:#97d8f5;stroke:#fff;stroke-miterlimit:10;stroke-width:1.59316244423389px"/><rect x="205.6" y="390.15" width="7.1" height="7.1" style="fill:#97d8f5;stroke:#fff;stroke-miterlimit:10;stroke-width:1.59316244423389px"/><rect x="149.74" y="407.35" width="8.41" height="13.4" style="fill:#97d8f5;stroke:#fff;stroke-miterlimit:10;stroke-width:1.59316244423389px"/><rect x="161.34" y="407.35" width="8.41" height="13.4" style="fill:#97d8f5;stroke:#fff;stroke-miterlimit:10;stroke-width:1.59316244423389px"/><rect x="202.99" y="407.35" width="8.41" height="13.4" style="fill:#97d8f5;stroke:#fff;stroke-miterlimit:10;stroke-width:1.59316244423389px"/><rect x="214.59" y="407.35" width="8.41" height="13.4" style="fill:#97d8f5;stroke:#fff;stroke-miterlimit:10;stroke-width:1.59316244423389px"/><rect x="179.95" y="403.73" width="12.83" height="24.4" style="fill:#97d8f5;stroke:#fff;stroke-miterlimit:10;stroke-width:1.59316244423389px"/><rect x="1077.89" y="258.66" width="57.93" height="172.89" style="fill:#97d8f5;stroke:#fff;stroke-miterlimit:10;stroke-width:1.59316244423389px"/><rect x="1089.55" y="272.53" width="14.9" height="14.9" style="fill:#97d8f5;stroke:#fff;stroke-miterlimit:10;stroke-width:1.59316244423389px"/><rect x="1109.27" y="272.53" width="14.9" height="14.9" style="fill:#97d8f5;stroke:#fff;stroke-miterlimit:10;stroke-width:1.59316244423389px"/><rect x="1089.55" y="299.06" width="14.9" height="14.9" style="fill:#97d8f5;stroke:#fff;stroke-miterlimit:10;stroke-width:1.59316244423389px"/><rect x="1109.27" y="299.06" width="14.9" height="14.9" style="fill:#97d8f5;stroke:#fff;stroke-miterlimit:10;stroke-width:1.59316244423389px"/><rect x="1089.55" y="325.59" width="14.9" height="14.9" style="fill:#97d8f5;stroke:#fff;stroke-miterlimit:10;stroke-width:1.59316244423389px"/><rect x="1109.27" y="325.59" width="14.9" height="14.9" style="fill:#97d8f5;stroke:#fff;stroke-miterlimit:10;stroke-width:1.59316244423389px"/><polygon points="1270.93 318.12 1150.45 318.12 1150.45 340.36 1155.13 340.36 1155.13 431.55 1266.25 431.55 1266.25 340.36 1270.93 340.36 1270.93 318.12" style="fill:#97d8f5;stroke:#fff;stroke-miterlimit:10;stroke-width:1.59316244423389px"/><rect x="1178.13" y="356.5" width="10.14" height="8.68" style="fill:#97d8f5;stroke:#fff;stroke-miterlimit:10;stroke-width:1.59316244423389px"/><rect x="1165.21" y="356.5" width="10.14" height="8.68" style="fill:#97d8f5;stroke:#fff;stroke-miterlimit:10;stroke-width:1.59316244423389px"/><rect x="1165.21" y="368.34" width="10.14" height="8.68" style="fill:#97d8f5;stroke:#fff;stroke-miterlimit:10;stroke-width:1.59316244423389px"/><rect x="1178.13" y="368.34" width="10.14" height="8.68" style="fill:#97d8f5;stroke:#fff;stroke-miterlimit:10;stroke-width:1.59316244423389px"/><rect x="1198.97" y="356.5" width="10.15" height="8.68" style="fill:#97d8f5;stroke:#fff;stroke-miterlimit:10;stroke-width:1.59316244423389px"/><rect x="1212.27" y="356.5" width="10.14" height="8.68" style="fill:#97d8f5;stroke:#fff;stroke-miterlimit:10;stroke-width:1.59316244423389px"/><rect x="1198.97" y="368.34" width="10.15" height="8.68" style="fill:#97d8f5;stroke:#fff;stroke-miterlimit:10;stroke-width:1.59316244423389px"/><rect x="1212.27" y="368.34" width="10.14" height="8.68" style="fill:#97d8f5;stroke:#fff;stroke-miterlimit:10;stroke-width:1.59316244423389px"/><rect x="1246.42" y="356.5" width="10.14" height="8.68" style="fill:#97d8f5;stroke:#fff;stroke-miterlimit:10;stroke-width:1.59316244423389px"/><rect x="1233.11" y="356.5" width="10.15" height="8.68" style="fill:#97d8f5;stroke:#fff;stroke-miterlimit:10;stroke-width:1.59316244423389px"/><rect x="1246.42" y="368.34" width="10.14" height="8.68" style="fill:#97d8f5;stroke:#fff;stroke-miterlimit:10;stroke-width:1.59316244423389px"/><rect x="1233.11" y="368.34" width="10.15" height="8.68" style="fill:#97d8f5;stroke:#fff;stroke-miterlimit:10;stroke-width:1.59316244423389px"/><rect x="1165.21" y="386.37" width="10.14" height="8.68" style="fill:#97d8f5;stroke:#fff;stroke-miterlimit:10;stroke-width:1.59316244423389px"/><rect x="1178.13" y="386.37" width="10.14" height="8.68" style="fill:#97d8f5;stroke:#fff;stroke-miterlimit:10;stroke-width:1.59316244423389px"/><rect x="1178.13" y="398.21" width="10.14" height="8.68" style="fill:#97d8f5;stroke:#fff;stroke-miterlimit:10;stroke-width:1.59316244423389px"/><rect x="1165.21" y="398.21" width="10.14" height="8.68" style="fill:#97d8f5;stroke:#fff;stroke-miterlimit:10;stroke-width:1.59316244423389px"/><rect x="1233.11" y="386.37" width="10.15" height="8.68" style="fill:#97d8f5;stroke:#fff;stroke-miterlimit:10;stroke-width:1.59316244423389px"/><rect x="1246.42" y="386.37" width="10.14" height="8.68" style="fill:#97d8f5;stroke:#fff;stroke-miterlimit:10;stroke-width:1.59316244423389px"/><rect x="1233.11" y="398.21" width="10.15" height="8.68" style="fill:#97d8f5;stroke:#fff;stroke-miterlimit:10;stroke-width:1.59316244423389px"/><rect x="1246.42" y="398.21" width="10.14" height="8.68" style="fill:#97d8f5;stroke:#fff;stroke-miterlimit:10;stroke-width:1.59316244423389px"/><path d="M1219.14,428.09V406.32a7.72,7.72,0,1,0-15.43,0v21.77Z" transform="translate(-0.73 -3.63)" style="fill:#97d8f5;stroke:#fff;stroke-miterlimit:10;stroke-width:1.59316244423389px"/><rect x="1160.46" y="304.74" width="103.47" height="13.39" style="fill:#97d8f5;stroke:#fff;stroke-miterlimit:10;stroke-width:1.59316244423389px"/><rect x="1165.31" y="340.31" width="91.43" height="6.71" style="fill:#97d8f5;stroke:#fff;stroke-miterlimit:10;stroke-width:1.59316244423389px"/></g><g id="雲"><path d="M100.74,161.66c-1.7,17-20.15,10.62-20.15,10.62s0,14.43-14.43,14.43c-5.94,0-10.29-5.24-10.29-5.24h0c-1.61,2-4.21,3.54-8.38,3.54-11.3,0-12.73-7.64-12.73-7.64-5.06,5.06-14.32,1.84-16.25-3.84-2.9-8.51,2.43-11.87,2.43-11.87s-6.6-14.1,1.94-21.63c8.76-8.77,20.37-2.79,20.37-2.79h0c1.25-8,6-17.94,22.06-17.58,28.86,0,18.68,27.16,18.68,27.16S102.44,143,100.74,161.66Z" transform="translate(-0.73 -3.63)" style="fill:#97d8f5"/><path d="M43.25,137.24s-11.61-6-20.37,2.79c-8.54,7.53-1.94,21.63-1.94,21.63s-5.33,3.36-2.43,11.87c1.93,5.68,11.19,8.9,16.25,3.84,0,0,1.43,7.64,12.73,7.64,11,0,11-11,11-11" transform="translate(-0.73 -3.63)" style="fill:none;stroke:#fff;stroke-linecap:round;stroke-linejoin:round;stroke-width:2.25px"/><path d="M43.14,147s-4.5-27.9,22.17-27.3c28.86,0,18.68,27.16,18.68,27.16s18.45-3.83,16.75,14.84c-1.7,17-20.15,10.62-20.15,10.62s0,14.43-14.43,14.43c-5.94,0-10.29-5.24-10.29-5.24" transform="translate(-0.73 -3.63)" style="fill:none;stroke:#fff;stroke-linecap:round;stroke-linejoin:round;stroke-width:2.25px"/><path d="M1183.67,194.19c-1.69,17-20.15,10.62-20.15,10.62s0,14.43-14.42,14.43c-5.95,0-10.3-5.24-10.3-5.24h0c-1.61,2-4.2,3.54-8.38,3.54-11.3,0-12.73-7.64-12.73-7.64-5,5.06-14.32,1.84-16.25-3.84-2.9-8.51,2.43-11.87,2.43-11.87s-6.6-14.1,1.94-21.63c8.77-8.77,20.38-2.79,20.38-2.79h0c1.24-8,6-17.94,22.06-17.58,28.85,0,18.67,27.16,18.67,27.16S1185.37,175.52,1183.67,194.19Z" transform="translate(-0.73 -3.63)" style="fill:#97d8f5"/><path d="M1126.19,169.77s-11.61-6-20.38,2.79c-8.54,7.53-1.94,21.63-1.94,21.63s-5.33,3.36-2.43,11.87c1.93,5.68,11.2,8.9,16.25,3.84,0,0,1.43,7.64,12.73,7.64,11,0,11-11,11-11" transform="translate(-0.73 -3.63)" style="fill:none;stroke:#fff;stroke-linecap:round;stroke-linejoin:round;stroke-width:2.25px"/><path d="M1126.07,179.49s-4.5-27.9,22.18-27.3c28.85,0,18.67,27.16,18.67,27.16s18.45-3.83,16.75,14.84c-1.69,17-20.15,10.62-20.15,10.62s0,14.43-14.42,14.43c-5.95,0-10.3-5.24-10.3-5.24" transform="translate(-0.73 -3.63)" style="fill:none;stroke:#fff;stroke-linecap:round;stroke-linejoin:round;stroke-width:2.25px"/><path d="M211,43.37s-3.31,6.63-13.81,5c-6.62-1.1-8.28-5-8.83-6.62-1.11,2.21-17.67,7.73-19.88-8.84C167.34,18.52,182.25,18,185,19.07c.56-2.2,1.79-11.34,14.92-13.8,8.83-1.66,13.25,2.76,15.46,4.42,5.8-4.7,24-2.49,24.85,17.12C241.34,46.69,218.15,50,211,43.37Z" transform="translate(-0.73 -3.63)" style="fill:#97d8f5"/><path d="M185,19.07c.56-2.2,1.79-11.34,14.92-13.8,8.83-1.66,13.25,2.76,15.46,4.42,5.8-4.7,24-2.49,24.85,17.12C241.34,46.69,218.15,50,211,43.37c0,0-3.31,6.63-13.81,5-6.62-1.1-8.28-5-8.83-6.62-1.11,2.21-17.67,7.73-19.88-8.84C167.34,18.52,182.25,18,185,19.07Z" transform="translate(-0.73 -3.63)" style="fill:none;stroke:#fff;stroke-linecap:round;stroke-linejoin:round;stroke-width:2.54738776258183px"/><path d="M1258.44,87.9c-5,8.09-16.08,7-18.83,4.93-1.12,2.27-3.06,6.42-11.77,7.55-8,1-11.65-5.21-13.84-8.46-3.9,3.2-18.89,3.92-20.09-10.14-1-12.3,11.56-14.6,14-14.57-.27-2.09.87-9.68,7.3-11.93,10.57-3.14,13.26,3.94,13.74,4.94a11.15,11.15,0,0,1,11.09-4.63c5.65.84,10.14,7.18,8.94,11.59A13.79,13.79,0,0,1,1258.44,87.9Z" transform="translate(-0.73 -3.63)" style="fill:#97d8f5"/><path d="M1229,60.22c-.48-1-3.17-8.08-13.74-4.94-6.43,2.25-7.57,9.84-7.3,11.93-2.48,0-15.08,2.27-14,14.57,1.2,14.06,16.19,13.34,20.09,10.14,2.19,3.25,5.84,9.5,13.84,8.46,8.71-1.13,10.65-5.28,11.77-7.55,2.75,2.12,13.86,3.16,18.83-4.93A13.79,13.79,0,0,0,1249,67.18c1.2-4.41-3.29-10.75-8.94-11.59A11.15,11.15,0,0,0,1229,60.22Z" transform="translate(-0.73 -3.63)" style="fill:none;stroke:#fff;stroke-linecap:round;stroke-linejoin:round;stroke-width:2.54738776258183px"/></g><g id="ひょこ"><line x1="1" y1="254.42" x2="32.95" y2="263.34" style="fill:none;stroke:#fff;stroke-linecap:round;stroke-linejoin:round;stroke-width:2px"/><line x1="22.52" y1="250.12" x2="34.27" y2="258.88" style="fill:none;stroke:#fff;stroke-linecap:round;stroke-linejoin:round;stroke-width:2px"/><line x1="26.44" y1="232.7" x2="40.19" y2="253.04" style="fill:none;stroke:#fff;stroke-linecap:round;stroke-linejoin:round;stroke-width:2px"/><line x1="41.6" y1="235.37" x2="45.35" y2="250.12" style="fill:none;stroke:#fff;stroke-linecap:round;stroke-linejoin:round;stroke-width:2px"/><line x1="1265.85" y1="277.7" x2="1262.1" y2="293.2" style="fill:none;stroke:#fff;stroke-linecap:round;stroke-linejoin:round;stroke-width:2px"/><line x1="1283.52" y1="274.54" x2="1269.35" y2="295.29" style="fill:none;stroke:#fff;stroke-linecap:round;stroke-linejoin:round;stroke-width:2px"/><line x1="1285.94" y1="291.54" x2="1274.44" y2="300.37" style="fill:none;stroke:#fff;stroke-linecap:round;stroke-linejoin:round;stroke-width:2px"/></g></svg>