<svg id="レイヤー_1" data-name="レイヤー 1" xmlns="http://www.w3.org/2000/svg" viewBox="0 0 84 84"><circle cx="42" cy="42" r="42" fill="#bf0000"/><path fill="none" stroke="#fff" stroke-linecap="round" stroke-linejoin="round" stroke-width="2" d="M56.54 38.74L42 24.22v-.01L27.46 38.74"/><path d="M37.69 56.53h-3.78v-1.32H43v1.32h-3.73v11.14h-1.58zm6.87 4.86c0-4 2.19-6.42 5.32-6.42s5.32 2.43 5.32 6.42-2.2 6.5-5.32 6.5-5.32-2.5-5.32-6.5zm9 0c0-3.12-1.48-5-3.7-5s-3.71 1.92-3.71 5 1.46 5.12 3.71 5.12 3.72-2.01 3.72-5.12zm4.32-6.18h3.56c2.8 0 4.67.93 4.67 3.65s-1.87 3.86-4.59 3.86h-2.06v5h-1.58zm3.44 6.24c2.19 0 3.23-.8 3.23-2.59s-1.11-2.38-3.3-2.38h-1.79v5z" transform="translate(-8.16 -8)" fill="#fff"/></svg>