<svg xmlns="http://www.w3.org/2000/svg" viewBox="0 0 32 32"><style>.st0{fill:#333}</style><g id="レイヤー_1"><path class="st0" d="M15.7 15.8c-2.3 0-4 1.7-4 4 0 2.2 1.6 3.7 4 3.7 2.2 0 3.7-1.7 3.7-3.9s-1.5-3.8-3.7-3.8z"/><path class="st0" d="M16 1.4c-8.3 0-15 6.7-15 15s6.7 15 15 15 15-6.7 15-15-6.7-15-15-15zm-.3 24.7c-4.8 0-7.6-3.6-7.6-9.8 0-6.4 3.1-10.5 7.8-10.5 2.8 0 4.8 1.2 6 3.4l-2.4 1.4c-.7-1.5-2-2.3-3.6-2.3s-3 .9-3.9 2.6c-.7 1.2-1 2.8-1.1 4.8 1-1.5 3-2.4 5.2-2.4 3.6 0 6.3 2.6 6.3 6.3 0 3.7-2.8 6.5-6.7 6.5z"/></g></svg>