<svg xmlns="http://www.w3.org/2000/svg" viewBox="0 0 32 32"><style>.st0{fill:#333}</style><g id="レイヤー_1"><path class="st0" d="M16.1 31.2c-8.3 0-15-6.7-15-15s6.7-15 15-15 15 6.7 15 15-6.7 15-15 15zm0-29c-7.7 0-14 6.3-14 14s6.3 14 14 14 14-6.3 14-14-6.3-14-14-14z"/><path class="st0" d="M9.5 9.7c1.1-2.5 3.5-3.9 6.6-3.9 3.8 0 6.5 2.2 6.5 5.4 0 1.4-.7 2.7-1.8 3.5-.5.3-.8.5-1.5.6 2.6.7 4 2.4 4 4.8 0 3.6-2.9 6-7.3 6-3.7 0-5.8-1.2-7.3-4.2l2.5-1.5c.7 2 2.5 3.2 4.8 3.2 2.4 0 4.4-1.5 4.4-3.5 0-1.6-1.1-2.8-2.9-3-.8-.1-1.9-.2-4.3-.2v-2.6h1.2c1.7 0 2.5-.1 3.2-.4 1.2-.5 2-1.4 2-2.5 0-1.8-1.5-3-3.6-3-1.8 0-3.4 1-4.1 2.6L9.5 9.7z"/></g></svg>