<svg xmlns="http://www.w3.org/2000/svg" viewBox="0 0 32 32"><style>.st0{fill:#333}</style><g id="レイヤー_1"><path class="st0" d="M16.1 31.2c-8.3 0-15-6.7-15-15s6.7-15 15-15 15 6.7 15 15-6.7 15-15 15zm0-29c-7.7 0-14 6.3-14 14s6.3 14 14 14 14-6.3 14-14-6.3-14-14-14z"/><path class="st0" d="M21.5 6.3v2.9h-9l-.4 4.7c1.1-.7 2.6-1.1 4.1-1.1 3.9 0 6.6 2.7 6.6 6.6 0 4.1-2.9 6.9-7.2 6.9-3 0-5.5-1.4-6.8-3.7l2.3-1.6c1 1.7 2.6 2.7 4.5 2.7 2.4 0 4.2-1.8 4.2-4.2 0-2.3-1.7-4-4.2-4-1.9 0-3.3.7-4.2 2.1L9 17l1-10.7h11.5z"/></g></svg>