<svg xmlns="http://www.w3.org/2000/svg" viewBox="0 0 32 32"><style>.st0{fill:#333}</style><g id="レイヤー_1"><path class="st0" d="M16.3 16.6c-2.5 0-4.4 1.5-4.4 3.5s1.8 3.5 4.5 3.5 4.5-1.4 4.5-3.5c-.2-2-2.1-3.5-4.6-3.5z"/><path class="st0" d="M16 1.4c-8.3 0-15 6.7-15 15s6.7 15 15 15 15-6.7 15-15-6.7-15-15-15zm.3 24.7c-4.7 0-7.4-2.2-7.4-6 0-2.2 1.5-4 3.9-4.8-2.2-.8-3.3-2.2-3.3-4.1 0-3.2 2.8-5.4 6.8-5.4s6.8 2.2 6.8 5.4c0 1.9-1.1 3.3-3.3 4.1 2.4.8 3.9 2.6 3.9 4.9 0 3.6-2.8 5.9-7.4 5.9z"/><path class="st0" d="M16.3 14.1c2.1 0 3.9-1.3 3.9-3s-1.6-2.9-3.9-2.9c-2.2 0-3.8 1.2-3.8 3-.1 1.6 1.6 2.9 3.8 2.9z"/></g></svg>