<svg xmlns="http://www.w3.org/2000/svg" viewBox="0 0 32 32"><style>.st0{fill:#333}</style><g id="レイヤー_1"><path class="st0" d="M16.1 31.2c-8.3 0-15-6.7-15-15s6.7-15 15-15 15 6.7 15 15-6.7 15-15 15zm0-29c-7.7 0-14 6.3-14 14s6.3 14 14 14 14-6.3 14-14-6.3-14-14-14z"/><path class="st0" d="M8.9 11.2c0-3.2 2.8-5.4 6.8-5.4s6.8 2.2 6.8 5.4c0 1.9-1.1 3.3-3.3 4.1 2.4.8 3.9 2.6 3.9 4.9 0 3.7-2.8 5.9-7.4 5.9-4.7 0-7.4-2.2-7.4-6 0-2.2 1.5-4 3.9-4.8-2.2-.8-3.3-2.2-3.3-4.1zm2.3 8.9c0 2 1.8 3.5 4.5 3.5s4.5-1.4 4.5-3.5c0-2-1.9-3.5-4.5-3.5-2.6.1-4.5 1.5-4.5 3.5zm.6-8.9c0 1.6 1.7 2.9 3.9 2.9 2.1 0 3.9-1.3 3.9-3S18 8.2 15.7 8.2c-2.3.1-3.9 1.3-3.9 3z"/></g></svg>