<svg id="レイヤー_1" data-name="レイヤー 1" xmlns="http://www.w3.org/2000/svg" xmlns:xlink="http://www.w3.org/1999/xlink" viewBox="0 0 341.76 63.07"><defs><mask id="mask" x="4.29" y="6.38" width="311.81" height="56.69" maskUnits="userSpaceOnUse"><g transform="translate(4 6)"><g id="b"><path id="a" d="M.29,57.07H312.11V.38H.29Z" style="fill:#fff;fill-rule:evenodd"/></g></g></mask><mask id="mask-8" x="0" y="0" width="322.31" height="63.07" maskUnits="userSpaceOnUse"><g transform="translate(4 6)"><g id="b-8" data-name="b"><path id="a-8" data-name="a" d="M.29,57.07H312.11V.38H.29Z" style="fill:#fff;fill-rule:evenodd"/></g></g></mask><mask id="mask-15" x="4.29" y="6.38" width="337.46" height="56.69" maskUnits="userSpaceOnUse"><g transform="translate(4 6)"><g id="b-15" data-name="b"><path id="a-15" data-name="a" d="M.29,57.07H312.11V.38H.29Z" style="fill:#fff;fill-rule:evenodd"/></g></g></mask><mask id="mask-16" x="4.29" y="6.38" width="335.04" height="56.69" maskUnits="userSpaceOnUse"><g transform="translate(4 6)"><g id="b-16" data-name="b"><path id="a-16" data-name="a" d="M.29,57.07H312.11V.38H.29Z" style="fill:#fff;fill-rule:evenodd"/></g></g></mask><mask id="mask-17" x="4.29" y="6.38" width="327.46" height="56.69" maskUnits="userSpaceOnUse"><g transform="translate(4 6)"><g id="b-17" data-name="b"><path id="a-17" data-name="a" d="M.29,57.07H312.11V.38H.29Z" style="fill:#fff;fill-rule:evenodd"/></g></g></mask><mask id="mask-30" x="0" y="0" width="341.76" height="63.07" maskUnits="userSpaceOnUse"><g transform="translate(4 6)"><g id="d"><path id="c" d="M-4,57.07H337.76V-6H-4Z" style="fill:#fff;fill-rule:evenodd"/></g></g></mask></defs><title>campaign_scarf</title><path d="M.29,57.07H312.11V.38H.29Z" transform="translate(4 6)" style="fill:#fefefe;fill-rule:evenodd"/><path d="M223.93,24.74s-.56.08-1.46.16l.31-2-1.16.14a8.06,8.06,0,0,1-1,.06,11.81,11.81,0,0,1-3.81-.64c1.94-.44,1.94-1,1.93-1.36v-.38l-8.37-7.09,0-2.13h-.6v-.38a1.46,1.46,0,0,0-1.5-1.42h-.68a1.48,1.48,0,0,0-1.48,1.44v.39h-.61l0,2.13-7.65,6.75-.58.5v.39c0,.35,0,.91,1.95,1.32a12,12,0,0,1-3.8.71,7.87,7.87,0,0,1-1,0l-1.16-.12.34,2c-.9-.06-1.45-.13-1.47-.13l-1.67-.2,2,3.69.45.07a29.07,29.07,0,0,0,4.34.27c.5,0,1,0,1.47-.05l.11,11.94h-1l0,3.92,20.66-.2,0-3.91h-1l-.11-12c.48,0,1,0,1.48,0a28.4,28.4,0,0,0,4.32-.36l.46-.08,1.9-3.73-1.68.24Z" transform="translate(4 6)" style="fill:#fefefe;fill-rule:evenodd"/><path d="M209.5,13.92l-3.08,0,0-1.6,3.09,0Zm-1.45,9.83c-4.48,3.55-16,2.14-16,2.14l1,1.86a35,35,0,0,0,15-1.55,35.14,35.14,0,0,0,15,1.27l1-1.89s-11.47,1.63-16-1.84" transform="translate(4 6)" style="fill:#871c21;fill-rule:evenodd"/><path d="M211.2,20.55,208,20.7l-3.17-.08s-5.21,4-10.47,3.49l.52,3,13.17-1.88,13.2,1.63.46-3c-5.24.64-10.53-3.29-10.53-3.29" transform="translate(4 6)" style="fill:#871c21;fill-rule:evenodd"/><path d="M217.87,21.07h0l-.29-.25L208,12.66,198.47,21l-.28.24h0c0,.58,4.41,1,9.85,1s9.84-.57,9.83-1.15Zm-18,9,8,.89-.07-8.06-7.92,2.84Zm8.45-7.17.08,8.06,7.93-1.05,0-4.33Zm9.35,20.77-18.87.18,0-2.21,18.88-.18Z" transform="translate(4 6)" style="fill:#871c21;fill-rule:evenodd"/><path d="M209.09,41.74l-1.73,0-.17-18.19,1.72,0Zm-7.6.08h-1.73l-.17-18.19,1.73,0Zm15.19-.15-1.72,0-.18-18.19,1.73,0Z" transform="translate(4 6)" style="fill:#871c21;fill-rule:evenodd"/><path d="M215.89,36.61l-15.31.15v-.68l15.31-.15Zm0,3.2L200.61,40v-.69l15.31-.14Z" transform="translate(4 6)" style="fill:#871c21;fill-rule:evenodd"/><path d="M203.81,39.37h-1.15l0-3h1.15Zm2.34,0H205l0-3h1.15Zm5.25-.05h-1.14l0-3h1.14Zm2.34,0H212.6l0-3h1.15Z" transform="translate(4 6)" style="fill:#871c21;fill-rule:evenodd"/><path d="M211.43,29.76l-6.64.06,0-2.79,6.65-.07Z" transform="translate(4 6)" style="fill:#fefefe;fill-rule:evenodd"/><path d="M208.89,13a.59.59,0,0,1-.59.58h-.68a.58.58,0,0,1-.61-.56h0l0-2a.58.58,0,0,1,.6-.57h.68a.58.58,0,0,1,.6.57h0Z" transform="translate(4 6)" style="fill:#871c21;fill-rule:evenodd"/><g style="mask:url(#mask)"><path d="M.29,57.07H312.11V41.55H.29ZM31,7.47,27.63,17.64H25.31L21.94,7.47h3.31l1.16,4.73.07.26a1.47,1.47,0,0,1,0,.42v-.19a1.26,1.26,0,0,1,0-.3l0-.21,1.1-4.71Zm1.18,10.17h3.06V7.47H32.19ZM43.1,11.49,43,11.31a1.13,1.13,0,0,0-.1-.13l-.21-.28a2.94,2.94,0,0,0-.92-.8A1.81,1.81,0,0,0,41,9.83a2.18,2.18,0,0,0-.44.08c-.2.06-.3.26-.3.62a.73.73,0,0,0,.09.35,1.75,1.75,0,0,0,.23.35l.43.34.29.21.78.52.47.37a3.86,3.86,0,0,1,.58.58,2.14,2.14,0,0,1,.37,1.45,3.16,3.16,0,0,1-.3,1.35,2.53,2.53,0,0,1-.85,1,3.78,3.78,0,0,1-1.16.56,5.17,5.17,0,0,1-1.36.17l-.71,0a5.74,5.74,0,0,1-2-.77V14.21l.54.46a3.13,3.13,0,0,0,.71.4,2.92,2.92,0,0,0,.57.16l.41,0h.31a1.8,1.8,0,0,0,.33-.16.56.56,0,0,0,.24-.54.69.69,0,0,0,0-.25,1,1,0,0,0-.15-.25l-.19-.16-.23-.16-.92-.63a3.21,3.21,0,0,1-1.13-1.16,3.09,3.09,0,0,1-.36-1.84,1.91,1.91,0,0,0,0-.2,2.87,2.87,0,0,1,.75-1.65,3.39,3.39,0,0,1,1.72-.91l.77-.07a3.53,3.53,0,0,1,1.39.29,4.43,4.43,0,0,1,1.28.86v3.07Zm8.08,0-.09-.18a1.13,1.13,0,0,0-.1-.13l-.21-.28a2.94,2.94,0,0,0-.92-.8A1.85,1.85,0,0,0,49,9.83a2.18,2.18,0,0,0-.44.08c-.2.06-.3.26-.3.62a.73.73,0,0,0,.09.35,1.4,1.4,0,0,0,.23.35l.43.34.29.21.78.52.47.37a3.86,3.86,0,0,1,.58.58,2.2,2.2,0,0,1,.37,1.45,3.16,3.16,0,0,1-.3,1.35,2.61,2.61,0,0,1-.85,1,3.78,3.78,0,0,1-1.16.56,5.3,5.3,0,0,1-1.37.17l-.71,0a5.76,5.76,0,0,1-2-.77V14.21l.54.46a3.13,3.13,0,0,0,.71.4,2.74,2.74,0,0,0,.57.16l.4,0h.32a2.18,2.18,0,0,0,.33-.16.56.56,0,0,0,.24-.54.69.69,0,0,0,0-.25.82.82,0,0,0-.16-.25l-.19-.16-.22-.16-.92-.63a3.21,3.21,0,0,1-1.13-1.16,3,3,0,0,1-.36-1.84,1.91,1.91,0,0,0,0-.2A2.87,2.87,0,0,1,46,8.25a3.34,3.34,0,0,1,1.72-.91l.77-.07a3.57,3.57,0,0,1,1.39.29,4.57,4.57,0,0,1,1.28.86v3.07Zm8.18,6.15h-6V7.47h6V10h-2.9v1.28H59V13.7H56.38v1.4h3Zm7.75,0H61.2V7.47h3.06V15h2.85Zm14.92,0H78.48l-2.15-4.05,0-.12-.09-.25,0-.32v4.74H73.12V7.47h3.06v5l0-.16a1.76,1.76,0,0,1,.15-.5L78.9,7.47H82l-3,4.9Zm6.73-4.46,0-.72a2.88,2.88,0,0,0-.37-1.59,1,1,0,0,0-.9-.58,1.08,1.08,0,0,0-.9.59,3.12,3.12,0,0,0-.37,1.66,3.22,3.22,0,0,0,.36,1.66,1,1,0,0,0,.91.61,1,1,0,0,0,.76-.42,2.46,2.46,0,0,0,.47-1.21m3-.64a6.29,6.29,0,0,1-.83,3.34,3.39,3.39,0,0,1-1.83,1.63,5.91,5.91,0,0,1-1.55.3,3.78,3.78,0,0,1-3-1.54,5.79,5.79,0,0,1-1.23-3.72,6.2,6.2,0,0,1,.85-3.27A3.47,3.47,0,0,1,86,7.56a6.4,6.4,0,0,1,1.6-.29,3.63,3.63,0,0,1,3,1.48,5.88,5.88,0,0,1,1.18,3.79M98,10.21a.74.74,0,0,0-.77-.69h-.53v2h.52a.75.75,0,0,0,.59-.26A1,1,0,0,0,98,10.9a1,1,0,0,0,.06-.37,2.14,2.14,0,0,0,0-.32m.32,4a.89.89,0,0,0-1-.74h-.67v2.13h.78a.89.89,0,0,0,.64-.27,1.07,1.07,0,0,0,.26-.75,2.24,2.24,0,0,0,0-.37m2.91,1.57a2.29,2.29,0,0,1-.87,1.35,2.64,2.64,0,0,1-1.66.5H93.6V7.47h4.76a2.8,2.8,0,0,1,.81.1A2.48,2.48,0,0,1,100,8a1.76,1.76,0,0,1,.61,1,4.21,4.21,0,0,1,.17,1.06,2.65,2.65,0,0,1,0,.59,2.87,2.87,0,0,1-.23.64,1.92,1.92,0,0,1-.61.69l-.1.05.1.07.2.13a2.6,2.6,0,0,1,1.3,2.44,4.36,4.36,0,0,1,0,.51,3.65,3.65,0,0,1-.12.57m7.93,1.85h-6V7.47h6V10h-2.9v1.28h2.59V13.7h-2.6v1.4h3Zm17-.93a.7.7,0,0,1,.64.35,4.06,4.06,0,0,0,3.68,1.74,3.85,3.85,0,0,0,3.79-3.22.79.79,0,0,1,.3-.56.68.68,0,0,1,.59-.12,4.5,4.5,0,0,0,1.36.14,3.77,3.77,0,0,0,3.81-3.64,3.57,3.57,0,0,0-3.06-3.14.7.7,0,0,1-.47-.33.76.76,0,0,1-.11-.6,2.69,2.69,0,0,0,0-.74,3.72,3.72,0,0,0-4.15-3.21,4.38,4.38,0,0,0-2.68,1.09.66.66,0,0,1-.57.18.74.74,0,0,1-.5-.34,4.09,4.09,0,0,0-3.69-1.78,3.91,3.91,0,0,0-3.76,3,.75.75,0,0,1-.35.53.64.64,0,0,1-.6.06,4.54,4.54,0,0,0-1.79-.27,3.76,3.76,0,0,0-3.8,3.64,3.59,3.59,0,0,0,3.29,3.18.72.72,0,0,1,.56.42.81.81,0,0,1,0,.74,3,3,0,0,0-.35,1.57,3.72,3.72,0,0,0,4.15,3.21A4.24,4.24,0,0,0,125.56,17a.71.71,0,0,1,.52-.29m4.4,3.65a5.52,5.52,0,0,1-4.39-1.7,5.63,5.63,0,0,1-3.6,1.51,5.22,5.22,0,0,1-5.69-4.69A4.78,4.78,0,0,1,117,14a5,5,0,0,1-3.65-4.45,5.25,5.25,0,0,1,5.18-5.28,5.82,5.82,0,0,1,1.61.14A5.46,5.46,0,0,1,125,1,5.57,5.57,0,0,1,129.5,2.8a5.7,5.7,0,0,1,2.93-1,5.22,5.22,0,0,1,5.69,4.69V6.9a5,5,0,0,1,3.58,4.42,5.25,5.25,0,0,1-5.18,5.28,6.06,6.06,0,0,1-1,0,5.43,5.43,0,0,1-5,3.8m112-.55h-4.74c-.82,0-2-.89-3.36-3.92s-2.69-3.52-3.84-3.93c0,0,1.06-.73.74-1.3a.89.89,0,0,0-1-.41l.57-1L230,9.19l.49-.57.66-.49a4.14,4.14,0,0,0-1.72-.24c-.49.16-.9,1.22-.9,1.22l-.33-.82a1.23,1.23,0,0,0-.81.17c-.41.24-.66,1.14-.66,1.14s0-.81-.49-.65-.16,1.55-.16,1.55a1.75,1.75,0,0,0-.65,1.15s-.82-1-2.05.57l2.46,1-1.56,1.07A2.2,2.2,0,0,0,226,14.1l-.57,1.15s1.39-.17,1.72-1.07c0,0-1.72,3.76.4,3.93s1.06-3.68,1.06-3.68.82,0,1,1.88-1.71,4.58-.41,7l.41-.74a3.51,3.51,0,0,0,1,2.62c1.07.81,3.65,2.36,3.19,3a6.76,6.76,0,0,0-1.14,3.44l-.65.16a2.29,2.29,0,0,0-2-.41l1,.82a10.27,10.27,0,0,0-1.63,1.39s3.43.24,4.09-.82a5.64,5.64,0,0,0,2.13,1.39l-.17.82s1.06-1.06.25-1.63S234,32.5,234,30.94c0,0,1.72,1.23,2.53,0,0,0-2,.08-1.88-.65s1-.74,1.31-.82.57-.82.57-.82,1.47.49,1.55.82a11.76,11.76,0,0,0,1.39,1.72h1.23l1.72-3,.57-.08a8,8,0,0,0,2.37,2l.25,1.31-.41.25a5.26,5.26,0,0,0-2.37.41l1.55.57-1.22,1.63s2.86-.89,3.67-2.12a5.06,5.06,0,0,0,2.54.41,7.4,7.4,0,0,0-1.64-1,3.1,3.1,0,0,1-1.3-1.15s2.2.08,2.45-1.39c0,0-1.85,1.78-4-1.16,0,0-.52-2.76,3-2.68,0,0,.32,1.31-.66,1.39,0,0,1.88.65,1.8-1.31a3.4,3.4,0,0,0,2-2s7.53-1.64,7-6.87-2.29-6.87-5.47-7.52-7.12-.41-8,3.26-.66,7.53-2,7.77" transform="translate(4 6)" style="fill:#871c21;fill-rule:evenodd"/></g><g style="mask:url(#mask)"><path d="M245.81,22s4.67-.9,3.19,2.54c0,0,0-1.88-3.19-2.54" transform="translate(4 6)" style="fill:#871c21;fill-rule:evenodd"/></g><g style="mask:url(#mask)"><path d="M245.07,19.66s.43-6,2.13-8.17c1.39-1.8,5.13-1.38,6.93-.24s3.29,4.49,2.15,6.12-1,1.91-4.09,3.6c0,0,3.63-2.45,3.39-4.5s-1.62-4.78-3.58-5-3.37-.42-4.35,1-2.58,7.25-2.58,7.25" transform="translate(4 6)" style="fill:#fefefe;fill-rule:evenodd"/></g><g style="mask:url(#mask)"><path d="M246.55,19.42a15.31,15.31,0,0,0,1.06-2.79c.08-.73,1.47-4.25,4.09-3.43s3,6.13-1.23,7.36a6.82,6.82,0,0,0,2.11-3.22c.27-1.4-.65-3.23-1.84-3.09-2.21.25-1.64,3.48-4.19,5.17" transform="translate(4 6)" style="fill:#fefefe;fill-rule:evenodd"/></g><g style="mask:url(#mask)"><path d="M250.67,18.21c-.23.5-.7.76-1,.61s-.42-.69-.18-1.19.7-.76,1-.6.42.68.18,1.18m-21.9-6.51a.76.76,0,1,1-.76-.76.76.76,0,0,1,.76.76" transform="translate(4 6)" style="fill:#fefefe;fill-rule:evenodd"/></g><g style="mask:url(#mask)"><path d="M238.77,50.17H241V1.48h-2.21Zm13.07-33.7L249.92,16l1.81-7,1.91.49Zm-3,1.12-4.42-2.37.94-1.74,4.42,2.37Zm2.78,1.08-.37-1.94,6-1.14.37,1.93Z" transform="translate(4 6)" style="fill:#871c21;fill-rule:evenodd"/></g><g style="mask:url(#mask)"><path d="M239.87,49.37c-6.36,0-11.61,3-12.44,6.82h24.89c-.84-3.85-6.08-6.82-12.45-6.82" transform="translate(4 6)" style="fill:#871c21;fill-rule:evenodd"/></g><g style="mask:url(#mask-8)"><path d="M243.11,51.52a1.24,1.24,0,0,1-1.36,1.08H238a1.24,1.24,0,0,1-1.36-1.08v-4.3A1.25,1.25,0,0,1,238,46.13h3.75a1.25,1.25,0,0,1,1.36,1.09v4.3Zm-218-26A5,5,0,0,0,21.69,21c0-.13,0-.25,0-.38,0-2.7-2.52-4.9-5.61-4.9a6.17,6.17,0,0,0-3.08.81,5.84,5.84,0,0,0-4.54-2,5.67,5.67,0,0,0-5.23,3.12,6.48,6.48,0,0,0-1.64-.22C-1.49,17.4-4,19.61-4,22.31a4.44,4.44,0,0,0,.85,2.56l1.51-.53a3,3,0,0,1-.86-2c0-1.86,1.84-3.37,4.11-3.37a4.81,4.81,0,0,1,1.83.36.75.75,0,0,0,.62,0,.76.76,0,0,0,.39-.5,4,4,0,0,1,4-2.74A4.29,4.29,0,0,1,12.19,18a.74.74,0,0,0,.5.37.73.73,0,0,0,.59-.14,4.63,4.63,0,0,1,2.82-.93c2.27,0,4.11,1.51,4.11,3.36a3,3,0,0,1-.1.72.75.75,0,0,0,.08.6.78.78,0,0,0,.48.35,3.56,3.56,0,0,1,3,3.23c0,1.86-1.85,3.37-4.11,3.37a4.7,4.7,0,0,1-1.4-.21.77.77,0,0,0-.37,0l1,1.68a6.83,6.83,0,0,0,.79.06c3.09,0,5.61-2.2,5.61-4.9m276.79,1.36a.75.75,0,0,1,.64.36,4.26,4.26,0,0,0,3.69,1.86c2.07,0,3.82-1.24,4.08-2.88a.74.74,0,0,1,.33-.52.76.76,0,0,1,.62-.09,4.79,4.79,0,0,0,1.4.2c2.26,0,4.11-1.47,4.11-3.28a3.5,3.5,0,0,0-3-3.15.81.81,0,0,1-.48-.35.78.78,0,0,1-.08-.58,2.47,2.47,0,0,0,.1-.7c0-1.81-1.84-3.29-4.11-3.29a4.63,4.63,0,0,0-2.81.91.76.76,0,0,1-1.06-.15.43.43,0,0,1,0-.07,4.32,4.32,0,0,0-3.71-1.88,4,4,0,0,0-4,2.67.74.74,0,0,1-.9.55l-.11,0a4.77,4.77,0,0,0-1.83-.35c-2.27,0-4.11,1.47-4.11,3.28a3.58,3.58,0,0,0,3.23,3.21.75.75,0,0,1,.61.87.88.88,0,0,1-.1.27,2.68,2.68,0,0,0-.45,1.48c0,1.81,1.84,3.28,4.11,3.28a4.48,4.48,0,0,0,3.32-1.37.77.77,0,0,1,.56-.25m4.33,3.72a6,6,0,0,1-4.43-1.85A6.13,6.13,0,0,1,298.06,30c-3.1,0-5.61-2.14-5.61-4.78a4,4,0,0,1,.24-1.38,4.89,4.89,0,0,1-3.53-4.45c0-2.64,2.52-4.78,5.61-4.78a6.55,6.55,0,0,1,1.65.21,5.67,5.67,0,0,1,5.22-3.05,5.93,5.93,0,0,1,4.55,2,6.35,6.35,0,0,1,3.07-.79c3.09,0,5.61,2.15,5.61,4.79,0,.12,0,.24,0,.36a4.86,4.86,0,0,1,3.46,4.42c0,2.64-2.52,4.78-5.61,4.78a6.35,6.35,0,0,1-1.07-.09,5.6,5.6,0,0,1-5.36,3.38M270.64,11.3a.76.76,0,0,1,.64.36A4.26,4.26,0,0,0,275,13.52c2.07,0,3.82-1.24,4.07-2.88a.76.76,0,0,1,1-.61,4.69,4.69,0,0,0,1.4.2c2.26,0,4.1-1.47,4.1-3.28a3.5,3.5,0,0,0-3-3.16.74.74,0,0,1-.47-.34.7.7,0,0,1-.08-.58,3,3,0,0,0,.1-.7c0-1.81-1.85-3.29-4.11-3.29a4.66,4.66,0,0,0-2.82.91.75.75,0,0,1-1.05-.15l0-.07a4.3,4.3,0,0,0-3.7-1.88,4,4,0,0,0-4,2.67.75.75,0,0,1-.9.55l-.11,0a4.67,4.67,0,0,0-1.84-.35c-2.26,0-4.1,1.47-4.1,3.28A3.58,3.58,0,0,0,262.59,7a.75.75,0,0,1,.61.87.9.9,0,0,1-.11.27,2.77,2.77,0,0,0-.45,1.48c0,1.81,1.85,3.28,4.11,3.28a4.5,4.5,0,0,0,3.33-1.37.75.75,0,0,1,.56-.25M275,15a6,6,0,0,1-4.43-1.85,6.16,6.16,0,0,1-3.79,1.25c-3.09,0-5.61-2.14-5.61-4.78a4.16,4.16,0,0,1,.25-1.39,4.86,4.86,0,0,1-3.53-4.44c0-2.64,2.51-4.78,5.6-4.78a6.49,6.49,0,0,1,1.65.21,5.68,5.68,0,0,1,5.23-3,5.9,5.9,0,0,1,4.54,2A6.36,6.36,0,0,1,278-2.62c3.09,0,5.61,2.15,5.61,4.79,0,.12,0,.24,0,.36A4.85,4.85,0,0,1,287,7c0,2.64-2.51,4.78-5.6,4.78a6.35,6.35,0,0,1-1.07-.09A5.6,5.6,0,0,1,275,15M197.75-2.38h-.06a.75.75,0,0,1-.58-.35,4.27,4.27,0,0,0-3.74-1.77c-2.06,0-3.79,1.33-4,3A.78.78,0,0,1,189-1a.77.77,0,0,1-.61.1A4.47,4.47,0,0,0,187-1.06C184.76-1,183,.51,183,2.32a3.51,3.51,0,0,0,3.06,3.08.75.75,0,0,1,.57.91,3.36,3.36,0,0,0-.08.71c0,1.81,1.92,3.24,4.18,3.19a4.7,4.7,0,0,0,2.8-1,.74.74,0,0,1,1.1.2,4.32,4.32,0,0,0,3.75,1.79,4,4,0,0,0,4-2.76.75.75,0,0,1,.37-.5.77.77,0,0,1,.63,0,4.78,4.78,0,0,0,1.84.3c2.26-.05,4.07-1.56,4-3.37a3.57,3.57,0,0,0-3.3-3.14.75.75,0,0,1-.63-.85.79.79,0,0,1,.1-.28,2.68,2.68,0,0,0,.41-1.49c0-1.8-1.92-3.23-4.18-3.18a4.48,4.48,0,0,0-3.29,1.45.78.78,0,0,1-.56.26M193.34-6a6,6,0,0,1,4.47,1.75,6.1,6.1,0,0,1,3.76-1.34c3.09-.07,5.65,2,5.71,4.65a3.88,3.88,0,0,1-.21,1.39,4.88,4.88,0,0,1,3.63,4.36c.07,2.64-2.4,4.84-5.49,4.91a6.13,6.13,0,0,1-1.65-.17,5.67,5.67,0,0,1-5.16,3.17,5.93,5.93,0,0,1-4.58-1.87,6.44,6.44,0,0,1-3.06.86c-3.09.07-5.66-2-5.72-4.66,0-.12,0-.24,0-.36a4.87,4.87,0,0,1-3.56-4.34c-.06-2.64,2.41-4.84,5.5-4.91a6.34,6.34,0,0,1,1.07.06A5.61,5.61,0,0,1,193.34-6" transform="translate(4 6)" style="fill:#871c21;fill-rule:evenodd"/></g><g style="mask:url(#mask)"><path d="M235.67,43.7c-.59.07-1.17.12-1.75.17l1.22-2.58c.35-.35,2.22-4.86,2.22-4.86l-1.73.74c-2.75,1.3-17.11,6.24-17.8,6.06l-1.82-.5-1.07-.24-.78-.18L213.07,42l-.69-.17-1.23-.34-.52-.14c-.55-.16-1.11-.33-1.66-.51l-.68-.22-.94-.31-.76-.27-.81-.28-.69-.26-.82-.31L203.6,39l-.76-.3-.66-.28-.71-.31-1.9-.84-3.38-1.68-.87-.47-5-3.41a13,13,0,0,0,4.39,8.4l3.87,13.75,34.3.36L238,43.42l-2.34.28Z" transform="translate(4 6)" style="fill:#fefefe;fill-rule:evenodd"/></g><g style="mask:url(#mask)"><path d="M232.18,44.4l1.72-3.62s2.44-2.19,3.52-3.3a132.37,132.37,0,0,1-18.06,6.25,59.34,59.34,0,0,0,9.58.76q1.62,0,3.24-.09" transform="translate(4 6)" style="fill:#871c21;fill-rule:evenodd"/></g><g style="mask:url(#mask)"><path d="M233.11,45.21l-.33,0-.52,0-.5,0h-.21l-.59,0-2,0h-.41c-.59,0-1.18,0-1.77,0l-.76,0-1.36-.07-.85-.07L222.56,45l-.87-.1-1.17-.14-.88-.13-.19,0-.94-.14-.11,0-.75-.13-.32-.06-.78-.15-.83-.16-1.09-.24-.8-.18-1.11-.28-.71-.18-1.25-.34-.53-.15c-.56-.16-1.13-.33-1.69-.51l-.55-.18-1.11-.37-.68-.23-.91-.33-.7-.26-.83-.32-.69-.27-.78-.31-.66-.28-.74-.31-.63-.28-.69-.31-.6-.28-.66-.31-.55-.26-.64-.32-.49-.24-.69-.36c-.14-.07-.28-.14-.41-.22l-.9-.47-.37-.21-.51-.28-.38-.22-.41-.24-.35-.2-.37-.22-.29-.18-.32-.19-.25-.16-.26-.17-.21-.12-.22-.15-.15-.09-.16-.12-.1-.06-.11-.08-.06,0-.05,0a53.07,53.07,0,0,0,5.72,6.14l3.81,14.21,9.76.06h.5l6.38,0,12.45.08h3.09l4.07-9c-.7.08-1.41.15-2.12.21l-.61,0" transform="translate(4 6)" style="fill:#871c21;fill-rule:evenodd"/></g><g style="mask:url(#mask)"><path d="M188.77,52.46c-.27-1.82-.59-3.62-1-5.42h0l-.15-.67-.09-.42h0l0-.19c-.51-2.27-1-4.25-1.5-6l-.5-1.92-.15-.59a42.75,42.75,0,0,1-1.27-7.3l0-.46,0-.52c0-.72-.05-1.45-.05-2.17a31.1,31.1,0,0,1,.39-5.08l.09-.52.1-.44a13.34,13.34,0,0,1,1.36-3.95l.17-.26V12.65h-4.53V6.43h-4.05v6.23H173v3.88l.17.26a13.71,13.71,0,0,1,1.36,3.95l.11.51.07.45a30.16,30.16,0,0,1,.4,5.08c0,.71,0,1.42-.06,2.17l0,.55,0,.43a42.81,42.81,0,0,1-1.28,7.31l-.1.41-.54,2.08c-.47,1.76-1,3.75-1.5,6l0,.19h0l-.09.43-.15.66h0c-.37,1.8-.69,3.6-1,5.42l-.18.37H189l-.18-.37Z" transform="translate(4 6)" style="fill:#fefefe;fill-rule:evenodd"/></g><g style="mask:url(#mask)"><path d="M183.37,21.54h-7.63a31.78,31.78,0,0,1,.41,5.25c0,.78,0,1.51-.06,2.22H183Q183,27.9,183,26.79a31.78,31.78,0,0,1,.41-5.25m-8.65,16h9.67A43.52,43.52,0,0,1,183.08,30H176a43.53,43.53,0,0,1-1.3,7.47m-3.35,15.12h16.38c-.29-1.88-.62-3.75-1-5.61H172.37c-.39,1.85-.73,3.73-1,5.61M172.59,46h13.93c-.64-2.89-1.3-5.26-1.87-7.47H174.46c-.58,2.22-1.24,4.58-1.87,7.47m12.48-29.77V13.7H174v2.52a13.64,13.64,0,0,1,1.51,4.31h8a13.81,13.81,0,0,1,1.51-4.3" transform="translate(4 6)" style="fill:#871c21;fill-rule:evenodd"/></g><g style="mask:url(#mask)"><path d="M178.56,17.67h2V7.48h-2Z" transform="translate(4 6)" style="fill:#871c21;fill-rule:evenodd"/></g><g style="mask:url(#mask-15)"><path d="M336.19,52.43C334.93,50.94,305,15.8,278.76,15.8c-28,0-32.44,36.86-32.48,37.24l-.15.25h91.63Z" transform="translate(4 6)" style="fill:#fefefe;fill-rule:evenodd"/></g><g style="mask:url(#mask-16)"><path d="M335.33,53.16S304.8,16.93,278.76,16.93c-27.33,0-31.37,36.23-31.37,36.23Z" transform="translate(4 6)" style="fill:#871c21;fill-rule:evenodd"/></g><g style="mask:url(#mask-17)"><path d="M275.92,40.46h3.17v-3h-3.17Zm-19.15,0h3.17v-3h-3.17Zm14.36,0h3.17v-3h-3.17Zm-4.78,0h3.17v-3h-3.17Zm-4.79,0h3.17v-3h-3.17Zm14.36-4.6h3.17v-3h-3.17Zm-19.15,0h3.17v-3h-3.17Zm14.36,0h3.17v-3h-3.17Zm-4.78,0h3.17v-3h-3.17Zm-4.79,0h3.17v-3h-3.17Zm14.36-4.59h3.17v-3h-3.17Zm-4.79,0h3.17v-3h-3.17Zm-4.78,0h3.17v-3h-3.17Zm-4.79,0h3.17v-3h-3.17Zm14.36-4.59h3.17v-3h-3.17Zm-4.79,0h3.17v-3h-3.17Zm-4.78,0h3.17v-3h-3.17ZM308,40.46h3.17v-3H308Zm-19.15,0H292v-3h-3.17Zm-4.78,0h3.17v-3h-3.17Zm19.14,0h3.17v-3h-3.17Zm-4.79,0h3.17v-3h-3.17Zm-4.78,0h3.17v-3h-3.17Zm-41.5,6.45h26.95V45.22H252.14Zm31.93,0H311V45.22H284.07Zm22.49,5.94h21.2V49.79h-21.2Zm-13.64,0h9.77V49.79h-9.77Zm-14.94,0h6.09V49.79H278Zm10.87-17H292v-3h-3.17Zm-4.78,0h3.17v-3h-3.17Zm19.14,0h3.17v-3h-3.17Zm-4.79,0h3.17v-3h-3.17Zm-4.78,0h3.17v-3h-3.17Zm-4.79-4.59H292v-3h-3.17Zm-4.78,0h3.17v-3h-3.17Zm14.35,0h3.17v-3h-3.17Zm-4.78,0h3.17v-3h-3.17Zm-4.79-4.59H292v-3h-3.17Zm-4.78,0h3.17v-3h-3.17Zm-139,4.08c-12.88-4-31.38-6.78-31.56-6.81a.81.81,0,0,0-.16,0V22.35a.89.89,0,0,0-.94-.83h-1.3a.89.89,0,0,0-.94.83v.31H105.8a1.14,1.14,0,0,0-.33.06.87.87,0,0,0-.54-.52c-6-2.23-17.67-3.62-30.48-3.62S50,20,44,22.2a.85.85,0,0,0-.53.53,1.3,1.3,0,0,0-.33-.07H38.7v-.31a.89.89,0,0,0-.94-.83H36.47a.89.89,0,0,0-.94.83V24a.92.92,0,0,0-.16,0c-.19,0-18.68,2.84-31.57,6.81a.84.84,0,0,0-.63.8c0,.58.31.67,1.57,1.06l2.48.78v3a.8.8,0,0,0,.42.69l.81.51a.7.7,0,0,0-.19.58l1.88,15.15a.92.92,0,0,0,.94.74H15.7a.89.89,0,0,0,.43-.11,1,1,0,0,0,.44.11h19A1,1,0,0,0,36,53.9a.92.92,0,0,0,.47.13h1.29a.92.92,0,0,0,.47-.13,1,1,0,0,0,.47.13h4.4a1,1,0,0,0,.61-.21,1,1,0,0,0,.62.21h60.24a1,1,0,0,0,.61-.21,1,1,0,0,0,.62.21h4.39a.92.92,0,0,0,.47-.13,1,1,0,0,0,.47.13h1.3a.91.91,0,0,1,.94,0h18.95a.9.9,0,0,0,.44-.11.93.93,0,0,0,.44.11h4.62a.9.9,0,0,0,.93-.74l1.89-15.15a.77.77,0,0,0-.19-.58l.81-.51a.81.81,0,0,0,.41-.69v-3l2.49-.78c1.26-.39,1.56-.48,1.56-1.07a.82.82,0,0,0-.63-.79" transform="translate(4 6)" style="fill:#fefefe;fill-rule:evenodd"/></g><g style="mask:url(#mask)"><path d="M105.8,53.2h4.39V23.49H105.8Zm7.57-28.43s18.45,2.78,31.42,6.77c.1,0-19.45,5.65-31.42,12.12V24.76Zm0,28.43h18.95V44H113.37Zm10.68-9.81h8.1a57.46,57.46,0,0,1,8.58-7V34.57s-11.5,5-16.68,8.81m15.65-5.33a29,29,0,0,0-6.5,5.73V53.2h4.62Z" transform="translate(4 6)" style="fill:#871c21;fill-rule:evenodd"/></g><g style="mask:url(#mask)"><path d="M139.44,36.08h1.29v-4h-1.29Zm-5.23,3h1.3V32.64h-1.3ZM129,40.91h1.29V34.43H129Zm-5.23,3.44h1.3V37.87h-1.3Zm-5.22.13h1.29V38h-1.29Zm-7.41,8.72h1.3V22.35h-1.3Zm-72.43,0h4.4V23.49H38.7ZM35.53,24.77S17.07,27.55,4.11,31.54c-.1,0,19.44,5.65,31.42,12.12V24.77Zm-19,28.43h19V44h-19Zm8.28-9.81h-8.1a57.19,57.19,0,0,0-8.59-7V34.57s11.5,5,16.69,8.81M9.19,38.05a29.18,29.18,0,0,1,6.51,5.73V53.2H11.08Z" transform="translate(4 6)" style="fill:#871c21;fill-rule:evenodd"/></g><g style="mask:url(#mask)"><path d="M8.16,36.08h1.3v-4H8.16Zm5.23,3h1.29V32.64H13.39Zm5.22,1.79h1.3V34.43h-1.3Zm5.23,3.44h1.3V37.87h-1.3Zm5.22.13h1.3V38h-1.3Zm7.41,8.72h1.29V22.35H36.47ZM74.45,21c13.09,0,24.45,1.44,30.12,3.55V23c-5.67-2.11-17-3.55-30.12-3.55S50,20.85,44.33,23v1.58C50,22.43,61.36,21,74.45,21" transform="translate(4 6)" style="fill:#871c21;fill-rule:evenodd"/></g><g style="mask:url(#mask)"><path d="M74.45,27.56c13.1,0,24.45,1.45,30.12,3.57V25.72c-5.67-2.11-17-3.55-30.12-3.55S50,23.61,44.33,25.72v5.41c5.66-2.12,17-3.57,30.12-3.57" transform="translate(4 6)" style="fill:#871c21;fill-rule:evenodd"/></g><g style="mask:url(#mask)"><path d="M74.45,30C61.34,30,50,31.47,44.33,33.59v1.58a34,34,0,0,1,4.2-1.23c6.23-1.43,15.53-2.34,25.92-2.34s19.69.91,25.92,2.34a36.59,36.59,0,0,1,4.2,1.22V33.59C98.9,31.47,87.55,30,74.45,30" transform="translate(4 6)" style="fill:#871c21;fill-rule:evenodd"/></g><g style="mask:url(#mask)"><path d="M100.37,35.13c-6.23-1.43-15.53-2.34-25.92-2.34s-19.69.91-25.92,2.34a36,36,0,0,0-4.2,1.22v1.58a32.47,32.47,0,0,1,4.2-1.22,79.28,79.28,0,0,1,8.67-1.42,151.52,151.52,0,0,1,17.25-.92,151.52,151.52,0,0,1,17.25.92,79.69,79.69,0,0,1,8.67,1.42,33,33,0,0,1,4.2,1.22V36.35a36.59,36.59,0,0,0-4.2-1.22" transform="translate(4 6)" style="fill:#871c21;fill-rule:evenodd"/></g><g style="mask:url(#mask)"><path d="M44.33,40.1h60.24V37.88H44.33Zm0,4.91h60.24V42H44.33Zm0,8.19h60.24V47H44.33Z" transform="translate(4 6)" style="fill:#871c21;fill-rule:evenodd"/></g><g style="mask:url(#mask)"><path d="M52.76,49.93H54V39.49H52.76Zm-8.43,0h1.26V39.49H44.33Zm16.85,0h1.26V39.49H61.18Zm8.43,0h1.25V39.49H69.61Zm8.42,0h1.26V39.49H78Zm8.43,0h1.26V39.49H86.46Zm8.42,0h1.26V39.49H94.88Zm8.43,0h1.25V39.49h-1.25ZM74.45,35.48a120.29,120.29,0,0,0-28.2,3h56.4a120.29,120.29,0,0,0-28.2-3" transform="translate(4 6)" style="fill:#871c21;fill-rule:evenodd"/></g><g style="mask:url(#mask)"><path d="M171.35,14.63a66,66,0,0,1-6-2.78l-.41-.21-.57-.29c-2.08-1.09-4.67-2.44-7.18-2.44s-5.1,1.35-7.18,2.44l-.57.29-.41.21a66,66,0,0,1-6,2.78l-.71.26,0,.77c0,.58.55,14.22,1.65,18.51a20.13,20.13,0,0,0,7,11c.25.2.53.42.84.64a19.93,19.93,0,0,0,5,2.61l.34.11.34-.11a19.93,19.93,0,0,0,5-2.61c.29-.21.57-.42.84-.64a20.2,20.2,0,0,0,7-11c1.1-4.29,1.62-17.93,1.64-18.51l0-.77-.71-.26Z" transform="translate(4 6)" style="fill:#fefefe;fill-rule:evenodd"/></g><g style="mask:url(#mask)"><path d="M152,43.87a18.51,18.51,0,0,1-6.44-10.13C144.59,30,144.06,18.4,144,16c1.69-.66,3.76-1.69,5.76-2.69l1-.52c1.94-1,4.34-2.26,6.47-2.26s4.54,1.25,6.48,2.26l1,.52c2,1,4.06,2,5.76,2.69-.1,2.37-.63,14-1.57,17.71A18.43,18.43,0,0,1,157.19,46.8,18.57,18.57,0,0,1,152,43.88ZM157.4,48a19.38,19.38,0,0,0,5.7-3.16A19.7,19.7,0,0,0,170,34.05c1.09-4.24,1.61-17.83,1.63-18.4l0-.44-.4-.15c-1.71-.62-4-1.78-6-2.79l-1-.51c-2.05-1.07-4.59-2.39-7-2.39s-4.95,1.32-7,2.39l-1,.51c-2,1-4.34,2.17-6,2.79l-.4.15,0,.44c0,.57.54,14.16,1.63,18.4a19.7,19.7,0,0,0,6.85,10.77A19.38,19.38,0,0,0,157,48l.2.08h0Z" transform="translate(4 6)" style="fill:#871c21;fill-rule:evenodd"/></g><g style="mask:url(#mask)"><path d="M151.93,24.89l.89,4h.29l2.1-4h-.92l-1,2-.44-2Zm5.45,0h-2v.87h.56l-.33,2.16H155v.88h2v-.88h-.57l.33-2.16h.6Zm1,.26a1.31,1.31,0,0,0-.51.86h0a1.05,1.05,0,0,0,0,.5.87.87,0,0,0,.22.35,2,2,0,0,0,.66.38c.34.14.5.23.5.38a0,0,0,0,1,0,0h0c0,.22-.33.33-.54.33a.94.94,0,0,1-.39-.08,2.18,2.18,0,0,1-.43-.22l-.14-.09-.23.79.07.05a1.6,1.6,0,0,0,.46.32,1.38,1.38,0,0,0,.55.1,1.65,1.65,0,0,0,1-.31,1.43,1.43,0,0,0,.57-1.12.83.83,0,0,0-.27-.63,2.36,2.36,0,0,0-.65-.38,1.64,1.64,0,0,1-.4-.21c-.09-.07-.11-.12-.11-.17a0,0,0,0,1,0,0,.29.29,0,0,1,.14-.2.66.66,0,0,1,.36-.11.87.87,0,0,1,.36.09,1.94,1.94,0,0,1,.33.2l.12.09.38-.7-.08-.07a1.85,1.85,0,0,0-.48-.35,1.31,1.31,0,0,0-.56-.12,1.67,1.67,0,0,0-.49.08,1.7,1.7,0,0,0-.44.24" transform="translate(4 6)" style="fill:#871c21;fill-rule:evenodd"/></g><g style="mask:url(#mask)"><path d="M160.15,27.6h0Zm1.2-2.45a1.35,1.35,0,0,0-.52,1.06,1,1,0,0,0,0,.3.87.87,0,0,0,.22.35,2.1,2.1,0,0,0,.66.38c.34.14.5.23.5.38a0,0,0,0,1,0,0h0c0,.22-.33.33-.54.33a.94.94,0,0,1-.39-.08,2.49,2.49,0,0,1-.43-.22l-.14-.09-.22.79.06.05a1.49,1.49,0,0,0,.46.31,1.26,1.26,0,0,0,.55.11,1.63,1.63,0,0,0,1-.31,1.44,1.44,0,0,0,.57-1.12.78.78,0,0,0-.27-.63,2.36,2.36,0,0,0-.65-.38,2.12,2.12,0,0,1-.4-.21c-.08-.07-.1-.12-.1-.17v0a.32.32,0,0,1,.14-.2.69.69,0,0,1,.36-.11.83.83,0,0,1,.36.09,2.49,2.49,0,0,1,.34.2l.12.09.37-.7-.08-.07a1.85,1.85,0,0,0-.48-.35,1.3,1.3,0,0,0-.55-.12,1.53,1.53,0,0,0-.94.32m1.77,2.45ZM160.84,26Zm2.77,2.78h2.1v-.87h-1.13l.13-.82h1.2v-.87h-1.07l.07-.47h1.19v-.87h-2v.73Zm2.87,0h2v-.87h-1l.46-3H167v.73Zm-17.82-1.33-3.26-4.84,3.26,7.8,3.27-7.8ZM145,16.7c.05,1.12.14,3,.27,5.14h2V15.67c-.77.37-1.54.73-2.25,1m1.1,14.5a22.42,22.42,0,0,0,.41,2.29,23.56,23.56,0,0,0,.74,2.29V31.2Zm5.1-17.49-1,.52c-.31.15-.64.31-1,.48v7.13h2.52V13.42l-.55.29m-2,17.49v8.3a17.56,17.56,0,0,0,2.52,2.86V31.2Zm4.5,0V43.91a17.55,17.55,0,0,0,2.52,1.42V31.2Zm0-18.73v9.37h2.52V11.64a12.13,12.13,0,0,0-2.52.82m4.5-.82v10.2h2.52V12.46a11.92,11.92,0,0,0-2.52-.82m0,19.56V45.33a17.56,17.56,0,0,0,2.52-1.41V31.2Zm6.06-17-1-.51-.56-.3v8.43h2.51V14.7l-.95-.48m.95,25.3V31.2h-2.51V42.37a16.54,16.54,0,0,0,2.51-2.85m2.74-6a20.18,20.18,0,0,0,.41-2.3h-1.17v4.62a19.08,19.08,0,0,0,.76-2.32m-.76-17.82v6.17h2c.13-2.14.22-4,.27-5.14-.76-.33-1.52-.67-2.27-1" transform="translate(4 6)" style="fill:#871c21;fill-rule:evenodd"/></g><path d="M.29,57.07H312.11V55.66H.29ZM.29,1.8H312.11V.38H.29Z" transform="translate(4 6)" style="fill:#231916;fill-rule:evenodd"/><path d="M.29,6.05H312.11V.38H.29Zm0,51H312.11V51.41H.29Z" transform="translate(4 6)" style="fill:#231916;fill-rule:evenodd"/><path d="M.29,57.07H6V.38H.29Zm306.15,0h5.67V.38h-5.67Z" transform="translate(4 6)" style="fill:#fefefe;fill-rule:evenodd"/><path d="M306.44,57.08h5.67V.38h-5.67Z" transform="translate(4 6)" style="fill:#231916;fill-rule:evenodd"/><path d="M307.23,41l4.08.54V43c-.62.14-1.34.26-2.14.37.35,0,1.06.16,2.14.33v1.5l-4.08.53V44.57l1.43-.13,1.37-.12c-.71,0-1.64-.16-2.8-.34V42.73l1.35-.13,1.55-.13c-1-.07-1.94-.18-2.9-.34Zm0-.67v-2h.82v.81h.77v-.76h.78v.76h.9V38.2h.81v2.09Zm2.63-5.79c-.47.06-1,.12-1.72.18.78.13,1.36.2,1.72.23Zm-2.63-.64,4.08-.69V34.4l-.73.07v.43l.73.07v1.25l-4.08-.62V33.86Zm.7-2.53h.91a.65.65,0,0,0,0-.29c0-.05-.14-.08-.32-.08h-.22A.33.33,0,0,0,308,31a.5.5,0,0,0-.06.29Zm-.69,1.2v-.85a7.6,7.6,0,0,1,.05-1.16.85.85,0,0,1,.3-.49,1.26,1.26,0,0,1,.76-.19A1.06,1.06,0,0,1,309,30a.77.77,0,0,1,.2.53,1,1,0,0,1,.2-.48.63.63,0,0,1,.24-.16,3.5,3.5,0,0,1,.61,0h1.07V31H310a.86.86,0,0,0-.41.06c-.05,0-.07.14-.07.31h1.83v1.2h-4.07Zm0-3.59v-2h.82v.8h.77V27h.78v.75h.9v-.88h.81v2.09Zm0-7.22,1.85.69,2.23-.75V22.9l-1.75.49h1.75v1.2h-4.08v-1.2h1.59l-1.59-.54Zm1-2.15a.9.9,0,0,0-.36,0c-.06,0-.08.07-.08.14a.18.18,0,0,0,.06.15.89.89,0,0,0,.38.05h1.91a1.73,1.73,0,0,0,.43,0,.16.16,0,0,0,.09-.16.14.14,0,0,0-.1-.15,1.37,1.37,0,0,0-.45,0Zm1.34-1.2a8.56,8.56,0,0,1,.87,0,.87.87,0,0,1,.47.21,1.11,1.11,0,0,1,.33.47,2,2,0,0,1,.11.68,2,2,0,0,1-.11.67,1,1,0,0,1-.32.47.9.9,0,0,1-.46.22,6.62,6.62,0,0,1-.89,0h-.69a8.56,8.56,0,0,1-.87,0,.81.81,0,0,1-.47-.21,1.09,1.09,0,0,1-.33-.46,1.82,1.82,0,0,1-.11-.69,1.78,1.78,0,0,1,.11-.67,1,1,0,0,1,.32-.47.9.9,0,0,1,.46-.22,8.8,8.8,0,0,1,.88,0Zm-.14-2.09h1.14a.67.67,0,0,0-.07-.33.45.45,0,0,0-.31-.07h-.38c-.18,0-.28,0-.32.06A.61.61,0,0,0,309.48,16.28Zm-1.55,0h.91v-.12c0-.12,0-.2-.08-.23a1.16,1.16,0,0,0-.44,0,.84.84,0,0,0-.27,0,.22.22,0,0,0-.1.11,1.14,1.14,0,0,0,0,.25Zm-.69,1.2v-1.2a3.72,3.72,0,0,1,.07-.86.88.88,0,0,1,.32-.48,1.28,1.28,0,0,1,.77-.18.76.76,0,0,1,.49.13.86.86,0,0,1,.22.5.92.92,0,0,1,.28-.56,1,1,0,0,1,.59-.15h.38a1.23,1.23,0,0,1,.61.11.55.55,0,0,1,.27.34,3.87,3.87,0,0,1,.07,1v1.39h-4.07Zm0-3.67v-2h.82v.8h.77v-.75h.78v.75h.9v-.88h.81v2.09Z" transform="translate(4 6)" style="fill:#fefefe;fill-rule:evenodd"/><g style="mask:url(#mask-30)"><path d="M.3,57.07H6V.38H.3Z" transform="translate(4 6)" style="fill:#231916;fill-rule:evenodd"/></g><g style="mask:url(#mask-30)"><path d="M5.17,16.49,1.09,16V14.45c.63-.13,1.34-.26,2.14-.36l-2.14-.34V12.26l4.08-.54v1.17L3.75,13l-1.38.12c.71,0,1.64.16,2.8.33v1.25l-1.35.13L2.27,15c1,.06,1.94.18,2.9.33Zm0,.68v2H4.35v-.81H3.58v.76H2.8v-.76H1.91v.89H1.09V17.17ZM2.55,23q.86-.11,1.71-.18c-.57-.09-1.14-.17-1.71-.23V23Zm2.62.64-4.08.69V23.05L1.82,23v-.43l-.73-.08V21.24l4.08.61v1.74Zm-.7,2.54H3.56a.6.6,0,0,0,0,.28c0,.06.14.09.32.09h.23a.31.31,0,0,0,.25-.08A.52.52,0,0,0,4.47,26.13Zm.7-1.2v.85a7,7,0,0,1-.06,1.15.78.78,0,0,1-.29.49,1.22,1.22,0,0,1-.76.19,1,1,0,0,1-.64-.13.75.75,0,0,1-.2-.53.9.9,0,0,1-.21.48.61.61,0,0,1-.24.15,3.42,3.42,0,0,1-.61,0H1.09V26.49H2.45a.85.85,0,0,0,.4,0s.08-.14.08-.31H1.09v-1.2Zm0,3.59v2H4.35v-.81H3.58v.75H2.8v-.75H1.91v.89H1.09V28.52Zm0,7.21L3.33,35l-2.24.76V34.55l1.75-.48H1.09V32.86H5.17v1.21H3.58l1.59.53Zm-1,2.15a1.27,1.27,0,0,0,.36,0,.14.14,0,0,0,.08-.15.17.17,0,0,0-.06-.14s-.17-.05-.38-.05H2.22a1.78,1.78,0,0,0-.44,0,.14.14,0,0,0-.09.15c0,.09,0,.14.1.16a2.06,2.06,0,0,0,.46,0ZM2.78,39.09a8.56,8.56,0,0,1-.87,0,1,1,0,0,1-.47-.21,1,1,0,0,1-.32-.47,2,2,0,0,1,0-1.35,1.1,1.1,0,0,1,.32-.48.88.88,0,0,1,.47-.21,8.51,8.51,0,0,1,.88,0h.7a7.82,7.82,0,0,1,.87,0,.94.94,0,0,1,.47.2,1.07,1.07,0,0,1,.32.47,1.81,1.81,0,0,1,.12.69,1.94,1.94,0,0,1-.11.66,1.23,1.23,0,0,1-.32.48,1,1,0,0,1-.47.21,8.64,8.64,0,0,1-.88,0Zm.15,2.09H1.79a.5.5,0,0,0,.07.33.49.49,0,0,0,.31.06h.38a.53.53,0,0,0,.32-.06.77.77,0,0,0,.06-.33Zm1.54,0H3.56v.12c0,.12,0,.19.07.23a1.16,1.16,0,0,0,.44,0,.62.62,0,0,0,.27,0,.17.17,0,0,0,.1-.1A1.21,1.21,0,0,0,4.47,41.18Zm.7-1.2v1.2a3.67,3.67,0,0,1-.08.86.82.82,0,0,1-.32.47,1.27,1.27,0,0,1-.76.18.78.78,0,0,1-.5-.12.93.93,0,0,1-.22-.51,1,1,0,0,1-.27.57,1,1,0,0,1-.6.15H2.05a1.4,1.4,0,0,1-.62-.11.55.55,0,0,1-.27-.34,4,4,0,0,1-.07-1V40Zm0,3.67v2H4.35v-.81H3.58v.75H2.8v-.75H1.91v.89H1.09V43.65Z" transform="translate(4 6)" style="fill:#fefefe;fill-rule:evenodd"/></g><g style="mask:url(#mask-30)"><path d="M.3,57.07H312.11V55.66H.3ZM.3,1.8H312.11V.38H.3Z" transform="translate(4 6)" style="fill:#871c21;fill-rule:evenodd"/></g></svg>