<svg id="レイヤー_1" data-name="レイヤー 1" xmlns="http://www.w3.org/2000/svg" viewBox="0 0 185 185"><title>qr</title><path d="M0,0H185V185H0Z" style="fill:#fff"/><path id="a" d="M10,10h5v5H10Z"/><path d="M15,10h5v5H15Z"/><path d="M20,10h5v5H20Z"/><path d="M25,10h5v5H25Z"/><path d="M30,10h5v5H30Z"/><path d="M35,10h5v5H35Z"/><path d="M40,10h5v5H40Z"/><path d="M55,10h5v5H55Z"/><path d="M60,10h5v5H60Z"/><path d="M65,10h5v5H65Z"/><path d="M85,10h5v5H85Z"/><path d="M90,10h5v5H90Z"/><path d="M125,10h5v5h-5Z"/><path d="M140,10h5v5h-5Z"/><path d="M145,10h5v5h-5Z"/><path d="M150,10h5v5h-5Z"/><path d="M155,10h5v5h-5Z"/><path d="M160,10h5v5h-5Z"/><path d="M165,10h5v5h-5Z"/><path d="M170,10h5v5h-5Z"/><path d="M10,15h5v5H10Z"/><path d="M40,15h5v5H40Z"/><path d="M55,15h5v5H55Z"/><path d="M60,15h5v5H60Z"/><path d="M65,15h5v5H65Z"/><path d="M75,15h5v5H75Z"/><path d="M100,15h5v5h-5Z"/><path d="M105,15h5v5h-5Z"/><path d="M120,15h5v5h-5Z"/><path d="M130,15h5v5h-5Z"/><path d="M140,15h5v5h-5Z"/><path d="M170,15h5v5h-5Z"/><path d="M10,20h5v5H10Z"/><path d="M20,20h5v5H20Z"/><path d="M25,20h5v5H25Z"/><path d="M30,20h5v5H30Z"/><path d="M40,20h5v5H40Z"/><path d="M50,20h5v5H50Z"/><path d="M55,20h5v5H55Z"/><path d="M75,20h5v5H75Z"/><path d="M80,20h5v5H80Z"/><path d="M85,20h5v5H85Z"/><path d="M95,20h5v5H95Z"/><path d="M100,20h5v5h-5Z"/><path d="M105,20h5v5h-5Z"/><path d="M110,20h5v5h-5Z"/><path d="M115,20h5v5h-5Z"/><path d="M120,20h5v5h-5Z"/><path d="M130,20h5v5h-5Z"/><path d="M140,20h5v5h-5Z"/><path d="M150,20h5v5h-5Z"/><path d="M155,20h5v5h-5Z"/><path d="M160,20h5v5h-5Z"/><path d="M170,20h5v5h-5Z"/><path d="M10,25h5v5H10Z"/><path d="M20,25h5v5H20Z"/><path d="M25,25h5v5H25Z"/><path d="M30,25h5v5H30Z"/><path d="M40,25h5v5H40Z"/><path d="M65,25h5v5H65Z"/><path d="M85,25h5v5H85Z"/><path d="M95,25h5v5H95Z"/><path d="M105,25h5v5h-5Z"/><path d="M115,25h5v5h-5Z"/><path d="M120,25h5v5h-5Z"/><path d="M140,25h5v5h-5Z"/><path d="M150,25h5v5h-5Z"/><path d="M155,25h5v5h-5Z"/><path d="M160,25h5v5h-5Z"/><path d="M170,25h5v5h-5Z"/><path d="M10,30h5v5H10Z"/><path d="M20,30h5v5H20Z"/><path d="M25,30h5v5H25Z"/><path d="M30,30h5v5H30Z"/><path d="M40,30h5v5H40Z"/><path d="M50,30h5v5H50Z"/><path d="M55,30h5v5H55Z"/><path d="M60,30h5v5H60Z"/><path d="M65,30h5v5H65Z"/><path d="M70,30h5v5H70Z"/><path d="M90,30h5v5H90Z"/><path d="M105,30h5v5h-5Z"/><path d="M115,30h5v5h-5Z"/><path d="M125,30h5v5h-5Z"/><path d="M140,30h5v5h-5Z"/><path d="M150,30h5v5h-5Z"/><path d="M155,30h5v5h-5Z"/><path d="M160,30h5v5h-5Z"/><path d="M170,30h5v5h-5Z"/><path d="M10,35h5v5H10Z"/><path d="M40,35h5v5H40Z"/><path d="M50,35h5v5H50Z"/><path d="M60,35h5v5H60Z"/><path d="M65,35h5v5H65Z"/><path d="M70,35h5v5H70Z"/><path d="M80,35h5v5H80Z"/><path d="M90,35h5v5H90Z"/><path d="M100,35h5v5h-5Z"/><path d="M110,35h5v5h-5Z"/><path d="M120,35h5v5h-5Z"/><path d="M130,35h5v5h-5Z"/><path d="M140,35h5v5h-5Z"/><path d="M170,35h5v5h-5Z"/><path d="M10,40h5v5H10Z"/><path d="M15,40h5v5H15Z"/><path d="M20,40h5v5H20Z"/><path d="M25,40h5v5H25Z"/><path d="M30,40h5v5H30Z"/><path d="M35,40h5v5H35Z"/><path d="M40,40h5v5H40Z"/><path d="M50,40h5v5H50Z"/><path d="M60,40h5v5H60Z"/><path d="M70,40h5v5H70Z"/><path d="M80,40h5v5H80Z"/><path d="M90,40h5v5H90Z"/><path d="M100,40h5v5h-5Z"/><path d="M110,40h5v5h-5Z"/><path d="M120,40h5v5h-5Z"/><path d="M130,40h5v5h-5Z"/><path d="M140,40h5v5h-5Z"/><path d="M145,40h5v5h-5Z"/><path d="M150,40h5v5h-5Z"/><path d="M155,40h5v5h-5Z"/><path d="M160,40h5v5h-5Z"/><path d="M165,40h5v5h-5Z"/><path d="M170,40h5v5h-5Z"/><path d="M55,45h5v5H55Z"/><path d="M65,45h5v5H65Z"/><path d="M75,45h5v5H75Z"/><path d="M85,45h5v5H85Z"/><path d="M90,45h5v5H90Z"/><path d="M95,45h5v5H95Z"/><path d="M105,45h5v5h-5Z"/><path d="M110,45h5v5h-5Z"/><path d="M115,45h5v5h-5Z"/><path d="M15,50h5v5H15Z"/><path d="M30,50h5v5H30Z"/><path d="M40,50h5v5H40Z"/><path d="M50,50h5v5H50Z"/><path d="M55,50h5v5H55Z"/><path d="M65,50h5v5H65Z"/><path d="M95,50h5v5H95Z"/><path d="M100,50h5v5h-5Z"/><path d="M110,50h5v5h-5Z"/><path d="M115,50h5v5h-5Z"/><path d="M120,50h5v5h-5Z"/><path d="M130,50h5v5h-5Z"/><path d="M135,50h5v5h-5Z"/><path d="M145,50h5v5h-5Z"/><path d="M150,50h5v5h-5Z"/><path d="M160,50h5v5h-5Z"/><path d="M15,55h5v5H15Z"/><path d="M20,55h5v5H20Z"/><path d="M25,55h5v5H25Z"/><path d="M35,55h5v5H35Z"/><path d="M45,55h5v5H45Z"/><path d="M50,55h5v5H50Z"/><path d="M60,55h5v5H60Z"/><path d="M65,55h5v5H65Z"/><path d="M75,55h5v5H75Z"/><path d="M90,55h5v5H90Z"/><path d="M95,55h5v5H95Z"/><path d="M100,55h5v5h-5Z"/><path d="M110,55h5v5h-5Z"/><path d="M115,55h5v5h-5Z"/><path d="M125,55h5v5h-5Z"/><path d="M130,55h5v5h-5Z"/><path d="M135,55h5v5h-5Z"/><path d="M155,55h5v5h-5Z"/><path d="M160,55h5v5h-5Z"/><path d="M10,60h5v5H10Z"/><path d="M20,60h5v5H20Z"/><path d="M30,60h5v5H30Z"/><path d="M35,60h5v5H35Z"/><path d="M40,60h5v5H40Z"/><path d="M45,60h5v5H45Z"/><path d="M70,60h5v5H70Z"/><path d="M80,60h5v5H80Z"/><path d="M85,60h5v5H85Z"/><path d="M100,60h5v5h-5Z"/><path d="M110,60h5v5h-5Z"/><path d="M125,60h5v5h-5Z"/><path d="M130,60h5v5h-5Z"/><path d="M135,60h5v5h-5Z"/><path d="M155,60h5v5h-5Z"/><path d="M20,65h5v5H20Z"/><path d="M45,65h5v5H45Z"/><path d="M50,65h5v5H50Z"/><path d="M65,65h5v5H65Z"/><path d="M70,65h5v5H70Z"/><path d="M75,65h5v5H75Z"/><path d="M80,65h5v5H80Z"/><path d="M120,65h5v5h-5Z"/><path d="M125,65h5v5h-5Z"/><path d="M130,65h5v5h-5Z"/><path d="M25,70h5v5H25Z"/><path d="M30,70h5v5H30Z"/><path d="M40,70h5v5H40Z"/><path d="M50,70h5v5H50Z"/><path d="M60,70h5v5H60Z"/><path d="M70,70h5v5H70Z"/><path d="M75,70h5v5H75Z"/><path d="M90,70h5v5H90Z"/><path d="M120,70h5v5h-5Z"/><path d="M140,70h5v5h-5Z"/><path d="M145,70h5v5h-5Z"/><path d="M150,70h5v5h-5Z"/><path d="M155,70h5v5h-5Z"/><path d="M170,70h5v5h-5Z"/><path d="M15,75h5v5H15Z"/><path d="M35,75h5v5H35Z"/><path d="M50,75h5v5H50Z"/><path d="M70,75h5v5H70Z"/><path d="M85,75h5v5H85Z"/><path d="M90,75h5v5H90Z"/><path d="M100,75h5v5h-5Z"/><path d="M105,75h5v5h-5Z"/><path d="M110,75h5v5h-5Z"/><path d="M125,75h5v5h-5Z"/><path d="M135,75h5v5h-5Z"/><path d="M145,75h5v5h-5Z"/><path d="M160,75h5v5h-5Z"/><path d="M10,80h5v5H10Z"/><path d="M20,80h5v5H20Z"/><path d="M25,80h5v5H25Z"/><path d="M30,80h5v5H30Z"/><path d="M40,80h5v5H40Z"/><path d="M45,80h5v5H45Z"/><path d="M50,80h5v5H50Z"/><path d="M60,80h5v5H60Z"/><path d="M70,80h5v5H70Z"/><path d="M75,80h5v5H75Z"/><path d="M80,80h5v5H80Z"/><path d="M85,80h5v5H85Z"/><path d="M95,80h5v5H95Z"/><path d="M100,80h5v5h-5Z"/><path d="M110,80h5v5h-5Z"/><path d="M115,80h5v5h-5Z"/><path d="M125,80h5v5h-5Z"/><path d="M130,80h5v5h-5Z"/><path d="M135,80h5v5h-5Z"/><path d="M140,80h5v5h-5Z"/><path d="M150,80h5v5h-5Z"/><path d="M155,80h5v5h-5Z"/><path d="M165,80h5v5h-5Z"/><path d="M15,85h5v5H15Z"/><path d="M20,85h5v5H20Z"/><path d="M45,85h5v5H45Z"/><path d="M55,85h5v5H55Z"/><path d="M60,85h5v5H60Z"/><path d="M65,85h5v5H65Z"/><path d="M85,85h5v5H85Z"/><path d="M90,85h5v5H90Z"/><path d="M95,85h5v5H95Z"/><path d="M100,85h5v5h-5Z"/><path d="M115,85h5v5h-5Z"/><path d="M125,85h5v5h-5Z"/><path d="M135,85h5v5h-5Z"/><path d="M140,85h5v5h-5Z"/><path d="M150,85h5v5h-5Z"/><path d="M10,90h5v5H10Z"/><path d="M15,90h5v5H15Z"/><path d="M25,90h5v5H25Z"/><path d="M40,90h5v5H40Z"/><path d="M65,90h5v5H65Z"/><path d="M75,90h5v5H75Z"/><path d="M80,90h5v5H80Z"/><path d="M85,90h5v5H85Z"/><path d="M95,90h5v5H95Z"/><path d="M100,90h5v5h-5Z"/><path d="M105,90h5v5h-5Z"/><path d="M110,90h5v5h-5Z"/><path d="M115,90h5v5h-5Z"/><path d="M130,90h5v5h-5Z"/><path d="M140,90h5v5h-5Z"/><path d="M150,90h5v5h-5Z"/><path d="M155,90h5v5h-5Z"/><path d="M165,90h5v5h-5Z"/><path d="M15,95h5v5H15Z"/><path d="M20,95h5v5H20Z"/><path d="M25,95h5v5H25Z"/><path d="M45,95h5v5H45Z"/><path d="M50,95h5v5H50Z"/><path d="M55,95h5v5H55Z"/><path d="M60,95h5v5H60Z"/><path d="M65,95h5v5H65Z"/><path d="M85,95h5v5H85Z"/><path d="M95,95h5v5H95Z"/><path d="M100,95h5v5h-5Z"/><path d="M125,95h5v5h-5Z"/><path d="M135,95h5v5h-5Z"/><path d="M155,95h5v5h-5Z"/><path d="M160,95h5v5h-5Z"/><path d="M10,100h5v5H10Z"/><path d="M15,100h5v5H15Z"/><path d="M20,100h5v5H20Z"/><path d="M25,100h5v5H25Z"/><path d="M30,100h5v5H30Z"/><path d="M35,100h5v5H35Z"/><path d="M40,100h5v5H40Z"/><path d="M50,100h5v5H50Z"/><path d="M55,100h5v5H55Z"/><path d="M60,100h5v5H60Z"/><path d="M65,100h5v5H65Z"/><path d="M75,100h5v5H75Z"/><path d="M85,100h5v5H85Z"/><path d="M90,100h5v5H90Z"/><path d="M100,100h5v5h-5Z"/><path d="M115,100h5v5h-5Z"/><path d="M120,100h5v5h-5Z"/><path d="M125,100h5v5h-5Z"/><path d="M135,100h5v5h-5Z"/><path d="M145,100h5v5h-5Z"/><path d="M155,100h5v5h-5Z"/><path d="M20,105h5v5H20Z"/><path d="M65,105h5v5H65Z"/><path d="M70,105h5v5H70Z"/><path d="M85,105h5v5H85Z"/><path d="M90,105h5v5H90Z"/><path d="M110,105h5v5h-5Z"/><path d="M115,105h5v5h-5Z"/><path d="M130,105h5v5h-5Z"/><path d="M135,105h5v5h-5Z"/><path d="M145,105h5v5h-5Z"/><path d="M165,105h5v5h-5Z"/><path d="M20,110h5v5H20Z"/><path d="M40,110h5v5H40Z"/><path d="M50,110h5v5H50Z"/><path d="M55,110h5v5H55Z"/><path d="M65,110h5v5H65Z"/><path d="M75,110h5v5H75Z"/><path d="M80,110h5v5H80Z"/><path d="M85,110h5v5H85Z"/><path d="M90,110h5v5H90Z"/><path d="M100,110h5v5h-5Z"/><path d="M105,110h5v5h-5Z"/><path d="M110,110h5v5h-5Z"/><path d="M125,110h5v5h-5Z"/><path d="M130,110h5v5h-5Z"/><path d="M140,110h5v5h-5Z"/><path d="M145,110h5v5h-5Z"/><path d="M150,110h5v5h-5Z"/><path d="M155,110h5v5h-5Z"/><path d="M170,110h5v5h-5Z"/><path d="M10,115h5v5H10Z"/><path d="M15,115h5v5H15Z"/><path d="M35,115h5v5H35Z"/><path d="M45,115h5v5H45Z"/><path d="M50,115h5v5H50Z"/><path d="M65,115h5v5H65Z"/><path d="M80,115h5v5H80Z"/><path d="M100,115h5v5h-5Z"/><path d="M105,115h5v5h-5Z"/><path d="M115,115h5v5h-5Z"/><path d="M120,115h5v5h-5Z"/><path d="M125,115h5v5h-5Z"/><path d="M135,115h5v5h-5Z"/><path d="M145,115h5v5h-5Z"/><path d="M160,115h5v5h-5Z"/><path d="M165,115h5v5h-5Z"/><path d="M20,120h5v5H20Z"/><path d="M30,120h5v5H30Z"/><path d="M35,120h5v5H35Z"/><path d="M40,120h5v5H40Z"/><path d="M45,120h5v5H45Z"/><path d="M50,120h5v5H50Z"/><path d="M65,120h5v5H65Z"/><path d="M75,120h5v5H75Z"/><path d="M80,120h5v5H80Z"/><path d="M90,120h5v5H90Z"/><path d="M100,120h5v5h-5Z"/><path d="M105,120h5v5h-5Z"/><path d="M125,120h5v5h-5Z"/><path d="M130,120h5v5h-5Z"/><path d="M135,120h5v5h-5Z"/><path d="M140,120h5v5h-5Z"/><path d="M155,120h5v5h-5Z"/><path d="M160,120h5v5h-5Z"/><path d="M165,120h5v5h-5Z"/><path d="M30,125h5v5H30Z"/><path d="M50,125h5v5H50Z"/><path d="M55,125h5v5H55Z"/><path d="M60,125h5v5H60Z"/><path d="M75,125h5v5H75Z"/><path d="M80,125h5v5H80Z"/><path d="M90,125h5v5H90Z"/><path d="M95,125h5v5H95Z"/><path d="M100,125h5v5h-5Z"/><path d="M105,125h5v5h-5Z"/><path d="M110,125h5v5h-5Z"/><path d="M115,125h5v5h-5Z"/><path d="M145,125h5v5h-5Z"/><path d="M165,125h5v5h-5Z"/><path d="M10,130h5v5H10Z"/><path d="M15,130h5v5H15Z"/><path d="M20,130h5v5H20Z"/><path d="M25,130h5v5H25Z"/><path d="M40,130h5v5H40Z"/><path d="M50,130h5v5H50Z"/><path d="M55,130h5v5H55Z"/><path d="M70,130h5v5H70Z"/><path d="M80,130h5v5H80Z"/><path d="M85,130h5v5H85Z"/><path d="M90,130h5v5H90Z"/><path d="M100,130h5v5h-5Z"/><path d="M120,130h5v5h-5Z"/><path d="M130,130h5v5h-5Z"/><path d="M135,130h5v5h-5Z"/><path d="M140,130h5v5h-5Z"/><path d="M145,130h5v5h-5Z"/><path d="M150,130h5v5h-5Z"/><path d="M170,130h5v5h-5Z"/><path d="M50,135h5v5H50Z"/><path d="M60,135h5v5H60Z"/><path d="M75,135h5v5H75Z"/><path d="M85,135h5v5H85Z"/><path d="M90,135h5v5H90Z"/><path d="M115,135h5v5h-5Z"/><path d="M120,135h5v5h-5Z"/><path d="M130,135h5v5h-5Z"/><path d="M150,135h5v5h-5Z"/><path d="M160,135h5v5h-5Z"/><path d="M165,135h5v5h-5Z"/><path d="M10,140h5v5H10Z"/><path d="M15,140h5v5H15Z"/><path d="M20,140h5v5H20Z"/><path d="M25,140h5v5H25Z"/><path d="M30,140h5v5H30Z"/><path d="M35,140h5v5H35Z"/><path d="M40,140h5v5H40Z"/><path d="M55,140h5v5H55Z"/><path d="M80,140h5v5H80Z"/><path d="M85,140h5v5H85Z"/><path d="M90,140h5v5H90Z"/><path d="M110,140h5v5h-5Z"/><path d="M130,140h5v5h-5Z"/><path d="M140,140h5v5h-5Z"/><path d="M150,140h5v5h-5Z"/><path d="M155,140h5v5h-5Z"/><path d="M10,145h5v5H10Z"/><path d="M40,145h5v5H40Z"/><path d="M55,145h5v5H55Z"/><path d="M60,145h5v5H60Z"/><path d="M65,145h5v5H65Z"/><path d="M75,145h5v5H75Z"/><path d="M85,145h5v5H85Z"/><path d="M105,145h5v5h-5Z"/><path d="M110,145h5v5h-5Z"/><path d="M120,145h5v5h-5Z"/><path d="M130,145h5v5h-5Z"/><path d="M150,145h5v5h-5Z"/><path d="M165,145h5v5h-5Z"/><path d="M170,145h5v5h-5Z"/><path d="M10,150h5v5H10Z"/><path d="M20,150h5v5H20Z"/><path d="M25,150h5v5H25Z"/><path d="M30,150h5v5H30Z"/><path d="M40,150h5v5H40Z"/><path d="M50,150h5v5H50Z"/><path d="M55,150h5v5H55Z"/><path d="M60,150h5v5H60Z"/><path d="M70,150h5v5H70Z"/><path d="M75,150h5v5H75Z"/><path d="M80,150h5v5H80Z"/><path d="M90,150h5v5H90Z"/><path d="M100,150h5v5h-5Z"/><path d="M120,150h5v5h-5Z"/><path d="M130,150h5v5h-5Z"/><path d="M135,150h5v5h-5Z"/><path d="M140,150h5v5h-5Z"/><path d="M145,150h5v5h-5Z"/><path d="M150,150h5v5h-5Z"/><path d="M155,150h5v5h-5Z"/><path d="M10,155h5v5H10Z"/><path d="M20,155h5v5H20Z"/><path d="M25,155h5v5H25Z"/><path d="M30,155h5v5H30Z"/><path d="M40,155h5v5H40Z"/><path d="M55,155h5v5H55Z"/><path d="M65,155h5v5H65Z"/><path d="M70,155h5v5H70Z"/><path d="M80,155h5v5H80Z"/><path d="M85,155h5v5H85Z"/><path d="M90,155h5v5H90Z"/><path d="M95,155h5v5H95Z"/><path d="M105,155h5v5h-5Z"/><path d="M110,155h5v5h-5Z"/><path d="M125,155h5v5h-5Z"/><path d="M130,155h5v5h-5Z"/><path d="M140,155h5v5h-5Z"/><path d="M145,155h5v5h-5Z"/><path d="M150,155h5v5h-5Z"/><path d="M160,155h5v5h-5Z"/><path d="M165,155h5v5h-5Z"/><path d="M10,160h5v5H10Z"/><path d="M20,160h5v5H20Z"/><path d="M25,160h5v5H25Z"/><path d="M30,160h5v5H30Z"/><path d="M40,160h5v5H40Z"/><path d="M55,160h5v5H55Z"/><path d="M60,160h5v5H60Z"/><path d="M65,160h5v5H65Z"/><path d="M70,160h5v5H70Z"/><path d="M75,160h5v5H75Z"/><path d="M90,160h5v5H90Z"/><path d="M100,160h5v5h-5Z"/><path d="M110,160h5v5h-5Z"/><path d="M120,160h5v5h-5Z"/><path d="M125,160h5v5h-5Z"/><path d="M130,160h5v5h-5Z"/><path d="M140,160h5v5h-5Z"/><path d="M145,160h5v5h-5Z"/><path d="M150,160h5v5h-5Z"/><path d="M10,165h5v5H10Z"/><path d="M40,165h5v5H40Z"/><path d="M50,165h5v5H50Z"/><path d="M55,165h5v5H55Z"/><path d="M70,165h5v5H70Z"/><path d="M75,165h5v5H75Z"/><path d="M80,165h5v5H80Z"/><path d="M95,165h5v5H95Z"/><path d="M115,165h5v5h-5Z"/><path d="M120,165h5v5h-5Z"/><path d="M125,165h5v5h-5Z"/><path d="M130,165h5v5h-5Z"/><path d="M135,165h5v5h-5Z"/><path d="M140,165h5v5h-5Z"/><path d="M10,170h5v5H10Z"/><path d="M15,170h5v5H15Z"/><path d="M20,170h5v5H20Z"/><path d="M25,170h5v5H25Z"/><path d="M30,170h5v5H30Z"/><path d="M35,170h5v5H35Z"/><path d="M40,170h5v5H40Z"/><path d="M55,170h5v5H55Z"/><path d="M75,170h5v5H75Z"/><path d="M80,170h5v5H80Z"/><path d="M90,170h5v5H90Z"/><path d="M95,170h5v5H95Z"/><path d="M105,170h5v5h-5Z"/><path d="M110,170h5v5h-5Z"/><path d="M115,170h5v5h-5Z"/><path d="M125,170h5v5h-5Z"/><path d="M130,170h5v5h-5Z"/><path d="M135,170h5v5h-5Z"/><path d="M170,170h5v5h-5Z"/></svg>