<svg width="365" height="200" viewBox="0 0 365 200" fill="none" xmlns="http://www.w3.org/2000/svg">
<g clip-path="url(#clip0)">
<path d="M61.2655 177.829L43.2418 162.7H169.713L61.2655 177.829Z" fill="#BF0000"/>
<path d="M81.8314 151.36V117.824H96.347L121.489 151.36H147.215L116.71 110.908C123.168 106.338 128.004 99.8298 130.517 92.3265C133.029 84.8232 133.087 76.7146 130.682 69.1762C128.277 61.6377 123.535 55.0611 117.142 50.3995C110.749 45.7378 103.038 43.2335 95.1268 43.2494H61.291V151.36H81.8314ZM81.8314 63.7681H95.2285C99.562 63.9369 103.662 65.7775 106.668 68.9037C109.674 72.0299 111.354 76.199 111.354 80.5365C111.354 84.8741 109.674 89.0431 106.668 92.1694C103.662 95.2956 99.562 97.1361 95.2285 97.3049H81.8314V63.7681Z" fill="#BF0000"/>
<path d="M223.174 135.037C213.895 147.75 203.447 153.445 189.745 153.445C166.129 153.445 149.071 135.444 149.071 110.374C149.071 85.8378 165.646 67.1498 187.05 67.1498C208.455 67.1498 225.055 86.3463 225.055 110.12C225.059 112.127 224.923 114.132 224.649 116.12H170.755C172.052 127.74 179.5 134.91 190.203 134.91C196.075 134.91 201.414 131.655 206.116 125.375L223.174 135.037ZM203.066 99.2627C201.108 89.4737 195.617 84.3885 187.279 84.3885C178.941 84.3885 173.297 89.8805 171.213 99.2627H203.066Z" fill="#333333"/>
<path d="M297.608 151.36L275.695 115.078L253.68 151.36H229.529L261.789 99.4152L231.106 48.5634H254.468L275.618 84.4648L296.896 48.6143H320.258L289.575 99.466L321.809 151.411L297.608 151.36Z" fill="#333333"/>
</g>
<defs>
<clipPath id="clip0">
<rect width="365" height="200" fill="white"/>
</clipPath>
</defs>
</svg>
