<svg width="197" height="233" viewBox="0 0 197 233" fill="none" xmlns="http://www.w3.org/2000/svg">
<path d="M144.877 185.298C144.01 184.589 143.658 183.557 143.819 182.217C143.979 180.876 144.686 179.453 145.935 177.952C146.549 177.213 147.324 176.626 148.2 176.235C149.076 175.845 150.03 175.663 150.988 175.701C151.747 175.759 152.459 176.095 152.987 176.646C153.69 177.203 153.967 178.191 153.811 179.61C153.596 181.077 152.939 182.444 151.929 183.527C150.921 184.656 149.616 185.478 148.165 185.899C146.833 186.208 145.736 186.012 144.877 185.298Z" fill="#2B2B2B"/>
<path d="M191.934 172.703C195.311 169.465 197 167.654 197 167.271C197 166.798 195.981 166.562 193.942 166.562C191.8 166.574 189.667 166.853 187.593 167.393C185.398 167.866 183.987 168.458 183.36 169.169C182.433 170.268 181.565 171.416 180.758 172.607C179.74 174.11 178.368 176.164 176.642 178.77C174.916 181.376 173.47 183.552 172.305 185.298C170.834 185.488 169.383 185.806 167.968 186.247C166.298 186.599 164.781 187.469 163.631 188.732C162.689 189.842 162.295 190.787 162.451 191.579C162.643 192.289 163.006 192.941 163.509 193.476C164.058 193.952 165.07 193.912 166.545 193.355C165.565 194.565 157.385 202.29 155.347 203.931C153.308 205.572 144.317 213.288 142.409 214.49C138.726 216.857 136.061 218.042 134.416 218.045C132.852 218.045 132.068 217.018 132.065 214.964C132.062 212.91 133.119 209.344 135.236 204.266C137.43 199.13 140.134 194.903 143.346 191.583C143.58 191.265 143.463 190.991 142.995 190.752C142.309 190.386 141.535 190.222 140.761 190.278C139.819 190.278 138.564 190.674 136.997 191.466C135.51 192.252 132.651 194.74 128.418 198.93C126.601 200.758 122.78 204.527 118.182 208.405C112.279 213.406 107.977 217.419 104.304 218.241C101.402 218.885 98.583 218.563 94.5061 216.191C90.9484 214.18 87.8327 211.468 85.3462 208.218C86.7341 208.728 88.2057 208.971 89.6833 208.932C91.4181 208.932 93.964 208.536 97.3209 207.743C100.61 206.95 103.722 205.543 106.494 203.596C111.12 200.114 113.433 196.4 113.433 192.454C113.433 190.243 112.375 188.663 110.258 187.714C109.028 187.215 107.708 186.974 106.381 187.005C104.889 187.005 103.047 187.399 100.856 188.188C95.0526 190.562 89.4144 195.422 83.941 202.769C88.3286 195.626 93.1172 188.74 98.2837 182.143C107.613 170.057 112.479 164.15 120.238 158.828C122.97 156.947 126.149 155.811 127.637 155.811C129.125 155.811 130.448 157.074 130.448 158.423C130.448 162.114 129.146 163.855 127.589 166.209C125.139 169.896 122.281 172.355 117.788 175.223C112.991 178.269 111.716 179.048 108.116 180.707C107.176 181.101 106.784 181.576 106.941 182.13C107.097 182.604 107.647 182.644 108.584 182.247C112.427 180.589 113.949 179.566 118.603 176.455C124.731 172.355 132.482 167.027 132.915 157.605C133.197 151.041 128.726 149 124.341 149C119.011 149 113.724 152.686 109.825 156.194C96.9523 167.776 86.8599 182.626 79.0314 200.153C75.4288 204.575 73.1157 207.26 72.0921 208.209C71.0715 209.08 70.5221 209.87 70.444 210.581C70.6002 211.53 72.6386 210.028 76.5593 206.076C73.8703 212.799 72.5258 218.452 72.5258 223.033C72.5197 223.987 72.5981 224.94 72.76 225.88C73.0752 228.407 74.4862 230.738 76.993 232.874C77.1007 232.937 77.2203 232.977 77.3443 232.991C77.4267 232.991 77.5438 232.913 77.7 232.752C77.8561 232.674 77.817 232.478 77.5828 232.16C76.5651 230.976 76.0548 228.606 76.0519 225.048C76.049 221.491 77.1072 217.107 79.2266 211.896C80.8747 215.134 84.1998 217.938 89.2019 220.309C92.4937 221.967 95.4343 222.833 98.0192 222.798C101.831 222.746 103.853 222.137 105.509 221.519C111.72 219.19 120.928 209.332 122.658 207.591C123.066 207.182 125.061 205.023 125.924 204.314C124.497 205.944 123.239 207.716 122.168 209.602C121.168 211.267 120.667 213.518 120.667 216.352C120.667 217.855 121.334 219.239 122.667 220.504C124.078 221.767 126.193 222.398 129.012 222.398C131.285 222.398 134.185 221.45 137.712 219.556C140.989 217.8 144.094 215.741 146.989 213.406C149.114 211.665 157.723 204.244 157.723 204.244C156.234 207.955 155.49 211.156 155.49 213.845C155.49 219.454 158.115 222.258 163.366 222.258C167.209 222.258 171.401 220.599 175.943 217.279C180.57 213.885 186.251 208.631 192.988 201.52C193.619 200.962 193.815 200.449 193.578 199.979C193.339 199.504 192.832 199.7 192.047 200.571C187.374 205.218 182.386 209.534 177.119 213.489C172.735 216.88 169.328 218.575 166.896 218.572C164.621 218.572 163.483 217.189 163.483 214.424C163.541 213.121 163.82 211.838 164.307 210.629C165.955 205.406 169.953 198.691 176.299 190.482C178.048 190.183 179.817 190.025 181.59 190.008C185.193 190.008 187.818 190.838 189.466 192.497C190.013 193.05 190.486 193.167 190.876 192.854C191.344 192.538 191.266 191.825 190.642 190.717C188.994 188.187 185.505 186.488 180.176 185.621C183.861 181.105 187.786 176.793 191.934 172.703ZM83.3425 205.019C85.0773 202.886 87.7417 200.16 91.3357 196.841C95.0194 193.524 98.3445 191.865 101.311 191.862C103.896 191.862 105.197 193.244 105.214 196.01C105.214 198.383 103.913 200.559 101.311 202.538C98.9563 204.358 96.2858 205.725 93.4349 206.568C90.6881 207.282 88.6901 207.638 87.441 207.635C86.3277 207.652 85.2305 207.366 84.2663 206.808C83.9153 206.235 83.6065 205.637 83.3425 205.019Z" fill="black"/>
<path d="M13.0265 233L4 225.413H67.3214L13.0265 233Z" fill="#BF0000"/>
<path d="M23.3055 219.71V202.885H30.5892L43.1827 219.71H56.0485L40.8274 199.419C44.0304 197.116 46.4226 193.854 47.6605 190.102C48.8984 186.351 48.9184 182.302 47.7176 178.539C46.5167 174.775 44.1569 171.49 40.9768 169.154C37.7967 166.818 33.96 165.553 30.0174 165.539H13.0265V219.71H23.3055ZM23.3055 175.773H30.0174C31.1188 175.773 32.2093 175.99 33.2268 176.412C34.2443 176.835 35.1689 177.454 35.9476 178.234C36.7264 179.015 37.3442 179.942 37.7656 180.961C38.1871 181.981 38.404 183.074 38.404 184.178C38.404 185.282 38.1871 186.375 37.7656 187.395C37.3442 188.414 36.7264 189.341 35.9476 190.121C35.1689 190.902 34.2443 191.521 33.2268 191.943C32.2093 192.366 31.1188 192.583 30.0174 192.583H23.3055V175.773Z" fill="#BF0000"/>
<path d="M113 127.211L102.402 117L113 106.789L111.137 105L100.5 115.211L89.9022 105L88 106.826L98.6366 117L88 127.211L89.9022 129L100.5 118.789L111.137 129L113 127.211Z" fill="black"/>
<path d="M30.8845 88.9146L21.7986 81.3501H85.554L30.8845 88.9146Z" fill="#BF0000"/>
<path d="M41.252 75.6801V58.9121H48.5695L61.2438 75.6801H74.2125L58.8346 55.4541C62.0902 53.1691 64.5281 49.915 65.7949 46.1633C67.0612 42.4117 67.0905 38.3574 65.8781 34.5882C64.6657 30.8189 62.2752 27.5306 59.0524 25.1998C55.8296 22.869 51.9425 21.6168 47.9544 21.6248H30.8974V75.6801H41.252ZM41.252 31.8841H48.0056C50.1902 31.9685 52.257 32.8888 53.7724 34.4519C55.2877 36.015 56.1346 38.0996 56.1346 40.2683C56.1346 42.4371 55.2877 44.5216 53.7724 46.0848C52.257 47.6479 50.1902 48.5681 48.0056 48.6525H41.252V31.8841Z" fill="#BF0000"/>
<path d="M112.504 67.5186C107.827 73.8751 102.56 76.7226 95.6523 76.7226C83.7472 76.7226 75.1481 67.7221 75.1481 55.1871C75.1481 42.919 83.5038 33.575 94.2937 33.575C105.084 33.575 113.452 43.1732 113.452 55.0601C113.454 56.0636 113.386 57.0661 113.248 58.0601H86.0792C86.7331 63.8701 90.4877 67.4551 95.8832 67.4551C98.8433 67.4551 101.535 65.8276 103.905 62.6876L112.504 67.5186ZM102.368 49.6314C101.38 44.7369 98.6124 42.1943 94.4092 42.1943C90.2059 42.1943 87.3607 44.9403 86.3101 49.6314H102.368Z" fill="#333333"/>
<path d="M150.027 75.68L138.981 57.539L127.883 75.68H115.708L131.97 49.7076L116.503 24.2817H128.28L138.942 42.2324L149.668 24.3072H161.445L145.978 49.733L162.227 75.7055L150.027 75.68Z" fill="#333333"/>
</svg>
