<svg id="レイヤー_1" data-name="レイヤー 1" xmlns="http://www.w3.org/2000/svg" viewBox="0 0 96.6 72"><title>ico_netcashing</title><rect x="9" y="9.01" width="59.63" height="39.33" rx="2" ry="2" style="fill:#6791b1"/><path d="M75.13,14H6.5A4.49,4.49,0,0,0,2,18.5V66.88a4.5,4.5,0,0,0,4.5,4.5H38v7.87H17.75a3.38,3.38,0,0,0,0,6.75H65a3.38,3.38,0,1,0,0-6.75H44.75V71.38H75.13a4.51,4.51,0,0,0,4.5-4.5V18.5A4.5,4.5,0,0,0,75.13,14ZM72.88,64.63H8.75V20.75H72.88Z" transform="translate(-2 -14)" style="fill:#4d4d4d"/><path d="M76.14,72a2.08,2.08,0,0,1-.5-.07L54.5,66.4A2,2,0,0,1,53.07,64L61,33.76a2,2,0,0,1,1.93-1.5,2.24,2.24,0,0,1,.51.07l21.13,5.51a2,2,0,0,1,1.22.93A2,2,0,0,1,86,40.28L78.08,70.49A2,2,0,0,1,76.14,72Z" transform="translate(-2 -14)" style="fill:#f5f4f4"/><path d="M62.89,34.26,84,39.78,76.14,70,55,64.47l7.88-30.21m0-4a4,4,0,0,0-3.87,3L51.14,63.46A4,4,0,0,0,54,68.34l21.13,5.51a3.94,3.94,0,0,0,1,.13A4,4,0,0,0,80,71l7.88-30.2A4,4,0,0,0,85,35.91L63.9,30.39a4.44,4.44,0,0,0-1-.13Z" transform="translate(-2 -14)" style="fill:#4d4d4d"/><rect x="61.6" y="39.17" width="16.82" height="21.88" rx="2" ry="2" transform="matrix(0.97, 0.25, -0.25, 0.97, 12.92, -30.05)" style="fill:#6791b1"/><rect x="64.36" y="62.47" width="3.93" height="3.93" rx="1.58" ry="1.58" transform="translate(16.42 -28.66) rotate(14.62)" style="fill:#4d4d4d"/><path d="M81.5,82.13a14.24,14.24,0,0,0-10-5c-4.14-.29-6-2.75-5.87-4.91S67.5,68,71.18,68a11.16,11.16,0,0,1,3.07.46,4.1,4.1,0,0,0,1.14.19h.19a1.28,1.28,0,0,0-.07-.21C73.7,64,71,57.66,70.68,56.85a5.58,5.58,0,0,1-.59-4.14,4,4,0,0,1,2.43-2.46,4.37,4.37,0,0,1,1.7-.36A4.84,4.84,0,0,1,78.4,53l1.82,4.32a5.47,5.47,0,0,1,2.36-.56,5.32,5.32,0,0,1,3.84,1.74,6,6,0,0,1,1.7-.26,5.18,5.18,0,0,1,4.66,3.06A5.42,5.42,0,0,1,96,63.34c1.31,1.78,1.51,4.34.58,7.61l0,.08,0,.08a14.89,14.89,0,0,1-2,3.39c-1,1.33-1.11,1.61-.89,2.15L94.13,78l-11.93,5Z" transform="translate(-2 -14)" style="fill:#fff"/><path d="M74.22,51.39c1.89,0,2.79,2.17,2.79,2.17l2.54,6a4.73,4.73,0,0,1,3-1.34,4.27,4.27,0,0,1,3.41,2,4.6,4.6,0,0,1,2.13-.56c1.2,0,2.66.58,3.64,2.92,0,0,5.53.14,3.33,7.89-1.35,3.3-3.9,4.37-2.92,6.69l-9.47,4a15.76,15.76,0,0,0-11.06-5.55c-6-.43-5.76-6.15-.46-6.15a9.94,9.94,0,0,1,2.67.4,5.57,5.57,0,0,0,1.54.25c1.46,0,2.09-.86,1.51-2.29C75,63.15,72,56.19,72,56.19s-2-3.29,1.06-4.56a3,3,0,0,1,1.13-.24m0-3a6,6,0,0,0-2.28.47,5.5,5.5,0,0,0-3.28,3.38,6.94,6.94,0,0,0,.67,5.27c.37.89,2.22,5.28,3.84,9.19a12.54,12.54,0,0,0-2-.17c-4.47,0-6.91,2.86-7,5.68s2.13,6.09,7.26,6.46A12.87,12.87,0,0,1,80.29,83l1.41,1.89L83.87,84l9.47-4,2.76-1.17L95,76.27c.15-.24.41-.59.62-.87a16.16,16.16,0,0,0,2.22-3.73l.07-.15,0-.16c1.06-3.74.79-6.73-.81-8.91A6.79,6.79,0,0,0,93.77,60a6.59,6.59,0,0,0-5.65-3.29,7.42,7.42,0,0,0-1.28.12,6.56,6.56,0,0,0-4.26-1.6,6.23,6.23,0,0,0-1.53.18l-1.27-3c-.61-1.48-2.48-4-5.56-4Z" transform="translate(-2 -14)" style="fill:#4d4d4d"/><path d="M47.9,45.29H42.83V43.71H47.9a2,2,0,1,0,0-4H44.58l4.21-5.89a2,2,0,0,0-3.29-2.35L40.66,38.2l-5-6.61A2,2,0,0,0,32.45,34l4.26,5.64h-3a2,2,0,1,0,0,4h5.06v1.58H33.73a2,2,0,0,0,0,4h5.06v3.42a2,2,0,1,0,4,0V49.33H47.9a2,2,0,0,0,0-4Z" transform="translate(-2 -14)" style="fill:#fff"/></svg>