<svg id="レイヤー_1" data-name="レイヤー 1" xmlns="http://www.w3.org/2000/svg" viewBox="0 0 96 96"><title>ico_simulation</title><polygon points="6 90 6 0 0 0 0 90 0 96 6 96 96 96 96 90 6 90" style="fill:#4d4d4d"/><rect x="12" y="6" width="14" height="78" style="fill:#1c6eab"/><rect x="34" y="31" width="14" height="53" style="fill:#1c6eab"/><rect x="56" y="65" width="14" height="19" style="fill:#1c6eab"/><circle cx="76" cy="20" r="20" style="fill:#e25351"/><path d="M75.81,20.8c3-.51,4.66-1.65,4.66-3.19,0-1.34-1.07-2.22-2.63-2.22A5.22,5.22,0,0,0,74,17l-2.48-2.63a9.19,9.19,0,0,1,6.32-2.5c3.84,0,6.7,2.48,6.7,5.81,0,2.56-1.46,4.25-4.9,5.59V26h-3.8Zm0,11.35V28.36h3.8v3.79Z" transform="translate(-2 -2)" style="fill:#fff"/><rect x="78" y="45" width="14" height="39" style="fill:#1c6eab"/></svg>