<svg id="レイヤー_1" data-name="レイヤー 1" xmlns="http://www.w3.org/2000/svg" viewBox="0 0 450.49 76.16"><title>kura-logo</title><path d="M20.4,30.08v3.4H17.85v-3.4ZM6.21,33.48H.63v4.71H5.75v3.46H1.52v4.67H35.78V41.65H32.67V38.19h4.06V33.48H32.67v-3.4h3.11V25.41H11.4a13,13,0,0,0,1.12-2l-5.73-.61C5.57,25.31,2.89,27.35,0,28.89l3.3,4A9.69,9.69,0,0,0,6.21,31ZM20.4,38.19v3.46H17.85V38.19Zm-7-8.11v3.4h-2.6v-3.4Zm0,8.11v3.46h-2.6V38.19Zm14.09-8.11v3.4h-2.7v-3.4Zm0,8.11v3.46h-2.7V38.19ZM4.62,46.39a19.46,19.46,0,0,1-4.45,7l4.87,3c1.4-1.6,2.82-3.44,4.54-8.34Zm6.78,1.27a21.2,21.2,0,0,1,.12,2.69,32,32,0,0,1-.31,5.49L17,55.71a46.1,46.1,0,0,0-.77-8.17Zm7.55,0a33.92,33.92,0,0,1,2.2,8.26l5.65-.4A43.93,43.93,0,0,0,24,47.29Zm8.07.7a42.24,42.24,0,0,1,4.71,7.91L37.08,54A38.42,38.42,0,0,0,32,46.39Z" transform="translate(0 0)" style="fill:#d80c18"/><path d="M54.77,43.16a33.46,33.46,0,0,0,5.13-3.08V50.2c0,.28-.08.81-.87.81H56.4a43.43,43.43,0,0,0,2.25-6.8Zm-.46,11.3a11.42,11.42,0,0,0,1.49-2.18l.76,3.7h5.36A2.83,2.83,0,0,0,65,53.07v-8.3a39.88,39.88,0,0,1,2.37,9.76L72.09,53A53.21,53.21,0,0,0,68.9,42.89L65,44.21V39.09H61.18a18.77,18.77,0,0,0,3.93-4.48h1.5a21.5,21.5,0,0,0,8.12,7.69l-4,1.71a37.7,37.7,0,0,1,4,10.72l5-1.95a50.91,50.91,0,0,0-4.12-10c.62.35.89.49,1.69.9L80,38.74a17.05,17.05,0,0,1-7-4.13h6.29V30.22H67.08c.17-.66.3-1,.53-1.93,3.64-.23,7.34-.5,11-1L76.48,23a96.81,96.81,0,0,1-11.64,1.07c-6,.28-9.5.28-11.83.28l1.05,4.4,4.51-.14,3.58-.14a11.72,11.72,0,0,1-.53,1.77H52.11v4.39h6.81A20,20,0,0,1,51.18,39l3,4.47.11,0c-.92,3.34-1.5,5.27-3.92,8.16Zm-1.13-28a23.82,23.82,0,0,0-6.38-3.33l-3,3.88a28.15,28.15,0,0,1,6.09,3.65ZM52,35.34a24.13,24.13,0,0,0-6.18-3.48L42.71,35.8a22.29,22.29,0,0,1,5.93,3.7ZM46.43,55.81a52.48,52.48,0,0,0,6.15-12.45l-4.52-2.68a35.65,35.65,0,0,1-5.51,10.79Z" transform="translate(0 0)" style="fill:#d80c18"/><path d="M21,11.7v-1h1.87v1h2.07v1.8H22.82l0,2.05a1.43,1.43,0,0,1,.15.75,3,3,0,0,1-.25,1.15,2.7,2.7,0,0,0-.37,1.35c0,.14,0,.36.46.44a7.67,7.67,0,0,0,1.45.08c1.26,0,2.45,0,2.45-1.18a4.06,4.06,0,0,0-.64-2c-.18-.31-.35-.51-.47-.69l1.7-.7a6,6,0,0,1,1.43,3.55,2.49,2.49,0,0,1-1.83,2.6,4.47,4.47,0,0,1-1.49.23c-.64,0-1.08,0-1.5,0-1.45,0-3.34,0-3.34-1.5,0-.07,0-.23,0-.44a1.34,1.34,0,0,1-.45.08c-1.73,0-1.94-1.81-1.94-2.41,0-1.67,1-2.8,2.29-2.8a2,2,0,0,1,.47,0V13.5H18.49V11.7Zm-1.29,5.13c0,.68.35.9.69.9a.59.59,0,0,0,.52-.28,3.36,3.36,0,0,0,.25-1.09c0-.38-.12-.71-.58-.71C19.83,15.65,19.66,16.44,19.66,16.83Zm8.19-2.51a9.92,9.92,0,0,0-2.74-2.48l1.33-1.25a11,11,0,0,1,2.84,2.35Z" transform="translate(0 0)" style="fill:#d80c18"/><path d="M43.45,11.06V13c-.34,0-.81,0-1.27,0h-.72A7.84,7.84,0,0,0,39.35,14c-.68.5-2,1.63-2,3.08s1.51,1.73,2,1.82a17.08,17.08,0,0,0,3.14.22l-.29,2.08c-2.72-.07-3.9-.3-5-.85a3.35,3.35,0,0,1-1.94-3,4.67,4.67,0,0,1,1.33-3.15A7.67,7.67,0,0,1,38.05,13c-.83.08-4.51.3-5.25.38l-.12-2.09c6.65-.18,7.36-.21,10.53-.23Z" transform="translate(0 0)" style="fill:#d80c18"/><path d="M52.5,10.94c-.14.42-1.21,3.29-1.56,4.26a2.25,2.25,0,0,1,1.27-.37A1.79,1.79,0,0,1,54,15.89a4.62,4.62,0,0,1,.2,1.64v.79c0,.26,0,1,.74,1s1.26-.84,1.47-3.7l1.87.53c-.2,3.24-1.21,5.11-3.53,5.11-1.62,0-2.45-1-2.45-2.62v-.95c0-.59,0-1-.62-1-.92,0-1.42,1-1.68,1.62a16.92,16.92,0,0,0-.76,3l-2-.66a6.08,6.08,0,0,1,.21-.6c1.35-4.55,1.5-5,2.85-9.27l.09-.32Z" transform="translate(0 0)" style="fill:#d80c18"/><polygon points="288.81 64.61 278.6 72.78 268.38 64.61 278.6 56.44 288.81 64.61" style="fill:#231815"/><path d="M279,44.53h22V40h-20A33.16,33.16,0,0,1,279,44.53Z" transform="translate(0 0)" style="fill:none"/><path d="M326.64,40V31H283.91c.44-1.69.62-2.09,1-3.77h36.28V18.86H286.65c.26-1.51.35-1.93.6-3.45h36.12V5.14H288.49c.18-1.6.18-1.93.35-4.74L274.91,0c-.17,2.89-.17,3.06-.36,5.14H245.76V15.41h27.55c-.25,1.52-.35,1.94-.62,3.45H248.08v8.35h22.76c-.61,2.32-.7,2.58-1.06,3.77H243V40h23.31a36.75,36.75,0,0,1-2.38,4.49h-19.7v9.88h11.91a61.56,61.56,0,0,1-14,10.76l9.71,9.69c4.15-2.55,12.52-7.76,21.53-20.45h27.63v8.91c0,1.12-.9,1.29-1.94,1.29H288.81V76.09h18.5a8,8,0,0,0,6-3c1.43-1.94,1.43-4.65,1.43-5.87V54.41h10.85V44.53H314.72V40Zm-25.7,4.49H279A33.16,33.16,0,0,0,280.92,40h20Z" transform="translate(0 0)" style="fill:#231815"/><path d="M391.58,63.74V76.16h18.7a10.52,10.52,0,0,0,6.88-2.73,10.42,10.42,0,0,0,1.78-6.33V2.16H341V13.65h64.26V61.47c0,1.77-.8,2.25-2.47,2.25H396.6" transform="translate(0 0)" style="fill:#231815"/><path d="M379,42.6V53.67H354.18V42.6Zm5.7,21.5h6.94v-32H341.12v32h43.33" transform="translate(0 0)" style="fill:#231815"/><rect x="340.99" y="17.49" width="59.41" height="10.91" style="fill:#231815"/><path d="M139.84,75.19c-12.1-9.22-21.45-14.68-39.2-25-6.7-3.94-11.3-6.57-11.3-11.79,0-2.5,1.06-4.81,6.62-9.23,11.3-9,23.65-18.77,33.2-27.53l15.63,7.22c-11.22,9.24-23.22,17.65-35.4,25.93-.7.48-2.65,1.76-2.65,3,0,1.61,1.59,2.32,4.49,3.77,15.28,7.54,33,16.77,42.74,24.08Z" transform="translate(0 0)" style="fill:#231815"/><path d="M215.74,20.55c-10.23-3.86-30-6.26-39.44-6.58l2.38-11.81A173.85,173.85,0,0,1,219,7.23Zm-36-3.13a89.12,89.12,0,0,0-2.14,17.34,41.83,41.83,0,0,1,12.63-5A63.87,63.87,0,0,1,205,27.85c16.06,0,24.89,9.46,24.89,20.71,0,10.1-5.57,16.45-13.69,20.23-4.4,2-9.26,3.43-21.27,4.25-7.41.49-13,.49-16,.49a71,71,0,0,1-8.67-.26l-2.73-12.6c9.36.8,11.4,1,15.71,1,23.58,0,31.71-4.65,31.71-13.39s-10.6-9.16-12.56-9.16c-8.91,0-18.89,3.21-25.06,9h0l-13.94-.48c.09-11.16.26-20,2.12-31.07Z" transform="translate(0 0)" style="fill:#231815"/><path d="M450.49,71.31a2,2,0,0,1-2.06,2H432.06a2,2,0,0,1-2.05-2V54.19a2,2,0,0,1,2.05-2h16.37a2,2,0,0,1,2.06,2Z" transform="translate(0 0)" style="fill:#d0121b"/><path d="M441.63,54.55c0-.23,0-.35.3-.35h5.73c.28,0,.28.09.28.35v5.86c0,.28,0,.28-.36.28h-5.65c-.3,0-.3-.13-.3-.33Zm-.18-1.48a.87.87,0,0,0-1,.91v6.83c0,.6.09,1,1,1h6.44a1.06,1.06,0,0,0,1.22-1.16V54a1,1,0,0,0-1.08-1Zm5.81,3a.84.84,0,0,0-.9-.94h-3.07c-.25,0-.93,0-.93.82v2.67c0,.41.07,1.05,1,1.05h3c.88,0,.9-.64.9-1Zm-1.39.18c.27,0,.27.21.27.36v1.68c0,.28-.14.28-.34.28h-1.94c-.23,0-.35,0-.35-.3V56.5c0-.21,0-.29.22-.29Z" transform="translate(0 0)" style="fill:#fff"/><path d="M441.52,67.65H442v.41h-.37c-.15,0-.15,0-.15-.13Zm1.77-2.81h.91c.31,0,.45,0,.58-.09a.47.47,0,0,0,.22-.41c0-.24-.08-.33-.16-.37s-.22-.15-.64-.15h-.91c0-.45,0-.78-.66-.78s-.59.39-.59.78h-1a1.32,1.32,0,0,0-.59.06.54.54,0,0,0-.21.46.45.45,0,0,0,.14.36c.15.14.25.14.66.14h1v.53h-.82a.7.7,0,0,0-.73.72v2.26a.69.69,0,0,0,.73.7H442v.58h-1.13c-.42,0-.79,0-.79.55s.4.53.79.53H442v.8c0,.51,0,.78.69.78s.56-.37.56-.78v-.8h1.09c.46,0,.81,0,.81-.57s-.4-.51-.81-.51h-1.09v-.58h.84a.7.7,0,0,0,.76-.7V66.09a.71.71,0,0,0-.76-.72h-.84Zm.49,1.88h-.49v-.43h.34c.1,0,.15,0,.15.12Zm0,.93v.26c0,.15,0,.15-.14.15h-.35v-.41Zm-2.26-.93v-.24s0-.19.15-.19H442v.43Zm5.18,3.87c.34-1.42.64-2.63.69-3h1.15c.5,0,.84,0,.84-.59s-.41-.54-.84-.54h-2.67c-.5,0-.82,0-.82.59s.38.54.82.54h.36c0,.15-.18.93-.22,1.09a18.43,18.43,0,0,1-.53,2.23c-.39,0-.73.11-.73.49s.09.71.51.71a1.69,1.69,0,0,0,.42-.09l2.65-.5c.09.36.17.64.53.64a.86.86,0,0,0,.56-.19s.15-.11.15-.36a22.92,22.92,0,0,0-.71-2.82c-.11-.34-.2-.61-.63-.61a.55.55,0,0,0-.59.52,1.32,1.32,0,0,0,.11.48c.08.27.23.81.31,1.21Zm-.7-7.12c-.49,0-.81,0-.81.6s.38.54.81.54h2.31c.48,0,.8,0,.8-.6s-.38-.54-.8-.54Z" transform="translate(0 0)" style="fill:#fff"/><path d="M434.37,58a3.57,3.57,0,0,0,.17-.5h2.78V58Zm.74-4.48c0-.34-.07-.72-.7-.72a.71.71,0,0,0-.49.18c-.12.13-.12.27-.12.54h-2.1a2.67,2.67,0,0,0-.58,0,.6.6,0,0,0-.21.44.49.49,0,0,0,.14.4c.14.15.23.15.65.15h2.08a2.71,2.71,0,0,1,0,.45h-1.59a1.24,1.24,0,0,0-.58.06.67.67,0,0,0-.23.41.52.52,0,0,0,.15.36c.13.14.24.14.66.14h1.46a2.26,2.26,0,0,1-.08.44h-2c-.46,0-.84,0-.84.57s.42.53.84.53h1.72a4.13,4.13,0,0,1-.2.5h-1.48c-.44,0-.8,0-.8.57s.41.52.8.52h.9a8.12,8.12,0,0,1-1.25,1.65c-.34.32-.42.42-.42.61a.62.62,0,0,0,.61.6,1,1,0,0,0,.72-.35,8.93,8.93,0,0,0,1.79-2.51h3.43v1.56c0,.22-.06.3-.24.3s-.81-.08-1-.08a.38.38,0,0,0,0-.26c-.11-.31-.92-1.38-1.36-1.38a.65.65,0,0,0-.6.6.35.35,0,0,0,.09.25,11.81,11.81,0,0,0,.88.94c.16.19.24.29.47.25a.59.59,0,0,0,.25.64,6.56,6.56,0,0,0,1.34.17c.52,0,1.39-.13,1.39-1.16V59.13h.58c.46,0,.81,0,.81-.55s-.42-.54-.81-.54h-.58v-.5h.68c.47,0,.81,0,.81-.58s-.38-.52-.81-.52h-4.38c0-.13,0-.19.08-.44h3.58a1.35,1.35,0,0,0,.6-.06.63.63,0,0,0,.22-.44.44.44,0,0,0-.15-.32C439,55,439,55,438.52,55h-3.44c0-.16,0-.28,0-.45H439c.33,0,.46,0,.58-.08a.54.54,0,0,0,.21-.47.5.5,0,0,0-.12-.34c-.17-.13-.27-.13-.67-.13Z" transform="translate(0 0)" style="fill:#fff"/><path d="M435.93,67a1.14,1.14,0,0,1,.94.3.94.94,0,0,1,.21.62V69c0,.93-.55,1-1,1H433c-.74,0-1.19-.12-1.19-.93V67.76a.78.78,0,0,1,.33-.66c.21-.14.33-.15.86-.15ZM433,68.57c0,.32,0,.32.36.32h2.17c.3,0,.31,0,.31-.26v-.34c0-.22,0-.23-.29-.23h-2.27c-.23,0-.28,0-.28.17Zm5.18-5.3c.48,0,.88,0,1.18.4a1.16,1.16,0,0,1,.19.79v6.3c0,1.08-.39,1.5-1.6,1.5a8.19,8.19,0,0,1-1.69-.17c-.14-.07-.53-.22-.53-.65a.72.72,0,0,1,.59-.62c.16,0,.85.13,1,.15a3.34,3.34,0,0,0,.47,0c.43,0,.56-.1.56-.6V64.87c0-.34,0-.41-.45-.41h-6c-.27,0-.8,0-.8-.58a.54.54,0,0,1,.16-.43c.19-.18.34-.18.64-.18Zm-1.54,1.87c.42,0,.81,0,.81.55s-.34.58-.81.58h-4.25c-.43,0-.81,0-.81-.54s.34-.59.81-.59Z" transform="translate(0 0)" style="fill:#fff"/></svg>