<svg id="Logos" xmlns="http://www.w3.org/2000/svg" viewBox="0 0 269.2 126.97"><title>rakoo-logo</title><rect width="269.2" height="126.97" rx="2.55" ry="2.55" style="fill:none"/><rect x="8.5" y="8.5" width="252.19" height="109.96" style="fill:none"/><path d="M406.93,274.67a12.76,12.76,0,1,1-12.75-12.76,12.75,12.75,0,0,1,12.75,12.76" transform="translate(-286.34 -168.96)" style="fill:#bf0000"/><path d="M392.49,281.52v-4.25h1.84l3.19,4.25h3.26l-3.85-5.13a4.73,4.73,0,0,0-2.74-8.58h-4.3v13.71Zm0-11.11h1.7a2.13,2.13,0,1,1,0,4.25h-1.7Z" transform="translate(-286.34 -168.96)" style="fill:#fff"/><path d="M493.06,281a2,2,0,0,1-3.79-1v-7.93h6.43v-4.37h-6.43v-4.58H484.9v4.58h-3.09v4.37h3.09v7.93a6.35,6.35,0,0,0,12.41,2.11Z" transform="translate(-286.34 -168.96)"/><path d="M439.17,267.76v.82a7.88,7.88,0,0,0-4.25-1.27c-4.74,0-8.6,4.33-8.6,9.64s3.86,9.65,8.6,9.65a7.88,7.88,0,0,0,4.25-1.27v.81h4.36V267.76Zm-4.25,14.47c-2.34,0-4.24-2.36-4.24-5.28s1.9-5.27,4.24-5.27,4.25,2.37,4.25,5.27-1.91,5.28-4.25,5.28" transform="translate(-286.34 -168.96)"/><path d="M475.92,267.76v10.8a3.68,3.68,0,0,1-7.35,0v-10.8h-4.36v10.8a8,8,0,0,0,11.71,7.14v.44h4.36V267.76Z" transform="translate(-286.34 -168.96)"/><path d="M524.7,267.31a8,8,0,0,0-3.67.9v-.45h-4.36v18.38H521V275.35a3.68,3.68,0,1,1,7.35,0v10.79h4.36V275.35a8.05,8.05,0,0,0-8-8" transform="translate(-286.34 -168.96)"/><path d="M514.92,277c0-5.32-3.86-9.65-8.61-9.65s-8.61,4.24-8.61,9.65a9.69,9.69,0,0,0,9.22,9.66,9,9,0,0,0,7.58-4.11l-3.8-2.2c-3.22,3.94-7.71,1.27-8.16-2.06h12.3a11.17,11.17,0,0,0,.08-1.29M510,274.34h-7.36c.82-3.58,6.55-4.32,7.36,0" transform="translate(-286.34 -168.96)"/><polygon points="168.38 107.42 176.99 98.81 170.82 98.81 164.17 105.46 164.17 92.71 159.81 92.71 159.81 117.19 164.17 117.19 164.17 109.38 171.97 117.19 178.14 117.19 168.38 107.42"/><path d="M413.85,286.14V279h3.08l5.35,7.12h5.46l-6.46-8.59a7.92,7.92,0,0,0-4.59-14.37h-7.21v23Zm0-18.6h2.84a3.56,3.56,0,1,1,0,7.12h-2.84Z" transform="translate(-286.34 -168.96)"/><path d="M334.3,239.26c19.55-2.35,39-16,39-35.31,0-15.42-13.53-26.49-33.08-26.49-24.81,0-45.37,18.89-45.37,38.33,0,10.39,5.58,15,10.84,7.94a19.09,19.09,0,0,1-2.8-10.4c0-15.53,16.88-30.73,35.65-30.73,15.53,0,26.15,8.83,26.15,21.57,0,20-23.24,32.18-40.23,29.84,3-7.49,5.92-14.42,7.6-19,3.24-7.82,5.59-15,5.7-20.23s-3.24-6.7-7.93-3.91c.22,11.74-6.93,27.94-12.52,41.57-4.92,12-11.06,24.81-11.06,29.39,0,2.91,1.34,4.59,3.91,4.59a12.26,12.26,0,0,0,4.58-1.23c.89-6.82,4.13-16.54,7.71-25.93a22,22,0,0,0,2.68.22c9.61,1.35,21.9,34.87,37.44,34.87,4.13,0,6.93-2.79,5.25-7.49C354,269.32,347,247.86,334.3,239.26Z" transform="translate(-286.34 -168.96)"/><path d="M544.14,233.56l-.45.45c-4.69,4.69-10.28,7.93-14.86,7.93a10.4,10.4,0,0,1-1.9-.11c3.35-5,5.81-11.4,5.81-17.21,0-6-2.91-8.49-6.15-8.49-4.58,0-10.39,5.14-10.39,15.08a18.41,18.41,0,0,0,3.24,10.95c-2.24,2.8-5.25,5.15-7.82,5.15s-3.92-2.35-3.92-5.81c0-5.37,3.13-13.08,8.72-17.66.11-4-3.13-4.14-6.59-1.45a28,28,0,0,0-7.89,12c-4.61,4.47-10,7.53-14.46,7.53a10.23,10.23,0,0,1-1.89-.11c3.35-5,5.81-11.4,5.81-17.21,0-6-2.91-8.49-6.15-8.49-4.58,0-10.39,5.14-10.39,15.08a18.34,18.34,0,0,0,3.24,10.95c-2.24,2.8-5.26,5.15-7.83,5.15s-3.91-2.35-3.91-5.81c0-5.37,3.13-13.08,8.72-17.66.11-4-3.13-4.14-6.59-1.45a28.06,28.06,0,0,0-7.9,12c-4.74,4.72-14.19,13.88-20.48,13.88-3.13,0-5.59-2-7.27-6.37,7.6-2,14.2-7.6,14.2-13,0-3.13-2.35-5.36-6.49-5.36-7.15,0-14.08,5.92-18.88,12.62,1.12-3.57,2.57-7.48,4.13-11.51,11-8.94,30.29-26.26,30.29-37.66,0-3.8-2.35-5.47-5.37-5.47-10.72,0-21.79,20.34-25.7,28.49-2,4.17-6.17,14.45-9.6,24-2.63,2.6-13.13,11.52-17.32,11.52-1.23,0-1.68-.78-1.68-2.12,0-3,2.46-9.84,4.24-13.19,2.13-4.14.12-6.15-4.91-5.81-1.57,3.69-2,4.58-3.69,6.82-4.47,6.48-9.72,10-12.29,10-.9,0-1.57-.67-1.57-2,0-6.26,10.51-18.44,17.66-18.44a6,6,0,0,1,4.58,2c2.24-.55,3.47-1.67,3.47-2.9,0-2.12-2.69-3.91-7.16-3.91-12.74,0-26.15,15.31-26.15,24.25,0,3.8,2.46,6.14,6.26,6.14,4.47,0,9.61-3.12,13.52-7.37a27.73,27.73,0,0,0-.44,4.8c0,4,1.9,6.93,5.81,6.93,4.7,0,12.27-5.6,17.34-10-1.73,5.32-2.93,9.79-2.93,11.87,0,2.91,1.56,4,3.46,4a6.7,6.7,0,0,0,3.24-.9c3.47-15.08,14.2-27.38,21.24-27.38,1.34,0,2.12.56,2.12,1.68,0,4.58-10.39,8.71-13.86,9.5,1.79,8.49,6.48,13.85,13,13.85,7.28,0,13.53-6.17,20-12.95,0,.29,0,.59,0,.89,0,6.36,3.58,11.06,9.5,11.06,4.58,0,9.72-2.68,13.75-6.93a11,11,0,0,0,3.91.56c4.36,0,9.51-2.35,14.24-6.13,0,.48-.05,1-.05,1.44,0,6.36,3.57,11.06,9.49,11.06,4.59,0,9.73-2.68,13.75-6.93a11,11,0,0,0,3.91.56c5.48,0,12.18-3.69,17.77-9.28l1.45-1.45C546.26,233.78,545.25,232.67,544.14,233.56Zm-94-47.94c1,0,1.68.67,1.68,2.12,0,7.6-13.41,21-22.8,29.28C436,200.82,444.69,185.62,450.16,185.62Zm30.62,52.3A17,17,0,0,1,479.1,230c0-5.7,2.46-9.5,4.25-9.5,1.12,0,1.56,1.56,1.56,3.24C484.91,227.41,483.57,232.78,480.78,237.92Zm41.34,0a17,17,0,0,1-1.68-7.93c0-5.7,2.46-9.5,4.25-9.5,1.12,0,1.57,1.56,1.57,3.24C526.26,227.41,524.92,232.78,522.12,237.92Z" transform="translate(-286.34 -168.96)"/></svg>