<svg id="レイヤー_1" data-name="レイヤー 1" xmlns="http://www.w3.org/2000/svg" viewBox="0 0 114.09 137.17"><title>idemitsu-logo</title><path d="M324.35,391.87a46,46,0,0,0-11.67-.95,6.05,6.05,0,0,1,.4,2.08,14.09,14.09,0,0,1-.86,4.92c4.67-1.45,8.58-1.27,15.12-.95l5.81.25a59.37,59.37,0,0,0,16.56-2.17c.57-1.53,1.13-3.13,1.65-4.8a58.81,58.81,0,0,1-17.05,2.68A54.41,54.41,0,0,1,324.35,391.87Z" transform="translate(-243.08 -339.79)" style="fill:#e60012"/><path d="M290.17,363.5c8.49-3.78,16-3.95,26.73-.61,11.27,3.5,23.84,7.38,38.77,4.15.17-2.08.31-4.22.39-6.45a36.83,36.83,0,0,1-9.33,1.66,37.78,37.78,0,0,0-7.59-10.88c-7.47-7.47-17.92-11.58-29.44-11.58-15.1,0-30.59,6.83-42.51,18.75S248.43,386,248.43,401.06c0,11.52,4.11,22,11.58,29.44s17.92,11.58,29.43,11.58c15.11,0,30.6-6.84,42.52-18.76a66.83,66.83,0,0,0,10.56-13.69,54.19,54.19,0,0,1-9.34.71,44.06,44.06,0,0,0-9.39.81.93.93,0,0,1-1.09-.71.91.91,0,0,1,.71-1.09,46.11,46.11,0,0,1,9.75-.86,48.64,48.64,0,0,0,10.53-1l.15-.27c.74-1.23,1.48-2.56,2.2-3.95a58.93,58.93,0,0,1-11.59,1.15H333c-6.3,0-11.74,0-15.72,1.39a.94.94,0,0,1-1.18-.57.91.91,0,0,1,.56-1.17c4.28-1.52,9.87-1.51,16.34-1.5h1.44a56.72,56.72,0,0,0,12.63-1.4c.61-1.28,1.21-2.6,1.79-4a61.23,61.23,0,0,1-15.79,1.86l-5.84-.25c-7.26-.35-10.91-.53-16,1.38a.36.36,0,0,1-.14,0,11.29,11.29,0,0,1-7.79,5.33,6.11,6.11,0,0,1-6-1.88.79.79,0,0,1,.09-1.12.81.81,0,0,1,1.13.09,4.48,4.48,0,0,0,4.47,1.34c5-.84,8.44-5.35,8.42-11a4.42,4.42,0,0,0-2.47-3.9,5.1,5.1,0,0,0-5-.16.8.8,0,1,1-.86-1.34,6.7,6.7,0,0,1,6.6.1,6.78,6.78,0,0,1,1.83,1.45,45.45,45.45,0,0,1,13.06.89,53.41,53.41,0,0,0,9.64,1,57.16,57.16,0,0,0,17.67-3c.44-1.52.85-3.08,1.23-4.73-1.64.45-3.17.83-4.6,1.16h0c-11.24,2.6-16.31,1.71-24.71.22l-6.13-1a35.21,35.21,0,0,0-15.8.3.92.92,0,1,1-.39-1.8,37.31,37.31,0,0,1,16.51-.32l6.13,1.05c5.66,1,9.77,1.72,15.42,1.23a71,71,0,0,1-13.75-4.07c-10.12-3.87-18.42-4.68-26.92-2.62a.93.93,0,0,1-.43-1.8c8.88-2.15,17.51-1.32,28.07,2.73,4.7,1.8,13.43,5.14,21.69,4.3q2.46-.57,5.39-1.39.53-2.5.95-5.2c-10.69,2.53-19.78,1.22-29.86-1.77l-1.61-.51c-5.35-1.72-19.58-6.29-28-2.44a.92.92,0,1,1-.77-1.67c9.07-4.16,23.27.41,29.34,2.36l1.57.49c10,3,19,4.24,29.62,1.57.24-1.69.45-3.42.63-5.22-15.13,3.11-27.78-.79-39.16-4.32-10.4-3.23-17.29-3.09-25.43.53a.92.92,0,1,1-.75-1.68Zm9.94,36a.8.8,0,0,1,1.12,0,2.31,2.31,0,0,0,1.8.36c1.85-.12,4-3,4.26-5.69a1.58,1.58,0,0,0-.71-1.64,2.43,2.43,0,0,0-2.43.08.8.8,0,1,1-.85-1.35,4.06,4.06,0,0,1,4.11-.1,3.22,3.22,0,0,1,1.47,3.14c-.26,3.1-2.88,7-5.76,7.15a3.79,3.79,0,0,1-3-.8A.79.79,0,0,1,300.11,399.5Zm-21.9-16.82-1.27-.11a.67.67,0,0,1-.59-.68v-.07a.72.72,0,0,1,.77-.61l8.75.83,1.85.16a.68.68,0,0,1,.16,1.33c-1.57.55-6.48,2.74-8.91,4a.68.68,0,0,1-.92-.3.7.7,0,0,1-.07-.31.67.67,0,0,1,.37-.61L279,386A25.64,25.64,0,0,1,278.21,382.68ZM279.26,366a37.25,37.25,0,0,0-2.78,6.69c-.75,2.14-1.52,5.35-2,7.05-1.74,5.81-5.92,8.76-8.68,11.07l-2,1.63a1.68,1.68,0,0,0-.45,1.62c.18.84,1.41,1.78,2.71,2.76.28.22.68.48,1.05.71,1.36.81,1.38,1.69,1.28,3-.21,2.88-.15,3.54.63,4.52a.19.19,0,0,1,0,.23c-.93,1.59-.36,3.43,1.16,4.9s2.49,3.23,2.24,7.08c0,.27,0,.58,0,.88.07,4.13,4.36,5.11,7.72,4.66a24.59,24.59,0,0,0,4.08-.92,26.07,26.07,0,0,1,8.76-1.49c9.48-.09,16.4,3.94,23.71,9.85-17.91,10-39.16,8.93-52.29-4.2-14.81-14.81-14.29-40,.19-59a63.22,63.22,0,0,1,5.23-5.93,64.7,64.7,0,0,1,6-5.29A52.86,52.86,0,0,1,303.52,345c12.21-1,23.3,2.85,31.21,10.76a35.25,35.25,0,0,1,5.07,6.43,80.83,80.83,0,0,1-18.31-3.49,65.94,65.94,0,0,0-19.31-3.08C288.94,355.63,282.2,361.19,279.26,366Z" transform="translate(-243.08 -339.79)" style="fill:#e60012"/><path d="M284.8,383.31l-5.19-.49c.17.9.44,1.92.63,2.55C281.69,384.68,283.37,383.93,284.8,383.31Z" transform="translate(-243.08 -339.79)" style="fill:#e60012"/><path d="M334.87,459.26l-2.72-.86c-1.06-.34-2.29-.81-2.27-2.39,0-2,2.22-2.46,3.51-2.46a7.26,7.26,0,0,1,5.26,2.07h.08s-.05-3.49-.06-3.51a13.06,13.06,0,0,0-4.81-.92c-3.86,0-7.77,1.36-7.83,5.83,0,3.4,2.58,4.64,5.21,5.51l1.83.61c1.19.4,2.79.86,2.77,2.59,0,2.17-2.24,2.66-3.77,2.66a8.29,8.29,0,0,1-5.58-2.37h0l0,3.69a15.47,15.47,0,0,0,5.61,1c4.23,0,7.71-2,7.77-5.83S337.47,460.1,334.87,459.26Z" transform="translate(-243.08 -339.79)" style="fill:#231815"/><polygon points="76.7 127.39 76.7 127.39 76.7 114.49 81.81 114.49 81.81 111.95 67.75 111.95 67.75 114.49 72.86 114.49 72.86 130.42 76.7 130.42 76.7 127.39" style="fill:#231815"/><path d="M257.5,451.73h-6.75v2.18h0V470.2h6.34a9.15,9.15,0,0,0,9.24-9.47C266.33,454.29,262,451.73,257.5,451.73Zm-.88,15.91h-2V454.29h1.59c4.32,0,6.24,3.18,6.24,7.29A5.89,5.89,0,0,1,256.62,467.64Z" transform="translate(-243.08 -339.79)" style="fill:#231815"/><rect x="1.02" y="111.94" width="3.84" height="18.47" style="fill:#231815"/><polygon points="37.32 130.4 37.32 127.83 29.13 127.83 29.13 122.1 36.47 122.1 36.47 119.53 29.13 119.53 29.13 114.5 36.74 114.5 36.74 111.93 25.25 111.93 25.25 130.4 37.32 130.4" style="fill:#231815"/><path d="M284.94,454.46l5.84,15.75H293l4.55-13.44.89,13.44h3.85l-.95-13.65c-.07-.84-.13-2.15-.18-3.14l-.1-1.68h-4.41l-4.21,12.84-4.64-12.84h-4.38l0,1.63c0,.13-.11,2-.14,2.84l-.76,14h2.73l.62-14.47" transform="translate(-243.08 -339.79)" style="fill:#231815"/><rect x="61.78" y="111.95" width="3.84" height="18.47" style="fill:#231815"/><path d="M356.15,451.73h-3.84v12.59c0,3.2-1.21,3.89-3.32,3.89s-3.32-.63-3.32-3.89V451.73h-3.84v12.39c0,4.93,2.5,6.63,7.16,6.63s7.16-1.7,7.16-7Z" transform="translate(-243.08 -339.79)" style="fill:#231815"/><path d="M356.94,476.43c-15.37-2.34-36.08-3.67-56.81-3.67-22.36,0-39.36,1.1-56.82,3.67a.27.27,0,0,0-.23.29.28.28,0,0,0,.28.24c20-1.11,36.42-1.57,56.77-1.57,21.79,0,39.12.78,55.87,1.53l.9,0a.27.27,0,0,0,.27-.24A.27.27,0,0,0,356.94,476.43Z" transform="translate(-243.08 -339.79)" style="fill:#e60012"/></svg>