<svg id="レイヤー_1" data-name="レイヤー 1" xmlns="http://www.w3.org/2000/svg" viewBox="0 0 238.41 96"><title>illust_facility</title><path id="_複合パス_" data-name="&lt;複合パス&gt;" d="M130.81,2a35.71,35.71,0,0,0-22.13,63.75,13.75,13.75,0,0,0,1.23,2.72l2.87,5h37.49l2.87-5a13,13,0,0,0,1.59-4.22A35.72,35.72,0,0,0,130.81,2Zm-5.45,12.62c-.65.09-15.63,2.41-17.49,18.15a3.72,3.72,0,0,1-3.69,3.29,3.25,3.25,0,0,1-.44,0,3.72,3.72,0,0,1-3.26-4.13c2-17.26,16.51-23.67,23.89-24.66a3.72,3.72,0,0,1,1,7.38Z" transform="translate(-3 -2)" style="fill:#e8c84d"/><path id="_パス_" data-name="&lt;パス&gt;" d="M144.21,76.42H117.42a4.47,4.47,0,1,0,0,8.93h26.79a4.47,4.47,0,0,0,0-8.93Z" transform="translate(-3 -2)" style="fill:#e8c84d"/><path d="M121.75,88.33a9.68,9.68,0,0,0,19.35,0Z" transform="translate(-3 -2)" style="fill:#4d4d4d"/><rect x="3" y="3" width="70" height="90" rx="1" ry="1" style="fill:#f5f4f4"/><path d="M73,8V92H9V8H73m2-6H7A4,4,0,0,0,3,6V94a4,4,0,0,0,4,4H75a4,4,0,0,0,4-4V6a4,4,0,0,0-4-4Z" transform="translate(-3 -2)" style="fill:#4d4d4d"/><rect x="12" y="12" width="52" height="62" rx="2" ry="2" style="fill:#6791b1"/><rect x="33" y="77" width="10" height="10" rx="5" ry="5" style="fill:#4d4d4d"/><path d="M217,71.09c3,9.26-2.29,13.87-7.45,13.87-6.26,0-10.06-6.79-7.46-13.87C205,63.24,209.58,53,209.58,53A175.83,175.83,0,0,1,217,71.09Z" transform="translate(-3 -2)" style="fill:#d6524f"/><path d="M212.6,77.73c1.22,3.74-.92,5.59-3,5.59-2.53,0-4.06-2.73-3-5.59,1.16-3.16,3-7.29,3-7.29A73.37,73.37,0,0,1,212.6,77.73Z" transform="translate(-3 -2)" style="fill:#fae9d7"/><path d="M241.41,88.47a2.56,2.56,0,0,0-2.55-2.56h-.36A2.56,2.56,0,0,0,236,88.47V90h-23.3a2.54,2.54,0,0,0-2.43-1.81h-.35A2.54,2.54,0,0,0,207.44,90H182.82V88.47a2.56,2.56,0,0,0-2.55-2.56h-.35a2.56,2.56,0,0,0-2.56,2.56V98h64Z" transform="translate(-3 -2)" style="fill:#4d4d4d"/><path d="M240,71.09c3,9.26-2.29,13.87-7.45,13.87-6.26,0-10.06-6.79-7.46-13.87C228,63.24,232.58,53,232.58,53A175.83,175.83,0,0,1,240,71.09Z" transform="translate(-3 -2)" style="fill:#d6524f"/><path d="M235.6,77.73c1.22,3.74-.92,5.59-3,5.59-2.53,0-4.06-2.73-3-5.59,1.16-3.16,3-7.29,3-7.29A73.37,73.37,0,0,1,235.6,77.73Z" transform="translate(-3 -2)" style="fill:#fae9d7"/><path d="M193,71.09c3,9.26-2.29,13.87-7.45,13.87-6.26,0-10.06-6.79-7.46-13.87C181,63.24,185.58,53,185.58,53A175.83,175.83,0,0,1,193,71.09Z" transform="translate(-3 -2)" style="fill:#d6524f"/><path d="M188.6,77.73c1.22,3.74-.92,5.59-3,5.59-2.53,0-4.06-2.73-3-5.59,1.16-3.16,3-7.29,3-7.29A73.37,73.37,0,0,1,188.6,77.73Z" transform="translate(-3 -2)" style="fill:#fae9d7"/></svg>