<svg id="レイヤー_1" data-name="レイヤー 1" xmlns="http://www.w3.org/2000/svg" viewBox="0 0 191.83 98.23"><title>illust_shop</title><path id="_パス_" data-name="&lt;パス&gt;" d="M52.15,53.09a24.53,24.53,0,1,0-24.3,0A30.36,30.36,0,0,0,10.36,80.74v12H69.64v-12A30.36,30.36,0,0,0,52.15,53.09Z" transform="translate(-4.08 -1)" style="fill:#f5f4f4"/><path id="_複合パス_" data-name="&lt;複合パス&gt;" d="M40,7.28A24.51,24.51,0,0,1,52.15,53.09,30.36,30.36,0,0,1,69.64,80.74v12H10.36v-12A30.36,30.36,0,0,1,27.85,53.09,24.51,24.51,0,0,1,40,7.28M40,1A30.78,30.78,0,0,0,17.2,52.48,37,37,0,0,0,4.08,80.74v12A6.28,6.28,0,0,0,10.36,99H69.64a6.28,6.28,0,0,0,6.28-6.28v-12A37,37,0,0,0,62.8,52.48,30.78,30.78,0,0,0,40,1Z" transform="translate(-4.08 -1)" style="fill:#4d4d4d"/><ellipse id="_パス_2" data-name="&lt;パス&gt;" cx="25.69" cy="25.73" rx="2.82" ry="4.76" style="fill:#4d4d4d"/><ellipse id="_パス_3" data-name="&lt;パス&gt;" cx="45.29" cy="25.73" rx="2.82" ry="4.76" style="fill:#4d4d4d"/><path id="_パス_4" data-name="&lt;パス&gt;" d="M39.24,46.27c-6.87,0-9.83-5-9.83-9.18h3.88a5.55,5.55,0,0,0,6,5.27c4.06,0,6.69-2.13,6.69-5.27h3.66C49.59,41.27,46.55,46.27,39.24,46.27Z" transform="translate(-4.08 -1)" style="fill:#4d4d4d"/><rect x="44.92" y="66" width="44" height="30" style="fill:#f6f5f5"/><path d="M91,69V95H51V69H91m0-4H51a4,4,0,0,0-4,4V95a4,4,0,0,0,4,4H91a4,4,0,0,0,4-4V69a4,4,0,0,0-4-4Z" transform="translate(-4.08 -1)" style="fill:#4d4d4d"/><rect id="_長方形_" data-name="&lt;長方形&gt;" x="71.92" y="82" width="12" height="9" rx="2" ry="2" style="fill:#f1cf49"/><polygon points="87.92 72 45.92 72 45.92 78 87.92 78 87.92 72 87.92 72" style="fill:#4d4d4d"/><path id="_パス_5" data-name="&lt;パス&gt;" d="M172.15,53.09a24.53,24.53,0,1,0-24.3,0,30.36,30.36,0,0,0-17.49,27.65v12h59.28v-12A30.36,30.36,0,0,0,172.15,53.09Z" transform="translate(-4.08 -1)" style="fill:#f5f4f4"/><path id="_複合パス_2" data-name="&lt;複合パス&gt;" d="M160,7.28a24.51,24.51,0,0,1,12.15,45.81,30.36,30.36,0,0,1,17.49,27.65v12H130.36v-12a30.36,30.36,0,0,1,17.49-27.65A24.51,24.51,0,0,1,160,7.28M160,1a30.78,30.78,0,0,0-22.8,51.48,37,37,0,0,0-13.12,28.26v12A6.28,6.28,0,0,0,130.36,99h59.28a6.28,6.28,0,0,0,6.28-6.28v-12A37,37,0,0,0,182.8,52.48,30.78,30.78,0,0,0,160,1Z" transform="translate(-4.08 -1)" style="fill:#4d4d4d"/><ellipse id="_パス_6" data-name="&lt;パス&gt;" cx="145.69" cy="25.73" rx="2.82" ry="4.76" style="fill:#4d4d4d"/><ellipse id="_パス_7" data-name="&lt;パス&gt;" cx="165.29" cy="25.73" rx="2.82" ry="4.76" style="fill:#4d4d4d"/><path id="_パス_8" data-name="&lt;パス&gt;" d="M159.24,46.27c-6.87,0-9.83-5-9.83-9.18h3.88a5.55,5.55,0,0,0,6,5.27c4.06,0,6.69-2.13,6.69-5.27h3.66C169.59,41.27,166.55,46.27,159.24,46.27Z" transform="translate(-4.08 -1)" style="fill:#4d4d4d"/><path d="M118,97a2,2,0,0,1-1.84-1.23L105.87,71.13a2,2,0,0,1,.55-2.29l6.28-5.36A2,2,0,0,1,114,63h42a2,2,0,0,1,1.87,1.28L165,82.64,174,84a2,2,0,0,1,1.58,1.29l3.3,9A2,2,0,0,1,177,97l-17.94.23Z" transform="translate(-4.08 -1)" style="fill:#f5f4f4"/><path d="M156,65l7.5,19.44L173.7,86l3.3,9-17.91.23L118,95,107.71,70.36,114,65h42m0-4H114a4,4,0,0,0-2.6,1l-6.28,5.36A4,4,0,0,0,104,71.9l10.29,24.64A4,4,0,0,0,118,99l41.09.23h.07L177.05,99a4,4,0,0,0,3.71-5.38l-3.3-9A4,4,0,0,0,174.3,82l-7.9-1.2-6.67-17.28A4,4,0,0,0,156,61Z" transform="translate(-4.08 -1)" style="fill:#4b4948"/><polyline points="152.42 86.5 146.42 70.5 111.42 70.5" style="fill:none;stroke:#4b4948;stroke-linecap:round;stroke-linejoin:round;stroke-width:4.63456629955862px"/></svg>