<svg id="txt" xmlns="http://www.w3.org/2000/svg" viewBox="0 0 126.21 100.96"><title>mac-logo</title><path d="M352.17,238.47c10,0,18,42,18,93.76h14.42c0-55.77-14.53-101-32.45-101-10.2,0-19.29,13.59-25.24,34.83-5.95-21.24-15.05-34.83-25.25-34.83-17.92,0-32.45,45.2-32.45,101h14.43c0-51.78,8.07-93.76,18-93.76s18,38.75,18,86.55h14.42C334.14,277.22,342.21,238.47,352.17,238.47Z" transform="translate(-269.23 -231.26)" style="fill:#fdd02b"/><path d="M391.85,325a3.61,3.61,0,1,1-3.62,3.59A3.57,3.57,0,0,1,391.85,325Zm0,6.68a3.08,3.08,0,1,0-3-3.09A3,3,0,0,0,391.85,331.7Zm-1.41-5.19h1.63c1,0,1.46.4,1.46,1.2a1.07,1.07,0,0,1-1.1,1.15l1.2,1.86h-.7l-1.14-1.81h-.69v1.81h-.66Zm.66,1.87h.68c.57,0,1.1,0,1.1-.69s-.48-.65-.92-.65h-.86Z" transform="translate(-269.23 -231.26)" style="fill:#231815"/></svg>