<svg id="レイヤ_1" data-name="レイヤ− 1" xmlns="http://www.w3.org/2000/svg" viewBox="0 0 157.49 97.18"><title>misdo-logo</title><path d="M219.9,146.1c2.6,3.34,5.77,3.89,9.88,4.12s9.07-2,11.32-5.42c2.25,3.44,7.26,5.64,11.32,5.42s7.29-.78,9.9-4.12v-6.9a12.61,12.61,0,0,1-9.87,5.61c-4.57.23-10.11-3.38-11.32-7.68h0c-1.22,4.3-6.76,7.91-11.32,7.68a12.62,12.62,0,0,1-9.88-5.61Z" transform="translate(-214.89 -72.49)" style="fill:#551900"/><path d="M219.9,133.69c2.6,3.34,5.77,3.89,9.88,4.11s9.07-2,11.32-5.41c2.25,3.44,7.26,5.64,11.32,5.41s7.29-.77,9.9-4.11v-6.9a12.61,12.61,0,0,1-9.87,5.61c-4.57.23-10.11-3.38-11.32-7.68h0c-1.22,4.3-6.76,7.91-11.32,7.68a12.62,12.62,0,0,1-9.88-5.61Z" transform="translate(-214.89 -72.49)" style="fill:#551900"/><path d="M252,129.12a5.52,5.52,0,1,0-5.51-5.52A5.52,5.52,0,0,0,252,129.12Z" transform="translate(-214.89 -72.49)" style="fill:#551900"/><path d="M262.14,72.49,219.9,87a16.92,16.92,0,0,1-5,10.08l5,6.61v21.86l42.4-14.88V89.25l5.75-8.93A13.65,13.65,0,0,1,262.14,72.49Zm-4.68,14.68V107.1L225,118.5V101.94l-6.74-8.8,45.61-15.93Z" transform="translate(-214.89 -72.49)" style="fill:#551900"/><polygon points="5 96.83 5 82.35 25.76 89.39 5 96.83" style="fill:#551900"/><polygon points="47.45 96.83 47.45 82.35 26.69 89.39 47.45 96.83" style="fill:#551900"/><rect x="86.82" y="60.13" width="5.33" height="11.31" style="fill:#e8382f"/><path d="M304.4,132.23a3.21,3.21,0,1,0-3.21-3.21A3.21,3.21,0,0,0,304.4,132.23Z" transform="translate(-214.89 -72.49)" style="fill:#e8382f"/><path d="M322.9,130.07V125.5c-6.77.55-10.84,2.92-12.49,5a3.66,3.66,0,0,0-1,2.66,4.1,4.1,0,0,0,2,3.05,19.62,19.62,0,0,0,5.84,2.69c1.72.56,1.77,1.61.18,1.75-.69,0-1.45.16-5-1.19l-2.16-.83-1.4,4.12a18.38,18.38,0,0,0,8.57,2.28c2,0,6.77-.66,7.32-4.5.48-3.39-2.54-5-2.87-5.17-1.36-.77-3.55-1.19-5.19-2.05-1-.51-1.15-1,0-1.57A24.63,24.63,0,0,1,322.9,130.07Z" transform="translate(-214.89 -72.49)" style="fill:#e8382f"/><path d="M339.48,137.58a8.75,8.75,0,0,1-5.57,2.62c-1.1,0-1.73-.06-1.73-1.49v-5.62h5v-4.57H332.2V126.2h-5.34v2.32h-2.24v4.57h2.23v6.11c0,3.38,1.22,4.92,4.15,5.69,3.2.83,7.46-1.64,10.79-3.84Z" transform="translate(-214.89 -72.49)" style="fill:#e8382f"/><path d="M372.38,126.51a19.63,19.63,0,0,0-9,3.83v-3.81h-5.25v17.41h5.25v-8.21a25.35,25.35,0,0,1,9-4.48Z" transform="translate(-214.89 -72.49)" style="fill:#e8382f"/><path d="M303,152c-5.36,0-9.7,3.88-9.7,8.68s4.34,8.68,9.7,8.68,9.68-3.89,9.68-8.68S308.34,152,303,152Zm0,12.47a3.8,3.8,0,1,1,4-3.79A3.88,3.88,0,0,1,303,164.51Z" transform="translate(-214.89 -72.49)" style="fill:#e8382f"/><path d="M292.29,158.9c-.13-3.91-1.51-6.67-5.11-8.45-3-1.46-7.47-2.49-17.64-1.08V169h5l1.37-1.2c1.86,1.15,3.6,1.74,7.25,1.67C288.1,169.32,292.5,164.55,292.29,158.9Zm-6.07,3.76a5.86,5.86,0,0,1-4.53,1.74,10.83,10.83,0,0,1-6.11-2.85l-.9.53v-8c5.12-1,8.73,0,10.59,1.26C288.29,157.39,287.47,161.24,286.22,162.66Z" transform="translate(-214.89 -72.49)" style="fill:#e8382f"/><path d="M364.72,164.84c-1.5-.34-1.85-.89-1.85-1.89v-5.39h5v-4.45H362.9v-2.4h-5.28v2.4h-2.35v4.45h2.34v5.21c0,1-2.19,2-4,2-1.57,0-1.67-1.45-1.67-2.67v-9.16H346.7v9.28c0,1.73-3.17,2.55-4.54,2.55a1.65,1.65,0,0,1-1.75-1.75V152.92h-5.19v10c0,1.07-2,1.77-3.06,1.78a1.66,1.66,0,0,1-1.85-1.61v-6.27a4.89,4.89,0,0,0-4.92-4.84c-3.31,0-6.06,4.37-6.06,4.37v-3.43H314v16h4.86c1.11-5.07,3.81-9.89,5-10.86.9-.75,1.54-.62,1.54.45v4.5c0,1.47.31,5.45,4.06,6.29,3.26.74,7-1.32,7-1.32a7.3,7.3,0,0,0,2.33,1.25,8.46,8.46,0,0,0,4.49-.13,11.24,11.24,0,0,0,3.87-2,6.16,6.16,0,0,0,4.48,2.31,11.13,11.13,0,0,0,6.35-1.82c.42-.27.51,0,.7.25h0a5.35,5.35,0,0,0,3.72,1.73,15.54,15.54,0,0,0,10-3.25v-3.8C369.74,164.25,366.26,165.19,364.72,164.84Z" transform="translate(-214.89 -72.49)" style="fill:#e8382f"/><path d="M354.73,138.66a9.21,9.21,0,0,1-7.37,1.24,3.27,3.27,0,0,1-1.92-1.49,14.28,14.28,0,0,0,3.43-.21c3.37-.57,6.83-3,6.76-6.48-.07-3.83-2.87-5.56-6.61-5.75a9.31,9.31,0,0,0-8.81,5.32,10,10,0,0,0,0,9.24c1.52,2.6,5.14,4,6.78,4.27,2.13.4,5.38.35,9.8-2.53Zm-5.92-7.94c1.91.17,2.69,1.3,1.24,2.51-1,.83-3.36,1.08-4.08,1.13-.4,0-1.21,0-1.21,0a1.87,1.87,0,0,1,0-1A4.08,4.08,0,0,1,348.81,130.72Z" transform="translate(-214.89 -72.49)" style="fill:#e8382f"/><path d="M293,133.15c-.13-.75-.63-.76-.91-.2l-4.62,11H282.9l-1.78-10.8c-.13-.74-.63-.75-.9-.2l-5.37,11h-5.31V126.52h5.24v5.9s2.24-3.66,3.21-4.87a4.68,4.68,0,0,1,3.48-1.85,4,4,0,0,1,3.72,2.41,21.17,21.17,0,0,1,1.24,4.26h.06s2.74-4,3.35-4.81a4.82,4.82,0,0,1,3.41-1.85c2,0,3.73,1.1,4.35,4.11.46,2.21,2.49,14.13,2.49,14.13H295Z" transform="translate(-214.89 -72.49)" style="fill:#e8382f"/></svg>