<svg id="Logos" xmlns="http://www.w3.org/2000/svg" viewBox="0 0 201.76 73.03"><title>ベクトルスマートオブジェクト</title><rect y="0.32" width="201.76" height="72.71" style="fill:none"/><path d="M354.08,213.1a17,17,0,1,1-17-17A17,17,0,0,1,354.08,213.1Z" transform="translate(-320.07 -195.77)" style="fill:#bf0000"/><path d="M334.83,222.24v-5.67h2.45l4.25,5.67h4.35l-5.14-6.84A6.3,6.3,0,0,0,337.09,204h-5.74v18.28Zm0-14.81h2.26a2.84,2.84,0,1,1,0,5.67h-2.26Z" transform="translate(-320.07 -195.77)" style="fill:#fff"/><path d="M468.92,221.58a2.64,2.64,0,0,1-5.06-1.29V209.71h8.57V203.9h-8.57v-6.11H458v6.11h-4.13v5.81H458v10.58a8.47,8.47,0,0,0,16.54,2.82Z" transform="translate(-320.07 -195.77)"/><path d="M397.07,203.9V205a10.59,10.59,0,0,0-5.67-1.69c-6.33,0-11.47,5.77-11.47,12.86S385.07,229,391.4,229a10.5,10.5,0,0,0,5.67-1.69v1.08h5.81V203.9Zm-5.67,19.29c-3.12,0-5.66-3.16-5.66-7s2.54-7,5.66-7,5.67,3.16,5.67,7S394.52,223.19,391.4,223.19Z" transform="translate(-320.07 -195.77)"/><path d="M446.06,203.9v14.39a4.9,4.9,0,1,1-9.79,0V203.9h-5.82v14.39a10.69,10.69,0,0,0,15.61,9.52v.59h5.82V203.9Z" transform="translate(-320.07 -195.77)"/><path d="M511.11,203.29a10.66,10.66,0,0,0-4.9,1.2v-.59H500.4v24.5h5.81V214a4.9,4.9,0,1,1,9.8,0V228.4h5.81V214A10.72,10.72,0,0,0,511.11,203.29Z" transform="translate(-320.07 -195.77)"/><path d="M498.07,216.15c0-7.1-5.15-12.88-11.48-12.88s-11.48,5.66-11.48,12.88c0,7.59,6.47,12.88,12.29,12.88a12,12,0,0,0,10.1-5.49l-5.06-2.92c-4.3,5.24-10.29,1.68-10.88-2.76H498A16.55,16.55,0,0,0,498.07,216.15Zm-6.58-3.49h-9.81C482.77,207.9,490.41,206.9,491.49,212.66Z" transform="translate(-320.07 -195.77)"/><polygon points="97.73 19.62 109.22 8.13 100.99 8.13 92.12 17 92.12 0 86.31 0 86.31 32.64 92.12 32.64 92.12 22.23 102.52 32.64 110.75 32.64 97.73 19.62"/><path d="M363.3,228.4v-9.49h4.12l7.12,9.49h7.28L373.21,217a10.55,10.55,0,0,0-6.11-19.16h-9.62V228.4Zm0-24.8h3.8a4.75,4.75,0,1,1,0,9.49h-3.8Z" transform="translate(-320.07 -195.77)"/><path d="M377.13,240.5l4.44,5.09c-1.15,6.34-4.05,16.72-17.26,22.74l-3.15-4c13-5.38,14.75-15.47,15.43-19.16H355.78V240.5Zm2.29-4.69a29.52,29.52,0,0,1,4.15,6.45l-2.43,1.68a29.49,29.49,0,0,0-4-6.55Zm5.12-1a30.77,30.77,0,0,1,4,6.55l-2.47,1.62a29.14,29.14,0,0,0-3.84-6.66Z" transform="translate(-320.07 -195.77)" style="fill:#bf0000"/><path d="M390.27,245.48a53.49,53.49,0,0,1,4.27,7.59l-3.66,2a50.27,50.27,0,0,0-4.15-7.52Zm21.1.25c-1.36,10.28-5.59,19-17.66,23l-3.19-3.41c11.39-3.36,15.3-10.45,16.51-20.37Zm-13.68-1.9a44.34,44.34,0,0,1,4,7.77L398,253.47a43.38,43.38,0,0,0-3.94-7.74Z" transform="translate(-320.07 -195.77)" style="fill:#bf0000"/><path d="M418,264.78c8.81-3,16.58-9.6,18.73-21h-11a36.41,36.41,0,0,1-8.6,9.77l-3.65-3.15a33.34,33.34,0,0,0,9.24-11.17h19.95c-2.12,18.87-12.65,26.1-21.38,29.54Z" transform="translate(-320.07 -195.77)" style="fill:#bf0000"/><path d="M443.43,264.07c7.19-3.23,15.47-8.56,19.94-19.81H445.93v-4.65h24.21a43.65,43.65,0,0,1-6.27,13.89,69.61,69.61,0,0,1,10.5,11l-3.87,3.22a65.6,65.6,0,0,0-9.56-10.38A41.25,41.25,0,0,1,446.22,268Z" transform="translate(-320.07 -195.77)" style="fill:#bf0000"/></svg>