<svg id="レイヤー_1" data-name="レイヤー 1" xmlns="http://www.w3.org/2000/svg" viewBox="0 0 90.92 98"><title>ico_user</title><path id="_パス_" data-name="&lt;パス&gt;" d="M55.15,53.09a24.53,24.53,0,1,0-24.3,0A30.36,30.36,0,0,0,13.36,80.74v12H72.64v-12A30.36,30.36,0,0,0,55.15,53.09Z" transform="translate(-7.08 -1)" style="fill:#f5f4f4"/><path id="_複合パス_" data-name="&lt;複合パス&gt;" d="M43,7.28A24.51,24.51,0,0,1,55.15,53.09,30.36,30.36,0,0,1,72.64,80.74v12H13.36v-12A30.36,30.36,0,0,1,30.85,53.09,24.51,24.51,0,0,1,43,7.28M43,1A30.78,30.78,0,0,0,20.2,52.48,37,37,0,0,0,7.08,80.74v12A6.28,6.28,0,0,0,13.36,99H72.64a6.28,6.28,0,0,0,6.28-6.28v-12A37,37,0,0,0,65.8,52.48,30.78,30.78,0,0,0,43,1Z" transform="translate(-7.08 -1)" style="fill:#4d4d4d"/><ellipse id="_パス_2" data-name="&lt;パス&gt;" cx="25.69" cy="25.73" rx="2.82" ry="4.76" style="fill:#4d4d4d"/><ellipse id="_パス_3" data-name="&lt;パス&gt;" cx="45.29" cy="25.73" rx="2.82" ry="4.76" style="fill:#4d4d4d"/><path id="_パス_4" data-name="&lt;パス&gt;" d="M42.24,46.27c-6.87,0-9.83-5-9.83-9.18h3.88a5.55,5.55,0,0,0,6,5.27c4.06,0,6.69-2.13,6.69-5.27h3.66C52.59,41.27,49.55,46.27,42.24,46.27Z" transform="translate(-7.08 -1)" style="fill:#4d4d4d"/><rect x="44.92" y="66" width="44" height="30" style="fill:#f6f5f5"/><path d="M94,69V95H54V69H94m0-4H54a4,4,0,0,0-4,4V95a4,4,0,0,0,4,4H94a4,4,0,0,0,4-4V69a4,4,0,0,0-4-4Z" transform="translate(-7.08 -1)" style="fill:#4d4d4d"/><rect id="_長方形_" data-name="&lt;長方形&gt;" x="71.92" y="82" width="12" height="9" rx="2" ry="2" style="fill:#f1cf49"/><polygon points="87.92 72 45.92 72 45.92 78 87.92 78 87.92 72 87.92 72" style="fill:#4d4d4d"/></svg>