<svg xmlns="http://www.w3.org/2000/svg" viewBox="0 0 147.38 95.3"><title>illust_point2</title><g id="レイヤー_1" data-name="レイヤー 1"><rect x="35.61" y="30.88" width="47.98" height="31.65" rx="2" ry="2" style="fill:#6791b1"/><path d="M94.35,22.67H32.08A4.08,4.08,0,0,0,28,26.75v43.9a4.08,4.08,0,0,0,4.08,4.08H60.67v7.15H42.29a3.06,3.06,0,1,0,0,6.12H85.17a3.06,3.06,0,1,0,0-6.12H66.79V74.73H94.35a4.09,4.09,0,0,0,4.09-4.08V26.75A4.08,4.08,0,0,0,94.35,22.67Zm-2,45.93H34.13V28.79H92.31Z" transform="translate(-3.62 -1.99)" style="fill:#4d4d4d"/><path d="M101.5,84.94a6.13,6.13,0,1,0-12.25,0A6,6,0,0,0,90.08,88h10.59A6,6,0,0,0,101.5,84.94Z" transform="translate(-3.62 -1.99)" style="fill:#4d4d4d"/><rect x="99.92" y="32.93" width="22.46" height="53.08" rx="4" ry="4" style="fill:#4d4d4d"/><path id="_パス_" data-name="&lt;パス&gt;" d="M34,68.29a15.5,15.5,0,1,0-15.34,0A19.17,19.17,0,0,0,7.58,85.76v7.57H45V85.76A19.19,19.19,0,0,0,34,68.29Z" transform="translate(-3.62 -1.99)" style="fill:#f5f4f4"/><path id="_複合パス_" data-name="&lt;複合パス&gt;" d="M26.31,39.34a15.49,15.49,0,0,1,7.67,29A19.19,19.19,0,0,1,45,85.76v7.57H7.58V85.76A19.17,19.17,0,0,1,18.64,68.29a15.49,15.49,0,0,1,7.67-28.95m0-4A19.44,19.44,0,0,0,11.91,67.9,23.37,23.37,0,0,0,3.62,85.76v7.57a4,4,0,0,0,4,4H45a4,4,0,0,0,4-4V85.76A23.37,23.37,0,0,0,40.71,67.9a19.44,19.44,0,0,0-14.4-32.52Z" transform="translate(-3.62 -1.99)" style="fill:#4d4d4d"/><ellipse id="_パス_2" data-name="&lt;パス&gt;" cx="16.23" cy="49.65" rx="1.78" ry="3.01" style="fill:#4d4d4d"/><ellipse id="_パス_3" data-name="&lt;パス&gt;" cx="28.61" cy="49.65" rx="1.78" ry="3.01" style="fill:#4d4d4d"/><path id="_パス_4" data-name="&lt;パス&gt;" d="M25.83,64a5.79,5.79,0,0,1-6.21-5.8h2.45a3.5,3.5,0,0,0,3.76,3.33c2.56,0,4.22-1.35,4.22-3.33h2.32C32.37,60.82,30.45,64,25.83,64Z" transform="translate(-3.62 -1.99)" style="fill:#4d4d4d"/><path id="_パス_5" data-name="&lt;パス&gt;" d="M26,61.5h-.16a3.5,3.5,0,0,1-3.76-3.33H19.62A5.79,5.79,0,0,0,25.83,64H26Z" transform="translate(-3.62 -1.99)" style="fill:#4c4948"/></g><g id="レイヤー_2" data-name="レイヤー 2"><path d="M124,27A26,26,0,0,0,98.06,51.26L88,53.88l10.22,2.66A26,26,0,1,0,124,27Z" transform="translate(-3.62 -1.99)" style="fill:#fff;stroke:#4d4d4d;stroke-miterlimit:10;stroke-width:2px"/><path d="M138.26,42.17a3.14,3.14,0,0,0-2.48-.82,2.92,2.92,0,0,0-.91.24L131.7,42.9h-.06l-.16,0a.88.88,0,0,1-.24,0l-1.7-.62,1.58-2.64a2.9,2.9,0,0,0-.07-3.34,2.87,2.87,0,0,0-2.6-1.13,3.12,3.12,0,0,0-.73.18l-.14,0-.14.08-6.36,3.67-.09.05-5.27-1.9a15.74,15.74,0,0,0-6.67-1c-2.88.32-3.84,1.8-4.14,2.65-.93,2.56,1.21,4.8,6.36,6.67l5.23,1.89,4.18,12.15a3.06,3.06,0,0,0,3.23,2.06l.15,0a3,3,0,0,0,2.58-2.93l.58-7.37,1.77.64h0a10.09,10.09,0,0,0,4.28.52,4.91,4.91,0,0,0,4.39-3v0l1.36-4.07A3.14,3.14,0,0,0,138.26,42.17Zm-1.08,2.69L135.81,49a3,3,0,0,1-2.71,1.71,8.22,8.22,0,0,1-3.42-.43L126.22,49l.07-.79-.81-.42-.08.91-.11,1.23h0l-.69,8.85a1,1,0,0,1-.88,1h0a1.05,1.05,0,0,1-1.1-.71L118.1,46,112,43.8c-1.78-.64-5.79-2.29-5.15-4.07.26-.73,1.13-1.15,2.29-1.3-.81,2.37,2,3.15,2,3.15l.52-1.41a1.25,1.25,0,0,1-1-1.36,4.19,4.19,0,0,1,.15-.44,15,15,0,0,1,4.32.87l6.16,2.22,2.67.93.84-.55-2.61-.9,6.37-3.66a.73.73,0,0,1,.21-.06.84.84,0,0,1,.76.33.85.85,0,0,1,0,1l-2.88,4.83,4,1.44a2.71,2.71,0,0,0,1.16.14,2.68,2.68,0,0,0,.77-.21l3.19-1.32a1.07,1.07,0,0,1,.34-.09,1.14,1.14,0,0,1,1.18,1.5Z" transform="translate(-3.62 -1.99)" style="fill:#4d4d4d"/><path d="M113.72,41.29a.84.84,0,1,0,.93.75A.84.84,0,0,0,113.72,41.29Z" transform="translate(-3.62 -1.99)" style="fill:#4d4d4d"/><path d="M117.13,42.45a.84.84,0,1,0,.93.74A.84.84,0,0,0,117.13,42.45Z" transform="translate(-3.62 -1.99)" style="fill:#4d4d4d"/><path d="M120.54,43.6a.84.84,0,1,0,.93.75A.84.84,0,0,0,120.54,43.6Z" transform="translate(-3.62 -1.99)" style="fill:#4d4d4d"/><path d="M124,44.75a.84.84,0,1,0,.93.75A.84.84,0,0,0,124,44.75Z" transform="translate(-3.62 -1.99)" style="fill:#4d4d4d"/><rect x="112.53" y="56.29" width="21.94" height="12.8" style="fill:#fff"/><rect x="119.84" y="51.72" width="7.31" height="3.66" style="fill:#fff"/><path d="M138.21,56.8H132V55.48A2.45,2.45,0,0,0,129.54,53l-4.86,0h0a2.46,2.46,0,0,0-2.45,2.44V56.8H116a.8.8,0,0,0-.79.79v13.5a.8.8,0,0,0,.79.79h22.23a.8.8,0,0,0,.79-.79V57.59A.8.8,0,0,0,138.21,56.8ZM121.14,70.29H119.8a4.43,4.43,0,0,0-3-3.1V61.38a4.46,4.46,0,0,0,3-3h1.37Zm2.67-14.84a.87.87,0,0,1,.86-.86h4.86a.89.89,0,0,1,.87.88V56.8h-6.59Zm7.65,14.84h-8.73V58.53h8.73Zm5.95-3.12a4.46,4.46,0,0,0-3.09,3.12h-1.27V58.39h1.3a4.51,4.51,0,0,0,3.06,3Z" transform="translate(-3.62 -1.99)" style="fill:#4d4d4d"/><path d="M76.75,3.42a20,20,0,0,0-3.66,38l.73,7.43L78,42.77a19.7,19.7,0,0,0,7-.2A20,20,0,0,0,76.75,3.42Z" transform="translate(-3.62 -1.99)" style="fill:#fff;stroke:#4d4d4d;stroke-miterlimit:10;stroke-width:2px"/><path d="M89.35,31.89h-14a.84.84,0,0,1-.82-.67L71.1,14.7H67.54a.84.84,0,0,1-.84-.84.83.83,0,0,1,.84-.83h4.24a.82.82,0,0,1,.81.66L76,30.22H89.35a.83.83,0,0,1,.83.83A.84.84,0,0,1,89.35,31.89Z" transform="translate(-3.62 -1.99)" style="fill:#4d4d4d"/><g id="_グループ_" data-name="&lt;グループ&gt;"><circle cx="72.89" cy="32.96" r="1.93" style="fill:#4d4d4d"/></g><g id="_グループ_2" data-name="&lt;グループ&gt;"><circle cx="84.22" cy="32.96" r="1.93" style="fill:#4d4d4d"/></g><g id="_グループ_3" data-name="&lt;グループ&gt;"><g id="_グループ_4" data-name="&lt;グループ&gt;"><path d="M93.21,17.15h-20c-.79,0-1.42.35-1.42.77s.63.78,1.42.78h20Z" transform="translate(-3.62 -1.99)" style="fill:#4d4d4d"/></g><g id="_グループ_5" data-name="&lt;グループ&gt;"><line x1="86.67" y1="20.99" x2="86.67" y2="20.99" style="fill:#231815"/></g><g id="_グループ_6" data-name="&lt;グループ&gt;"><line x1="87.39" y1="18.6" x2="87.32" y2="18.6" style="fill:#231815"/></g><path d="M92.43,21.66l1.34-4.52H92l-.7,2.39h0l-1,3.45-.49,1.67h0L89.1,27H74.68a.84.84,0,0,0-.84.83.85.85,0,0,0,.84.84h15a.86.86,0,0,0,.81-.6l1.33-4.52h0l.53-1.8A.5.5,0,0,0,92.43,21.66Z" transform="translate(-3.62 -1.99)" style="fill:#4d4d4d"/></g><circle cx="77.38" cy="21.01" r="17" style="fill:#4d4d4d"/><rect x="67.15" y="15.72" width="2.34" height="2.98" style="fill:#fff"/><polygon points="67.2 22.73 69.48 23.07 69.48 20.44 67.15 20.44 67.2 22.73" style="fill:#fff"/><circle cx="79.96" cy="30.89" r="1.04" style="fill:#fff"/><rect x="76.54" y="15.72" width="3.53" height="2.98" style="fill:#fff"/><polygon points="71.22 23.32 74.81 23.82 74.81 20.44 71.22 20.44 71.22 23.32" style="fill:#fff"/><circle cx="70.91" cy="30.89" r="1.04" style="fill:#fff"/><rect x="71.27" y="15.72" width="3.53" height="2.98" style="fill:#fff"/><polygon points="81.86 18.7 84.35 18.7 84.9 15.72 81.86 15.72 81.86 18.7" style="fill:#fff"/><polygon points="76.55 24.12 80.12 24.62 80.12 20.44 76.55 20.44 76.55 24.12" style="fill:#fff"/><polygon points="81.86 24.86 83.21 25.06 84 20.44 81.86 20.44 81.86 24.86" style="fill:#fff"/><path d="M80.93,5.14A17.93,17.93,0,1,0,98.86,23.07,17.93,17.93,0,0,0,80.93,5.14ZM93.68,15.37h-3L87.92,30.48H85a2.81,2.81,0,1,1-2.88,0H76a2.81,2.81,0,1,1-2.88,0H70.82a.85.85,0,0,1-.75-.84.91.91,0,0,1,.7-.9H86.08L69,26.16V16H88.81l.4-2.34h4.47a.84.84,0,0,1,.8.85A.91.91,0,0,1,93.68,15.37Z" transform="translate(-3.62 -1.99)" style="fill:#fff"/></g></svg>