<svg id="レイヤー_1" data-name="レイヤー 1" xmlns="http://www.w3.org/2000/svg" viewBox="0 0 400 400"><defs><style>.cls-1{fill:#1da1f2;}.cls-2{fill:#fff;}</style></defs><title>icon_twitter</title><g id="Page-1"><g id="icon_twitter" data-name="icon twitter"><path id="Fill-1" class="cls-1" d="M0,400H400V0H0Z" transform="translate(0 0)"/><path id="Fill-2" class="cls-2" d="M153.62,301.59c94.35,0,145.94-78.16,145.94-145.94q0-3.33-.15-6.63A104.19,104.19,0,0,0,325,122.47a102.44,102.44,0,0,1-29.45,8.07,51.5,51.5,0,0,0,22.55-28.37,103,103,0,0,1-32.57,12.45,51.34,51.34,0,0,0-87.41,46.77A145.59,145.59,0,0,1,92.4,107.8a51.33,51.33,0,0,0,15.88,68.48,50.88,50.88,0,0,1-23.23-6.42c0,.22,0,.43,0,.66a51.31,51.31,0,0,0,41.15,50.28,51.25,51.25,0,0,1-23.17.88,51.36,51.36,0,0,0,47.92,35.63,103,103,0,0,1-63.7,21.95A105.19,105.19,0,0,1,75,278.55a145.17,145.17,0,0,0,78.62,23" transform="translate(0 0)"/></g></g></svg>