<svg id="レイヤー_1" data-name="レイヤー 1" xmlns="http://www.w3.org/2000/svg" xmlns:xlink="http://www.w3.org/1999/xlink" viewBox="0 0 143.27 143.28"><defs><style>.cls-1{fill:#fff;}.cls-2{mask:url(#mask);}.cls-3{fill:#00b900;}</style><mask id="mask" x="0" y="0" width="143.27" height="143.28" maskUnits="userSpaceOnUse"><g transform="translate(0 0)"><g id="mask-2"><path id="path-1" class="cls-1" d="M0,143.28V0H143.27V143.28Z"/></g></g></mask></defs><title>icon_line</title><g id="Page-1"><g id="icon_line" data-name="icon line"><g id="Group-3"><g class="cls-2"><path id="Fill-1" class="cls-3" d="M117.36,0H26.11A26.06,26.06,0,0,0,0,25.91v91.25a26.07,26.07,0,0,0,25.91,26.12h91.25a26.06,26.06,0,0,0,26.11-25.92V26.11A26.06,26.06,0,0,0,117.36,0" transform="translate(0 0)"/></g></g><path id="Fill-4" class="cls-1" d="M123.57,65.34C123.57,42,100.17,23,71.4,23S19.24,42,19.24,65.34c0,20.93,18.56,38.45,43.63,41.76,1.69.37,4,1.12,4.59,2.58a10.56,10.56,0,0,1,.17,4.71l-.74,4.47c-.23,1.32-1,5.16,4.51,2.81s30.05-17.69,41-30.29h0c7.56-8.29,11.18-16.7,11.18-26" transform="translate(0 0)"/><path id="Fill-6" class="cls-3" d="M60.81,54.06H57.15a1,1,0,0,0-1,1V77.8a1,1,0,0,0,1,1h3.66a1,1,0,0,0,1-1V55.07a1,1,0,0,0-1-1" transform="translate(0 0)"/><path id="Fill-8" class="cls-3" d="M86,54.06H82.33a1,1,0,0,0-1,1V68.58L70.9,54.51a.39.39,0,0,0-.08-.1h0l-.06-.06,0,0a.1.1,0,0,0,0,0l0,0-.05,0-.12-.07-.06,0h0l-.06,0H66.39a1,1,0,0,0-1,1V77.8a1,1,0,0,0,1,1h3.66a1,1,0,0,0,1-1V64.3L81.5,78.39a1,1,0,0,0,.26.25h0l.06,0h0l0,0,0,0h0l.08,0a.78.78,0,0,0,.26,0H86a1,1,0,0,0,1-1V55.07a1,1,0,0,0-1-1" transform="translate(0 0)"/><path id="Fill-10" class="cls-3" d="M52,73.13H42v-18a1,1,0,0,0-1-1H37.37a1,1,0,0,0-1,1V77.8a1,1,0,0,0,.29.7s0,0,0,0h0a1,1,0,0,0,.7.29H52a1,1,0,0,0,1-1V74.14a1,1,0,0,0-1-1" transform="translate(0 0)"/><path id="Fill-12" class="cls-3" d="M106.2,59.75a1,1,0,0,0,1-1V55.08a1,1,0,0,0-1-1H91.58a1,1,0,0,0-.71.29h0v0a.94.94,0,0,0-.29.69V77.8a1,1,0,0,0,.32.73,1,1,0,0,0,.7.29H106.2a1,1,0,0,0,1-1V74.14a1,1,0,0,0-1-1H96.26V69.28h9.94a1,1,0,0,0,1-1V64.61a1,1,0,0,0-1-1H96.26V59.75Z" transform="translate(0 0)"/></g></g></svg>