<svg id="レイヤー_1" data-name="レイヤー 1" xmlns="http://www.w3.org/2000/svg" viewBox="0 0 201.76 72.38"><defs><style>.cls-1{fill:#bf0000;}.cls-2{fill:#fff;}</style></defs><title>logo_vertical</title><g id="Page-1"><g id="logo_vertical" data-name="logo vertical"><path id="Fill-943" class="cls-1" d="M34.08,17.46a17,17,0,1,1-17-17,17,17,0,0,1,17,17" transform="translate(-0.07 -0.12)"/><path id="Fill-945" class="cls-2" d="M14.82,11.79h2.27a2.83,2.83,0,1,1,0,5.66H14.82Zm0,14.8V20.92h2.46l4.25,5.67h4.35l-5.14-6.84A6.3,6.3,0,0,0,17.09,8.31H11.35V26.59Z" transform="translate(-0.07 -0.12)"/><path id="Fill-947" d="M148.92,25.94a2.64,2.64,0,0,1-5.06-1.3V14.07h8.57V8.25h-8.57V2.15H138v6.1h-4.13v5.82H138V24.64a8.47,8.47,0,0,0,16.54,2.82Z" transform="translate(-0.07 -0.12)"/><path id="Fill-949" d="M71.4,27.54c-3.12,0-5.66-3.15-5.66-7s2.54-7,5.66-7,5.67,3.16,5.67,7S74.52,27.54,71.4,27.54ZM77.07,8.25V9.34A10.5,10.5,0,0,0,71.4,7.65c-6.33,0-11.47,5.77-11.47,12.86S65.07,33.36,71.4,33.36a10.5,10.5,0,0,0,5.67-1.69v1.09h5.81V8.25Z" transform="translate(-0.07 -0.12)"/><path id="Fill-951" d="M126.06,8.25v14.4a4.9,4.9,0,0,1-9.79,0V8.25h-5.82v14.4a10.7,10.7,0,0,0,15.61,9.52v.59h5.82V8.25Z" transform="translate(-0.07 -0.12)"/><path id="Fill-953" d="M191.11,7.65a10.63,10.63,0,0,0-4.9,1.2v-.6H180.4V32.76h5.81V18.37a4.9,4.9,0,1,1,9.79,0V32.76h5.82V18.37A10.72,10.72,0,0,0,191.11,7.65" transform="translate(-0.07 -0.12)"/><path id="Fill-955" d="M171.49,17h-9.81c1.09-4.77,8.73-5.76,9.81,0m6.58,3.49c0-7.1-5.15-12.88-11.48-12.88s-11.48,5.66-11.48,12.88c0,7.59,6.47,12.87,12.28,12.87A12,12,0,0,0,177.5,27.9L172.44,25c-4.3,5.25-10.29,1.69-10.88-2.75H178a16.36,16.36,0,0,0,.11-1.71" transform="translate(-0.07 -0.12)"/><polygon id="Fill-957" points="97.73 19.62 109.22 8.13 100.99 8.13 92.12 17 92.12 0 86.31 0 86.31 32.64 92.12 32.64 92.12 22.24 102.52 32.64 110.75 32.64 97.73 19.62"/><path id="Fill-959" d="M43.3,8h3.8a4.75,4.75,0,1,1,0,9.49H43.3Zm0,24.8v-9.5h4.12l7.12,9.5h7.28L53.21,21.3A10.54,10.54,0,0,0,47.1,2.15H37.48V32.76Z" transform="translate(-0.07 -0.12)"/><path id="Fill-961" class="cls-1" d="M56.24,51c-1.43-3.15-3.81-4.94-6.65-4.94-4.28,0-7.58,4.63-7.58,10.51s3.34,10.46,7.58,10.46c2.84,0,5.18-1.75,6.77-5l4.86,3c-2.52,5.06-6.3,7.47-11.67,7.47-8.09,0-13.77-6.58-13.77-15.91,0-9.14,5.92-16,13.89-16,5.17,0,9.14,2.57,11.55,7.47Z" transform="translate(-0.07 -0.12)"/><path id="Fill-963" class="cls-1" d="M68.51,59.62c0,4.13,2.53,7.43,5.68,7.43s5.64-3.07,5.64-7.39-2.37-7.43-5.68-7.43C71,52.23,68.51,55.5,68.51,59.62Zm11.32,10a7.55,7.55,0,0,1-6,2.84c-6.14,0-11.12-5.8-11.12-12.88s5.13-12.84,11.44-12.84a6.84,6.84,0,0,1,5.71,2.84l.78-2.25h5.06v24.5H80.61Z" transform="translate(-0.07 -0.12)"/><path id="Fill-965" class="cls-1" d="M94.37,49.62a9.21,9.21,0,0,1,7.12-2.84v5.45c-2.76.19-4.32,1-5.48,2.68a6.36,6.36,0,0,0-1,3.54V71.87H89.16V47.37h4.67Z" transform="translate(-0.07 -0.12)"/><path id="Fill-967" class="cls-1" d="M108.2,59.62c0,4.13,2.53,7.43,5.68,7.43s5.64-3.07,5.64-7.39-2.38-7.43-5.68-7.43S108.2,55.5,108.2,59.62Zm11.32,10a7.57,7.57,0,0,1-6,2.84c-6.15,0-11.13-5.8-11.13-12.88s5.14-12.84,11.44-12.84a6.87,6.87,0,0,1,5.72,2.84V39.24h5.83V71.87h-5Z" transform="translate(-0.07 -0.12)"/></g></g></svg>