<svg id="レイヤー_1" data-name="レイヤー 1" xmlns="http://www.w3.org/2000/svg" xmlns:xlink="http://www.w3.org/1999/xlink" viewBox="0 0 141.73 141.73"><defs><style>.cls-1{fill:#fff;}.cls-2{mask:url(#mask);}.cls-3{mask:url(#mask-2-2);}.cls-4{fill:#bf0000;}</style><mask id="mask" x="0" y="0" width="141.73" height="141.73" maskUnits="userSpaceOnUse"><g transform="translate(0 0)"><g id="mask-2"><path id="path-1" class="cls-1" d="M0,0H141.73V141.73H0Z"/></g></g></mask><mask id="mask-2-2" x="0" y="0" width="141.73" height="141.73" maskUnits="userSpaceOnUse"><g transform="translate(0 0)"><g id="mask-4"><path id="path-3" class="cls-1" d="M0,141.73H141.73V0H0Z"/></g></g></mask></defs><title>logo_rpoint</title><g id="Page-1"><g id="logo_rpoint" data-name="logo rpoint"><path id="Fill-1" class="cls-1" d="M1.61,127.75A12.39,12.39,0,0,0,14,140.12H127.75a12.37,12.37,0,0,0,12.37-12.37V14A12.39,12.39,0,0,0,127.75,1.61H14A12.4,12.4,0,0,0,1.61,14V127.74Z" transform="translate(0 0)"/><g id="Group-5"><g class="cls-2"><path id="Fill-3" d="M1.61,127.74A12.39,12.39,0,0,0,14,140.12H127.75a12.37,12.37,0,0,0,12.37-12.37V14A12.39,12.39,0,0,0,127.75,1.61H14A12.4,12.4,0,0,0,1.61,14V127.74Zm12.37,14a14,14,0,0,1-14-14V14A14,14,0,0,1,14,0H127.75a14,14,0,0,1,14,14V127.74a14,14,0,0,1-14,14Z" transform="translate(0 0)"/></g></g><path id="Fill-6" d="M35,117.09a3.52,3.52,0,0,0,3.45-3.65A3.45,3.45,0,0,0,35,109.87H31.47v7.22Zm.28-11.21a7.61,7.61,0,1,1,0,15.21H31.47v7.24H27.19V105.88Z" transform="translate(0 0)"/><path id="Fill-8" d="M50.09,117.12c0,4.74,2,7.68,5.2,7.68s5.19-3,5.19-7.71-1.91-7.67-5.22-7.67-5.17,2.82-5.17,7.7m15,0c0,7-3.91,11.67-9.75,11.67s-9.76-4.68-9.76-11.67,3.91-11.69,9.81-11.69,9.7,4.73,9.7,11.69" transform="translate(0 0)"/><g class="cls-3"><path id="Fill-10" d="M69.15,128.34h4.28V105.88H69.15Z" transform="translate(0 0)"/></g><g class="cls-3"><path id="Fill-12" d="M83.36,105.88l8,13.75V105.88h4.28v22.45H91.35l-8-14.4v14.4H79.08V105.88Z" transform="translate(0 0)"/></g><g class="cls-3"><path id="Fill-13" d="M109.64,109.87v18.46h-4.28V109.87H99.22v-4h16.55v4Z" transform="translate(0 0)"/></g><g class="cls-3"><path id="Fill-14" class="cls-4" d="M114.09,56.64A43.23,43.23,0,1,1,70.86,13.4a43.22,43.22,0,0,1,43.23,43.24" transform="translate(0 0)"/></g><g class="cls-3"><path id="Fill-15" class="cls-1" d="M65.15,42.23h5.76a7.2,7.2,0,1,1,0,14.4H65.15V42.23Zm0,37.63V65.46h6.24L82.2,79.86h11L80.19,62.48a16,16,0,0,0-9.28-29.07H56.32V79.86Z" transform="translate(0 0)"/></g></g></g></svg>