<?xml version="1.0" encoding="utf-8"?>
<!-- Generator: Adobe Illustrator 22.1.0, SVG Export Plug-In . SVG Version: 6.00 Build 0)  -->
<svg version="1.1" id="レイヤー_1" xmlns="http://www.w3.org/2000/svg" xmlns:xlink="http://www.w3.org/1999/xlink" x="0px"
	 y="0px" viewBox="0 0 100 100" style="enable-background:new 0 0 100 100;" xml:space="preserve">
<style type="text/css">
	.st0{fill:#F6F5F5;}
	.st1{fill:#F1CF49;}
	.st2{fill:#4D4D4D;}
	.st3{clip-path:url(#SVGID_1_);}
	.st4{fill:#999999;}
	.st5{fill:#D6524F;}
	.st6{fill:#FFFFFF;}
</style>
<g>
	<rect x="6.5" y="12.5" class="st0" width="37.5" height="25.6"/>
	<path id="XMLID_666_" class="st1" d="M38.6,34.6h-6.2c-1.1,0-2-0.9-2-2V29c0-1.1,0.9-2,2-2h6.2c1.1,0,2,0.9,2,2v3.7
		C40.6,33.7,39.7,34.6,38.6,34.6z"/>
	<g>
		<path class="st2" d="M44,10.8H6.5c-0.9,0-1.7,0.8-1.7,1.7V38c0,0.9,0.8,1.7,1.7,1.7H44c0.9,0,1.7-0.8,1.7-1.7V12.5
			C45.7,11.5,44.9,10.8,44,10.8L44,10.8z M7.3,17.6v-3.4c0-0.5,0.4-0.9,0.9-0.9h34.1c0.5,0,0.9,0.4,0.9,0.9v3.4H7.3L7.3,17.6z
			 M8.2,37.2c-0.5,0-0.9-0.4-0.9-0.9V21.8h35.8v14.5c0,0.5-0.4,0.9-0.9,0.9H8.2L8.2,37.2z"/>
	</g>
</g>
<g>
	<g>
		<path class="st2" d="M30.2,52.7H85c2,0,3.6,1.5,3.8,3.4c-0.2,0-0.3,0-0.5,0H33.6c-2.1,0-3.8,1.7-3.8,3.8v27c0,0.2,0,0.3,0,0.5
			c-1.9-0.2-3.4-1.8-3.4-3.8v-27C26.4,54.4,28.1,52.7,30.2,52.7z"/>
	</g>
	<g>
		<g>
			<g>
				<path id="XMLID_1_" class="st0" d="M93.8,87.2V66.2c0-2.8-2.3-5.2-5.2-5.2H39.8c-2.8,0-5.2,2.3-5.2,5.2v21.1
					c0,2.8,2.3,5.2,5.2,5.2h48.8C91.5,92.4,93.8,90.1,93.8,87.2z"/>
				<g>
					<path class="st2" d="M33.1,90.2v-27c0-2.1,1.7-3.8,3.8-3.8h54.7c2.1,0,3.8,1.7,3.8,3.8v27c0,2.1-1.7,3.8-3.8,3.8H36.9
						C34.8,94,33.1,92.3,33.1,90.2z M36.9,62.6c-0.3,0-0.6,0.3-0.6,0.6v27c0,0.3,0.3,0.6,0.6,0.6h54.7c0.3,0,0.6-0.3,0.6-0.6v-27
						c0-0.3-0.3-0.6-0.6-0.6H36.9z"/>
				</g>
			</g>
		</g>
		<rect x="38.8" y="73.3" class="st2" width="50.9" height="6.9"/>
		<g>
			<defs>
				
					<rect id="SVGID_3_" x="43.3" y="65.7" transform="matrix(-1 -4.484025e-11 4.484025e-11 -1 128.5061 153.3765)" width="41.9" height="21.9"/>
			</defs>
			<clipPath id="SVGID_1_">
				<use xlink:href="#SVGID_3_"  style="overflow:visible;"/>
			</clipPath>
			<g class="st3">
				<circle class="st2" cx="64.3" cy="76.3" r="14.3"/>
				<path class="st4" d="M48.5,76.3c0-8.7,7.1-15.8,15.8-15.8C73,60.6,80,67.6,80,76.3c0,8.7-7.1,15.8-15.8,15.8
					C55.5,92.1,48.5,85.1,48.5,76.3z M51.4,76.3c0,7.1,5.7,12.8,12.8,12.8c7.1,0,12.8-5.7,12.8-12.8c0-7.1-5.7-12.8-12.8-12.8
					C57.2,63.5,51.4,69.3,51.4,76.3z"/>
			</g>
		</g>
		<path class="st0" d="M58.7,79h4v-1.2h-4c-0.9,0-1.6-0.7-1.6-1.6c0-0.9,0.7-1.6,1.6-1.6h2.6L58,69.9c-0.5-0.7-0.3-1.7,0.4-2.2
			c0.7-0.5,1.7-0.3,2.2,0.4l3.8,5.3l3.9-5.2c0.5-0.7,1.5-0.8,2.2-0.3c0.7,0.5,0.8,1.5,0.3,2.2l-3.4,4.4h2.3c0.9,0,1.6,0.7,1.6,1.6
			c0,0.9-0.7,1.6-1.6,1.6h-4V79h4c0.9,0,1.6,0.7,1.6,1.6c0,0.9-0.7,1.6-1.6,1.6h-4v2.7c0,0.9-0.7,1.6-1.6,1.6
			c-0.9,0-1.6-0.7-1.6-1.6v-2.7h-4c-0.9,0-1.6-0.7-1.6-1.6C57.1,79.7,57.8,79,58.7,79z"/>
	</g>
	<g>
		<path class="st2" d="M23.6,46.1h54.7c2,0,3.6,1.5,3.8,3.4c-0.2,0-0.3,0-0.5,0H26.9c-2.1,0-3.8,1.7-3.8,3.8v27c0,0.2,0,0.3,0,0.5
			c-1.9-0.2-3.4-1.8-3.4-3.8v-27C19.8,47.8,21.5,46.1,23.6,46.1z"/>
	</g>
</g>
<g>
	<g id="XMLID_1660_">
		<path class="st5" d="M64.3,62.7c-0.3,0-0.6-0.1-0.8-0.4L49.4,44.9c-0.2-0.3-0.3-0.7-0.1-1.1c0.2-0.3,0.5-0.6,0.9-0.6h6.8
			c0-1.3-0.1-4.4-2-9.6c-2.9-8.2-12.2-12.4-12.3-12.5C42.2,21,41.9,20.5,42,20c0.1-0.4,0.5-0.8,1-0.8c0,0,0,0,0.1,0
			c0.6,0,14.1,1,21.8,10.3c5.2,6.3,6.2,11.5,6.3,13.7H77c0.4,0,0.7,0.2,0.9,0.5c0.2,0.3,0.1,0.7-0.1,1L65.1,62.3
			C64.9,62.6,64.6,62.7,64.3,62.7C64.3,62.7,64.3,62.7,64.3,62.7z"/>
		<path class="st6" d="M43,20.3c0,0,13.6,0.9,21,9.9c6.6,8,6.1,14.1,6.1,14.1H77L64.3,61.7L50.1,44.3h7.7c0,0,0.8-3.2-1.9-11
			C52.8,24.6,43,20.3,43,20.3 M77,44.3L77,44.3 M43,18.3c-0.9,0-1.7,0.6-1.9,1.5c-0.2,0.9,0.2,1.9,1.1,2.3
			c0.1,0.1,9.1,4.2,11.8,11.9c1.4,4.1,1.8,6.8,1.9,8.3h-5.7c-0.8,0-1.5,0.4-1.8,1.1c-0.3,0.7-0.2,1.5,0.3,2.1L62.8,63
			c0.4,0.5,1,0.7,1.6,0.7c0,0,0,0,0.1,0c0.6,0,1.2-0.3,1.6-0.8l12.7-17.4c0.3-0.3,0.4-0.8,0.4-1.2c0-1.1-0.9-2-2-2h0h-5
			c-0.4-2.7-1.7-7.6-6.4-13.4c-7.9-9.6-21.9-10.6-22.5-10.6C43.1,18.3,43,18.3,43,18.3L43,18.3z"/>
	</g>
</g>
</svg>
