<?xml version="1.0" encoding="utf-8"?>
<!-- Generator: Adobe Illustrator 22.1.0, SVG Export Plug-In . SVG Version: 6.00 Build 0)  -->
<svg version="1.1" id="レイヤー_1" xmlns="http://www.w3.org/2000/svg" xmlns:xlink="http://www.w3.org/1999/xlink" x="0px"
	 y="0px" viewBox="0 0 100 100" style="enable-background:new 0 0 100 100;" xml:space="preserve">
<style type="text/css">
	.st0{fill:#F6F5F5;}
	.st1{fill:#4D4D4D;}
	.st2{clip-path:url(#SVGID_2_);}
	.st3{fill:#999999;}
	.st4{clip-path:url(#SVGID_4_);}
	.st5{fill:#D6524F;}
	.st6{fill:#FFFFFF;}
</style>
<g>
	<g>
		<g>
			<path id="XMLID_1_" class="st0" d="M45.3,82.9V67.2c0-2.8,2.3-5.2,5.2-5.2h38.7c2.8,0,5.2,2.3,5.2,5.2v15.7
				c0,2.8-2.3,5.2-5.2,5.2H50.4C47.6,88.1,45.3,85.8,45.3,82.9z"/>
			<path class="st1" d="M92.5,89.4H47.1c-1.8,0-3.2-1.4-3.2-3.2V63.9c0-1.8,1.4-3.2,3.2-3.2h45.4c1.8,0,3.2,1.4,3.2,3.2v22.4
				C95.7,88,94.2,89.4,92.5,89.4z M47.1,63.4c-0.3,0-0.5,0.2-0.5,0.5v22.4c0,0.3,0.2,0.5,0.5,0.5h45.4c0.3,0,0.5-0.2,0.5-0.5V63.9
				c0-0.3-0.2-0.5-0.5-0.5H47.1z"/>
		</g>
	</g>
	<rect x="48.7" y="72.2" class="st1" width="42.2" height="5.7"/>
	<g>
		<defs>
			<rect id="SVGID_1_" x="52.4" y="66" width="34.8" height="18.2"/>
		</defs>
		<clipPath id="SVGID_2_">
			<use xlink:href="#SVGID_1_"  style="overflow:visible;"/>
		</clipPath>
		<g class="st2">
			<circle class="st1" cx="69.8" cy="74.8" r="11.9"/>
			<path class="st3" d="M69.8,87.9c-7.2,0-13.1-5.9-13.1-13.1c0-7.2,5.9-13.1,13.1-13.1c7.2,0,13.1,5.9,13.1,13.1
				C82.9,82,77,87.9,69.8,87.9z M69.8,64.2c-5.9,0-10.6,4.8-10.6,10.6c0,5.9,4.8,10.6,10.6,10.6c5.9,0,10.6-4.8,10.6-10.6
				C80.4,68.9,75.7,64.2,69.8,64.2z"/>
		</g>
	</g>
	<path class="st0" d="M74.4,77h-3.3v-1h3.3c0.7,0,1.3-0.6,1.3-1.3c0-0.7-0.6-1.3-1.3-1.3h-2.2l2.8-3.9c0.4-0.6,0.3-1.4-0.3-1.8
		c-0.6-0.4-1.4-0.3-1.8,0.3l-3.2,4.4L66.4,68c-0.4-0.6-1.3-0.7-1.9-0.3c-0.6,0.4-0.7,1.3-0.3,1.9l2.8,3.7h-1.9
		c-0.7,0-1.3,0.6-1.3,1.3c0,0.7,0.6,1.3,1.3,1.3h3.3v1h-3.3c-0.7,0-1.3,0.6-1.3,1.3c0,0.7,0.6,1.3,1.3,1.3h3.3v2.2
		c0,0.7,0.6,1.3,1.3,1.3c0.7,0,1.3-0.6,1.3-1.3v-2.2h3.3c0.7,0,1.3-0.6,1.3-1.3C75.7,77.6,75.1,77,74.4,77z"/>
</g>
<g>
	<g>
		<path class="st1" d="M12.8,15.5h45.4c1.6,0,3,1.2,3.1,2.8c-0.1,0-0.3,0-0.4,0H15.5c-1.8,0-3.2,1.4-3.2,3.2v22.4c0,0.1,0,0.3,0,0.4
			c-1.6-0.2-2.8-1.5-2.8-3.1V18.7C9.6,16.9,11,15.5,12.8,15.5z"/>
	</g>
	<g>
		<g>
			<g>
				<path id="XMLID_4_" class="st0" d="M65.5,43.3V27.5c0-2.8-2.3-5.2-5.2-5.2H21.6c-2.8,0-5.2,2.3-5.2,5.2v15.7
					c0,2.8,2.3,5.2,5.2,5.2h38.8C63.2,48.4,65.5,46.1,65.5,43.3z"/>
				<g>
					<path class="st1" d="M15.1,46.6V24.2c0-1.8,1.4-3.2,3.2-3.2h45.4c1.8,0,3.2,1.4,3.2,3.2v22.4c0,1.8-1.4,3.2-3.2,3.2H18.3
						C16.5,49.8,15.1,48.3,15.1,46.6z M18.3,23.7c-0.3,0-0.5,0.2-0.5,0.5v22.4c0,0.3,0.2,0.5,0.5,0.5h45.4c0.3,0,0.5-0.2,0.5-0.5
						V24.2c0-0.3-0.2-0.5-0.5-0.5H18.3z"/>
				</g>
			</g>
		</g>
		<rect x="19.9" y="32.6" class="st1" width="42.2" height="5.7"/>
		<g>
			<defs>
				
					<rect id="SVGID_3_" x="23.6" y="26.3" transform="matrix(-1 -4.491708e-11 4.491708e-11 -1 81.995 70.8037)" width="34.8" height="18.2"/>
			</defs>
			<clipPath id="SVGID_4_">
				<use xlink:href="#SVGID_3_"  style="overflow:visible;"/>
			</clipPath>
			<g class="st4">
				<circle class="st1" cx="41" cy="35.1" r="11.9"/>
				<path class="st3" d="M27.9,35.1C27.9,27.9,33.8,22,41,22c7.2,0,13.1,5.9,13.1,13.1c0,7.2-5.9,13.1-13.1,13.1
					C33.8,48.2,27.9,42.3,27.9,35.1z M30.4,35.1c0,5.9,4.8,10.6,10.6,10.6c5.9,0,10.6-4.8,10.6-10.6c0-5.9-4.8-10.6-10.6-10.6
					C35.1,24.5,30.4,29.3,30.4,35.1z"/>
			</g>
		</g>
		<path class="st0" d="M36.4,37.3h3.3v-1h-3.3c-0.7,0-1.3-0.6-1.3-1.3c0-0.7,0.6-1.3,1.3-1.3h2.2l-2.8-3.9c-0.4-0.6-0.3-1.4,0.3-1.8
			c0.6-0.4,1.4-0.3,1.8,0.3l3.2,4.4l3.3-4.3c0.4-0.6,1.3-0.7,1.9-0.3c0.6,0.4,0.7,1.3,0.3,1.9l-2.8,3.7h1.9c0.7,0,1.3,0.6,1.3,1.3
			c0,0.7-0.6,1.3-1.3,1.3h-3.3v1h3.3c0.7,0,1.3,0.6,1.3,1.3c0,0.7-0.6,1.3-1.3,1.3h-3.3v2.2c0,0.7-0.6,1.3-1.3,1.3
			c-0.7,0-1.3-0.6-1.3-1.3V40h-3.3c-0.7,0-1.3-0.6-1.3-1.3C35.1,37.9,35.7,37.3,36.4,37.3z"/>
	</g>
	<g>
		<path class="st1" d="M7.3,10h45.4c1.6,0,3,1.2,3.1,2.8c-0.1,0-0.3,0-0.4,0H10c-1.8,0-3.2,1.4-3.2,3.2v22.4c0,0.1,0,0.3,0,0.4
			c-1.6-0.2-2.8-1.5-2.8-3.1V13.2C4.1,11.4,5.5,10,7.3,10z"/>
	</g>
</g>
<g>
	<g id="XMLID_1664_">
		<path class="st5" d="M54.5,70.9c-0.4,0-10.1-0.7-15.6-7.4c-3.5-4.3-4.3-7.9-4.5-9.6h-3.9c-0.4,0-0.7-0.2-0.9-0.5
			c-0.2-0.3-0.1-0.7,0.1-1l9-12.3c0.2-0.3,0.5-0.4,0.8-0.4c0,0,0,0,0,0c0.3,0,0.6,0.1,0.8,0.4l10,12.3c0.2,0.3,0.3,0.7,0.1,1.1
			c-0.2,0.3-0.5,0.6-0.9,0.6H45c0,1,0.2,3.1,1.4,6.4c2,5.7,8.5,8.6,8.6,8.6c0.4,0.2,0.7,0.7,0.6,1.2C55.4,70.6,55,70.9,54.5,70.9
			C54.5,70.9,54.5,70.9,54.5,70.9z"/>
		<path class="st6" d="M39.5,40.6l10,12.3h-5.4c0,0-0.6,2.3,1.4,7.7c2.2,6.1,9.1,9.2,9.1,9.2s-9.6-0.6-14.9-7
			c-4.6-5.6-4.3-10-4.3-10h-4.9L39.5,40.6 M39.5,38.6C39.5,38.6,39.5,38.6,39.5,38.6c-0.7,0-1.3,0.3-1.6,0.8l-9,12.3
			c-0.4,0.6-0.5,1.4-0.2,2.1c0.3,0.7,1,1.1,1.8,1.1h3c0.4,2.1,1.4,5.4,4.6,9.2c5.8,7,15.9,7.7,16.3,7.7c0,0,0.1,0,0.1,0
			c0.9,0,1.7-0.6,1.9-1.5c0.2-0.9-0.2-1.9-1.1-2.3c-0.1,0-6.2-2.8-8-8c-0.8-2.3-1.1-4-1.3-5.1h3.4c0.8,0,1.5-0.4,1.8-1.1
			c0.3-0.7,0.2-1.5-0.3-2.1L41,39.4C40.7,38.9,40.1,38.6,39.5,38.6L39.5,38.6z"/>
	</g>
	<g id="XMLID_1660_">
		<path class="st5" d="M61,70.9c-0.3,0-0.6-0.1-0.8-0.4l-10-12.3c-0.2-0.3-0.3-0.7-0.1-1.1c0.2-0.3,0.5-0.6,0.9-0.6h4.5
			c0-1-0.2-3.1-1.4-6.4c-2-5.6-8.5-8.6-8.6-8.6c-0.4-0.2-0.7-0.7-0.6-1.2c0.1-0.4,0.5-0.8,1-0.8c0,0,0,0,0.1,0
			c0.4,0,10.1,0.7,15.6,7.4c3.5,4.3,4.3,7.9,4.5,9.6H70c0.4,0,0.7,0.2,0.9,0.5c0.2,0.3,0.1,0.7-0.1,1l-9,12.3
			C61.7,70.7,61.4,70.9,61,70.9C61,70.9,61,70.9,61,70.9z"/>
		<path class="st6" d="M46,40.6c0,0,9.6,0.6,14.9,7c4.6,5.6,4.3,10,4.3,10H70l-9,12.3L51,57.6h5.4c0,0,0.6-2.3-1.4-7.7
			C52.9,43.7,46,40.6,46,40.6 M70,57.6L70,57.6 M46,38.6c-0.9,0-1.7,0.6-1.9,1.5c-0.2,0.9,0.2,1.9,1.1,2.3c0.1,0,6.2,2.8,8,8
			c0.8,2.3,1.1,4,1.3,5.1H51c-0.8,0-1.5,0.4-1.8,1.1c-0.3,0.7-0.2,1.5,0.3,2.1l10,12.3c0.4,0.5,1,0.7,1.6,0.7c0,0,0,0,0.1,0
			c0.6,0,1.2-0.3,1.6-0.8l8.9-12.3c0.3-0.3,0.4-0.8,0.4-1.2c0-1.1-0.9-2-2-2h0h-3c-0.4-2.1-1.4-5.4-4.6-9.2
			c-5.8-7-15.9-7.7-16.3-7.7C46.1,38.6,46,38.6,46,38.6L46,38.6z"/>
	</g>
</g>
</svg>
