<?xml version="1.0" encoding="UTF-8"?>
<svg width="91px" height="98px" viewBox="0 0 91 98" version="1.1" xmlns="http://www.w3.org/2000/svg" xmlns:xlink="http://www.w3.org/1999/xlink">
    <!-- Generator: Sketch 49.3 (51167) - http://www.bohemiancoding.com/sketch -->
    <title>icon_cashing</title>
    <desc>Created with Sketch.</desc>
    <defs>
        <polygon id="path-1" points="0 98 90.916 98 90.916 0 0 0"></polygon>
    </defs>
    <g id="Page-1" stroke="none" stroke-width="1" fill="none" fill-rule="evenodd">
        <g id="icon_cashing">
            <path d="M48.0625,52.0908 C55.4515,47.8658 60.4425,39.9238 60.4425,30.8018 C60.4425,17.2558 49.4615,6.2758 35.9165,6.2758 C22.3705,6.2758 11.3895,17.2558 11.3895,30.8018 C11.3895,39.9238 16.3805,47.8658 23.7705,52.0908 C13.4625,56.8418 6.2755,67.4248 6.2755,79.7448 L6.2755,91.7248 L65.5565,91.7248 L65.5565,79.7448 C65.5565,67.4248 58.3695,56.8418 48.0625,52.0908" id="Fill-1" fill="#F5F4F4"></path>
            <path d="M35.916,0 C18.932,0 5.115,13.817 5.115,30.801 C5.115,38.534 8.052,45.889 13.121,51.481 C4.95,58.339 0,68.67 0,79.745 L0,91.725 C0,95.19 2.81,98 6.275,98 L65.557,98 C69.022,98 71.832,95.19 71.832,91.725 L71.832,79.745 C71.832,68.67 66.882,58.339 58.712,51.481 C63.78,45.889 66.718,38.534 66.718,30.801 C66.718,13.817 52.9,0 35.916,0 M35.916,6.275 C49.462,6.275 60.442,17.256 60.442,30.801 C60.442,39.923 55.451,47.866 48.062,52.091 C58.369,56.842 65.557,67.425 65.557,79.745 L65.557,91.725 L6.275,91.725 L6.275,79.745 C6.275,67.425 13.463,56.842 23.77,52.091 C16.38,47.866 11.39,39.923 11.39,30.801 C11.39,17.256 22.371,6.275 35.916,6.275" id="Fill-3" fill="#4D4D4D"></path>
            <path d="M28.5112,25.7324 C28.5112,28.3624 27.2462,30.4944 25.6862,30.4944 C24.1272,30.4944 22.8622,28.3624 22.8622,25.7324 C22.8622,23.1024 24.1272,20.9704 25.6862,20.9704 C27.2462,20.9704 28.5112,23.1024 28.5112,25.7324" id="Fill-5" fill="#4D4D4D"></path>
            <path d="M48.1142,25.7324 C48.1142,28.3624 46.8492,30.4944 45.2902,30.4944 C43.7302,30.4944 42.4652,28.3624 42.4652,25.7324 C42.4652,23.1024 43.7302,20.9704 45.2902,20.9704 C46.8492,20.9704 48.1142,23.1024 48.1142,25.7324" id="Fill-7" fill="#4D4D4D"></path>
            <path d="M35.1508,45.2671 C28.2898,45.2671 25.3268,40.2721 25.3268,36.0881 L29.2048,36.0881 C29.5538,39.1391 31.5228,41.3611 35.1508,41.3611 C39.2118,41.3611 41.8428,39.2261 41.8428,36.0881 L45.5028,36.0881 C45.5028,40.2721 42.4648,45.2671 35.1508,45.2671" id="Fill-9" fill="#4D4D4D"></path>
            <mask id="mask-2" fill="white">
                <use xlink:href="#path-1"></use>
            </mask>
            <g id="Clip-12"></g>
            <polygon id="Fill-11" fill="#F6F5F5" mask="url(#mask-2)" points="44.916 96 88.916 96 88.916 66 44.916 66"></polygon>
            <path d="M86.916,64 L46.916,64 C44.707,64 42.916,65.791 42.916,68 L42.916,94 C42.916,96.209 44.707,98 46.916,98 L86.916,98 C89.125,98 90.916,96.209 90.916,94 L90.916,68 C90.916,65.791 89.125,64 86.916,64 Z M46.916,94 L86.916,94 L86.916,68 L46.916,68 L46.916,94 Z" id="Fill-13" fill="#4D4D4D" mask="url(#mask-2)"></path>
            <path d="M81.916,91 L73.916,91 C72.812,91 71.916,90.104 71.916,89 L71.916,84 C71.916,82.896 72.812,82 73.916,82 L81.916,82 C83.02,82 83.916,82.896 83.916,84 L83.916,89 C83.916,90.104 83.02,91 81.916,91" id="Fill-14" fill="#F1CF49" mask="url(#mask-2)"></path>
            <polygon id="Fill-15" fill="#4D4D4D" mask="url(#mask-2)" points="45.916 78 87.916 78 87.916 72 45.916 72"></polygon>
        </g>
    </g>
</svg>