<svg id="レイヤー_1" data-name="レイヤー 1" xmlns="http://www.w3.org/2000/svg" viewBox="0 0 800 800"><title>icon_appli</title><path d="M775,800H25A25,25,0,0,1,0,775V25A25,25,0,0,1,25,0H775a25,25,0,0,1,25,25V775A25,25,0,0,1,775,800Z" style="fill:#bf0000"/><path d="M691,616H108a25,25,0,0,1-25-25V207a25,25,0,0,1,25-25H691a25,25,0,0,1,25,25V591A25,25,0,0,1,691,616Z" style="fill:#fff"/><path d="M566.5,416h0A84.46,84.46,0,0,1,482,331.5h0A84.46,84.46,0,0,1,566.5,247h0A84.46,84.46,0,0,1,651,331.5h0A84.46,84.46,0,0,1,566.5,416Z" style="fill:#bf0000"/><path d="M538.8,377.1V287.4H567c18.1,0,32.1,13.3,32.1,30.4,0,12-4.6,20.3-13.7,24.7L607.9,377H586.4l-17.1-29H556v29H538.8Zm17.1-44.9H567c7.6,0,13.9-6.5,13.9-14.5s-6.4-14.4-13.9-14.4H555.9Z" style="fill:#fff"/><path d="M324,416H176a26,26,0,0,1-26-26V258a26,26,0,0,1,26-26H324a26,26,0,0,1,26,26V390A26,26,0,0,1,324,416Z" style="fill:#ffc903"/><rect x="200" y="232" width="16" height="186" style="fill:#fff"/><rect x="283" y="283" width="16" height="135" style="fill:#fff"/><rect x="283" y="283" width="67" height="16" style="fill:#fff"/><rect x="283" y="350" width="67" height="16" style="fill:#fff"/><rect x="149" y="350" width="67" height="16" style="fill:#fff"/><rect x="149" y="283" width="67" height="16" style="fill:#fff"/><path d="M158.1,550.3v-44h-7.5v-9.5h17.7v53.5Z" style="fill:#262626"/><path d="M200.1,541.3c1.7-5.1,6.6-11.8,12.1-16.5l3.5-3.1c6.1-5.2,7.8-7.5,7.8-10.5,0-3.5-2.9-6-7.1-6s-7.5,2.3-9.3,6.5l-7.6-5.6a18.37,18.37,0,0,1,16.9-10.3c10.6,0,18,6.3,18,15.1,0,5.1-2.7,9.1-11.5,16.9l-3.1,2.8a35.05,35.05,0,0,0-8.3,10.3h23.3v9.5H200.1v-9.1Z" style="fill:#262626"/><path d="M275.5,518.2c7.2,0,10.8-2.4,10.8-7.1,0-3.7-3.1-6.2-7.5-6.2-4,0-7.4,2.4-9.4,6.4l-8.1-5c3.5-7.2,9.7-10.9,18-10.9,10.8,0,17.9,6.1,17.9,15.3q0,9.15-9,12c6.5,1.4,10.4,6.3,10.4,12.7,0,9.9-7.4,16-19.4,16-8.5,0-14.1-2.9-18.5-9.7l6.9-6.3a13,13,0,0,0,11.4,6.4c5.1,0,8.8-3,8.8-7,0-4.6-4.4-7.1-12.4-7.1h-3.9v-9.5Z" style="fill:#262626"/><path d="M356.9,539.3v11H346.7v-11H324V530l18.6-33.2h14.3V530h6.4v9.3ZM335.2,530h11.5V508.3Z" style="fill:#262626"/><path d="M461.5,496.8v9.5H439.3v11.2a13.12,13.12,0,0,1,8.1-2.2c10.3,0,17.3,7.1,17.3,17.5,0,11.4-7.8,18.9-19.6,18.9-7.9,0-13.1-3.2-16.7-10.3l7.3-5.8c2,4.2,5.4,6.5,9.5,6.5,5.3,0,8.6-3.3,8.6-8.8,0-5-3.4-8.6-8.2-8.6a8.66,8.66,0,0,0-7.4,3.6l-9.1-2.2V496.7h32.4Z" style="fill:#262626"/><path d="M518.4,510.1c-2.1-3.7-4.2-5.2-7.6-5.2-6,0-9.9,5.5-10.1,14,2-2.6,5.8-4.2,9.7-4.2,10.1,0,17.2,7.5,17.2,18,0,11.4-7.3,18.9-18.4,18.9-12.5,0-19.1-9.2-19.1-27,0-18.6,7.5-29.2,20.5-29.2a17.24,17.24,0,0,1,15.3,8.5Zm-16.9,22.8c0,5.7,3,9.3,7.8,9.3,4.6,0,7.5-3.6,7.5-9.3,0-5.4-3-9-7.5-9S501.5,527.6,501.5,532.9Z" style="fill:#262626"/><path d="M587.6,504a327,327,0,0,0-15.1,46.4h-11a460.69,460.69,0,0,1,14.4-44H552.6v-9.5h34.9V504Z" style="fill:#262626"/><path d="M650.6,536.5c0,9-7.9,15.3-19.1,15.3s-19.1-6.3-19.1-15.4c0-6.5,2.8-10.9,8.4-13.3-4.4-2.4-6.9-7-6.9-12.6,0-8.8,7.3-15,17.6-15s17.6,6.2,17.6,15c0,5.6-2.5,10.2-6.9,12.6C647.8,525.4,650.6,529.9,650.6,536.5Zm-27.3-.9c0,3.9,3.3,6.6,8.2,6.6s8.2-2.7,8.2-6.6c0-4.4-2.8-7.1-8.2-8.1C626.2,528.4,623.3,531.2,623.3,535.6ZM638.4,511c0-3.5-2.9-6-6.9-6s-6.9,2.4-6.9,6.1c0,3.9,2,5.9,6.9,7.1C636.4,517.1,638.4,515,638.4,511Z" style="fill:#262626"/></svg>