<svg id="レイヤー_1" data-name="レイヤー 1" xmlns="http://www.w3.org/2000/svg" viewBox="0 0 85.92 98"><title>icon_beginner</title><g id="Page-1"><g id="icon_beginner" data-name="icon beginner"><path id="Fill-1" d="M48.06,52.09a24.53,24.53,0,1,0-24.29,0A30.35,30.35,0,0,0,6.28,79.74v12H65.56v-12a30.35,30.35,0,0,0-17.5-27.65" style="fill:#f5f4f4"/><path id="Fill-3" d="M35.92,0a30.77,30.77,0,0,0-22.8,51.48A37,37,0,0,0,0,79.75v12A6.28,6.28,0,0,0,6.28,98H65.56a6.28,6.28,0,0,0,6.27-6.28v-12A37,37,0,0,0,58.71,51.48,30.77,30.77,0,0,0,35.92,0m0,6.28A24.51,24.51,0,0,1,48.06,52.09a30.37,30.37,0,0,1,17.5,27.66v12H6.28v-12A30.36,30.36,0,0,1,23.77,52.09,24.51,24.51,0,0,1,35.92,6.28" style="fill:#4d4d4d"/><path id="Fill-5" d="M28.51,25.73c0,2.63-1.26,4.76-2.82,4.76s-2.83-2.13-2.83-4.76S24.13,21,25.69,21s2.82,2.13,2.82,4.76" style="fill:#4d4d4d"/><path id="Fill-7" d="M48.11,25.73c0,2.63-1.26,4.76-2.82,4.76s-2.82-2.13-2.82-4.76S43.73,21,45.29,21s2.82,2.13,2.82,4.76" style="fill:#4d4d4d"/><path id="Fill-9" d="M35.15,45.27c-6.86,0-9.82-5-9.82-9.18H29.2a5.55,5.55,0,0,0,5.95,5.27c4.06,0,6.69-2.13,6.69-5.27H45.5c0,4.18-3,9.18-10.35,9.18" style="fill:#4d4d4d"/><path id="Fill-11" d="M82.32,52.67a2.94,2.94,0,0,0-1.55.47L69.92,59.83v34.5l14-8.69a3.24,3.24,0,0,0,1.55-2.74v-27a3.16,3.16,0,0,0-3.1-3.21" style="fill:#15b784"/><path id="Fill-13" d="M54.42,55.88v27A3.2,3.2,0,0,0,56,85.64l14,8.69V59.83L59.07,53.14a3,3,0,0,0-1.55-.47,3.15,3.15,0,0,0-3.1,3.21" style="fill:#f1cf49"/><path id="Fill-15" d="M82.72,52a3.12,3.12,0,0,0-1.6.48l-11.2,6.91-11.2-6.91a3.18,3.18,0,0,0-1.6-.48,3.25,3.25,0,0,0-3.2,3.31v27.9A3.33,3.33,0,0,0,55.52,86l14.4,9,14.4-9a3.38,3.38,0,0,0,1.6-2.83V55.31A3.26,3.26,0,0,0,82.72,52m-.8,4.69V82.82l-12,7.47-12-7.47V56.69l9.9,6.11,2.1,1.29L72,62.8l9.9-6.11" style="fill:#4d4d4d"/></g></g></svg>