<svg id="レイヤー_1" data-name="レイヤー 1" xmlns="http://www.w3.org/2000/svg" viewBox="0 0 92.82 79.56"><title>icon_world</title><g id="Page-1"><g id="icon_world" data-name="icon world"><path id="Fill-1" d="M74,43.05A36.51,36.51,0,1,1,37.51,6.54,36.5,36.5,0,0,1,74,43.05" transform="translate(-0.94 0)" style="fill:#15b785"/><path id="Fill-3" d="M44.81,76C42,76,40,73,35.73,73.19c-9.61-.18-12.81-4.45-5.34-9.43,4.37-2.91,6.85-2.55,8.16-1.74a5.07,5.07,0,0,0,5,.08c.82-.43,1.68-.54,3,.59C56,70.69,47.65,76,44.81,76ZM36.52,34.66a6.17,6.17,0,0,0,1.75-1.82,2,2,0,0,1,1.39-1c1.73-.22,1.12,2-.63,3.06C37,36.18,35,35.72,36.52,34.66ZM40,30.32c.83-.78,1.67-1.48,2.13-.43s-.09,1.37-.73,1.62C41.43,31.51,39.2,31.1,40,30.32ZM73.94,41.7a36.34,36.34,0,0,0-7.56-20.92l-.09,0c-2.49.89-4.92-.44-6.32-.17-3.73.71-3.38-3.21-5.51-4.1-8-3.38-2.26-6.66-2.08-6.83A36.53,36.53,0,0,0,23.52,9.3s.94,6.63,10.39,4.87,15.14-1.54,13.32,7C46,25.28,37.52,25.88,34.48,32.89s-2.6,10.7-9.54,11.7-5.42,9.14-4,13.55c.84,1.46.7,9.58-3.55,4.65s.08-15-4.15-17S8,49.53,4.76,46.64s-3.41-3.92-3.59-6.59a22.16,22.16,0,0,1,.23-2.78,36.5,36.5,0,0,0,64,29.29C66,65.78,68.53,55.69,66.51,50c-1.49-4.21,4.78-7,4.78-7Z" transform="translate(-0.94 0)" style="fill:#1574b8"/><path id="Fill-5" d="M23.48,9.56h0" transform="translate(-0.94 0)" style="fill:#1574b8"/><path id="Fill-7" d="M73.17,50.13l-.06.32.06-.32" transform="translate(-0.94 0)" style="fill:#1574b8"/><path id="Fill-9" d="M70.37,24.18a1.53,1.53,0,0,1-2,.79l-.88-.43a1.56,1.56,0,0,1-.66-2.07l.73-1.55a1.51,1.51,0,0,1,2-.78l.89.42a1.55,1.55,0,0,1,.65,2.07Zm-4.43-2.67a1.52,1.52,0,0,1-2,.78l-.88-.42a1.56,1.56,0,0,1-.66-2.07l.73-1.55a1.52,1.52,0,0,1,2-.79l.88.43A1.54,1.54,0,0,1,66.67,20ZM61.4,18.62a1.52,1.52,0,0,1-2,.79L58.51,19a1.56,1.56,0,0,1-.66-2.07l.73-1.55a1.53,1.53,0,0,1,2-.78l.88.42a1.57,1.57,0,0,1,.66,2.07Zm-4.9-3a1.52,1.52,0,0,1-2,.79L53.62,16A1.55,1.55,0,0,1,53,13.92l.73-1.55a1.52,1.52,0,0,1,2-.78l.89.42a1.55,1.55,0,0,1,.65,2.07ZM82.43,27.69l9.06-5.36a1,1,0,0,0-.24-1.67c-2-.81-6.35-1.7-13.9,1.19a.92.92,0,0,1-.88-.13C73,19,69,15.86,67.48,14.62a1,1,0,0,1-.21-1.32l5.38-9A1,1,0,0,0,72.42,3c-.91-.65-2.88-1.42-6.68-.39a55.78,55.78,0,0,0-9.61,3.6.87.87,0,0,1-.88,0C53.41,5,46,.8,41.83,2.2A4.65,4.65,0,0,1,42.59,2c-.1.94.37,3.37,4.29,5.41a.42.42,0,0,1,.17.56L45.9,10.47a.42.42,0,0,1-.51.23c-2.13-.72-6.18-3.43-5.81-7h0a.78.78,0,0,1-.37,0c-3.69-.41-4.78-.68-5.78.88s-2.88,6.23,15.61,15.15a.89.89,0,0,1,.48.56c.78,2.51,5.17,16.25,8.93,21.33l0,.06c.26.3,2.48,2.8,4.46,2.75a1,1,0,0,0,1-1.06c0-3.2-1.4-11.78-1.49-15.35a1,1,0,0,1,1.35-1l10.73,2.87a.78.78,0,0,1,.3.21l6.8,8.23a1,1,0,0,0,1.64-.93l-2-7.14a1.11,1.11,0,0,1,.09-.62L82.2,28A1.24,1.24,0,0,1,82.43,27.69Z" transform="translate(-0.94 0)" style="fill:#fff"/><path id="Fill-11" d="M40.07,3.37A3.93,3.93,0,0,1,41.83,2.2a3.94,3.94,0,0,0-.69.27A3.81,3.81,0,0,0,40,3.4a1.72,1.72,0,0,1-.38.29,1,1,0,0,0,.48-.32" transform="translate(-0.94 0)" style="fill:#fff"/><path id="Stroke-13" d="M61.41,44.48A11,11,0,0,1,58.28,42l-.08-.1C54.4,36.73,50,23,49.18,20.34a.34.34,0,0,0-.15-.18C39,15.33,33.47,11,32.58,7.4A4.15,4.15,0,0,1,33.17,4c1.15-1.8,2.54-1.65,5.58-1.3l.84.1a.33.33,0,0,0,.27-.12c3.69-4.36,13.19.89,16,2.61a.32.32,0,0,0,.27,0,55.75,55.75,0,0,1,9.74-3.66c3.92-1,6.08-.32,7.21.49a1.72,1.72,0,0,1,.4,2.28l-5.38,9a.32.32,0,0,0,.06.41c2,1.57,5.76,4.59,9,7.09a.27.27,0,0,0,.27,0c7.76-3,12.33-2,14.36-1.18A1.56,1.56,0,0,1,92.74,21a1.79,1.79,0,0,1-.53,1.57L83.14,28a.31.31,0,0,0-.07.09l-.77,1.66a.31.31,0,0,0,0,.19L84.21,37a1.8,1.8,0,0,1-.88,1.85,1.52,1.52,0,0,1-1.9-.26l-6.79-8.24a.33.33,0,0,0-.1-.06L63.81,27.46a.3.3,0,0,0-.28,0,.35.35,0,0,0-.13.27c.09,3.56,1.48,12.17,1.49,15.37a1.81,1.81,0,0,1-.48,1.25,1.65,1.65,0,0,1-1.17.54A4,4,0,0,1,61.41,44.48Z" transform="translate(-0.94 0)" style="fill:none;stroke:#4d4d4d;stroke-width:2px"/><path id="Fill-15" d="M69.66,20.06a1.54,1.54,0,0,0-2,.8l-.75,1.59a1.59,1.59,0,0,0,.67,2.11l.91.44a1.54,1.54,0,0,0,2-.8l.75-1.59a1.6,1.6,0,0,0-.67-2.12Z" transform="translate(-0.94 0)" style="fill:#1574b8"/><path id="Fill-17" d="M60.63,14.51a1.55,1.55,0,0,0-2.05.81l-.74,1.58A1.59,1.59,0,0,0,58.51,19l.9.43a1.56,1.56,0,0,0,2.05-.8l.75-1.59A1.59,1.59,0,0,0,61.53,15Z" transform="translate(-0.94 0)" style="fill:#1574b8"/><path id="Fill-19" d="M65.21,17.39a1.55,1.55,0,0,0-2,.81l-.74,1.58a1.58,1.58,0,0,0,.67,2.12l.9.43a1.56,1.56,0,0,0,2.05-.8l.75-1.59a1.59,1.59,0,0,0-.68-2.11Z" transform="translate(-0.94 0)" style="fill:#1574b8"/><path id="Fill-21" d="M40.73,3.25a1.47,1.47,0,0,1-1.18.59c-.18,3.65,3.76,6.16,5.84,6.86a.43.43,0,0,0,.52-.23L47.09,8a.42.42,0,0,0-.17-.57c-3.42-1.78-4.22-4-4.33-5.21a3.79,3.79,0,0,0-.89.33,3.09,3.09,0,0,0-1,.75" transform="translate(-0.94 0)" style="fill:#1574b8"/><path id="Fill-23" d="M55.74,11.51a1.56,1.56,0,0,0-2.05.8l-.75,1.59A1.59,1.59,0,0,0,53.61,16l.91.44a1.54,1.54,0,0,0,2-.81l.75-1.58a1.58,1.58,0,0,0-.67-2.12Z" transform="translate(-0.94 0)" style="fill:#1574b8"/></g></g></svg>