<svg id="レイヤー_1" data-name="レイヤー 1" xmlns="http://www.w3.org/2000/svg" xmlns:xlink="http://www.w3.org/1999/xlink" viewBox="0 0 266.89 266.89"><defs><mask id="mask" x="0" y="0" width="266.89" height="266.9" maskUnits="userSpaceOnUse"><g transform="translate(0 0)"><g id="mask-2"><path id="path-1" d="M133.45,266.89H266.89V0H0V266.89Z" style="fill:#fff"/></g></g></mask></defs><title>icon_facebook</title><g id="Page-1"><g id="icon_facebook" data-name="icon facebook"><g id="Group-3"><g style="mask:url(#mask)"><path id="Fill-1" d="M252.16,266.89a14.72,14.72,0,0,0,14.73-14.72V14.73A14.72,14.72,0,0,0,252.16,0H14.73A14.72,14.72,0,0,0,0,14.73V252.17a14.72,14.72,0,0,0,14.73,14.72Z" transform="translate(0 0)" style="fill:#3c5a99"/></g></g><path id="Fill-4" d="M184.15,266.89V163.54h34.69l5.2-40.28H184.15V97.54c0-11.66,3.24-19.61,20-19.61h21.33v-36a285.15,285.15,0,0,0-31.08-1.59c-30.75,0-51.8,18.77-51.8,53.24v29.71H107.78v40.28h34.78V266.89Z" transform="translate(0 0)" style="fill:#fefefe"/></g></g></svg>