<?xml version="1.0" encoding="UTF-8"?>
<svg width="97px" height="72px" viewBox="0 0 97 72" version="1.1" xmlns="http://www.w3.org/2000/svg" xmlns:xlink="http://www.w3.org/1999/xlink">
    <!-- Generator: Sketch 49.3 (51167) - http://www.bohemiancoding.com/sketch -->
    <title>icon_netcashing</title>
    <desc>Created with Sketch.</desc>
    <defs>
        <polygon id="path-1" points="0 72 96.605 72 96.605 0 0 0"></polygon>
    </defs>
    <g id="Page-1" stroke="none" stroke-width="1" fill="none" fill-rule="evenodd">
        <g id="icon_netcashing">
            <path d="M66.626,48.3408 L11.001,48.3408 C9.896,48.3408 9.001,47.4448 9.001,46.3408 L9.001,11.0138 C9.001,9.9088 9.896,9.0138 11.001,9.0138 L66.626,9.0138 C67.73,9.0138 68.626,9.9088 68.626,11.0138 L68.626,46.3408 C68.626,47.4448 67.73,48.3408 66.626,48.3408" id="Fill-1" fill="#6791B1"></path>
            <mask id="mask-2" fill="white">
                <use xlink:href="#path-1"></use>
            </mask>
            <g id="Clip-4"></g>
            <path d="M6.75,50.625 L70.875,50.625 L70.875,6.75 L6.75,6.75 L6.75,50.625 Z M73.125,0 L4.5,0 C2.015,0 0,2.015 0,4.5 L0,52.875 C0,55.36 2.015,57.375 4.5,57.375 L36,57.375 L36,65.25 L15.75,65.25 C13.886,65.25 12.375,66.761 12.375,68.625 C12.375,70.489 13.886,72 15.75,72 L63,72 C64.864,72 66.375,70.489 66.375,68.625 C66.375,66.761 64.864,65.25 63,65.25 L42.75,65.25 L42.75,57.375 L73.125,57.375 C75.61,57.375 77.625,55.36 77.625,52.875 L77.625,4.5 C77.625,2.015 75.61,0 73.125,0 Z" id="Fill-3" fill="#4D4D4D" mask="url(#mask-2)"></path>
            <path d="M74.1436,57.9854 C73.9736,57.9854 73.8026,57.9634 73.6356,57.9194 L52.5036,52.4044 C51.4376,52.1264 50.7956,51.0324 51.0746,49.9644 L58.9556,19.7594 C59.1856,18.8784 59.9806,18.2634 60.8876,18.2634 C61.0576,18.2634 61.2286,18.2854 61.3956,18.3284 L82.5276,23.8424 C83.0446,23.9784 83.4786,24.3064 83.7476,24.7674 C84.0186,25.2274 84.0926,25.7664 83.9576,26.2824 L76.0766,56.4884 C75.8466,57.3694 75.0516,57.9854 74.1436,57.9854" id="Fill-5" fill="#F5F4F4" mask="url(#mask-2)"></path>
            <path d="M60.8877,16.2632 C59.1117,16.2632 57.4897,17.4552 57.0207,19.2542 L49.1387,49.4602 C48.5807,51.5972 49.8617,53.7822 51.9987,54.3402 L73.1307,59.8542 C73.4697,59.9422 73.8097,59.9842 74.1437,59.9842 C75.9197,59.9842 77.5417,58.7932 78.0117,56.9942 L85.8937,26.7872 C86.4507,24.6502 85.1697,22.4652 83.0327,21.9082 L61.9007,16.3932 C61.5627,16.3052 61.2227,16.2632 60.8877,16.2632 M60.8937,20.2642 L82.0227,25.7782 L74.1417,55.9832 L53.0087,50.4702 L60.8937,20.2642" id="Fill-6" fill="#4D4D4D" mask="url(#mask-2)"></path>
            <path d="M71.4541,48.3203 L59.0461,45.0833 C57.9761,44.8033 57.3371,43.7123 57.6151,42.6423 L62.1301,25.3403 C62.4091,24.2713 63.5021,23.6303 64.5701,23.9093 L76.9791,27.1473 C78.0481,27.4253 78.6881,28.5183 78.4091,29.5873 L73.8941,46.8903 C73.6151,47.9593 72.5231,48.5993 71.4541,48.3203" id="Fill-7" fill="#6791B1" mask="url(#mask-2)"></path>
            <path d="M64.1943,52.4297 L63.4513,52.2357 C62.6073,52.0157 62.1013,51.1527 62.3213,50.3087 L62.5153,49.5657 C62.7353,48.7217 63.5983,48.2157 64.4423,48.4367 L65.1853,48.6297 C66.0293,48.8507 66.5353,49.7127 66.3143,50.5567 L66.1213,51.2997 C65.9003,52.1437 65.0383,52.6497 64.1943,52.4297" id="Fill-8" fill="#4D4D4D" mask="url(#mask-2)"></path>
            <path d="M79.498,68.1299 C79.343,67.9259 76.02,63.6369 69.537,63.1729 C65.396,62.8769 63.594,60.4199 63.671,58.2639 C63.743,56.2239 65.5,54.0279 69.184,54.0279 C70.141,54.0279 71.174,54.1839 72.255,54.4899 C72.801,54.6459 73.173,54.6779 73.39,54.6779 C73.468,54.6779 73.531,54.6739 73.584,54.6679 C73.568,54.6109 73.545,54.5429 73.511,54.4599 C71.7,50.0309 69.023,43.6629 68.683,42.8549 C68.405,42.3579 67.495,40.5209 68.089,38.7109 C68.341,37.9419 68.968,36.8889 70.519,36.2479 C71.089,36.0119 71.662,35.8919 72.223,35.8919 C74.507,35.8919 75.921,37.8379 76.396,38.9869 L78.218,43.3139 C78.868,42.9979 79.671,42.7459 80.579,42.7459 C81.592,42.7459 83.014,43.0739 84.42,44.4939 C84.894,44.3489 85.477,44.2299 86.121,44.2299 C87.288,44.2299 89.356,44.6479 90.775,47.2859 C91.667,47.4959 92.978,48.0219 93.949,49.3409 C95.262,51.1229 95.457,53.6829 94.53,56.9509 L94.508,57.0309 L94.476,57.1089 C93.877,58.5779 93.08,59.6439 92.439,60.4999 C91.442,61.8319 91.327,62.1129 91.554,62.6509 L92.135,64.0319 L80.197,69.0739 L79.498,68.1299 Z" id="Fill-9" fill="#FFFFFF" mask="url(#mask-2)"></path>
            <path d="M72.2236,34.3921 C71.4646,34.3921 70.6986,34.5501 69.9446,34.8621 C67.8676,35.7211 67.0136,37.1751 66.6626,38.2431 C65.9116,40.5321 66.9026,42.7221 67.3306,43.5111 C67.7036,44.3981 69.5506,48.7911 71.1676,52.7051 C70.4856,52.5871 69.8226,52.5281 69.1846,52.5281 C64.7136,52.5281 62.2726,55.3871 62.1706,58.2101 C62.0696,61.0631 64.2976,64.3021 69.4306,64.6691 C75.2176,65.0821 78.2616,68.9811 78.2906,69.0201 L79.6956,70.9141 L81.8676,69.9971 L91.3376,65.9971 L94.0986,64.8311 L93.0196,62.2671 C93.1656,62.0311 93.4326,61.6761 93.6396,61.3981 C94.2956,60.5211 95.1936,59.3221 95.8656,57.6741 L95.9276,57.5201 L95.9726,57.3601 C97.0336,53.6241 96.7586,50.6271 95.1586,48.4521 C94.1436,47.0741 92.8346,46.3731 91.7656,46.0171 C90.4246,43.9081 88.4316,42.7291 86.1206,42.7291 C85.6666,42.7291 85.2386,42.7751 84.8436,42.8491 C83.2886,41.5621 81.7326,41.2461 80.5786,41.2461 C80.0356,41.2461 79.5246,41.3141 79.0506,41.4271 L77.7756,38.3961 C77.1646,36.9201 75.2986,34.3921 72.2236,34.3921 M72.2236,37.3921 C74.1146,37.3921 75.0106,39.5601 75.0106,39.5601 L77.5486,45.5911 C77.5486,45.5911 78.8466,44.2461 80.5786,44.2461 C81.6206,44.2461 82.8226,44.7331 83.9926,46.2941 C83.9926,46.2941 84.9336,45.7291 86.1206,45.7291 C87.3246,45.7291 88.7806,46.3091 89.7636,48.6461 C89.7636,48.6461 95.2856,48.7851 93.0866,56.5421 C91.7436,59.8401 89.1946,60.9121 90.1706,63.2331 L80.7006,67.2331 C80.7006,67.2331 76.9676,62.2001 69.6446,61.6771 C63.6256,61.2461 63.8796,55.5281 69.1846,55.5281 C69.9636,55.5281 70.8526,55.6511 71.8456,55.9341 C72.4296,56.0991 72.9486,56.1781 73.3906,56.1781 C74.8506,56.1781 75.4846,55.3201 74.8996,53.8921 C72.9596,49.1491 70.0296,42.1861 70.0296,42.1861 C70.0296,42.1861 68.0366,38.8971 71.0916,37.6341 C71.5016,37.4641 71.8786,37.3921 72.2236,37.3921" id="Fill-10" fill="#4D4D4D" mask="url(#mask-2)"></path>
            <path d="M45.896,31.2871 L40.834,31.2871 L40.834,29.7091 L45.896,29.7091 C47.012,29.7091 47.917,28.8041 47.917,27.6881 C47.917,26.5731 47.012,25.6681 45.896,25.6681 L42.578,25.6681 L46.789,19.7751 C47.437,18.8681 47.227,17.6061 46.319,16.9571 C45.411,16.3081 44.149,16.5181 43.501,17.4261 L38.664,24.1971 L33.671,17.5931 C32.998,16.7031 31.731,16.5271 30.841,17.2011 C29.951,17.8731 29.774,19.1401 30.448,20.0301 L34.71,25.6681 L31.73,25.6681 C30.614,25.6681 29.71,26.5731 29.71,27.6881 C29.71,28.8041 30.614,29.7091 31.73,29.7091 L36.793,29.7091 L36.793,31.2871 L31.73,31.2871 C30.614,31.2871 29.71,32.1921 29.71,33.3081 C29.71,34.4241 30.614,35.3281 31.73,35.3281 L36.793,35.3281 L36.793,38.7531 C36.793,39.8691 37.697,40.7731 38.813,40.7731 C39.929,40.7731 40.834,39.8691 40.834,38.7531 L40.834,35.3281 L45.896,35.3281 C47.012,35.3281 47.917,34.4241 47.917,33.3081 C47.917,32.1921 47.012,31.2871 45.896,31.2871" id="Fill-11" fill="#FFFFFF" mask="url(#mask-2)"></path>
        </g>
    </g>
</svg>