<svg id="レイヤー_1" data-name="レイヤー 1" xmlns="http://www.w3.org/2000/svg" xmlns:xlink="http://www.w3.org/1999/xlink" viewBox="0 0 93.88 91.29"><defs><mask id="mask" x="13.54" y="0" width="66.92" height="91.29" maskUnits="userSpaceOnUse"><g transform="translate(0 0)"><g id="mask-2"><polygon id="path-1" points="13.54 0 80.46 0 80.46 91.29 13.54 91.29 13.54 0" style="fill:#fff"/></g></g></mask></defs><title>icon_family</title><g id="Page-1"><g id="icon_family" data-name="icon family"><path id="Fill-1" d="M58.31,48.53a22.85,22.85,0,1,0-22.62,0,28.26,28.26,0,0,0-16.3,25.76V85.45H74.61V74.29a28.26,28.26,0,0,0-16.3-25.76" transform="translate(0 0)" style="fill:#f5f4f4"/><g id="Group-5"><g style="mask:url(#mask)"><path id="Fill-3" d="M47,0A28.67,28.67,0,0,0,25.77,48,34.4,34.4,0,0,0,13.54,74.29V85.45a5.84,5.84,0,0,0,5.85,5.84H74.61a5.84,5.84,0,0,0,5.85-5.84V74.29A34.42,34.42,0,0,0,68.24,48,28.68,28.68,0,0,0,47,0m0,5.85A22.83,22.83,0,0,1,58.31,48.53a28.26,28.26,0,0,1,16.3,25.76V85.45H19.39V74.29A28.27,28.27,0,0,1,35.68,48.53,22.84,22.84,0,0,1,47,5.85" transform="translate(0 0)" style="fill:#4d4d4d"/></g></g><path id="Fill-6" d="M40.1,24c0,2.45-1.18,4.44-2.63,4.44s-2.63-2-2.63-4.44,1.18-4.43,2.63-4.43,2.63,2,2.63,4.43" transform="translate(0 0)" style="fill:#4d4d4d"/><path id="Fill-8" d="M58.36,24c0,2.45-1.17,4.44-2.63,4.44s-2.63-2-2.63-4.44,1.18-4.43,2.63-4.43,2.63,2,2.63,4.43" transform="translate(0 0)" style="fill:#4d4d4d"/><path id="Fill-10" d="M46.29,42.17c-6.39,0-9.15-4.65-9.15-8.55h3.61a5.17,5.17,0,0,0,5.54,4.91c3.78,0,6.23-2,6.23-4.91h3.41c0,3.9-2.83,8.55-9.64,8.55" transform="translate(0 0)" style="fill:#4d4d4d"/><path id="Fill-12" d="M26.6,65.89a13.58,13.58,0,1,0-13.45,0,16.8,16.8,0,0,0-9.68,15.3v6.63H36.28V81.19a16.8,16.8,0,0,0-9.68-15.3" transform="translate(0 0)" style="fill:#f5f4f4"/><path id="Fill-14" d="M19.88,37.06A17,17,0,0,0,7.26,65.55,20.46,20.46,0,0,0,0,81.19v6.63a3.47,3.47,0,0,0,3.47,3.47H36.28a3.47,3.47,0,0,0,3.47-3.47V81.19a20.46,20.46,0,0,0-7.26-15.64A17,17,0,0,0,19.88,37.06m0,3.48A13.56,13.56,0,0,1,26.6,65.89a16.8,16.8,0,0,1,9.68,15.3v6.63H3.47V81.19a16.8,16.8,0,0,1,9.68-15.3,13.56,13.56,0,0,1,6.73-25.35" transform="translate(0 0)" style="fill:#4d4d4d"/><path id="Fill-16" d="M15.78,51.3c0,1.46-.7,2.64-1.57,2.64s-1.56-1.18-1.56-2.64.7-2.63,1.56-2.63,1.57,1.18,1.57,2.63" transform="translate(0 0)" style="fill:#4d4d4d"/><path id="Fill-18" d="M26.62,51.3c0,1.46-.7,2.64-1.56,2.64S23.5,52.76,23.5,51.3s.7-2.63,1.56-2.63,1.56,1.18,1.56,2.63" transform="translate(0 0)" style="fill:#4d4d4d"/><path id="Fill-20" d="M19.45,62.11A5.07,5.07,0,0,1,14,57h2.15A3.07,3.07,0,0,0,19.45,60c2.25,0,3.7-1.18,3.7-2.92h2c0,2.32-1.68,5.08-5.73,5.08" transform="translate(0 0)" style="fill:#4d4d4d"/><path id="Fill-22" d="M80.72,65.89a13.57,13.57,0,1,0-13.44,0,16.8,16.8,0,0,0-9.68,15.3v6.63H90.4V81.19a16.8,16.8,0,0,0-9.68-15.3" transform="translate(0 0)" style="fill:#f5f4f4"/><path id="Fill-24" d="M74,37.06A17,17,0,0,0,61.39,65.55a20.43,20.43,0,0,0-7.27,15.64v6.63a3.47,3.47,0,0,0,3.48,3.47H90.4a3.47,3.47,0,0,0,3.48-3.47V81.19a20.43,20.43,0,0,0-7.27-15.64A17,17,0,0,0,74,37.06m0,3.48a13.56,13.56,0,0,1,6.72,25.35,16.78,16.78,0,0,1,9.68,15.3v6.63H57.6V81.19a16.8,16.8,0,0,1,9.68-15.3A13.56,13.56,0,0,1,74,40.54" transform="translate(0 0)" style="fill:#4d4d4d"/><path id="Fill-26" d="M69.9,51.3c0,1.46-.7,2.64-1.56,2.64s-1.56-1.18-1.56-2.64.7-2.63,1.56-2.63,1.56,1.18,1.56,2.63" transform="translate(0 0)" style="fill:#4d4d4d"/><path id="Fill-28" d="M80.75,51.3c0,1.46-.7,2.64-1.56,2.64s-1.57-1.18-1.57-2.64.7-2.63,1.57-2.63,1.56,1.18,1.56,2.63" transform="translate(0 0)" style="fill:#4d4d4d"/><path id="Fill-30" d="M73.58,62.11A5.07,5.07,0,0,1,68.14,57h2.15A3.07,3.07,0,0,0,73.58,60c2.24,0,3.7-1.18,3.7-2.92h2c0,2.32-1.69,5.08-5.73,5.08" transform="translate(0 0)" style="fill:#4d4d4d"/></g></g></svg>