<svg id="レイヤー_1" data-name="レイヤー 1" xmlns="http://www.w3.org/2000/svg" viewBox="0 0 400 338"><title>icon_toto</title><rect width="400" height="207" style="fill:#e61911"/><path d="M347.51,124.2V106.3H326.79l17.13-29.94-13.45-6.48H319.81A116.88,116.88,0,0,0,304.63,66a98,98,0,0,0-16.84-1.4H276.06c-18.8,0-34.29,4.19-46.05,12.46-1.4,1-2.71,2-4,3.09V66.06H167v5.31a43.42,43.42,0,0,0-11-3.84,86.23,86.23,0,0,0-17.19-1.47H53.55V83.81L58,84.92V145.5l-4.42,1.11v17.75h85.27A86.52,86.52,0,0,0,156,162.89a43.42,43.42,0,0,0,11-3.84v5.31h59v-13.9a60,60,0,0,0,6.3,4.67c11.06,7.1,25.28,10.71,42.25,10.71h11.72c18.16,0,37.06-4.7,56.17-14l5-2.43v-14l-4.42-1.1v-9.1Zm-81.74-20.91v24a14.92,14.92,0,0,1-5.19-11.84,15.74,15.74,0,0,1,5.19-12.16Zm.88-.78c.42-.36.84-.71,1.3-1.05a29.34,29.34,0,0,1,13.61-5,64,64,0,0,1,7.53,1.29,35.17,35.17,0,0,1,8.74,3c0,.18.06,1.76.06,1.76Zm-134,30.07a3,3,0,0,1-.07.78l-.17.11c-.23.13-2.52,1.25-9.86,1.25H108.13v-4.29h14.46c7.36,0,9.59,1.1,9.82,1.23a.56.56,0,0,1,.2.14,2.28,2.28,0,0,1,.08.78Zm-.07-34a1,1,0,0,1-.24.16c-.2.11-2.42,1.21-9.79,1.21H108.13V95.7h14.46c7.34,0,9.63,1.12,9.87,1.25l.16.1a3,3,0,0,1,.07.79,3,3,0,0,1-.07.78Z" transform="translate(0 -0.5)"/><path d="M172.58,71.59v7.9l2.54.64a6,6,0,0,1,1.84.67v68.46a1.8,1.8,0,0,1-.05.43,5.61,5.61,0,0,1-1.73.58l-2.64.58v8h36.2v-8l-2.71-.54a5.12,5.12,0,0,1-1.66-.53,1.77,1.77,0,0,1,0-.46V81.16a1,1,0,0,1,0-.41,4.94,4.94,0,0,1,1.74-.6l2.63-.59v-8h-36.2Z" transform="translate(0 -0.5)" style="fill:#fff"/><path d="M325.87,121a5.21,5.21,0,0,1,1.76-.62l2.61-.6v-8H282a3.1,3.1,0,0,1-1.21-.15,4,4,0,0,1-.56-1.28l-.74-2.36h-8.16v25.49h8.13l.76-2.33a3.57,3.57,0,0,1,.61-1.31,2.79,2.79,0,0,1,1.18-.15h20v5.4a52.93,52.93,0,0,1-10.5,3.24,75.34,75.34,0,0,1-14.83,1.47c-10,0-18-2.21-24-6.56-6.32-4.6-9.38-10.45-9.38-17.88,0-7.67,3.15-13.7,9.65-18.43,5.9-4.27,13.52-6.43,22.66-6.43a65.67,65.67,0,0,1,14.71,1.82c5.05,1.18,8.87,2.6,11.35,4.22a7.78,7.78,0,0,1,1.47,1,5.27,5.27,0,0,1,.13,1.12l.08,2.1,6.71,3,14.36-25.1-7-3.36-1.62,1.18a3.68,3.68,0,0,1-1.45.76c-.44,0-1.87-.15-5.63-1.43a116.39,116.39,0,0,0-16.84-4.48A91.83,91.83,0,0,0,276,70c-17.57.11-32,4-42.79,11.56-11.73,8.28-17.67,19.58-17.67,33.6,0,15,6.66,26.88,19.79,35.29,10.16,6.53,23.37,9.84,39.27,9.84,17.31,0,35.4-4.51,53.75-13.4l1.9-.92v-6.23l-2.55-.63a5.74,5.74,0,0,1-1.83-.66v-17A1.24,1.24,0,0,1,325.87,121Z" transform="translate(0 -0.5)" style="fill:#fff"/><path d="M154.19,115.21c9.5-5,11.82-12.48,11.82-18.36,0-8.09-3.62-14.54-10.79-19.18A36.16,36.16,0,0,0,143.16,73a80.79,80.79,0,0,0-16.06-1.37h-68v7.9l2.55.64a6,6,0,0,1,1.84.67v68.82a6,6,0,0,1-1.84.67L59.1,151v7.89h68a80,80,0,0,0,16.06-1.36,36.45,36.45,0,0,0,12.06-4.71c7.17-4.64,10.79-11.09,10.79-19.18C166,127.69,163.69,120.23,154.19,115.21Zm-19.11,23.14c-1.61.87-5.1,1.91-12.49,1.91H90.87V124.89h31.72c7.43,0,10.89,1,12.48,1.91,2.17,1.21,3.16,3,3.16,5.78S137.26,137.17,135.08,138.35Zm0-34.73c-1.59.87-5,1.91-12.48,1.91H90.87V90.16h31.72c7.39,0,10.88,1,12.49,1.91,2.18,1.18,3.15,3,3.15,5.77s-1,4.57-3.16,5.78Z" transform="translate(0 -0.5)" style="fill:#fff"/><rect x="180.1" y="171.88" width="5.97" height="5.98" style="fill:#231815"/><rect x="183.4" y="181" width="6.95" height="11.06" style="fill:#231815"/><path d="M160.81,195a4,4,0,0,1-.82-3v-2.76h6.61c12.61,0,12-13.81,12-13.81v-3.09h-8.9v3.09c0,3.11-2.39,5-5.54,5H160v-8.18H149.12V195.2a25,25,0,0,0,.18,3.67,5.41,5.41,0,0,0,1.77,3.38c2,1.81,5,2.74,9.05,2.76h20.06v-9.32H164.31C162.55,195.69,161.38,195.46,160.81,195Z" transform="translate(0 -0.5)" style="fill:#231815"/><rect x="192.04" y="181" width="6.95" height="11.06" style="fill:#231815"/><rect x="187.57" y="171.88" width="5.97" height="5.98" style="fill:#231815"/><path d="M201.46,190.91A4.14,4.14,0,0,1,200,194.5q-1.62,1.16-6.05,1.19H183.28V205h11a56.12,56.12,0,0,0,5.8-.22,13.14,13.14,0,0,0,6.78-2.22q3.39-2.84,3.36-10.93V181.5h-8.79Z" transform="translate(0 -0.5)" style="fill:#231815"/><rect x="245.97" y="179.37" width="5.97" height="5.98" style="fill:#231815"/><rect x="245.97" y="171.89" width="5.97" height="5.98" style="fill:#231815"/><path d="M217.65,179.84a4.93,4.93,0,0,1-4.27,3.81v9.9q6.36-1.16,9.83-4.19c1.88-1.62,3.2-3.51,4-7.86H234v6.27c0,3.59-.66,4.66-1.9,5.85s-4.28,2-8.83,2.07h-9.86V205h10.94c5.5,0,5-.23,7.5-.71q7.86-1.56,10.77-7.28c1.07-2.2,1.63-4.71,1.66-10.15V172.39H218.39A33.93,33.93,0,0,1,217.65,179.84Z" transform="translate(0 -0.5)" style="fill:#231815"/><path d="M225.21,3.92a.65.65,0,0,0,0-.88.63.63,0,0,0-.88,0L198,26c-.65.29-1.17,0-1.18-.81l.83-8.54c0-.92.47-3.5-.48-3.79s-1.9,2.22-2.37,3l-3.62,7.78a.8.8,0,0,1-1,.47.78.78,0,0,1-.47-.47l-3.54-7.82c-.47-.79-1.31-3.28-2.27-3.06s-.58,2.89-.6,3.81l.71,8.57a.83.83,0,0,1-.73.93.82.82,0,0,1-.61-.16l-7-5c-.81-.45-2.75-2.18-3.46-1.51s.92,2.79,1.36,3.6l5,7a.81.81,0,0,1-.14,1.14.85.85,0,0,1-.62.16l-8.54-.81c-.91,0-3.43-.53-3.71.41s2.15,2,2.94,2.44L176.25,37a.81.81,0,0,1,0,1.51L168.44,42c-.79.47-3.2,1.24-3,2.21s2.81.63,3.73.65l8.54-.76a.8.8,0,0,1,.75,1.3l-5,7c-.45.8-2.12,2.67-1.45,3.39s2.72-.84,3.53-1.29l7-4.93a.81.81,0,0,1,1.14.14.85.85,0,0,1,.16.62L183,58.88c0,.92-.47,3.36.47,3.65s1.91-2.08,2.38-2.87l3.63-7.78a.8.8,0,0,1,1-.47.78.78,0,0,1,.47.47l3.53,7.83c.47.79,1.3,3.14,2.27,2.91s.57-2.74.6-3.66l-.74-8.55A.8.8,0,0,1,198,49.7l7,5c.8.45,2.73,2.06,3.45,1.39s-.9-2.66-1.34-3.47l-4.9-7a.81.81,0,0,1,.14-1.14.85.85,0,0,1,.62-.16l8.54.87c.91,0,3.42.42,3.71-.53s-2.14-1.84-2.92-2.32l-7.76-3.66a.8.8,0,0,1-.47-1,.78.78,0,0,1,.47-.47l7.83-3.51c.79-.47,3.21-1.37,3-2.33s-2.81-.52-3.73-.54l-8.54.71a.84.84,0,0,1-.94-.73.82.82,0,0,1,.15-.59Z" transform="translate(0 -0.5)" style="fill:#fff"/><rect y="236" width="400" height="102" style="fill:#ffd800"/><polygon points="58.27 327.33 58.25 327.39 58.17 327.4 58.09 327.44 58.09 327.44 57.73 327.84 56.99 328.59 56.6 329 56.6 329 56.57 329.09 56.5 329.22 56.47 329.35 56.47 329.35 56.47 331.05 56.47 334.29 56.47 336 56.47 336 57.92 336 57.92 332.92 68 332.92 68 331.92 57.92 331.92 57.92 329.55 59.17 328.33 68 328.33 68 327.33 58.27 327.33 58.27 327.33" style="fill:#231815"/><path d="M81.42,334.26l-1.22,1.26H73.14L72,334.26v-4.21l1.19-1.22h7L81.42,330v4.26Zm1.49.18v-4.59h0v-.34h0l-.39-.42-.7-.75-.4-.4h-.13l-.1-.06H72.32l-.07.06h-.16l-.38.4-.72.75-.38.42h0v.34h0v4.59h0v.32l.07.13h0l.38.38.69.7.37.44h.08l.12,0h8.89l.11,0h0l.37-.44.7-.7.39-.38h0l.08-.13v-.32Z" transform="translate(0 -0.5)" style="fill:#231815"/><path d="M95.19,332.45H86.85v-3.62H94L95.19,330v2.45Zm2.89,4.05v-2.06h0V334h0l-.33-.32-.66-.59-.37-.33h0v-2.95h0v-.13l-.07-.13v-.08h0l-.35-.42-.72-.75-.39-.4h-.14l-.11-.06h-9l-.24.07-.09.19v.25h0v8.16h1.45v-3.08h8.53l1.26,1.21v1.87Z" transform="translate(0 -0.5)" style="fill:#231815"/><path d="M116,334.24l-1.13,1.28H107.7l-1.2-1.28V332.7H116v1.54Zm1.45.2v-4.59h0v-.26l-.07-.08h0l-.38-.41-.69-.73L116,328h-.09l-.11-.08-.06-.06H105.5v1h9.29l1.2,1.22v1.63H105.43l-.23.08L105,332v.22h0v2.29h0v.32l.07.13h0l.39.38.7.7.4.44h0l.08.05h8.92l.11-.05h.09l.35-.44.72-.7.35-.38h0l.07-.13.06-.17v-.15Z" transform="translate(0 -0.5)" style="fill:#231815"/><polygon points="121.81 336 121.7 336 121.6 335.95 121.56 335.9 121.56 335.9 121.17 335.47 120.42 334.77 120.04 334.39 120.04 334.39 119.99 334.26 119.94 334.09 119.94 333.94 119.94 333.94 119.94 332.26 119.94 329.07 119.94 327.33 119.94 327.33 121.38 327.33 121.38 333.76 122.62 335.02 130.18 335.02 130.18 336 121.81 336 121.81 336" style="fill:#231815"/><polygon points="133.37 336 133.28 336 133.19 335.95 133.13 335.9 133.13 335.9 132.75 335.47 132.01 334.77 131.62 334.39 131.62 334.39 131.56 334.26 131.5 334.09 131.47 333.94 131.47 333.94 131.47 332.26 131.47 329.07 131.47 327.33 131.47 327.33 132.95 327.33 132.95 333.76 134.12 335.02 141.72 335.02 141.72 336 133.37 336 133.37 336" style="fill:#231815"/><polygon points="160.5 334.39 160.12 334.77 159.41 335.47 159.06 335.9 159.06 335.9 158.98 335.95 158.86 336 158.78 336 158.78 336 157.8 336 155.38 336 152.51 336 150.11 336 149.11 336 149.11 336 149.11 335.02 157.95 335.02 159.18 333.74 159.18 332.2 159.18 332.2 158.13 332.2 155.6 332.2 152.6 332.2 150.08 332.2 149.04 332.2 149.04 332.2 148.81 332.11 148.69 331.92 148.65 331.65 148.65 331.65 148.65 331.05 148.65 329.93 148.65 329.35 148.65 329.35 148.69 329.22 148.76 329.09 148.81 329 148.81 329 149.2 328.59 149.9 327.84 150.27 327.44 150.27 327.44 150.36 327.4 150.45 327.39 150.53 327.33 150.53 327.33 151.5 327.33 153.91 327.33 156.8 327.33 159.21 327.33 160.21 327.33 160.21 327.33 160.21 328.33 151.38 328.33 150.11 329.58 150.11 331.18 150.11 331.18 151.19 331.18 153.68 331.18 156.69 331.18 159.21 331.18 160.25 331.18 160.25 331.18 160.47 331.26 160.6 331.43 160.65 331.65 160.65 331.65 160.65 332.29 160.65 333.4 160.65 333.94 160.65 333.94 160.65 334.09 160.57 334.26 160.5 334.39 160.5 334.39 160.5 334.39" style="fill:#231815"/><path d="M173.74,333.6h-9.13v-4.77h7.95l1.18,1.19v3.58Zm1.48.44v-4.19h0v-.13l-.07-.13v-.08h0l-.4-.42-.71-.75-.38-.4h-.08l-.1-.06h-10l-.25.07-.11.19v.25h0v8.16h1.48v-2h10.45l.14-.19V334Z" transform="translate(0 -0.5)" style="fill:#231815"/><path d="M188.68,334.26l-1.24,1.26h-7.08l-1.19-1.26v-4.21l1.19-1.22h7.08l1.24,1.19Zm1.44.18v-4.59h0v-.26l-.06-.08h0l-.37-.42-.71-.75-.36-.4h-.18l-.08-.06h-8.73l-.12.06h-.08l-.38.4-.7.75-.38.42h0l-.07.08-.06.13v.13h0v4.59h0v.45h0l.41.38.69.7.41.44h.06l.07,0h9l.07,0h.09L189,336l.72-.7.38-.38h0v-.13l.07-.13v-.19Z" transform="translate(0 -0.5)" style="fill:#231815"/><path d="M202.42,332.45h-8.35v-3.62h7.11l1.24,1.19Zm2.91,4.05v-2.06h0l-.05-.11-.07-.19-.06-.1h0l-.32-.32-.63-.59-.38-.33h0v-2.95h0v-.26l-.06-.08h0l-.38-.42-.69-.75-.38-.4h-.18v-.06H193l-.18.07-.13.19v.25h0v8.16h1.45v-3.08h8.5l1.25,1.21v1.87Z" transform="translate(0 -0.5)" style="fill:#231815"/><polygon points="219.24 334.39 218.86 334.77 218.13 335.47 217.72 335.9 217.72 335.9 217.69 335.95 217.59 336 217.53 336 217.53 336 216.21 336 213.38 336 210.49 336 209.24 336 209.24 336 209.12 336 209.08 335.95 209 335.9 209 335.9 208.62 335.5 207.89 334.77 207.49 334.39 207.49 334.39 207.43 334.29 207.43 334.13 207.38 334.02 207.38 334.02 207.38 332.29 207.38 329.07 207.38 327.33 207.38 327.33 208.88 327.33 208.88 329.29 218.94 329.29 218.94 330.3 208.88 330.3 208.88 333.79 210.07 335.02 216.71 335.02 217.86 333.76 217.86 332.58 219.37 332.58 219.37 332.58 219.37 332.96 219.37 333.61 219.37 333.94 219.37 333.94 219.33 334.09 219.29 334.26 219.24 334.39 219.24 334.39 219.24 334.39" style="fill:#231815"/><polygon points="233.28 334.39 232.91 334.77 232.14 335.47 231.77 335.9 231.77 335.9 231.73 335.95 231.62 336 231.56 336 231.56 336 230.53 336 228.15 336 225.3 336 222.86 336 221.88 336 221.88 336 221.88 335.02 230.71 335.02 231.93 333.74 231.93 332.2 231.93 332.2 230.87 332.2 228.38 332.2 225.38 332.2 222.86 332.2 221.83 332.2 221.83 332.2 221.61 332.11 221.47 331.92 221.41 331.65 221.41 331.65 221.41 331.05 221.41 329.93 221.41 329.35 221.41 329.35 221.47 329.22 221.53 329.09 221.58 329 221.58 329 221.93 328.59 222.69 327.84 223.08 327.44 223.08 327.44 223.13 327.4 223.23 327.39 223.28 327.33 223.28 327.33 224.29 327.33 226.69 327.33 229.55 327.33 231.98 327.33 232.98 327.33 232.98 327.33 232.98 328.33 224.12 328.33 222.9 329.58 222.9 331.18 222.9 331.18 223.94 331.18 226.48 331.18 229.45 331.18 231.98 331.18 233.04 331.18 233.04 331.18 233.24 331.26 233.39 331.43 233.39 331.65 233.39 331.65 233.39 332.29 233.39 333.4 233.39 333.94 233.39 333.94 233.39 334.09 233.36 334.26 233.28 334.39 233.28 334.39 233.28 334.39" style="fill:#231815"/><path d="M251.28,334.26l-1.21,1.26h-7l-1.26-1.26v-4.21l1.26-1.22h7.05l1.19,1.19v4.24Zm1.46.18v-4.59h0v-.26l-.05-.08h0l-.4-.42-.71-.75-.37-.4H251l-.07-.06h-8.79v.06h-.2l-.38.4-.7.75-.39.42h0l-.06.08-.07.13v.13h0v4.59h0v.45h0l.41.38.69.7.38.44h.1l.07,0h9l.1,0h.08l.37-.44.7-.7.38-.38h0l.07-.13v-.32Z" transform="translate(0 -0.5)" style="fill:#231815"/><polygon points="257.07 327.33 257 327.39 256.9 327.4 256.84 327.44 256.84 327.44 256.44 327.84 255.77 328.59 255.4 329 255.4 329 255.32 329.09 255.25 329.22 255.25 329.35 255.25 329.35 255.25 331.05 255.25 334.29 255.25 336 255.25 336 256.72 336 256.72 332.92 266.75 332.92 266.75 331.92 256.72 331.92 256.72 329.55 257.92 328.33 266.75 328.33 266.75 327.33 257.07 327.33 257.07 327.33" style="fill:#231815"/><polygon points="284.77 334.39 284.36 334.77 283.69 335.47 283.29 335.9 283.29 335.9 283.22 335.95 283.12 336 283.06 336 283.06 336 281.89 336 279.3 336 276.77 336 275.59 336 275.59 336 275.47 336 275.44 335.95 275.34 335.9 275.34 335.9 274.98 335.47 274.25 334.77 273.83 334.39 273.83 334.39 273.75 334.26 273.73 334.09 273.7 333.94 273.7 333.94 273.7 333.61 273.7 332.96 273.7 332.58 273.7 332.58 275.2 332.58 275.2 333.76 276.28 335.02 282.19 335.02 283.43 333.76 283.43 327.33 284.91 327.33 284.91 327.33 284.91 329.07 284.91 332.26 284.91 333.94 284.91 333.94 284.91 334.13 284.86 334.26 284.77 334.39 284.77 334.39 284.77 334.39" style="fill:#231815"/><path d="M298.34,334.24l-1.11,1.28H290l-1.19-1.28V332.7h9.49v1.54Zm1.47.2v-4.59h0v-.13l-.07-.13v-.08h0l-.38-.41-.69-.73-.4-.36h0l-.12-.08-.07-.06H287.82v1h9.31l1.21,1.22v1.63h-10.6l-.19.08-.12.17v.22h0v2.29h0v.32l.07.13h0l.39.38.7.7.39.44h.09l.05.05h8.94l.1-.05h0l.4-.44.69-.7.38-.38h0v-.13l.09-.17v-.15Z" transform="translate(0 -0.5)" style="fill:#231815"/><path d="M312.91,333.6h-9.15v-4.77h7.93l1.22,1.19Zm1.47.44v-4.19h0v-.13l-.06-.13v-.08h0l-.39-.42-.7-.75-.41-.4h-.16v-.06h-10l-.21.07-.09.19v.25h0v8.16h1.46v-2h10.41l.12-.19v-.29Z" transform="translate(0 -0.5)" style="fill:#231815"/><path d="M327.81,334.24l-1.08,1.28h-7.24l-1.17-1.28V332.7h9.49v1.54Zm1.5.2v-4.59h0v-.34h0l-.4-.41-.73-.73-.38-.36h0l-.1-.08-.12-.06H317.31v1h9.3l1.2,1.22v1.63H317.22l-.22.08-.09.17v.22h0v2.29h0v.15l0,.17v.13h0l.39.38.71.7.4.44h.08l.08.05h8.92l.1-.05h0L328,336l.73-.7.4-.38h0l.06-.13v-.32Z" transform="translate(0 -0.5)" style="fill:#231815"/><polygon points="342.23 336 342.23 329.52 341.04 328.33 333.25 328.33 333.25 336 331.8 336 331.8 336 331.8 334.75 331.8 331.92 331.8 329.13 331.8 327.84 331.8 327.84 331.8 327.59 331.92 327.4 332.13 327.33 332.13 327.33 333.16 327.33 335.59 327.33 338.47 327.33 340.87 327.33 341.88 327.33 341.88 327.33 341.98 327.39 342.05 327.4 342.09 327.44 342.09 327.44 342.49 327.84 343.19 328.59 343.6 329 343.6 329 343.62 329.09 343.72 329.22 343.72 329.35 343.72 329.35 343.72 331.05 343.72 334.29 343.72 336 343.72 336 342.23 336 342.23 336" style="fill:#231815"/><path d="M193.07,265.56a11.68,11.68,0,0,0-.9-3.48,14.51,14.51,0,0,0-1.94-3.43,12.14,12.14,0,0,0-2.54-2.47l-4.94-3.24c-3.25-2-6.53-3.93-9.67-5.59l-5.25-2.65a12.48,12.48,0,0,0-3.44-.95,13.69,13.69,0,0,0-3.94,0,11.72,11.72,0,0,0-3.43.93l-5.27,2.67c-3.26,1.71-6.54,3.63-9.65,5.59l-4.92,3.24a11.37,11.37,0,0,0-2.57,2.47,16.8,16.8,0,0,0-2,3.43,12.22,12.22,0,0,0-.88,3.42l-.34,5.91c-.07,1.87-.09,3.7-.09,5.6s0,3.73.09,5.58c0,0,.34,5.85.34,5.87a12.15,12.15,0,0,0,.88,3.46,15.63,15.63,0,0,0,2,3.42,12,12,0,0,0,2.55,2.49l4.91,3.21c3.26,2.06,6.55,3.93,9.68,5.64l5.24,2.6a12.27,12.27,0,0,0,3.46,1,16.23,16.23,0,0,0,3.94,0,13.31,13.31,0,0,0,3.44-1c.11-.07,5.25-2.63,5.25-2.63,3.29-1.75,6.54-3.64,9.67-5.62l4.91-3.2a12.38,12.38,0,0,0,2.57-2.54,13.49,13.49,0,0,0,1.94-3.4,12.12,12.12,0,0,0,.9-3.4l.3-5.93c.09-1.85.13-3.72.13-5.58s0-3.73-.13-5.6Zm-30.76,30.23A18.8,18.8,0,1,1,181.07,277V277a18.79,18.79,0,0,1-18.76,18.79Z" transform="translate(0 -0.5)" style="fill:#fff"/><path d="M162.31,265.28a11.69,11.69,0,1,0,11.61,11.77V277A11.73,11.73,0,0,0,162.31,265.28Z" transform="translate(0 -0.5)" style="fill:#fff"/><path d="M117.42,265.56a11.69,11.69,0,0,0-.91-3.48,15.7,15.7,0,0,0-2-3.43,11.57,11.57,0,0,0-2.52-2.47l-4.93-3.24c-3.29-2-6.56-3.93-9.68-5.59l-5.24-2.65a12.54,12.54,0,0,0-3.45-.95,13.62,13.62,0,0,0-3.93,0,12,12,0,0,0-3.43.93l-5.25,2.67c-3.32,1.71-6.56,3.63-9.68,5.59l-4.91,3.24A10.81,10.81,0,0,0,59,258.65a14.73,14.73,0,0,0-2,3.43,11.87,11.87,0,0,0-.87,3.42l-.33,5.91c-.09,1.87-.11,3.7-.11,5.6s0,3.73.11,5.58c0,0,.29,5.85.29,5.87a13.39,13.39,0,0,0,.91,3.46,14.13,14.13,0,0,0,2,3.42,11.76,11.76,0,0,0,2.49,2.49l5,3.21c3.25,2.06,6.49,3.93,9.68,5.64l5.24,2.6a12.14,12.14,0,0,0,3.44,1,16.15,16.15,0,0,0,3.93,0,13.38,13.38,0,0,0,3.45-1l5.24-2.63c3.27-1.75,6.53-3.64,9.68-5.62l4.92-3.2a12.69,12.69,0,0,0,2.53-2.54,14.54,14.54,0,0,0,2-3.4,12.14,12.14,0,0,0,.91-3.4l.32-5.93c.06-1.85.11-3.72.11-5.58s0-3.73-.11-5.6Zm-23.24,31A1.25,1.25,0,0,1,93,297.81h0a14.28,14.28,0,0,1-14.3-14.26h0V257.42a1.24,1.24,0,0,1,1.24-1.24h5.28a1.23,1.23,0,0,1,1.26,1.18v6h6.52a1.24,1.24,0,0,1,1.23,1.25h0v5.29a1.23,1.23,0,0,1-1.23,1.23H86.41v12.42A6.51,6.51,0,0,0,92.93,290a1.25,1.25,0,0,1,1.25,1.25v5.31Z" transform="translate(0 -0.5)" style="fill:#fff"/><path d="M268.76,265.56a12.31,12.31,0,0,0-.9-3.48,14.19,14.19,0,0,0-2-3.43,11.57,11.57,0,0,0-2.52-2.47l-5-3.24c-3.26-2-6.5-3.93-9.64-5.59l-5.25-2.65a12.34,12.34,0,0,0-3.42-.95,14.11,14.11,0,0,0-4,0,12.17,12.17,0,0,0-3.45.93l-5.25,2.67c-3.31,1.71-6.55,3.63-9.68,5.59l-4.89,3.24a10.58,10.58,0,0,0-2.57,2.47,14.19,14.19,0,0,0-2,3.43,11.3,11.3,0,0,0-.9,3.42l-.35,5.91c-.06,1.87-.1,3.7-.1,5.6s0,3.73.1,5.58c0,0,.35,5.85.35,5.87a11.55,11.55,0,0,0,.9,3.46,13.81,13.81,0,0,0,2,3.42,12,12,0,0,0,2.5,2.49l5,3.21c3.25,2.06,6.54,3.93,9.68,5.64l5.25,2.6a12.2,12.2,0,0,0,3.45,1,16.73,16.73,0,0,0,4,0,13.5,13.5,0,0,0,3.41-1l5.26-2.63c3.27-1.75,6.52-3.64,9.64-5.62l4.95-3.2a12.23,12.23,0,0,0,2.54-2.54,13.22,13.22,0,0,0,2-3.4,12.56,12.56,0,0,0,.9-3.4l.29-5.93c.09-1.85.11-3.72.11-5.58s0-3.73-.11-5.6Zm-23.25,31a1.25,1.25,0,0,1-1.25,1.25A14.25,14.25,0,0,1,230,283.55V257.42a1.23,1.23,0,0,1,1.22-1.24h5.27a1.23,1.23,0,0,1,1.26,1.2v5.95h6.51a1.25,1.25,0,0,1,1.27,1.25h0v5.29a1.26,1.26,0,0,1-1.27,1.23h-6.51v12.42a6.51,6.51,0,0,0,6.53,6.48,1.25,1.25,0,0,1,1.25,1.27h0Z" transform="translate(0 -0.5)" style="fill:#fff"/><path d="M311.6,258.19A18.8,18.8,0,1,0,330.39,277a18.8,18.8,0,0,0-18.79-18.81Zm0,30.46a11.69,11.69,0,1,1,11.66-11.72V277A11.66,11.66,0,0,1,311.6,288.65Z" transform="translate(0 -0.5)" style="fill:#fff"/><path d="M340.31,310.17c-1.56,0-2.12-1.17-2.12-2.68,0-1.68.94-2.56,2.12-2.56a1.63,1.63,0,0,1,1.78,1.35h.85a2.43,2.43,0,0,0-2.63-2.11c-1.9,0-3,1.38-3,3.34,0,2.51,1.46,3.41,2.89,3.41a2.65,2.65,0,0,0,2.82-2.45v-.06h-.81A1.89,1.89,0,0,1,340.31,310.17Z" transform="translate(0 -0.5)" style="fill:#231815"/><path d="M340.25,302.14a5.53,5.53,0,1,0,5.53,5.53h0A5.54,5.54,0,0,0,340.25,302.14Zm0,10.37a4.85,4.85,0,1,1,4.85-4.85A4.85,4.85,0,0,1,340.25,312.51Z" transform="translate(0 -0.5)" style="fill:#231815"/><path d="M198.58,271.21l-.33-6.08a16.33,16.33,0,0,0-1.25-5,21.26,21.26,0,0,0-2.68-4.67,17.75,17.75,0,0,0-3.64-3.55l-5.16-3.37c-3.39-2.12-6.78-4.08-10-5.79L170.06,240a17.79,17.79,0,0,0-5-1.43,18.51,18.51,0,0,0-5.36,0,16.85,16.85,0,0,0-4.93,1.39l-5.48,2.77c-3.39,1.81-6.76,3.78-10,5.79l-5.06,3.33a17.07,17.07,0,0,0-3.71,3.59,21.38,21.38,0,0,0-2.71,4.67,17.65,17.65,0,0,0-1.25,5c0,.05-.33,6.13-.33,6.13-.14,3.85-.14,7.74,0,11.59l.33,6.08a17.65,17.65,0,0,0,1.25,5,20.79,20.79,0,0,0,2.71,4.65,16.48,16.48,0,0,0,3.66,3.56c0,.05,5.12,3.37,5.12,3.37,3.38,2.12,6.74,4.07,10,5.79l5.44,2.78a17.39,17.39,0,0,0,5,1.39,18.51,18.51,0,0,0,5.36,0,16.69,16.69,0,0,0,5-1.39l5.46-2.78c3.37-1.77,6.75-3.74,10-5.79l5.11-3.32a17.79,17.79,0,0,0,3.69-3.61,19.94,19.94,0,0,0,2.68-4.65,16.33,16.33,0,0,0,1.25-5l.33-6.11C198.73,279,198.73,275.06,198.58,271.21Zm-5.21,11.38-.3,5.93a12.12,12.12,0,0,1-.9,3.4,13.49,13.49,0,0,1-1.94,3.4,12.38,12.38,0,0,1-2.57,2.54l-4.91,3.2c-3.13,2-6.38,3.87-9.67,5.62,0,0-5.14,2.56-5.25,2.63a13.31,13.31,0,0,1-3.44,1,16.23,16.23,0,0,1-3.94,0,12.27,12.27,0,0,1-3.46-1l-5.24-2.6c-3.13-1.71-6.42-3.58-9.68-5.64l-4.91-3.21a12,12,0,0,1-2.55-2.49,15.63,15.63,0,0,1-2-3.42,12.15,12.15,0,0,1-.88-3.46l-.34-5.87c-.07-1.85-.09-3.72-.09-5.58s0-3.73.09-5.6l.34-5.91a12.22,12.22,0,0,1,.88-3.42,16.8,16.8,0,0,1,2-3.43,11.37,11.37,0,0,1,2.57-2.47L142.1,253c3.11-2,6.39-3.88,9.65-5.59l5.27-2.67a11.72,11.72,0,0,1,3.43-.93,13.69,13.69,0,0,1,3.94,0,12.48,12.48,0,0,1,3.44.95l5.25,2.65c3.14,1.66,6.42,3.56,9.67,5.59l4.94,3.24a12.14,12.14,0,0,1,2.54,2.47,14.51,14.51,0,0,1,1.94,3.43,11.68,11.68,0,0,1,.9,3.48l.3,5.85c.09,1.87.13,3.7.13,5.6S193.46,280.74,193.37,282.59Z" transform="translate(0 -0.5)" style="fill:#231815"/><path d="M162.31,258.19A18.8,18.8,0,1,0,181.07,277v0A18.8,18.8,0,0,0,162.31,258.19Zm0,30.46a11.69,11.69,0,1,1,11.61-11.77V277A11.69,11.69,0,0,1,162.31,288.65Z" transform="translate(0 -0.5)" style="fill:#231815"/><path d="M122.93,271.21l-.34-6.08a17.3,17.3,0,0,0-1.24-5,20.39,20.39,0,0,0-2.67-4.67,17.3,17.3,0,0,0-3.7-3.55l-5.14-3.37c-3.37-2.12-6.74-4.08-10-5.79L94.41,240a18.48,18.48,0,0,0-5-1.43,18.72,18.72,0,0,0-5.39,0A17,17,0,0,0,79.14,240l-5.45,2.77c-3.41,1.81-6.78,3.78-10,5.79l-5.09,3.33a16.8,16.8,0,0,0-3.7,3.59,19.75,19.75,0,0,0-2.69,4.67,17.25,17.25,0,0,0-1.26,5c0,.05-.32,6.13-.32,6.13-.15,3.85-.15,7.74,0,11.59L51,289a17.25,17.25,0,0,0,1.26,5,18.92,18.92,0,0,0,2.69,4.65,15.94,15.94,0,0,0,3.68,3.56s5.11,3.37,5.11,3.37c3.37,2.12,6.75,4.07,10,5.79L79.11,314a17,17,0,0,0,4.94,1.39,18.65,18.65,0,0,0,5.38,0A16.32,16.32,0,0,0,94.37,314l5.43-2.78c3.43-1.77,6.82-3.74,10-5.79l5.1-3.32a17.54,17.54,0,0,0,3.74-3.61,19.56,19.56,0,0,0,2.67-4.65,17.63,17.63,0,0,0,1.24-5l.34-6.11C123.07,279,123.07,275.06,122.93,271.21Zm-5.19,11.38-.32,5.93a12.14,12.14,0,0,1-.91,3.4,14.54,14.54,0,0,1-2,3.4,12.69,12.69,0,0,1-2.53,2.54l-4.92,3.2c-3.15,2-6.41,3.87-9.68,5.62l-5.24,2.63a13.38,13.38,0,0,1-3.45,1,16.15,16.15,0,0,1-3.93,0,12.14,12.14,0,0,1-3.44-1l-5.24-2.6c-3.19-1.71-6.43-3.58-9.68-5.64l-5-3.21a12,12,0,0,1-2.4-2.52,14.13,14.13,0,0,1-2-3.42,13.39,13.39,0,0,1-.91-3.46l-.29-5.87c-.09-1.85-.11-3.72-.11-5.58s0-3.73.11-5.6l.33-5.91a11.87,11.87,0,0,1,.87-3.42,14.73,14.73,0,0,1,2-3.43,10.79,10.79,0,0,1,2.53-2.47l4.91-3.24c3.12-2,6.36-3.88,9.68-5.59l5.25-2.67a12,12,0,0,1,3.43-.93,13.62,13.62,0,0,1,3.93,0,12.54,12.54,0,0,1,3.45.95l5.24,2.65c3.12,1.66,6.39,3.56,9.68,5.59l4.93,3.24a11.57,11.57,0,0,1,2.52,2.47,15.7,15.7,0,0,1,2,3.43,11.69,11.69,0,0,1,.91,3.48l.32,5.85c.06,1.87.11,3.7.11,5.6S117.8,280.74,117.74,282.59Z" transform="translate(0 -0.5)" style="fill:#231815"/><path d="M92.93,290a6.51,6.51,0,0,1-6.52-6.48V271.11h6.52a1.23,1.23,0,0,0,1.23-1.23h0v-5.29a1.25,1.25,0,0,0-1.22-1.26H86.41v-5.91a1.23,1.23,0,0,0-1.2-1.24H79.9a1.24,1.24,0,0,0-1.27,1.21v26.14a14.28,14.28,0,0,0,14.3,14.26h0a1.25,1.25,0,0,0,1.25-1.23v-5.28A1.25,1.25,0,0,0,93,290Z" transform="translate(0 -0.5)" style="fill:#231815"/><path d="M274.25,271.21l-.32-6.08a18.7,18.7,0,0,0-1.24-5,21.38,21.38,0,0,0-2.71-4.67,16.48,16.48,0,0,0-3.67-3.55l-5.13-3.37c-3.36-2.12-6.77-4.08-10-5.79L245.74,240a18.48,18.48,0,0,0-5-1.43,18.79,18.79,0,0,0-5.4,0,16.67,16.67,0,0,0-4.9,1.39L225,242.73c-3.41,1.81-6.8,3.78-10,5.79l-5.11,3.33a18.52,18.52,0,0,0-3.7,3.59,20.11,20.11,0,0,0-2.69,4.67,17.22,17.22,0,0,0-1.24,5c0,.05-.33,6.13-.33,6.13-.15,3.85-.15,7.74,0,11.59l.33,6.08a17.22,17.22,0,0,0,1.24,5,19.1,19.1,0,0,0,2.69,4.65,17.4,17.4,0,0,0,3.66,3.56c0,.05,5.15,3.37,5.15,3.37,3.38,2.12,6.73,4.07,10,5.79l5.44,2.78a16.94,16.94,0,0,0,4.93,1.39,18.58,18.58,0,0,0,5.37,0,16.28,16.28,0,0,0,4.92-1.39l5.5-2.78c3.39-1.77,6.74-3.74,10-5.79l5.08-3.32a16.94,16.94,0,0,0,3.71-3.61,20.79,20.79,0,0,0,2.71-4.65,18.7,18.7,0,0,0,1.24-5l.32-6.11C274.4,279,274.4,275.06,274.25,271.21Zm-5.2,11.38-.29,5.93a12.56,12.56,0,0,1-.9,3.4,13.22,13.22,0,0,1-2,3.4,12.23,12.23,0,0,1-2.54,2.54l-4.95,3.2c-3.12,2-6.37,3.87-9.64,5.62l-5.26,2.63a13.5,13.5,0,0,1-3.41,1,16.73,16.73,0,0,1-4,0,12.2,12.2,0,0,1-3.45-1l-5.25-2.6c-3.14-1.71-6.43-3.58-9.68-5.64l-5-3.21a12,12,0,0,1-2.5-2.49,13.81,13.81,0,0,1-2-3.42,11.55,11.55,0,0,1-.9-3.46l-.35-5.87c-.06-1.85-.1-3.72-.1-5.58s0-3.73.1-5.6l.35-5.91a11.3,11.3,0,0,1,.9-3.42,14.19,14.19,0,0,1,2-3.43,10.58,10.58,0,0,1,2.57-2.47l4.89-3.24c3.13-2,6.37-3.88,9.68-5.59l5.25-2.67a12.17,12.17,0,0,1,3.45-.93,14.11,14.11,0,0,1,4,0,12.34,12.34,0,0,1,3.42.95l5.25,2.65c3.14,1.66,6.38,3.56,9.64,5.59l5,3.24a11.57,11.57,0,0,1,2.52,2.47,14.19,14.19,0,0,1,2,3.43,12.31,12.31,0,0,1,.9,3.48l.29,5.85c.09,1.87.11,3.7.11,5.6S269.14,280.74,269.05,282.59Z" transform="translate(0 -0.5)" style="fill:#231815"/><path d="M244.26,290a6.51,6.51,0,0,1-6.53-6.48V271.11h6.51a1.26,1.26,0,0,0,1.27-1.23v-5.29a1.25,1.25,0,0,0-1.26-1.26h-6.52v-5.91a1.23,1.23,0,0,0-1.22-1.24h-5.3a1.23,1.23,0,0,0-1.23,1.23h0v26.11a14.25,14.25,0,0,0,14.26,14.26h0a1.25,1.25,0,0,0,1.25-1.25v-5.26a1.25,1.25,0,0,0-1.24-1.28Z" transform="translate(0 -0.5)" style="fill:#231815"/><path d="M311.6,265.28A11.69,11.69,0,1,0,323.26,277,11.69,11.69,0,0,0,311.6,265.28Z" transform="translate(0 -0.5)" style="fill:#231815"/><path d="M349.67,274a15.82,15.82,0,0,0-1.93-5.4c-1.36-2.17-2.71-4.31-4.11-6.31-2.58-3.89-5.44-7.75-8.38-11.41-1.46-1.81-3-3.66-4.73-5.64a14.52,14.52,0,0,0-4.59-3.41,16.78,16.78,0,0,0-11.24-1.54c-2.35.57-4.75,1.2-7.19,1.93-4.44,1.3-8.89,2.8-13.23,4.48-2.23.87-4.44,1.79-6.65,2.76a15.63,15.63,0,0,0-4.56,3.25,17,17,0,0,0-3.35,4.71,15.74,15.74,0,0,0-1.59,5.32h0c-.23,2.35-.36,4.77-.5,7.25-.22,4.57-.22,9.25,0,13.87.14,2.45.27,4.88.5,7.23a15.57,15.57,0,0,0,1.59,5.37,16.84,16.84,0,0,0,3.32,4.73,15.42,15.42,0,0,0,4.55,3.2c2.26,1,4.48,1.93,6.69,2.79,4.34,1.69,8.79,3.19,13.23,4.48,2.31.68,4.71,1.35,7.14,1.93a17.39,17.39,0,0,0,5.71.23,16.75,16.75,0,0,0,5.61-1.75,15.67,15.67,0,0,0,4.52-3.4c1.57-1.79,3.13-3.62,4.77-5.65,2.87-3.57,5.7-7.39,8.38-11.43,1.4-2,2.75-4.1,4.08-6.26a15.59,15.59,0,0,0,2-5.44A16.89,16.89,0,0,0,349.67,274ZM311.6,295.79A18.8,18.8,0,1,1,330.39,277v0A18.8,18.8,0,0,1,311.6,295.79Z" transform="translate(0 -0.5)" style="fill:#231815"/></svg>