<svg id="レイヤー_1" data-name="レイヤー 1" xmlns="http://www.w3.org/2000/svg" viewBox="0 0 91.83 85.18"><title>icon_enavi</title><rect x="10.65" y="10.66" width="70.54" height="46.53" rx="2" ry="2" style="fill:#fff"/><path d="M90.42,6H9.24a5.33,5.33,0,0,0-5.33,5.32V68.55a5.33,5.33,0,0,0,5.33,5.33H46.5v9.31H22.55a4,4,0,1,0,0,8h55.9a4,4,0,0,0,0-8h-24V73.88H90.42a5.33,5.33,0,0,0,5.33-5.33V11.32A5.33,5.33,0,0,0,90.42,6ZM87.76,65.89H11.9V14H87.76Z" transform="translate(-3.91 -6)" style="fill:#4d4d4d"/><rect x="10.65" y="19.68" width="70.52" height="29.57" rx="1.07" ry="1.07" style="fill:none"/><rect x="14.21" y="23.24" width="63.39" height="22.44" style="fill:none"/><path d="M28.81,34.59a5.35,5.35,0,1,1-5.34-5.35A5.34,5.34,0,0,1,28.81,34.59Z" transform="translate(-3.91 -6)" style="fill:#bf0000"/><path d="M22.76,37.46V35.68h.77l1.34,1.78h1.36l-1.61-2.15a2,2,0,0,0-1.15-3.59h-1.8v5.74Zm0-4.65h.71a.89.89,0,0,1,0,1.78h-.71Z" transform="translate(-3.91 -6)" style="fill:#fff"/><path d="M64.89,37.25a.82.82,0,0,1-.76.51.83.83,0,0,1-.83-.91V33.52H66V31.7H63.3V29.78H61.48V31.7h-1.3v1.82h1.3v3.33a2.66,2.66,0,0,0,5.19.88Z" transform="translate(-3.91 -6)"/><path d="M42.32,31.7V32a3.29,3.29,0,0,0-1.78-.53,3.85,3.85,0,0,0-3.61,4,3.85,3.85,0,0,0,3.61,4,3.29,3.29,0,0,0,1.78-.54v.35h1.82V31.7Zm-1.78,6.06a2,2,0,0,1-1.78-2.21,2,2,0,0,1,1.78-2.21,2,2,0,0,1,1.78,2.21A2,2,0,0,1,40.54,37.76Z" transform="translate(-3.91 -6)"/><path d="M57.71,31.7v4.52a1.54,1.54,0,0,1-3.08,0V31.7H52.81v4.52a3.37,3.37,0,0,0,3.36,3.37,3.31,3.31,0,0,0,1.54-.38v.19h1.83V31.7Z" transform="translate(-3.91 -6)"/><path d="M78.15,31.51a3.33,3.33,0,0,0-1.54.37V31.7H74.78v7.7h1.83V34.87a1.54,1.54,0,1,1,3.08,0V39.4h1.83V34.87A3.37,3.37,0,0,0,78.15,31.51Z" transform="translate(-3.91 -6)"/><path d="M74.05,35.55a3.85,3.85,0,0,0-3.6-4,3.8,3.8,0,0,0-3.61,4,4.05,4.05,0,0,0,3.86,4,3.75,3.75,0,0,0,3.17-1.72L72.28,37a1.89,1.89,0,0,1-3.42-.87H74A4.89,4.89,0,0,0,74.05,35.55ZM72,34.45H68.9A1.58,1.58,0,0,1,72,34.45Z" transform="translate(-3.91 -6)"/><polygon points="44.92 29.31 48.53 25.7 45.94 25.7 43.16 28.48 43.16 23.14 41.33 23.14 41.33 33.4 43.16 33.4 43.16 30.13 46.42 33.4 49.01 33.4 44.92 29.31"/><path d="M31.71,39.4v-3H33l2.24,3h2.29l-2.71-3.6a3.31,3.31,0,0,0-1.92-6h-3V39.4Zm0-7.8H32.9a1.5,1.5,0,0,1,0,3H31.71Z" transform="translate(-3.91 -6)"/><path d="M35.77,45.14a2.33,2.33,0,0,0-2.09-1.56c-1.34,0-2.38,1.46-2.38,3.3s1.05,3.29,2.38,3.29a2.39,2.39,0,0,0,2.13-1.58l1.53.95a3.83,3.83,0,0,1-3.67,2.34c-2.54,0-4.32-2.06-4.32-5s1.85-5,4.36-5a3.86,3.86,0,0,1,3.63,2.35Z" transform="translate(-3.91 -6)" style="fill:#bf0000"/><path d="M43.19,51a2.37,2.37,0,0,1-1.9.89,4.08,4.08,0,0,1,.1-8.08,2.16,2.16,0,0,1,1.8.9l.24-.71H45v7.7H43.43Zm-3.56-3.15a2.1,2.1,0,0,0,1.78,2.33c1,0,1.78-1,1.78-2.32s-.75-2.34-1.79-2.34S39.63,46.54,39.63,47.84Z" transform="translate(-3.91 -6)" style="fill:#bf0000"/><path d="M47.75,44.7A2.87,2.87,0,0,1,50,43.8v1.71a2,2,0,0,0-1.72.85A2,2,0,0,0,48,47.47v4.22H46.12V44h1.46Z" transform="translate(-3.91 -6)" style="fill:#bf0000"/><path d="M55.66,51a2.37,2.37,0,0,1-1.9.89,4.08,4.08,0,0,1,.1-8.08,2.18,2.18,0,0,1,1.8.9V41.43h1.83V51.69H55.9ZM52.1,47.84a2.1,2.1,0,0,0,1.78,2.33c1,0,1.78-1,1.78-2.32s-.75-2.34-1.79-2.34S52.1,46.54,52.1,47.84Z" transform="translate(-3.91 -6)" style="fill:#bf0000"/></svg>