<svg id="レイヤー_1" data-name="レイヤー 1" xmlns="http://www.w3.org/2000/svg" viewBox="0 0 400 304.53"><title>icon_conveniencestore</title><rect x="42.09" y="105.99" width="315.83" height="172.23" style="fill:#fff"/><rect x="94.52" y="133.06" width="211.13" height="145.15" style="fill:#e2f4ff"/><path d="M209.07,135h-116V295.51H306.91V135ZM190.93,276.05H111.22V154.42h79.71Zm97.85,0H209.07V154.42h79.71Z" style="fill:#aeadad"/><rect x="158.82" y="195.15" width="16.62" height="40.42" style="fill:#aeadad"/><rect x="223.42" y="195.15" width="16.62" height="40.42" style="fill:#aeadad"/><path d="M354.58,304.53H45.41a29.36,29.36,0,0,1-29.32-29.32v-170A29.36,29.36,0,0,1,45.41,75.87H354.58a29.36,29.36,0,0,1,29.33,29.32v170A29.36,29.36,0,0,1,354.58,304.53ZM45.41,102.26a3,3,0,0,0-2.93,2.93v170a3,3,0,0,0,2.93,2.93H354.58a3,3,0,0,0,2.94-2.93v-170a3,3,0,0,0-2.94-2.93Z" style="fill:#aeadad"/><rect width="400" height="109.85" rx="2.75" ry="2.75" style="fill:#e35352"/><polygon points="364.63 45 275.57 45 275.57 20.7 121.43 20.7 121.43 45 32.37 45 32.37 60.87 121.43 60.87 121.43 85.17 275.57 85.17 275.57 60.87 364.63 60.87 364.63 45" style="fill:#fffffd"/><path d="M147,33.28h19.23c5,0,8.26,1,10,3.14,1.5,1.79,2.42,5.07,2.42,8.5,0,4.11-1.21,7.59-3.33,9.52s-4.84,2.61-9.53,2.61h-5.16c-4.74.25-6.09,1.41-5.95,5.13v3.14h23.2V73H145.64V64.11c-.14-10.87,4.11-15.18,15.08-15.18h4.93c3.38,0,4-.62,4-4s-.92-4-5.36-4H147Z" style="fill:#4d4d4d"/><path d="M193,33.28V51c.05,3.58.29,3.77,3.91,3.82h5.22V33.28h9.13V54.83h6.38v7.64h-6.38V73h-9.13V62.47h-8.89c-4.25,0-5.8-.39-7.15-1.65s-1.69-2.46-1.74-7.44V33.28Z" style="fill:#4d4d4d"/><path d="M222.14,33.23h8.36v9.38h12.95c6.62.24,8.6,2.75,8.51,10.58V73H243.6V55c0-4.49-.49-5.12-3.92-5.17H230.5V73h-8.36Z" style="fill:#4d4d4d"/></svg>