<svg id="レイヤー_1" data-name="レイヤー 1" xmlns="http://www.w3.org/2000/svg" xmlns:xlink="http://www.w3.org/1999/xlink" viewBox="0 0 298.81 34.34"><defs><mask id="mask" x="0" y="0.32" width="34.02" height="34.02" maskUnits="userSpaceOnUse"><g transform="translate(0 0)"><g id="mask-2"><polygon id="path-1" points="0 0.32 34.02 0.32 34.02 34.34 0 34.34 0 0.32" style="fill:#fff"/></g></g></mask><mask id="mask-2-2" x="275.82" y="0" width="22.99" height="33.26" maskUnits="userSpaceOnUse"><g transform="translate(0 0)"><g id="mask-4"><polygon id="path-3" points="275.82 0 298.81 0 298.81 33.26 275.82 33.26 275.82 0" style="fill:#fff"/></g></g></mask></defs><title>logo_card</title><g id="Page-1"><g id="logo-card"><g id="Group-3"><g style="mask:url(#mask)"><path id="Fill-1" d="M34,17.34a17,17,0,1,1-17-17,17,17,0,0,1,17,17" transform="translate(0 0)" style="fill:#bf0000"/></g></g><path id="Fill-4" d="M14.76,11.67H17a2.83,2.83,0,1,1,0,5.66H14.76Zm0,14.8V20.81h2.46l4.25,5.66h4.35l-5.14-6.84A6.3,6.3,0,0,0,17,8.2H11.29V26.47Z" transform="translate(0 0)" style="fill:#fff"/><path id="Fill-6" d="M148.85,25.82a2.62,2.62,0,0,1-2.43,1.62,2.66,2.66,0,0,1-2.62-2.92V14h8.57V8.13H143.8V2H138v6.1h-4.13V14H138V24.52a8.47,8.47,0,0,0,16.54,2.82Z" transform="translate(0 0)"/><path id="Fill-8" d="M71.33,27.43c-3.12,0-5.66-3.16-5.66-7s2.54-7,5.66-7,5.67,3.16,5.67,7S74.46,27.43,71.33,27.43ZM77,8.13V9.22a10.5,10.5,0,0,0-5.67-1.69C65,7.53,59.86,13.3,59.86,20.39S65,33.24,71.33,33.24A10.5,10.5,0,0,0,77,31.55v1.09h5.82V8.13Z" transform="translate(0 0)"/><path id="Fill-10" d="M126,8.13v14.4a4.9,4.9,0,0,1-9.8,0V8.13h-5.82v14.4A10.71,10.71,0,0,0,126,32.05v.59h5.81V8.13Z" transform="translate(0 0)"/><path id="Fill-12" d="M191,7.53a10.62,10.62,0,0,0-4.89,1.2v-.6h-5.82V32.64h5.82V18.25a4.9,4.9,0,1,1,9.79,0V32.64h5.82V18.25A10.73,10.73,0,0,0,191,7.53" transform="translate(0 0)"/><path id="Fill-14" d="M171.43,16.9h-9.81c1.08-4.77,8.73-5.76,9.81,0M178,20.39c0-7.1-5.15-12.88-11.48-12.88S155,13.17,155,20.39c0,7.59,6.48,12.87,12.29,12.87a12,12,0,0,0,10.11-5.48l-5.07-2.93c-4.3,5.25-10.28,1.69-10.88-2.75h16.4a16.36,16.36,0,0,0,.11-1.71" transform="translate(0 0)"/><polygon id="Fill-16" points="97.73 19.62 109.22 8.13 100.99 8.13 92.12 17 92.12 0 86.31 0 86.31 32.64 92.12 32.64 92.12 22.24 102.52 32.64 110.75 32.64 97.73 19.62"/><path id="Fill-18" d="M43.23,7.84H47a4.75,4.75,0,1,1,0,9.49h-3.8Zm0,24.8v-9.5h4.12l7.12,9.5h7.28l-8.6-11.46A10.55,10.55,0,0,0,47,2H37.42V32.64Z" transform="translate(0 0)"/><path id="Fill-20" d="M229.7,11.79c-1.44-3.15-3.81-4.94-6.65-4.94-4.28,0-7.59,4.63-7.59,10.5s3.35,10.46,7.59,10.46c2.84,0,5.17-1.75,6.77-5l4.86,3c-2.53,5.06-6.3,7.47-11.67,7.47-8.09,0-13.77-6.57-13.77-15.91,0-9.14,5.91-15.95,13.89-15.95,5.17,0,9.14,2.57,11.55,7.47Z" transform="translate(0 0)" style="fill:#bf0000"/><path id="Fill-22" d="M242,20.38c0,4.13,2.53,7.43,5.68,7.43s5.64-3.07,5.64-7.39S250.92,13,247.61,13C244.46,13,242,16.26,242,20.38Zm11.32,10a7.54,7.54,0,0,1-6,2.84c-6.15,0-11.12-5.8-11.12-12.88s5.13-12.83,11.43-12.83a6.85,6.85,0,0,1,5.72,2.84l.78-2.26h5.05V32.64h-5.05Z" transform="translate(0 0)" style="fill:#bf0000"/><path id="Fill-24" d="M267.83,10.39A9.14,9.14,0,0,1,275,7.55V13c-2.77.2-4.32,1-5.49,2.69a6.38,6.38,0,0,0-1,3.54V32.64h-5.83V8.13h4.66Z" transform="translate(0 0)" style="fill:#bf0000"/><g id="Group-28"><g style="mask:url(#mask-2-2)"><path id="Fill-26" d="M281.65,20.38c0,4.13,2.53,7.43,5.68,7.43S293,24.74,293,20.42,290.6,13,287.3,13,281.65,16.26,281.65,20.38Zm11.32,10a7.51,7.51,0,0,1-6,2.84c-6.15,0-11.13-5.8-11.13-12.88S281,7.55,287.26,7.55A6.82,6.82,0,0,1,293,10.39V0h5.84V32.64h-5.06Z" transform="translate(0 0)" style="fill:#bf0000"/></g></g></g></g></svg>