<svg id="レイヤー_1" data-name="レイヤー 1" xmlns="http://www.w3.org/2000/svg" xmlns:xlink="http://www.w3.org/1999/xlink" viewBox="0 0 399 163.44"><defs><clipPath id="clip-path" transform="translate(0 -1.24)"><rect y="1.24" width="398.98" height="163.45" style="fill:none"/></clipPath><clipPath id="clip-path-2" transform="translate(0 -1.24)"><rect y="0.37" width="400" height="164.32" style="fill:none"/></clipPath></defs><title>logo_applepay</title><g style="clip-path:url(#clip-path)"><path d="M72.82,22.32c4.53-5.68,7.61-13.3,6.8-21.08C73,1.57,64.88,5.62,60.19,11.3c-4.22,4.86-7.94,12.8-7,20.26,7.45.64,14.9-3.73,19.6-9.24" transform="translate(0 -1.24)" style="fill:#231815"/><path d="M79.54,33c-10.83-.64-20,6.15-25.2,6.15s-13.09-5.82-21.65-5.67A31.93,31.93,0,0,0,5.55,50c-11.63,20-3.07,49.77,8.24,66.1,5.49,8.07,12.11,17,20.83,16.65,8.25-.33,11.48-5.34,21.49-5.34s12.93,5.34,21.65,5.18c9-.17,14.7-8.09,20.2-16.17a71.82,71.82,0,0,0,9-18.59c-.16-.16-17.45-6.79-17.61-26.67C89.23,54.51,103,46.59,103.61,46.1,95.85,34.63,83.74,33.34,79.54,33" transform="translate(0 -1.24)" style="fill:#231815"/></g><g style="clip-path:url(#clip-path-2)"><path d="M187.47,10.49c23.53,0,39.91,16.21,39.91,39.83s-16.72,40-40.5,40h-26v41.42H142V10.49h45.46m-26.64,64h21.6c16.38,0,25.71-8.82,25.71-24.12s-9.33-24-25.63-24H160.83Z" transform="translate(0 -1.24)" style="fill:#231815"/><path d="M232.05,106.62c0-15.55,11.85-24.45,33.7-25.8l23.44-1.43V72.67c0-9.83-6.47-15.21-18-15.21-9.5,0-16.39,4.87-17.82,12.35h-17c.51-15.71,15.29-27.14,35.29-27.14,21.52,0,35.55,11.26,35.55,28.74v60.33h-17.4V117.21h-.42c-4.95,9.49-15.88,15.46-27.73,15.46-17.47,0-29.66-10.42-29.66-26m57.14-7.82V92l-20.92,1.34c-11.77.76-17.9,5.13-17.9,12.77,0,7.4,6.39,12.19,16.39,12.19,12.82,0,22.48-8.15,22.48-19.5Z" transform="translate(0 -1.24)" style="fill:#231815"/><path d="M324.11,164.18V149.64a54.2,54.2,0,0,0,5.55.34c8.32,0,13-3.53,15.88-12.61l1.68-5.37L315.37,43.76H335l22.19,71.6h.42l22.18-71.6H399l-33,92.69c-7.57,21.26-16.22,28.23-34.54,28.23a51,51,0,0,1-7.31-.5" transform="translate(0 -1.24)" style="fill:#231815"/></g></svg>