<svg id="レイヤー_1" data-name="レイヤー 1" xmlns="http://www.w3.org/2000/svg" xmlns:xlink="http://www.w3.org/1999/xlink" viewBox="0 0 226.77 226.77"><defs><mask id="mask" x="0" y="0" width="226.77" height="226.77" maskUnits="userSpaceOnUse"><g transform="translate(0 0)"><g id="mask-2"><path id="path-1" d="M0,0H226.77V226.77H0Z" style="fill:#fff"/></g></g></mask></defs><title>logo_edy</title><g id="Page-1"><path id="Fill-1" d="M2.57,204.39a19.83,19.83,0,0,0,19.8,19.8h182a19.82,19.82,0,0,0,19.79-19.8v-182A19.82,19.82,0,0,0,204.41,2.58h-182A19.84,19.84,0,0,0,2.57,22.37Z" transform="translate(0 0)" style="fill:#fff"/><g id="Group-5"><g style="mask:url(#mask)"><path id="Fill-3" d="M2.57,204.39a19.83,19.83,0,0,0,19.8,19.8h182a19.82,19.82,0,0,0,19.79-19.8v-182A19.82,19.82,0,0,0,204.41,2.58h-182A19.84,19.84,0,0,0,2.57,22.37Zm19.8,22.38A22.37,22.37,0,0,1,0,204.39v-182A22.38,22.38,0,0,1,22.37,0h182a22.36,22.36,0,0,1,22.36,22.37v182a22.36,22.36,0,0,1-22.36,22.38Z" transform="translate(0 0)"/></g></g><path id="Fill-6" d="M174.61,82.68a61.23,61.23,0,1,1-61.23-61.24,61.22,61.22,0,0,1,61.23,61.24" transform="translate(0 0)" style="fill:#bf0000"/><path id="Fill-8" d="M105.29,62.27h8.16a10.2,10.2,0,1,1,0,20.4h-8.16Zm0,53.31V95.17h8.84l15.31,20.41h15.65L126.59,91a22.68,22.68,0,0,0-13.14-41.18H92.78v65.81Z" transform="translate(0 0)" style="fill:#fff"/><path id="Fill-10" d="M173.77,157.6l-15.54,47.13c-1.65,5-5.3,7.84-10,7.84a10.89,10.89,0,0,1-7.7-3.1l2.89-4.47a6.11,6.11,0,0,0,4.4,1.79c2.41,0,3.58-1,4.75-4.26l1-2.62-15-42.31H145l11.49,33.64,10.87-33.64Z" transform="translate(0 0)" style="fill:#0e0046"/><path id="Fill-12" d="M60.74,175.7H82v-5.78H60.74V152.58H84.13V146.8H54.55v54.14h30.2v-5.78h-24Z" transform="translate(0 0)" style="fill:#0e0046"/><path id="Fill-14" d="M111.17,196.26c-7.29,0-12.66-7.15-12.66-17s5.37-16.92,12.59-16.92,12.66,7.08,12.66,17S118.46,196.26,111.17,196.26Zm12.38-33.36a14.45,14.45,0,0,0-12.45-6.33c-11.35,0-19.19,9.22-19.19,22.7S99.68,202,111,202a15,15,0,0,0,12.25-5.84l1,4.74h5.5V146.8h-6.19v16.1Z" transform="translate(0 0)" style="fill:#0e0046"/></g></svg>