<svg id="レイヤー_1" data-name="レイヤー 1" xmlns="http://www.w3.org/2000/svg" xmlns:xlink="http://www.w3.org/1999/xlink" viewBox="0 0 141.73 141.73"><defs><mask id="mask" x="0" y="0" width="141.73" height="141.73" maskUnits="userSpaceOnUse"><g transform="translate(0)"><g id="mask-2"><polygon id="path-1" points="0 0 141.73 0 141.73 141.73 0 141.73 0 0" style="fill:#fff"/></g></g></mask></defs><title>logo_rpay</title><g id="Page-1"><g id="logo_rpay" data-name="logo rpay"><g id="Group-3"><g style="mask:url(#mask)"><path id="Fill-1" d="M14,141.73a14,14,0,0,1-14-14V14A14,14,0,0,1,14,0H127.75a14,14,0,0,1,14,14V127.75a14,14,0,0,1-14,14Z" transform="translate(0)" style="fill:#bf0000"/></g></g><path id="Fill-4" d="M109.13,51.68A38.27,38.27,0,1,1,70.86,13.4a38.25,38.25,0,0,1,38.27,38.28" transform="translate(0)" style="fill:#fff"/><path id="Fill-6" d="M65.8,38.92h5.1a6.38,6.38,0,1,1,0,12.75H65.8Zm0,33.32V59.48h5.53L80.9,72.24h9.78L79.12,56.84A14.17,14.17,0,0,0,70.9,31.11H58V72.24Z" transform="translate(0)" style="fill:#bf0000"/><path id="Fill-8" d="M45.06,108.48a6.31,6.31,0,0,0,6.49-6.58,6.24,6.24,0,0,0-6.49-6.54H38v13.12Zm.26-16.73c6.06,0,10.36,4.17,10.36,10.15s-4.3,10.19-10.36,10.19H38v13.5H34.09V91.75Z" transform="translate(0)" style="fill:#fff"/><path id="Fill-10" d="M62.23,112.05c0,6.14,3.35,10.62,7.91,10.62S78,118.24,78,112.09s-3.31-10.62-7.91-10.62S62.23,106,62.23,112.05Zm15.48,10.57a9.4,9.4,0,0,1-7.66,3.66c-7.09,0-11.95-5.81-11.95-14.23s4.9-14.19,12-14.19A9.61,9.61,0,0,1,77.75,101l.56-2.54h3.44v27.09H78.31Z" transform="translate(0)" style="fill:#fff"/><path id="Fill-12" d="M108.61,98.5,98.89,128c-1,3.14-3.31,4.91-6.23,4.91a6.83,6.83,0,0,1-4.82-1.94l1.81-2.79a3.83,3.83,0,0,0,2.75,1.11c1.5,0,2.23-.64,3-2.66l.6-1.64L86.59,98.5h4l7.18,21,6.8-21Z" transform="translate(0)" style="fill:#fff"/></g></g></svg>