<svg id="レイヤー_1" data-name="レイヤー 1" xmlns="http://www.w3.org/2000/svg" viewBox="0 0 105.4 112"><title>ico_treatment</title><g id="treatment"><circle cx="26.4" cy="26.4" r="26.4" style="fill:#1474b8"/><circle cx="83.4" cy="47.7" r="22" style="fill:#1474b8"/><g id="Wi-fi"><path d="M99.6,46.1a1.61,1.61,0,0,1-1.1-.5,16.64,16.64,0,0,0-11.8-4.9,16.24,16.24,0,0,0-11.8,4.9,1.46,1.46,0,0,1-2.2,0,1.57,1.57,0,0,1,0-2.2,19.8,19.8,0,0,1,28,0,1.57,1.57,0,0,1,0,2.2A1.27,1.27,0,0,1,99.6,46.1Z" transform="translate(-3.3)" style="fill:#fff"/><path d="M100.4,43.8a19.37,19.37,0,0,0-27.3,0,1.06,1.06,0,0,0,1.5,1.5,17.09,17.09,0,0,1,12.2-5,17.52,17.52,0,0,1,12.2,5,1.09,1.09,0,0,0,1.5,0A1.21,1.21,0,0,0,100.4,43.8Z" transform="translate(-3.3)" style="fill:#fff"/><path d="M95.9,49.8a1.61,1.61,0,0,1-1.1-.5,11.27,11.27,0,0,0-8.1-3.4,11.1,11.1,0,0,0-8.1,3.4,1.56,1.56,0,1,1-2.2-2.2,14.37,14.37,0,0,1,10.3-4.3A14.2,14.2,0,0,1,97,47.1a1.57,1.57,0,0,1,0,2.2A1.27,1.27,0,0,1,95.9,49.8Z" transform="translate(-3.3)" style="fill:#fff"/><path d="M76.7,47.5A1.06,1.06,0,0,0,78.2,49a12,12,0,0,1,8.5-3.5A12.21,12.21,0,0,1,95.2,49a1.06,1.06,0,0,0,1.5-1.5A14.18,14.18,0,0,0,76.7,47.5Z" transform="translate(-3.3)" style="fill:#fff"/><path d="M92.2,53.5a1.61,1.61,0,0,1-1.1-.5,6.2,6.2,0,0,0-4.4-1.8A6.47,6.47,0,0,0,82.3,53a1.46,1.46,0,0,1-2.2,0,1.57,1.57,0,0,1,0-2.2,9.42,9.42,0,0,1,13.4,0,1.57,1.57,0,0,1,0,2.2A2.35,2.35,0,0,1,92.2,53.5Z" transform="translate(-3.3)" style="fill:#fff"/><path d="M80.4,51.2a1.06,1.06,0,0,0,1.5,1.5,6.76,6.76,0,0,1,9.6,0A1.06,1.06,0,0,0,93,51.2,8.87,8.87,0,0,0,80.4,51.2Z" transform="translate(-3.3)" style="fill:#fff"/><path d="M83.1,56.1l.4-.4a4.38,4.38,0,0,1,3.2-1.3,4.82,4.82,0,0,1,3.2,1.3l.4.4-3.6,3.6Z" transform="translate(-3.3)" style="fill:#fff"/><path d="M83.9,56.1l2.8,2.8,2.8-2.8A4,4,0,0,0,83.9,56.1Z" transform="translate(-3.3)" style="fill:#fff"/></g><g id="car"><path d="M45.9,23.2l-2.4-3.8a4.36,4.36,0,0,0-3.7-2.1H28.6a7.12,7.12,0,0,0-5,2.1l-3.2,3.2-7.6,1.8a2.77,2.77,0,0,0-2.2,2.7v3a1.22,1.22,0,0,0,1.2,1.2h4v.2a3.8,3.8,0,1,0,7.6,0v-.2H35.3v.2a3.8,3.8,0,1,0,7.6,0v-.2h2.6a1.22,1.22,0,0,0,1.2-1.2V26A6,6,0,0,0,45.9,23.2ZM19.6,33.1a1.5,1.5,0,1,1,1.5-1.5A1.42,1.42,0,0,1,19.6,33.1Zm9.6-9.6H22.4L25,20.8a5.15,5.15,0,0,1,3.6-1.5h.7l-.1,4.2Zm7.9,0h-6V19.3h6Zm2.1,9.6a1.5,1.5,0,1,1,1.5-1.5A1.54,1.54,0,0,1,39.2,33.1Zm-.4-9.6V19.3h.9a2.31,2.31,0,0,1,2,1.1l1.9,3-4.8.1Z" transform="translate(-3.3)" style="fill:#fff"/></g><g id="ico_treatment"><path d="M57.4,76.7A18.9,18.9,0,1,0,29.1,60.3a19,19,0,0,0,9.5,16.4A23.31,23.31,0,0,0,25.2,98v9.2H70.9V97.9A23.36,23.36,0,0,0,57.4,76.7Z" transform="translate(-3.3)" style="fill:#f5f4f4"/><path d="M48,41.3a18.9,18.9,0,0,1,9.4,35.3A23.4,23.4,0,0,1,70.9,97.9v9.2H25.2V97.9A23.4,23.4,0,0,1,38.7,76.6,18.9,18.9,0,0,1,48,41.3m0-4.9A23.77,23.77,0,0,0,24.3,60.2a24.08,24.08,0,0,0,6.2,16A28.21,28.21,0,0,0,20.4,97.9v9.2a4.87,4.87,0,0,0,4.8,4.8H70.9a4.87,4.87,0,0,0,4.8-4.8V97.9A28.42,28.42,0,0,0,65.6,76.1,23.71,23.71,0,0,0,48,36.4Z" transform="translate(-3.3)" style="fill:#4d4d4d"/><ellipse cx="36.8" cy="56.3" rx="2.2" ry="3.7" style="fill:#4d4d4d"/><ellipse cx="52" cy="56.3" rx="2.2" ry="3.7" style="fill:#4d4d4d"/><path d="M47.5,71.4c-5.3,0-7.5-3.9-7.5-7.1h3a4.3,4.3,0,0,0,4.6,4c3.2,0,5.1-1.6,5.1-4h2.9C55.4,67.5,53.1,71.4,47.5,71.4Z" transform="translate(-3.3)" style="fill:#4d4d4d"/><path d="M97,86.5H65.1v7.7a.32.32,0,0,0,.3.3H69v13.7a3.8,3.8,0,0,0,3.8,3.8H89.2a3.8,3.8,0,0,0,3.8-3.8V94.5h3.6a.32.32,0,0,0,.3-.3l.1-7.7Z" transform="translate(-3.3)" style="fill:#4d4d4d"/><rect x="75" y="88.7" width="5.4" height="21.2" style="fill:#e35450"/><path id="りぼん" d="M93.5,80.1a5.13,5.13,0,0,0-4.6-2.9,5.73,5.73,0,0,0-2.5.6,13.82,13.82,0,0,0-4.2,3.7l-.1.1a2.09,2.09,0,0,0-.4.6c-.1.1-.1.2-.2.3s-.1.2-.2.3-.2.3-.3.5a14,14,0,0,0-5.4-5.4,5.73,5.73,0,0,0-2.5-.6,4.83,4.83,0,0,0-3.3,8.5,3.92,3.92,0,0,0,1,.8H91.3C93.5,85.1,94.6,82.3,93.5,80.1ZM77.2,84.8A10.84,10.84,0,0,1,73,84a2.73,2.73,0,0,1-1.3-1.3,1.63,1.63,0,0,1-.1-1.2,1.94,1.94,0,0,1,1.7-1,2.24,2.24,0,0,1,1,.3,10.68,10.68,0,0,1,3.6,3.4c.1.2.3.4.4.6Zm12-.9a9.28,9.28,0,0,1-4.2.8h-.9a11.75,11.75,0,0,1,4-4,2.93,2.93,0,0,1,1-.3,1.94,1.94,0,0,1,1.7,1,1.23,1.23,0,0,1-.1,1.2A3.74,3.74,0,0,1,89.2,83.9Z" transform="translate(-3.3)" style="fill:#e35450"/><polygon points="64 92.2 64 88.7 75 88.7 75 92.2 64 92.2" style="fill:#eefcff"/><polygon points="80.5 92.2 80.5 88.7 91.5 88.7 91.5 92.2 80.5 92.2" style="fill:#eefcff"/><path d="M78.3,109.8H72.8a1.58,1.58,0,0,1-1.6-1.6V94.8h7.2l-.1,15Z" transform="translate(-3.3)" style="fill:#eefcff"/><path d="M83.8,109.8V94.7H91v13.4a1.58,1.58,0,0,1-1.6,1.6l-5.6.1Z" transform="translate(-3.3)" style="fill:#eefcff"/></g></g></svg>