<?xml version="1.0" encoding="utf-8"?>
<!-- Generator: Adobe Illustrator 22.0.1, SVG Export Plug-In . SVG Version: 6.00 Build 0)  -->
<svg version="1.1" xmlns="http://www.w3.org/2000/svg" xmlns:xlink="http://www.w3.org/1999/xlink" x="0px" y="0px"
	 viewBox="0 0 112 112" style="enable-background:new 0 0 112 112;" xml:space="preserve">
<style type="text/css">
	.st0{fill:#D1D1D1;}
	.st1{fill:#4B4B4B;}
	.st2{fill:#F5F4F4;}
	.st3{fill:#4D4D4D;}
	.st4{fill:#FFFFF3;}
	.st5{fill:#1474B8;}
	.st6{fill:#FFFFFF;}
	.st7{display:none;fill:#4D4D4D;stroke:#4D4D4D;stroke-width:2.2677;stroke-miterlimit:10;}
	.st8{fill:#E25450;}
	.st9{fill:#FFFFFF;stroke:#4D4D4D;stroke-width:2.2677;stroke-miterlimit:10;}
	.st10{fill:#606060;}
	.st11{fill:#E35450;}
	.st12{fill:#FFF9C1;}
	.st13{fill:#84AC67;}
	.st14{fill:#F7DB52;}
</style>
<g id="ico_x5F_lounge">
</g>
<g id="ico_x5F_helpdesk">
</g>
<g id="ico_x5F_treatment">
</g>
<g id="ico_x5F_foreignHoken">
	<g>
		<g id="ひこうき">
			<path class="st5" d="M59.1,22.9l2.8,6.1l0,0l0,0c1.2,2.5,3.9,4,7.4,4c2.1,0,4.4-0.5,6.6-1.6l0,0l0,0l2.7-1.3l2.2,11.4
				c0.3,2.3,2.2,4,4.5,4.1l0.2,0c2.3,0,4.3-1.6,4.7-3.8l4.4-19.7l7.9-3.9c7.7-3.8,10.7-7.7,8.8-11.5c-0.6-1.3-2.4-3.4-6.9-3.4
				c-3.1,0-6.9,1-10.3,2.6l-7.9,3.9l-0.2-0.1L75.6,5.2l-0.2-0.1l-0.2-0.1c-0.4-0.1-0.8-0.2-1.2-0.2c-1.6,0-3.1,0.8-3.9,2.2
				c-1,1.7-0.8,3.8,0.5,5.2l2.9,3.9l-2.6,1.2c-0.1,0.1-0.2,0.1-0.4,0.1l-0.3,0l0,0l0,0L65,16c-0.5-0.1-1-0.2-1.5-0.2
				c-1.4,0-2.8,0.6-3.7,1.7C58.5,19,58.2,21.1,59.1,22.9z M62.2,19.6c0.3-0.4,0.8-0.6,1.3-0.6c0.2,0,0.4,0,0.5,0.1l5.2,1.5
				c0.4,0.1,0.8,0.2,1.2,0.2c0.6,0,1.2-0.1,1.8-0.4l6-2.9L73,10.3c-0.4-0.4-0.5-1.1-0.2-1.6c0.2-0.4,0.7-0.6,1.1-0.6
				c0.1,0,0.2,0,0.3,0l10.6,4.6l-3.9,1.9l1.4,0.7l4-1.9l9.3-4.5c2.1-1,4.5-1.8,6.6-2.1c0.2,0.4,0.3,0.7,0.3,0.7
				c0.2,0.5,0,1.8-1.4,2.3l1.1,2.1c0,0,4.2-1.7,2.6-5.3c1.8,0,3.3,0.6,3.8,1.6c1.3,2.7-4.7,5.9-7.4,7.3L92,20.1l-4.8,21.2
				c-0.2,0.8-0.8,1.3-1.6,1.3l-0.1,0c-0.8,0-1.5-0.7-1.5-1.5l-2.6-13.7l0,0L81,25.5L80.7,24l-1.2,0.8l0.2,1.2l-5.2,2.6
				c-1.8,0.8-3.7,1.3-5.3,1.3c-2.1,0-3.8-0.7-4.5-2.2l-2.8-6.2C61.6,20.9,61.7,20.1,62.2,19.6z"/>
			<path class="st5" d="M96.7,13.2c0,0.7,0.6,1.3,1.3,1.3c0.7,0,1.3-0.6,1.3-1.3s-0.6-1.3-1.3-1.3C97.3,11.9,96.7,12.5,96.7,13.2z"
				/>
			<path class="st5" d="M91.6,15.6c0,0.7,0.6,1.3,1.3,1.3c0.7,0,1.3-0.6,1.3-1.3s-0.6-1.3-1.3-1.3C92.2,14.3,91.6,14.9,91.6,15.6z"
				/>
			<path class="st5" d="M86.4,18c0,0.7,0.6,1.3,1.3,1.3c0.7,0,1.3-0.6,1.3-1.3c0-0.7-0.6-1.3-1.3-1.3C87,16.7,86.4,17.3,86.4,18z"/>
			<path class="st5" d="M81.3,20.4c0,0.7,0.6,1.3,1.3,1.3c0.7,0,1.3-0.6,1.3-1.3c0-0.7-0.6-1.3-1.3-1.3
				C81.9,19.1,81.3,19.7,81.3,20.4z"/>
		</g>
		<path id="やし" class="st5" d="M81,47.8c-0.8-2.7-3-3.9-5.6-3.4c-2.4,0.4-3.6,3.4-4.2,5.2c0.2-2.4-0.3-5.7-3.1-7.2
			c-4.3-2.4-7.1,1.9-7.4,2.4c-0.3,0.5-0.3,0.7,0.5,0.6c0.2,0,2.2-0.6,4.2-0.2l0.9-0.9l0.4,1.2c1.6,0.6,2.9,2,3.2,4.2
			c-1.3-1.6-3.3-2.7-5.6-2.7c-4,0-7.2,3.1-7.2,7c0,0.3,0,0.1,0,0.1c0,0.1,0.1,0.3,0.2,0.3c0.1,0,0.3,0,0.4-0.1c0,0,0.1-0.1,0.4-0.5
			c0.6-0.6,1.3-1.1,2.1-1.5l0.7-1.3l0.9,0.5c1.4-0.6,2.9-0.9,4.5-0.9c1,0,2.1,0.1,3,0.4c-2.2-0.1-5.6,1-6.9,3.9
			c-1.6,3.5,0,6.3,0.2,6.5c0.2,0.2,0.4,0,0.5-0.3c0.1-0.7,0.5-2,1.2-3.4l-0.3-1.1l0.8,0.2c1-1.7,2.4-3.5,4.4-4.7
			c-1.6,3.4-2.8,8.4-0.9,15h4.8c0,0-4.8-4.7-2.3-14.3c0.5,0.7,1.2,1.7,1.8,3l0.7,0.1L73,56.8c0.4,1.1,0.7,2.3,0.7,3.6
			c0,0.3,0.2,0.6,0.3,0.4c1.6-3.3,1.1-6.7-1.1-8.7c1.4,0.5,2.5,1.6,3.4,2.8l1,0.2l-0.2,1.2c0.7,1.4,1.2,2.8,1.3,3.6
			c0.1,0.3,0.2,0.5,0.4,0.2c1.2-2.1,1.3-6.1-0.8-8.4c-1.7-1.7-4.6-1.8-6.4-1.4c1.2-2,4.3-2.1,4.3-2.1s0.5-1.2,0.6-1.3
			c0.1-0.2,0.7,1.1,0.7,1.1l3.2,1.3c0,0,0.4,0.3,0.5-0.2C81.2,48.8,81.2,48.4,81,47.8z"/>
		<path id="やし_1_" class="st5" d="M85.7,56c0.1,0.3,0.3,0.1,0.3,0.1l2.2-0.9c0,0,0.4-0.9,0.5-0.8c0.1,0.1,0.4,0.9,0.4,0.9
			s2.2,0.1,3,1.5c-1.2-0.3-3.2-0.2-4.3,0.9c-1.5,1.5-1.4,4.3-0.5,5.7c0.1,0.2,0.2,0.1,0.3-0.1c0.1-0.5,0.4-1.5,0.9-2.4l-0.1-0.8
			l0.7-0.2c0.6-0.9,1.4-1.6,2.3-1.9c-1.5,1.3-1.8,3.6-0.8,5.9c0.1,0.1,0.2,0,0.2-0.2c0-0.9,0.2-1.7,0.5-2.4l-0.2-0.6l0.5-0.1
			c0.4-0.9,0.9-1.5,1.2-2c1.7,6.5-1.6,9.7-1.6,9.7h3.2c1.3-4.5,0.5-7.9-0.6-10.2c1.4,0.8,2.3,2,3,3.2l0.5-0.1l-0.2,0.8
			c0.5,1,0.7,1.8,0.8,2.3c0,0.2,0.2,0.3,0.3,0.2c0.2-0.1,1.3-2,0.1-4.4c-0.9-1.9-3.2-2.7-4.7-2.6c0.7-0.2,1.3-0.3,2.1-0.3
			c1.1,0,2.1,0.2,3,0.6l0.6-0.3l0.5,0.9c0.5,0.3,1,0.6,1.4,1c0.2,0.2,0.3,0.3,0.3,0.3c0.1,0.1,0.2,0.1,0.3,0.1
			c0.1,0,0.2-0.1,0.2-0.2c0,0,0,0.2,0-0.1c0-2.6-2.2-4.8-4.9-4.8c-1.6,0-2.9,0.7-3.8,1.8c0.2-1.5,1-2.5,2.1-2.9l0.3-0.8l0.6,0.6
			c1.3-0.2,2.7,0.1,2.8,0.2c0.5,0,0.5,0,0.3-0.4c-0.2-0.4-2.1-3.2-5-1.6c-1.9,1.1-2.2,3.3-2.1,4.9c-0.4-1.2-1.2-3.2-2.9-3.5
			c-1.8-0.3-3.3,0.5-3.8,2.3C85.6,55.5,85.7,55.8,85.7,56z"/>
		<g id="ぼく">
			<path id="XMLID_7_" class="st2" d="M49.5,61.3c7.6-4.4,12.8-12.5,12.8-21.9c0-14-11.3-25.3-25.3-25.3S11.7,25.4,11.7,39.3
				c0,9.4,5.1,17.6,12.8,21.9c-10.6,4.9-18,15.8-18,28.5v12.3h61.1V89.8C67.6,77.1,60.1,66.2,49.5,61.3z"/>
			<g>
				<path id="XMLID_4_" class="st3" d="M37,14.1c14,0,25.3,11.3,25.3,25.3c0,9.4-5.1,17.6-12.8,21.9c10.6,4.9,18,15.8,18,28.5v12.3
					H6.5V89.8c0-12.7,7.4-23.6,18-28.5c-7.6-4.4-12.8-12.5-12.8-21.9C11.7,25.4,23.1,14.1,37,14.1 M37,7.6
					C19.5,7.6,5.3,21.8,5.3,39.3c0,8,3,15.5,8.2,21.3C5.1,67.7,0,78.3,0,89.8v12.3c0,3.6,2.9,6.5,6.5,6.5h61.1
					c3.6,0,6.5-2.9,6.5-6.5V89.8c0-11.4-5.1-22.1-13.5-29.1c5.2-5.8,8.2-13.3,8.2-21.3C68.7,21.8,54.5,7.6,37,7.6L37,7.6z"/>
				<ellipse id="XMLID_3_" class="st3" cx="26.5" cy="34.1" rx="2.9" ry="4.9"/>
				<ellipse id="XMLID_2_" class="st3" cx="46.7" cy="34.1" rx="2.9" ry="4.9"/>
				<path id="XMLID_1_" class="st3" d="M36.2,54.2c-7.1,0-10.1-5.1-10.1-9.5h4c0.4,3.1,2.4,5.4,6.1,5.4c4.2,0,6.9-2.2,6.9-5.4h3.8
					C46.9,49.1,43.8,54.2,36.2,54.2z"/>
			</g>
		</g>
		<g id="せいきゅうしょ">
			<path class="st6" d="M100.2,66.8H71.4c-1.2,0-2.2,1-2.2,2.2v35.8c0,1.2,1,2.2,2.2,2.2h28.7c1.2,0,2.2-1,2.2-2.2V69
				C102.4,67.8,101.4,66.8,100.2,66.8z"/>
			<path class="st3" d="M100.2,108.6H71.4c-2.1,0-3.8-1.7-3.8-3.8V69c0-2.1,1.7-3.8,3.8-3.8h28.7c2.1,0,3.8,1.7,3.8,3.8v35.8
				C104,106.9,102.3,108.6,100.2,108.6z M71.4,68.4c-0.3,0-0.6,0.3-0.6,0.6v35.8c0,0.3,0.3,0.6,0.6,0.6h28.7c0.3,0,0.6-0.3,0.6-0.6
				V69c0-0.3-0.3-0.6-0.6-0.6H71.4z"/>
			<g>
				<path class="st3" d="M95.4,94.8H76.2c-0.8,0-1.4-0.6-1.4-1.4s0.6-1.4,1.4-1.4h19.2c0.8,0,1.4,0.6,1.4,1.4S96.2,94.8,95.4,94.8z"
					/>
				<path class="st3" d="M95.4,88.2H76.2c-0.8,0-1.4-0.6-1.4-1.4s0.6-1.4,1.4-1.4h19.2c0.8,0,1.4,0.6,1.4,1.4S96.2,88.2,95.4,88.2z"
					/>
				<path class="st3" d="M95.4,101.3H76.2c-0.8,0-1.4-0.6-1.4-1.4s0.6-1.4,1.4-1.4h19.2c0.8,0,1.4,0.6,1.4,1.4
					S96.2,101.3,95.4,101.3z"/>
			</g>
			<g>
				<path class="st3" d="M76.2,73.3h2.5c1.5,0,2.7,0.4,2.7,1.8c0,0.6-0.4,1.3-0.9,1.6v0c0.7,0.2,1.3,0.7,1.3,1.7
					c0,1.5-1.2,2.1-2.8,2.1h-2.7V73.3z M78.6,76.1c0.7,0,1.1-0.3,1.1-0.8c0-0.5-0.3-0.7-1.1-0.7h-0.7v1.5H78.6z M78.7,79.1
					c0.8,0,1.3-0.3,1.3-0.9c0-0.6-0.4-0.8-1.3-0.8h-0.9v1.7H78.7z"/>
				<path class="st3" d="M82.9,73.3h1.7v7.2h-1.7V73.3z"/>
				<path class="st3" d="M86.3,73.3H88V79h2.8v1.4h-4.5V73.3z"/>
				<path class="st3" d="M91.5,73.3h1.7V79h2.8v1.4h-4.5V73.3z"/>
			</g>
		</g>
	</g>
</g>
<g id="ico_x5F_foreignGuide">
</g>
</svg>
