<?xml version="1.0" encoding="utf-8"?>
<!-- Generator: Adobe Illustrator 22.0.1, SVG Export Plug-In . SVG Version: 6.00 Build 0)  -->
<svg version="1.1" xmlns="http://www.w3.org/2000/svg" xmlns:xlink="http://www.w3.org/1999/xlink" x="0px" y="0px"
	 viewBox="0 0 112 112" style="enable-background:new 0 0 112 112;" xml:space="preserve">
<style type="text/css">
	.st0{fill:#F5F4F4;}
	.st1{fill:#4D4D4D;}
	.st2{fill:#F6F5F5;}
	.st3{fill:#F1CF49;}
	.st4{fill:#1474B8;}
	.st5{fill:#FFFFFF;}
	.st6{display:none;fill:#4D4D4D;stroke:#4D4D4D;stroke-width:2.2677;stroke-miterlimit:10;}
	.st7{fill:#D1D1D1;}
	.st8{fill:#E25450;}
	.st9{fill:#FFFFFF;stroke:#4D4D4D;stroke-width:2.2677;stroke-miterlimit:10;}
	.st10{fill:#606060;}
	.st11{fill-rule:evenodd;clip-rule:evenodd;fill:#E35450;}
	.st12{fill:#585757;}
	.st13{fill:#F5F4F5;}
	.st14{fill:#4B4948;}
	.st15{fill:#84AC67;}
	.st16{fill:#F7DB52;}
</style>
<g id="ico_x5F_user_1_">
</g>
<g id="ico_x5F_user">
</g>
<g id="ico_x5F_helpdesk_1_">
	<g>
		<g>
			<g>
				<g>
					<path class="st1" d="M6,70.7c-2.5,0-4.6-2.1-4.6-4.6V33.3c0-2.5,2.1-4.6,4.6-4.6h10.9v42H6z"/>
					<path class="st1" d="M15.5,30.1v39.1H6c-1.7,0-3.2-1.4-3.2-3.2V33.3c0-1.7,1.4-3.2,3.2-3.2H15.5 M18.3,27.3H6c-3.3,0-6,2.7-6,6
						v32.8c0,3.3,2.7,6,6,6h12.3V27.3L18.3,27.3z"/>
				</g>
				<g>
					<path class="st5" d="M10.9,70.7V16c0-2.5,2.1-4.6,4.6-4.6h50.9c2.5,0,4.6,2.1,4.6,4.6v54.7H10.9z"/>
					<path class="st1" d="M66.4,12.8c1.7,0,3.2,1.4,3.2,3.2v53.3H12.3V16c0-1.7,1.4-3.2,3.2-3.2H66.4 M66.4,10H15.5
						c-3.3,0-6,2.7-6,6v56.1h62.9V16C72.4,12.7,69.7,10,66.4,10L66.4,10z"/>
				</g>
				<g>
					<path class="st1" d="M31.4,70.7v-14c0-2.5,2.1-4.6,4.6-4.6h9.8c2.5,0,4.6,2.1,4.6,4.6v14H31.4z"/>
					<path class="st1" d="M45.8,53.6c1.7,0,3.2,1.4,3.2,3.2v12.6H32.9V56.7c0-1.7,1.4-3.2,3.2-3.2H45.8 M45.8,50.7H36
						c-3.3,0-6,2.7-6,6v15.4h21.8V56.7C51.8,53.4,49.1,50.7,45.8,50.7L45.8,50.7z"/>
				</g>
				<g>
					<rect x="18.1" y="18" class="st1" width="6.4" height="6.4"/>
					<rect x="27.9" y="18" class="st1" width="6.4" height="6.4"/>
					<rect x="37.7" y="18" class="st1" width="6.4" height="6.4"/>
					<rect x="47.5" y="18" class="st1" width="6.4" height="6.4"/>
					<rect x="57.3" y="18" class="st1" width="6.4" height="6.4"/>
				</g>
				<g>
					<path class="st1" d="M18.1,30.6h3.3c2,0,3.6,0.6,3.6,2.4c0,0.9-0.5,1.9-1.4,2.2v0.1c1.1,0.3,1.9,1,1.9,2.4c0,2-1.7,2.9-3.9,2.9
						h-3.5V30.6z M21.3,34.6c1.3,0,1.8-0.5,1.8-1.3c0-0.9-0.6-1.2-1.8-1.2h-1.2v2.5H21.3z M21.5,39c1.4,0,2.1-0.5,2.1-1.5
						c0-1-0.7-1.4-2.1-1.4h-1.4V39H21.5z"/>
					<path class="st1" d="M32.8,40.5l-2-3.8h-1.4v3.8h-2v-9.9h3.5c2.1,0,3.7,0.7,3.7,3c0,1.5-0.8,2.4-1.9,2.9l2.3,4.1H32.8z
						 M29.4,35.2h1.3c1.3,0,2-0.5,2-1.6c0-1.1-0.7-1.4-2-1.4h-1.3V35.2z"/>
					<path class="st1" d="M41.9,38h-3.2l-0.7,2.6h-2l3.2-9.9h2.3l3.2,9.9h-2.1L41.9,38z M41.4,36.4l-0.3-1.1c-0.3-1-0.6-2.2-0.9-3.3
						h-0.1c-0.3,1.1-0.6,2.2-0.8,3.3l-0.3,1.1H41.4z"/>
					<path class="st1" d="M46,30.6h2l2.9,5.3l1,2.2H52c-0.1-1-0.3-2.4-0.3-3.5v-4h1.9v9.9h-2l-2.9-5.3l-1-2.1h-0.1
						c0.1,1.1,0.2,2.3,0.2,3.5v4H46V30.6z"/>
					<path class="st1" d="M56,30.6h2.7c3,0,4.9,1.6,4.9,4.9c0,3.3-1.9,5-4.8,5H56V30.6z M58.7,38.9c1.9,0,3-1,3-3.4
						c0-2.4-1.2-3.3-3-3.3H58v6.8H58.7z"/>
				</g>
			</g>
			<path id="_パス__1_" class="st0" d="M93.4,66c9.2-5.3,12.4-17,7.2-26.2c-5.3-9.2-17-12.4-26.2-7.2s-12.4,17-7.2,26.2
				c1.7,3,4.2,5.5,7.2,7.2c-8.4,3.9-13.8,12.4-13.7,21.7v9.4h46.5v-9.4C107.1,78.4,101.8,69.9,93.4,66z"/>
			<path id="_複合パス__1_" class="st1" d="M83.8,30.1c10.6,0,19.2,8.6,19.2,19.2c0,6.9-3.7,13.3-9.7,16.7
				c8.4,3.9,13.8,12.4,13.7,21.7v9.4H60.6v-9.4c0-9.3,5.3-17.7,13.7-21.7c-9.2-5.3-12.4-17-7.2-26.2C70.5,33.8,76.9,30.1,83.8,30.1
				 M83.8,25.2c-13.3,0-24.1,10.8-24.2,24.1c0,6,2.2,11.8,6.3,16.2C59.4,71,55.7,79.1,55.7,87.7v9.4c0,2.7,2.2,4.9,4.9,4.9h46.5
				c2.7,0,4.9-2.2,4.9-4.9v-9.4c0-8.5-3.8-16.6-10.3-22.1c9-9.9,8.2-25.1-1.6-34.1C95.6,27.4,89.8,25.2,83.8,25.2z"/>
			<ellipse id="_パス_2_1_" class="st1" cx="75.8" cy="45.3" rx="2.2" ry="3.7"/>
			<ellipse id="_パス_3_1_" class="st1" cx="91.2" cy="45.3" rx="2.2" ry="3.7"/>
			<path id="_パス_4_1_" class="st1" d="M83.2,60.7c-5.4,0-7.7-3.9-7.7-7.2h3c0.1,2.4,2.2,4.3,4.6,4.1c0.1,0,0.1,0,0.2,0
				c3.2,0,5.2-1.7,5.2-4.1h2.9C91.4,56.7,89,60.7,83.2,60.7z"/>
			<rect x="37.7" y="76.9" class="st2" width="34.5" height="23.5"/>
			<path class="st1" d="M70.6,78.5v20.4H39.2V78.5H70.6 M70.6,75.3H39.2c-1.7,0-3.1,1.4-3.1,3.1v20.4c0,1.7,1.4,3.1,3.1,3.1h31.4
				c1.7,0,3.1-1.4,3.1-3.1V78.5C73.7,76.7,72.3,75.3,70.6,75.3z"/>
			<path id="_長方形__1_" class="st3" d="M60.4,89.5h6.3c0.9,0,1.6,0.7,1.6,1.6v3.9c0,0.9-0.7,1.6-1.6,1.6h-6.3
				c-0.9,0-1.6-0.7-1.6-1.6V91C58.8,90.2,59.5,89.5,60.4,89.5z"/>
			<polygon class="st1" points="71.4,81.6 38.4,81.6 38.4,86.3 71.4,86.3 71.4,81.6 			"/>
		</g>
		<path id="XMLID_1_" class="st8" d="M22.1,92.1c0,0-3.7,0.3-8.5-3.7c-5.4-4.5-6-12.7-6-12.7s2.6,5.9,7.8,7.7
			c4.6,1.7,6.6,1.2,6.6,1.2v-4.6l10.5,8.5l-10.5,7.6V92.1z"/>
	</g>
</g>
<g id="confirm">
</g>
<g id="がいど">
</g>
</svg>
