<?xml version="1.0" encoding="utf-8"?>
<!-- Generator: Adobe Illustrator 22.0.1, SVG Export Plug-In . SVG Version: 6.00 Build 0)  -->
<svg version="1.1" xmlns="http://www.w3.org/2000/svg" xmlns:xlink="http://www.w3.org/1999/xlink" x="0px" y="0px"
	 viewBox="0 0 112 112" style="enable-background:new 0 0 112 112;" xml:space="preserve">
<style type="text/css">
	.st0{fill:#D1D1D1;}
	.st1{fill:#4B4B4B;}
	.st2{fill:#F5F4F4;}
	.st3{fill:#4D4D4D;}
	.st4{fill:#FFFFF3;}
	.st5{fill:#FFFFFF;}
	.st6{fill:#4B4948;}
	.st7{fill:#4C4948;}
	.st8{fill:#1474B8;}
	.st9{fill:#F5F4F5;}
	.st10{fill:#606060;}
	.st11{fill:#E25450;}
	.st12{fill:#E35450;}
	.st13{fill:#FFFFFF;stroke:#4D4D4D;stroke-width:2.126;stroke-miterlimit:10;}
	.st14{display:none;fill:#1474B8;}
	.st15{fill:#FFFFFF;stroke:#B3B3B3;stroke-miterlimit:10;}
	.st16{fill:#156A9E;}
	.st17{fill:#F6F5F5;}
	.st18{fill:#F1CF49;}
	.st19{fill:#EEFCFF;}
	.st20{fill-rule:evenodd;clip-rule:evenodd;fill:#E25450;}
	.st21{fill:#575757;}
	.st22{fill:#585757;}
	.st23{fill-rule:evenodd;clip-rule:evenodd;fill:#E35450;}
	.st24{display:none;fill:#4D4D4D;stroke:#4D4D4D;stroke-width:2.2677;stroke-miterlimit:10;}
	.st25{fill:#FFFFFF;stroke:#4D4D4D;stroke-width:2.2677;stroke-miterlimit:10;}
	.st26{fill:#84AC67;}
	.st27{fill:#F7DB52;}
</style>
<g id="レイヤー_8">
</g>
<g id="レイヤー_15">
	<g>
		<g>
			<g>
				<path class="st3" d="M5.6,66.5c-2.5,0-4.6-2.1-4.6-4.6V28.5c0-2.5,2.1-4.6,4.6-4.6h11.2v42.6H5.6z"/>
				<path class="st3" d="M15.3,25.3V65H5.6c-1.7,0-3.2-1.4-3.2-3.2V28.5c0-1.7,1.4-3.2,3.2-3.2H15.3 M18.2,22.5H5.6
					c-3.3,0-6,2.7-6,6v33.4c0,3.3,2.7,6,6,6h12.6V22.5L18.2,22.5z"/>
			</g>
			<g>
				<path class="st5" d="M10.6,66.5V10.9c0-2.5,2.1-4.6,4.6-4.6H67c2.5,0,4.6,2.1,4.6,4.6v55.6H10.6z"/>
				<path class="st3" d="M67,7.7c1.7,0,3.2,1.4,3.2,3.2V65H12V10.9c0-1.7,1.4-3.2,3.2-3.2H67 M67,4.9H15.2c-3.3,0-6,2.7-6,6v57H73
					v-57C73,7.6,70.3,4.9,67,4.9L67,4.9z"/>
			</g>
			<g>
				<path class="st3" d="M31.5,66.5V52.2c0-2.5,2.1-4.6,4.6-4.6h10.1c2.5,0,4.6,2.1,4.6,4.6v14.3H31.5z"/>
				<path class="st3" d="M46.1,49c1.7,0,3.2,1.4,3.2,3.2V65H32.9V52.2c0-1.7,1.4-3.2,3.2-3.2H46.1 M46.1,46.2H36c-3.3,0-6,2.7-6,6
					v15.7h22.1V52.2C52.1,48.9,49.4,46.2,46.1,46.2L46.1,46.2z"/>
			</g>
			<g>
				<rect x="18" y="13.1" class="st3" width="6.5" height="6.5"/>
				<rect x="27.9" y="13.1" class="st3" width="6.5" height="6.5"/>
				<rect x="37.8" y="13.1" class="st3" width="6.5" height="6.5"/>
				<rect x="47.7" y="13.1" class="st3" width="6.5" height="6.5"/>
				<rect x="57.7" y="13.1" class="st3" width="6.5" height="6.5"/>
			</g>
			<g>
				<path class="st3" d="M18,25.8h3.3c2.1,0,3.7,0.6,3.7,2.5c0,0.9-0.5,1.9-1.4,2.2v0.1c1.1,0.3,1.9,1,1.9,2.4c0,2-1.7,3-3.9,3H18
					V25.8z M21.2,29.9c1.3,0,1.8-0.5,1.8-1.3c0-0.9-0.6-1.2-1.8-1.2H20v2.6H21.2z M21.4,34.3c1.4,0,2.1-0.5,2.1-1.5
					c0-1-0.7-1.4-2.1-1.4H20v2.9H21.4z"/>
				<path class="st3" d="M32.9,35.8L30.8,32h-1.4v3.8h-2V25.8h3.5c2.1,0,3.8,0.7,3.8,3.1c0,1.5-0.8,2.5-1.9,2.9l2.4,4.1H32.9z
					 M29.4,30.4h1.3c1.3,0,2-0.5,2-1.6c0-1.1-0.7-1.5-2-1.5h-1.3V30.4z"/>
				<path class="st3" d="M42,33.3h-3.3l-0.7,2.6h-2l3.2-10.1h2.4l3.2,10.1h-2.1L42,33.3z M41.6,31.7l-0.3-1.1
					c-0.3-1-0.6-2.2-0.9-3.3h-0.1c-0.3,1.1-0.6,2.2-0.9,3.3l-0.3,1.1H41.6z"/>
				<path class="st3" d="M46.2,25.8h2.1l2.9,5.4l1,2.2h0.1c-0.1-1.1-0.3-2.4-0.3-3.5v-4H54v10.1h-2L49,30.4l-1-2.2h-0.1
					c0.1,1.1,0.2,2.4,0.2,3.5v4h-1.9V25.8z"/>
				<path class="st3" d="M56.4,25.8h2.8c3.1,0,5,1.6,5,5c0,3.4-1.9,5.1-4.9,5.1h-2.9V25.8z M59.1,34.2c1.9,0,3.1-1,3.1-3.5
					c0-2.5-1.2-3.4-3.1-3.4h-0.6v6.9H59.1z"/>
			</g>
		</g>
		<g>
			<g>
				<g>
					<path id="XMLID_34_" class="st2" d="M92,65.9c6.1-3.5,10.2-10,10.2-17.6c0-11.2-9.1-20.3-20.3-20.3s-20.3,9.1-20.3,20.3
						c0,7.5,4.1,14.1,10.2,17.6c-8.5,3.9-14.4,12.7-14.4,22.8v9.9h49v-9.9C106.4,78.6,100.5,69.8,92,65.9z"/>
					<path id="XMLID_27_" class="st6" d="M81.9,28.1c11.2,0,20.3,9.1,20.3,20.3c0,7.5-4.1,14.1-10.2,17.6
						c8.5,3.9,14.4,12.7,14.4,22.8v9.9h-49v-9.9c0-10.2,5.9-18.9,14.4-22.8c-6.1-3.5-10.2-10-10.2-17.6
						C61.7,37.2,70.8,28.1,81.9,28.1 M81.9,22.9c-14,0-25.4,11.4-25.4,25.4c0,6.4,2.4,12.5,6.6,17.1c-6.7,5.7-10.8,14.2-10.8,23.3
						v9.9c0,2.9,2.3,5.2,5.2,5.2h49c2.9,0,5.2-2.3,5.2-5.2v-9.9c0-9.1-4.1-17.7-10.8-23.3c4.2-4.6,6.6-10.7,6.6-17.1
						C107.4,34.3,96,22.9,81.9,22.9L81.9,22.9z"/>
					<ellipse id="XMLID_26_" class="st7" cx="73.5" cy="44.2" rx="2.3" ry="3.9"/>
					<ellipse id="XMLID_25_" class="st6" cx="89.7" cy="44.2" rx="2.3" ry="3.9"/>
					<path id="XMLID_24_" class="st6" d="M81.3,60.3c-5.7,0-8.1-4.1-8.1-7.6h3.2c0.3,2.5,1.9,4.4,4.9,4.4c3.4,0,5.5-1.8,5.5-4.4h3
						C89.9,56.2,87.3,60.3,81.3,60.3z"/>
				</g>
				<path class="st8" d="M80.4,74.3h2.8c0.7,0,3.5,26.4,2.8,26.4h-8.4C76.9,100.7,79.7,74.3,80.4,74.3z"/>
				<path class="st8" d="M82.9,73.7h-1.8c-1.1,0-2-0.9-2-2v-0.2c0-1.1,0.9-2,2-2h1.8c1.1,0,2,0.9,2,2v0.2
					C84.9,72.8,84,73.7,82.9,73.7z"/>
				<g>
					<g>
						<polygon class="st9" points="31.9,75 25.9,79.6 34.2,99.3 73.5,102.7 89.2,100 87.1,94.1 77.6,92.7 70.7,76.4 						"/>
						<path class="st6" d="M31.9,75l38.8,1.4l6.9,16.3l9.5,1.4l2.1,5.8l-15.7,2.7l-39.4-3.5l-8.3-19.6L31.9,75 M31.9,70.6
							c-1,0-1.9,0.3-2.7,0.9l-6,4.7c-1.6,1.2-2.1,3.3-1.4,5.2l8.3,19.6c0.6,1.5,2,2.5,3.7,2.7l39.4,3.5c0.1,0,0.3,0,0.4,0
							c0.3,0,0.5,0,0.7-0.1l15.7-2.7c1.3-0.2,2.4-1,3.1-2.1c0.7-1.1,0.8-2.5,0.3-3.7l-2.1-5.8c-0.6-1.5-1.9-2.6-3.5-2.8l-7-1.1
							l-6-14.1C74,73.1,72.5,72,70.8,72L32,70.6C32,70.6,31.9,70.6,31.9,70.6L31.9,70.6z"/>
					</g>
					<path class="st6" d="M73.1,99.5c-0.7,0-1.3-0.4-1.6-1.1L65,83.1l-34.2-1.2c-1,0-1.7-0.8-1.7-1.8c0-1,0.9-1.7,1.8-1.7l35.3,1.3
						c0.7,0,1.3,0.4,1.6,1.1L74.7,97c0.4,0.9,0,1.9-0.9,2.3C73.6,99.4,73.3,99.5,73.1,99.5z"/>
				</g>
			</g>
			<g>
				<path class="st3" d="M87,62.2c8.7-1,15.5-8.5,15.5-17.5c0-0.3,0-0.5-0.1-0.7h2.1c0,0.2,0.1,0.5,0.1,0.7
					c0,10.2-7.7,18.6-17.6,19.6V62.2z"/>
				<path class="st10" d="M84,68.7l5.6-2.5c1.1-0.5,1.6-1.8,1.1-2.9l-0.8-1.8c-0.5-1.1-1.8-1.6-2.9-1.1l-5.6,2.5
					c-1.1,0.5-1.6,1.8-1.1,2.9l0.8,1.8C81.6,68.7,82.9,69.2,84,68.7z"/>
				<g>
					<path class="st3" d="M105.9,60.4h-0.6c-2.6,0-4.7-2.1-4.7-4.7V42.4c0-2.6,2.1-4.7,4.7-4.7h0.6c2.6,0,4.7,2.1,4.7,4.7v13.3
						C110.5,58.3,108.4,60.4,105.9,60.4z"/>
				</g>
			</g>
		</g>
		<path id="XMLID_36_" class="st11" d="M11.4,83.5c0,0-2.8,0.2-6.6-2.8c-4.2-3.5-4.6-9.8-4.6-9.8s2,4.5,6.1,6
			c3.6,1.3,5.1,0.9,5.1,0.9v-3.6l8.1,6.6l-8.1,5.9V83.5z"/>
		<path id="XMLID_37_" class="st11" d="M85.9,11.6c0,0,2.8-0.2,6.6,2.8c4.2,3.5,4.6,9.8,4.6,9.8s-2-4.5-6.1-6
			c-3.6-1.3-5.1-0.9-5.1-0.9V21l-8.1-6.6l8.1-5.9V11.6z"/>
	</g>
</g>
<g id="レイヤー_13">
</g>
<g id="レイヤー_14">
</g>
<g id="レイヤー_9">
</g>
<g id="suitcase">
</g>
<g id="レイヤー_11">
</g>
<g id="レイヤー_12_2_">
</g>
<g id="ico_x5F_point">
</g>
<g id="treatment">
</g>
<g id="unknown">
</g>
<g id="number">
</g>
<g id="ico_x5F_user">
</g>
<g id="ico_x5F_helpdesk_1_">
</g>
<g id="がいど">
</g>
</svg>
