<?xml version="1.0" encoding="utf-8"?>
<!-- Generator: Adobe Illustrator 22.0.1, SVG Export Plug-In . SVG Version: 6.00 Build 0)  -->
<svg version="1.1" xmlns="http://www.w3.org/2000/svg" xmlns:xlink="http://www.w3.org/1999/xlink" x="0px" y="0px"
	 viewBox="0 0 112 112" style="enable-background:new 0 0 112 112;" xml:space="preserve">
<style type="text/css">
	.st0{fill:#D1D1D1;}
	.st1{fill:#4B4B4B;}
	.st2{fill:#F5F4F4;}
	.st3{fill:#4D4D4D;}
	.st4{fill:#FFFFF3;}
	.st5{fill:#FFFFFF;}
	.st6{fill:#4B4948;}
	.st7{fill:#4C4948;}
	.st8{fill:#1474B8;}
	.st9{fill:#F5F4F5;}
	.st10{fill:#606060;}
	.st11{fill:#E25450;}
	.st12{fill:#E35450;}
	.st13{fill:#FFFFFF;stroke:#4D4D4D;stroke-width:2.126;stroke-miterlimit:10;}
	.st14{display:none;fill:#1474B8;}
	.st15{fill:#FFFFFF;stroke:#B3B3B3;stroke-miterlimit:10;}
	.st16{fill:#156A9E;}
	.st17{fill:#F6F5F5;}
	.st18{fill:#F1CF49;}
	.st19{fill:#EEFCFF;}
	.st20{fill-rule:evenodd;clip-rule:evenodd;fill:#E25450;}
	.st21{fill:#575757;}
	.st22{fill:#585757;}
	.st23{fill-rule:evenodd;clip-rule:evenodd;fill:#E35450;}
	.st24{display:none;fill:#4D4D4D;stroke:#4D4D4D;stroke-width:2.2677;stroke-miterlimit:10;}
	.st25{fill:#FFFFFF;stroke:#4D4D4D;stroke-width:2.2677;stroke-miterlimit:10;}
	.st26{fill:#84AC67;}
	.st27{fill:#F7DB52;}
</style>
<g id="レイヤー_8">
</g>
<g id="レイヤー_15">
</g>
<g id="レイヤー_13">
</g>
<g id="レイヤー_14">
</g>
<g id="レイヤー_9">
</g>
<g id="suitcase">
</g>
<g id="レイヤー_11">
</g>
<g id="レイヤー_12_2_">
</g>
<g id="ico_x5F_point">
	<g>
		<g>
			<path class="st12" d="M0.1,39.5c0,15.6,12.6,28.2,28.2,28.2c6.6,0,12.6-2.3,17.4-6L57,64l-4.3-10.5c2.4-4.1,3.7-8.9,3.7-14
				c0-15.6-12.6-28.2-28.2-28.2C12.7,11.2,0.1,23.9,0.1,39.5z"/>
		</g>
		<g>
			<g>
				<path id="XMLID_4174_" class="st2" d="M93.5,65.9c6-3.4,10.1-9.9,10.1-17.3c0-11-8.9-20-20-20s-20,8.9-20,20
					c0,7.4,4.1,13.9,10.1,17.3c-8.4,3.9-14.2,12.5-14.2,22.5v9.8h48.3v-9.8C107.7,78.3,101.9,69.7,93.5,65.9z"/>
				<path id="XMLID_4171_" class="st6" d="M83.6,28.5c11,0,20,8.9,20,20c0,7.4-4.1,13.9-10.1,17.3c8.4,3.9,14.2,12.5,14.2,22.5v9.8
					H59.4v-9.8c0-10,5.9-18.7,14.2-22.5c-6-3.4-10.1-9.9-10.1-17.3C63.6,37.5,72.5,28.5,83.6,28.5 M83.6,23.4
					c-13.8,0-25.1,11.3-25.1,25.1c0,6.3,2.4,12.3,6.5,16.8c-6.7,5.6-10.7,14-10.7,23v9.8c0,2.8,2.3,5.1,5.1,5.1h48.3
					c2.8,0,5.1-2.3,5.1-5.1v-9.8c0-9-4-17.4-10.7-23c4.1-4.6,6.5-10.5,6.5-16.8C108.7,34.7,97.4,23.4,83.6,23.4L83.6,23.4z"/>
				<ellipse id="XMLID_4170_" class="st7" cx="75.2" cy="44.4" rx="2.3" ry="3.9"/>
				<ellipse id="XMLID_4169_" class="st6" cx="91.2" cy="44.4" rx="2.3" ry="3.9"/>
				<path id="XMLID_4168_" class="st6" d="M83,60.3c-5.6,0-8-4.1-8-7.5h3.2c0.3,2.5,1.9,4.3,4.8,4.3c3.3,0,5.5-1.7,5.5-4.3h3
					C91.4,56.2,88.9,60.3,83,60.3z"/>
			</g>
			<path class="st8" d="M82,74.1h2.8c0.7,0,3.4,26,2.7,26h-8.3C78.6,100.1,81.3,74.1,82,74.1z"/>
			<path class="st8" d="M84.5,73.5h-1.8c-1.1,0-2-0.9-2-2v-0.2c0-1.1,0.9-2,2-2h1.8c1.1,0,2,0.9,2,2v0.2
				C86.5,72.6,85.6,73.5,84.5,73.5z"/>
			<g>
				<g>
					<polygon class="st9" points="34.2,74.8 28.3,79.4 36.4,98.7 75.3,102.1 90.7,99.5 88.6,93.7 79.3,92.3 72.5,76.1 					"/>
					<path class="st6" d="M34.2,74.8l38.2,1.3l6.8,16.1l9.3,1.4l2.1,5.8l-15.5,2.7l-38.8-3.4l-8.2-19.3L34.2,74.8 M34.2,70.5
						c-1,0-1.9,0.3-2.7,0.9L25.6,76c-1.6,1.2-2.1,3.3-1.3,5.1l8.2,19.3c0.6,1.5,2,2.5,3.6,2.6l38.8,3.4c0.1,0,0.3,0,0.4,0
						c0.2,0,0.5,0,0.7-0.1l15.5-2.7c1.3-0.2,2.4-1,3-2.1c0.6-1.1,0.8-2.5,0.3-3.7l-2.1-5.8c-0.5-1.5-1.9-2.6-3.4-2.8l-6.9-1.1
						l-5.9-13.9c-0.7-1.6-2.2-2.6-3.8-2.6l-38.2-1.3C34.3,70.5,34.3,70.5,34.2,70.5L34.2,70.5z"/>
				</g>
				<path class="st6" d="M74.9,98.9c-0.7,0-1.3-0.4-1.6-1.1l-6.4-15.1l-33.8-1.2c-1,0-1.7-0.8-1.7-1.8c0-1,0.9-1.7,1.8-1.7l34.9,1.3
					c0.7,0,1.3,0.4,1.5,1.1l6.8,16.1c0.4,0.9,0,1.9-0.9,2.3C75.3,98.9,75.1,98.9,74.9,98.9z"/>
			</g>
		</g>
		<g>
			<path class="st3" d="M88.6,62.2c8.6-1,15.3-8.4,15.3-17.3c0-0.3,0-0.5-0.1-0.7h2.1c0,0.2,0.1,0.5,0.1,0.7
				c0,10-7.6,18.3-17.4,19.3V62.2z"/>
			<path class="st10" d="M85.7,68.6l5.5-2.5c1.1-0.5,1.6-1.8,1.1-2.9l-0.8-1.7c-0.5-1.1-1.8-1.6-2.9-1.1L83,62.8
				c-1.1,0.5-1.6,1.8-1.1,2.9l0.8,1.7C83.3,68.6,84.6,69.1,85.7,68.6z"/>
			<g>
				<path class="st3" d="M107.1,60.4h-0.4c-2.6,0-4.7-2.1-4.7-4.7v-13c0-2.6,2.1-4.7,4.7-4.7h0.4c2.6,0,4.7,2.1,4.7,4.7v13
					C111.8,58.3,109.7,60.4,107.1,60.4z"/>
			</g>
		</g>
		<g>
			<rect x="11.7" y="28.9" class="st17" width="31.9" height="21.7"/>
			<path class="st3" d="M42.2,30.4v18.8h-29V30.4H42.2 M42.2,27.5h-29c-1.6,0-2.9,1.3-2.9,2.9v18.8c0,1.6,1.3,2.9,2.9,2.9h29
				c1.6,0,2.9-1.3,2.9-2.9V30.4C45.1,28.8,43.8,27.5,42.2,27.5z"/>
			<path id="_長方形__4_" class="st18" d="M32.8,40.5h5.8c0.8,0,1.4,0.6,1.4,1.4v3.6c0,0.8-0.6,1.4-1.4,1.4h-5.8
				c-0.8,0-1.4-0.6-1.4-1.4V42C31.3,41.2,32,40.5,32.8,40.5z"/>
			<polygon class="st3" points="42.9,33.3 12.5,33.3 12.5,37.6 42.9,37.6 42.9,33.3 			"/>
		</g>
	</g>
</g>
<g id="treatment">
</g>
<g id="unknown">
</g>
<g id="number">
</g>
<g id="ico_x5F_user">
</g>
<g id="ico_x5F_helpdesk_1_">
</g>
<g id="がいど">
</g>
</svg>
