<?xml version="1.0" encoding="utf-8"?>
<!-- Generator: Adobe Illustrator 22.0.1, SVG Export Plug-In . SVG Version: 6.00 Build 0)  -->
<svg version="1.1" xmlns="http://www.w3.org/2000/svg" xmlns:xlink="http://www.w3.org/1999/xlink" x="0px" y="0px"
	 viewBox="0 0 112 112" style="enable-background:new 0 0 112 112;" xml:space="preserve">
<style type="text/css">
	.st0{fill:#D1D1D1;}
	.st1{fill:#4B4B4B;}
	.st2{fill:#F5F4F4;}
	.st3{fill:#4D4D4D;}
	.st4{fill:#FFFFF3;}
	.st5{fill:#FFFFFF;}
	.st6{fill:#4B4948;}
	.st7{fill:#4C4948;}
	.st8{fill:#1474B8;}
	.st9{fill:#F5F4F5;}
	.st10{fill:#606060;}
	.st11{fill:#E25450;}
	.st12{fill:#E35450;}
	.st13{fill:#FFFFFF;stroke:#4D4D4D;stroke-width:2.126;stroke-miterlimit:10;}
	.st14{display:none;fill:#1474B8;}
	.st15{fill:#FFFFFF;stroke:#B3B3B3;stroke-miterlimit:10;}
	.st16{fill:#156A9E;}
	.st17{fill:#F6F5F5;}
	.st18{fill:#F1CF49;}
	.st19{fill:#EEFCFF;}
	.st20{fill-rule:evenodd;clip-rule:evenodd;fill:#E25450;}
	.st21{font-family:'UDShinMGoPro-Bold-90ms-RKSJ-H';}
	.st22{font-size:37.2581px;}
	.st23{fill:#575757;}
	.st24{fill:#585757;}
	.st25{fill-rule:evenodd;clip-rule:evenodd;fill:#E35450;}
	.st26{display:none;fill:#4D4D4D;stroke:#4D4D4D;stroke-width:2.2677;stroke-miterlimit:10;}
	.st27{fill:#FFFFFF;stroke:#4D4D4D;stroke-width:2.2677;stroke-miterlimit:10;}
	.st28{fill:#84AC67;}
	.st29{fill:#F7DB52;}
</style>
<g id="レイヤー_8">
</g>
<g id="レイヤー_15">
</g>
<g id="レイヤー_13">
</g>
<g id="レイヤー_14">
</g>
<g id="レイヤー_9">
</g>
<g id="suitcase">
</g>
<g id="レイヤー_11">
</g>
<g id="レイヤー_12_2_">
</g>
<g id="ico_x5F_point">
</g>
<g id="treatment">
</g>
<g id="unknown">
	<g>
		<g>
			<g>
				<circle class="st20" cx="29.6" cy="29.5" r="29.5"/>
				<text id="XMLID_4348_" transform="matrix(1 0 0 1 18.3325 44.1579)" class="st5 st21 st22">?</text>
			</g>
		</g>
		<g>
			<path class="st5" d="M47.5,53.7H8.9c-1.6,0-3,1.3-3,3v48.2c0,1.6,1.3,3,3,3h38.6c1.6,0,3-1.3,3-3V56.6
				C50.5,55,49.2,53.7,47.5,53.7z"/>
			<g>
				<path class="st3" d="M47.5,109.9H8.9c-2.8,0-5.1-2.3-5.1-5.1V56.6c0-2.8,2.3-5.1,5.1-5.1h38.6c2.8,0,5.1,2.3,5.1,5.1v48.2
					C52.6,107.6,50.3,109.9,47.5,109.9z M8.9,55.8c-0.4,0-0.8,0.4-0.8,0.8v48.2c0,0.4,0.4,0.8,0.8,0.8h38.6c0.4,0,0.8-0.4,0.8-0.8
					V56.6c0-0.4-0.4-0.8-0.8-0.8H8.9z"/>
				<g>
					<path class="st3" d="M41.1,73.8H15.3c-1,0-1.8-0.8-1.8-1.8c0-1,0.8-1.8,1.8-1.8h25.9c1,0,1.8,0.8,1.8,1.8
						C43,73,42.2,73.8,41.1,73.8z"/>
					<path class="st3" d="M41.1,65.1H15.3c-1,0-1.8-0.8-1.8-1.8c0-1,0.8-1.8,1.8-1.8h25.9c1,0,1.8,0.8,1.8,1.8
						C43,64.2,42.2,65.1,41.1,65.1z"/>
					<path class="st3" d="M41.1,91.3H15.3c-1,0-1.8-0.8-1.8-1.8c0-1,0.8-1.8,1.8-1.8h25.9c1,0,1.8,0.8,1.8,1.8
						C43,90.5,42.2,91.3,41.1,91.3z"/>
					<path class="st3" d="M41.1,82.6H15.3c-1,0-1.8-0.8-1.8-1.8c0-1,0.8-1.8,1.8-1.8h25.9c1,0,1.8,0.8,1.8,1.8
						C43,81.8,42.2,82.6,41.1,82.6z"/>
					<path class="st3" d="M41.1,100.1H15.3c-1,0-1.8-0.8-1.8-1.8c0-1,0.8-1.8,1.8-1.8h25.9c1,0,1.8,0.8,1.8,1.8
						C43,99.3,42.2,100.1,41.1,100.1z"/>
				</g>
			</g>
		</g>
		<g>
			<path class="st23" d="M75.5,24.9c11.1,0,21.6,6.3,26.6,17c6.8,14.7,0.5,32.2-14.2,39c-4,1.9-8.2,2.8-12.4,2.8
				c-11.1,0-21.6-6.3-26.6-17c-6.8-14.7-0.5-32.2,14.2-39C67.1,25.8,71.3,24.9,75.5,24.9 M75.5,17.9c-5.3,0-10.5,1.1-15.3,3.4
				c-18.1,8.5-26,30.1-17.6,48.3c5.9,12.7,18.9,21,32.9,21c5.3,0,10.5-1.1,15.3-3.4c18.1-8.5,26-30.1,17.6-48.3
				C102.5,26.1,89.6,17.9,75.5,17.9L75.5,17.9z"/>
			<g>
				<circle class="st9" cx="75.5" cy="54.2" r="29.3"/>
			</g>
			<g>
				<path class="st9" d="M87.8,77.3c-2.6-0.6-4.6,2.4-6.9,8.1l0,0c-24.8-16.3-27.4,15.4-7.7,17.5c3.7,4.3,10.2,4.9,14.6,1.3
					c4-3.3,4.9-8.9,2.5-13.2c0.2-1.9,0.5-4.3,0.5-5C91.2,81.3,89.9,77.8,87.8,77.3z"/>
				<path class="st23" d="M87.2,77.2c0.2,0,0.4,0,0.7,0.1c2.1,0.5,3.3,4.1,3,8.6c-0.1,0.7-0.3,3.1-0.5,5c2.4,4.3,1.5,10-2.5,13.2
					c-2,1.6-4.3,2.4-6.7,2.4c-3,0-5.9-1.2-8-3.6c-15.7-1.6-17.2-22.1-4.7-22.1c3.2,0,7.3,1.3,12.4,4.6
					C83.1,80.2,84.9,77.2,87.2,77.2 M87.2,71.6c-4.1,0-6.8,2.8-8.7,6c-3.5-1.6-6.9-2.5-10-2.5c-7.8,0-13.5,5.5-13.9,13.4
					c-0.4,8.2,5,17.4,16,19.5c2.9,2.5,6.7,4,10.6,4c3.7,0,7.3-1.3,10.2-3.7c5.5-4.5,7.3-12,4.6-18.5c0.2-1.5,0.3-3,0.4-3.6
					c0.6-7.6-2.2-13.2-7.2-14.4C88.5,71.7,87.8,71.6,87.2,71.6L87.2,71.6z"/>
			</g>
			<path id="XMLID_4352_" class="st24" d="M76.8,59.8c-7.3,4-8.5,9.3-5.1,15.5l4.1-2.3c-2.3-5.2-0.6-7,3.3-9.1
				c4.3-2.4,7.5-3.2,10.2,1.7l3.9-2.1C89.8,57.3,84.6,55.5,76.8,59.8z"/>
			
				<ellipse id="XMLID_4351_" transform="matrix(0.9063 -0.4226 0.4226 0.9063 -16.9195 31.2568)" class="st24" cx="62" cy="53.8" rx="3.4" ry="5.7"/>
			
				<ellipse id="XMLID_4350_" transform="matrix(0.9063 -0.4226 0.4226 0.9063 -10.7451 39.3033)" class="st24" cx="83.3" cy="43.9" rx="3.4" ry="5.7"/>
		</g>
	</g>
</g>
<g id="number">
</g>
<g id="ico_x5F_user">
</g>
<g id="ico_x5F_helpdesk_1_">
</g>
<g id="がいど">
</g>
</svg>
