<?xml version="1.0" encoding="utf-8"?>
<!-- Generator: Adobe Illustrator 22.0.1, SVG Export Plug-In . SVG Version: 6.00 Build 0)  -->
<svg version="1.1" xmlns="http://www.w3.org/2000/svg" xmlns:xlink="http://www.w3.org/1999/xlink" x="0px" y="0px"
	 viewBox="0 0 112 112" style="enable-background:new 0 0 112 112;" xml:space="preserve">
<style type="text/css">
	.st0{fill:#1474B8;}
	.st1{fill:#FFFFFF;}
	.st2{display:none;fill:#4D4D4D;stroke:#4D4D4D;stroke-width:2.2677;stroke-miterlimit:10;}
	.st3{fill:#D1D1D1;}
	.st4{fill:#4D4D4D;}
	.st5{fill:#E25450;}
	.st6{fill:#FFFFFF;stroke:#4D4D4D;stroke-width:2.2677;stroke-miterlimit:10;}
	.st7{fill:#606060;}
	.st8{fill-rule:evenodd;clip-rule:evenodd;fill:#E35450;}
	.st9{fill:#F5F4F4;}
	.st10{fill:#585757;}
	.st11{fill:#F5F4F5;}
	.st12{fill:#4B4948;}
	.st13{fill:#84AC67;}
	.st14{fill:#F7DB52;}
</style>
<g id="コールセンター">
	<g id="ico_x5F_helpdesk">
		<g>
			<circle class="st0" cx="31.3" cy="29.4" r="29.4"/>
			<g>
				<path class="st1" d="M22.7,5.1c0,0-0.3,0.2-2.6,1.4l6.5,12l2.6-1.4c1.1-0.6,1.6-2.1,0.9-3.2L25.9,6C25.3,4.9,23.9,4.5,22.7,5.1z
					"/>
				<path class="st1" d="M20.7,35.1C26.8,46.3,37.2,55,42.2,52.2c0.3-0.1,0.5-0.3,0.7-0.4l-6.6-12.1c-0.9,0.3-2-0.1-2.6-0.9
					c0,0-2.1-2.5-5.2-8.1s-4-8.7-4-8.7c-0.4-0.9-0.1-2,0.6-2.6L18.7,7.3c-0.2,0.1-0.5,0.3-0.7,0.4C12.9,10.4,14.6,23.9,20.7,35.1z"
					/>
				<path class="st1" d="M40.4,37.6L37.8,39l6.5,12c2.3-1.3,2.6-1.4,2.6-1.4c1.1-0.6,1.6-2.1,0.9-3.2l-4.3-7.9
					C43,37.4,41.6,37,40.4,37.6z"/>
			</g>
			<path class="st2" d="M104.8,59.2c-0.2-12.7-10.6-22.9-23.3-22.9S58.4,46.5,58.2,59.2H104.8z"/>
			<g id="ぼく_1_">
				<path id="XMLID_21_" class="st1" d="M88.5,73.5c6.2-3.5,10.4-10.2,10.4-17.9c0-11.4-9.2-20.6-20.6-20.6s-20.6,9.2-20.6,20.6
					c0,7.7,4.2,14.3,10.4,17.9c-8.7,4-14.7,12.9-14.7,23.2v10.1h49.8V96.7C103.2,86.3,97.2,77.5,88.5,73.5z"/>
				<polygon class="st3" points="88.6,73.5 77.9,82.3 68.1,73.5 60.7,73.5 60.7,108.9 95.9,108.9 95.9,73.5 				"/>
				<polygon class="st1" points="88.8,75.3 79,83.3 86.5,87.6 91.8,77.4 				"/>
				<polygon class="st1" points="67.5,75 76.7,83.3 70.3,85.9 63.8,77.4 				"/>
				<polygon class="st1" points="77.6,84.5 71.9,88.2 77.1,103.3 83.6,88.1 				"/>
				<g>
					<path id="XMLID_18_" class="st4" d="M78.3,35c11.4,0,20.6,9.2,20.6,20.6c0,7.7-4.2,14.3-10.4,17.9c8.7,4,14.7,12.9,14.7,23.2
						v10.1H53.5V96.7c0-10.3,6-19.2,14.7-23.2C62,70,57.8,63.3,57.8,55.6C57.8,44.2,67,35,78.3,35 M78.3,29.8
						c-14.3,0-25.9,11.6-25.9,25.9c0,6.5,2.5,12.7,6.7,17.4c-6.9,5.8-11,14.4-11,23.7v10.1c0,2.9,2.4,5.3,5.3,5.3h49.8
						c2.9,0,5.3-2.4,5.3-5.3V96.7c0-9.3-4.2-18-11-23.7c4.3-4.7,6.7-10.9,6.7-17.4C104.2,41.3,92.6,29.8,78.3,29.8L78.3,29.8z"/>
					<ellipse id="XMLID_17_" class="st4" cx="69.8" cy="51.3" rx="2.4" ry="4"/>
					<ellipse id="XMLID_16_" class="st4" cx="86.2" cy="51.3" rx="2.4" ry="4"/>
					<path id="XMLID_15_" class="st4" d="M77.7,67.7c-5.8,0-8.2-4.2-8.2-7.7h3.3c0.3,2.6,1.9,4.4,5,4.4c3.4,0,5.6-1.8,5.6-4.4h3.1
						C86.4,63.5,83.8,67.7,77.7,67.7z"/>
				</g>
			</g>
			<path id="XMLID_1855_" class="st5" d="M34.9,80.8c0,0-3.5,0.3-8.1-3.5c-5.2-4.3-5.7-12.1-5.7-12.1s2.5,5.6,7.5,7.4
				c4.4,1.6,6.3,1.1,6.3,1.1v-4.4l10,8.1l-10,7.3V80.8z"/>
			<path class="st4" d="M71.8,80.6c-11.8-1.4-21-11.5-21-23.8c0-0.4,0-0.7,0.1-1H48c0,0.3-0.1,0.7-0.1,1c0,13.8,10.5,25.2,23.9,26.6
				V80.6z"/>
			<path class="st6" d="M53.4,68.8l-2,0.3c-2.2,0.3-4.3-1.2-4.6-3.5l-2.2-15.4C44.2,48,45.8,46,48,45.6l2-0.3
				c2.2-0.3,4.3,1.2,4.6,3.5l2.2,15.4C57.2,66.4,55.7,68.5,53.4,68.8z"/>
			<path class="st6" d="M101.1,69.8l2,0.3c2.2,0.3,4.3-1.2,4.6-3.5l2.2-15.4c0.3-2.2-1.2-4.3-3.5-4.6l-2-0.3
				c-2.2-0.3-4.3,1.2-4.6,3.5l-2.2,15.4C97.4,67.4,98.9,69.4,101.1,69.8z"/>
			<path class="st7" d="M74.4,89.4L66.8,86c-1.5-0.7-2.2-2.5-1.5-4l1.1-2.4c0.7-1.5,2.5-2.2,4-1.5l7.6,3.4c1.5,0.7,2.2,2.5,1.5,4
				l-1.1,2.4C77.7,89.4,75.9,90.1,74.4,89.4z"/>
		</g>
	</g>
</g>
<g id="confirm">
</g>
<g id="がいど">
</g>
</svg>
