<?xml version="1.0" encoding="utf-8"?>
<!-- Generator: Adobe Illustrator 22.0.1, SVG Export Plug-In . SVG Version: 6.00 Build 0)  -->
<svg version="1.1" xmlns="http://www.w3.org/2000/svg" xmlns:xlink="http://www.w3.org/1999/xlink" x="0px" y="0px"
	 viewBox="0 0 112 112" style="enable-background:new 0 0 112 112;" xml:space="preserve">
<style type="text/css">
	.st0{fill:#D1D1D1;}
	.st1{fill:#4B4B4B;}
	.st2{fill:#F5F4F4;}
	.st3{fill:#4D4D4D;}
	.st4{fill:#FFFFF3;}
	.st5{fill:#E35450;}
	.st6{fill:#FFFFFF;}
	.st7{fill:#FFFFFF;stroke:#4D4D4D;stroke-width:2.126;stroke-miterlimit:10;}
	.st8{display:none;fill:#1474B8;}
	.st9{fill:#FFFFFF;stroke:#B3B3B3;stroke-miterlimit:10;}
	.st10{fill:#1474B8;}
	.st11{fill:#156A9E;}
	.st12{fill:#F6F5F5;}
	.st13{fill:#F1CF49;}
	.st14{fill:#EEFCFF;}
	.st15{fill-rule:evenodd;clip-rule:evenodd;fill:#E25450;}
	.st16{fill:#575757;}
	.st17{fill:#F5F4F5;}
	.st18{fill:#585757;}
	.st19{fill-rule:evenodd;clip-rule:evenodd;fill:#E35450;}
	.st20{fill:#4B4948;}
	.st21{display:none;fill:#4D4D4D;stroke:#4D4D4D;stroke-width:2.2677;stroke-miterlimit:10;}
	.st22{fill:#E25450;}
	.st23{fill:#FFFFFF;stroke:#4D4D4D;stroke-width:2.2677;stroke-miterlimit:10;}
	.st24{fill:#606060;}
	.st25{fill:#84AC67;}
	.st26{fill:#F7DB52;}
	.st27{fill:#15B785;}
	.st28{fill:#1574B8;}
	.st29{display:none;fill:#FFFFF3;}
	.st30{display:none;}
	.st31{display:inline;fill:#4D4D4D;}
	.st32{display:inline;fill:#F1CF49;}
	.st33{display:inline;fill:#E25450;}
</style>
<g id="レイヤー_8">
</g>
<g id="レイヤー_13">
</g>
<g id="レイヤー_14">
</g>
<g id="レイヤー_9">
</g>
<g id="suitcase">
</g>
<g id="レイヤー_11">
</g>
<g id="レイヤー_12_2_">
</g>
<g id="ico_x5F_point">
</g>
<g id="treatment">
</g>
<g id="unknown">
</g>
<g id="number">
</g>
<g id="ico_x5F_user">
</g>
<g id="ico_x5F_helpdesk_1_">
</g>
<g id="がいど">
</g>
<g id="Wifi">
	<g id="レイヤー_10">
		<g>
			<circle class="st29" cx="56" cy="32.9" r="32.9"/>
			<path id="やし" class="st10" d="M100.7,26.3c-0.7-5.2-4.4-8.1-9.3-8c-4.6,0-7.7,5.2-9.3,8.4c1.1-4.4,1.2-10.6-3.6-14.2
				c-7.2-5.7-13.7,1.4-14.4,2.2c-0.7,0.8-0.8,1.2,0.7,1.3c0.4,0.1,4.2-0.4,7.8,0.9l1.9-1.4l0.4,2.3c2.8,1.6,4.8,4.6,4.7,8.7
				c-1.9-3.3-5.3-6-9.5-6.7c-7.4-1.2-14.2,3.6-15.4,10.8c-0.1,0.6,0,0.2,0,0.2c0,0.2,0.1,0.6,0.3,0.6s0.6,0.1,0.8-0.1
				c0,0,0.2-0.2,0.9-0.8c1.3-0.9,2.7-1.6,4.3-2.1l1.7-2.2l1.5,1.2c2.8-0.7,5.6-0.8,8.6-0.3c1.8,0.3,3.9,0.8,5.4,1.6
				c-4-0.8-10.7,0.2-13.9,5.1c-4,6-1.9,11.7-1.6,12.1c0.3,0.4,0.7,0.1,1-0.4c0.4-1.3,1.5-3.5,3.2-5.9l-0.2-2.1l1.4,0.6
				c2.4-2.8,5.5-5.8,9.5-7.4c-4,5.8-7.7,14.7-6.2,27.5l8.9,1.4c0,0-7.5-10.1,0-27.1c0.7,1.4,1.7,3.5,2.4,6.1L84,39l-0.8,1.6
				c0.4,2.2,0.6,4.5,0.2,6.9c-0.1,0.6,0.2,1.2,0.4,0.8c3.9-5.6,4-12.1,0.6-16.4c2.4,1.3,4.1,3.7,5.4,6.2l1.8,0.7L91,40.9
				c0.9,2.8,1.4,5.5,1.3,7c0.1,0.6,0.2,1,0.7,0.5c2.8-3.5,4.2-10.9,1-15.8c-2.6-3.7-8-4.7-11.4-4.5c2.8-3.3,8.6-2.6,8.6-2.6
				s1.3-2.1,1.5-2.2c0.2-0.3,1,2.2,1,2.2l5.5,3.4c0,0,0.6,0.7,1-0.2C100.8,28.3,100.9,27.5,100.7,26.3z"/>
			<g class="st30">
				<path class="st31" d="M19.7,32.9c1.1-2.1,2.6-2.9,3.6-3.2c0.8-1.7,2.7-2.8,5.4-3c0.3-2.9,2.8-4.9,6.7-5.4
					c0.6-0.9,1.9-2.6,5.3-2.6c2.6,0,4.1,1.2,5.2,2c0.9,0.7,1.3,1,2.1,1.1c0.2,0,0.4,0.1,0.6,0.1c0.1-0.3,0.3-0.6,0.6-0.8
					c-0.2-0.5-0.4-1.1-0.3-1.7c0.1-1.8,1.6-3.2,3.3-3.2h0.2h0.1c0.6-1.4,2-2.4,3.6-2.4c0.1,0,0.2,0,0.3,0c2.1,0.2,3.8,2,3.6,4.2
					c0,0.4-0.1,0.8-0.3,1.2c0.9,0.7,1.5,1.8,1.5,3c-0.1,1.4-1,2.6-2.3,3c0,0.1,0,0.2,0,0.3c0,0.6-0.3,1.2-0.6,1.7
					c1.9,0.8,2.8,2,3.3,2.9c1.5,0.3,4.3,1,5.2,4.1c0.4,1.5,0.2,2.5,0,3.3c-0.1,0.4-0.1,0.5,0,1c0.7,1.5,0.9,4.3,0.1,6.5
					c-0.6,1.7-1.7,2.9-3.1,3.6c1.4,3.5,0.5,5.6-0.3,6.7c-0.1,0.3-0.1,0.8-0.2,1.1c-0.1,1-0.3,2.2-0.7,3.4c-1.3,3.7-4.2,4.2-5.8,4.2
					l0,0c-0.4,0-0.9,0-1.3,0c-0.4,0-0.7,0-1.1,0c-0.8,0-1.2,0.1-1.7,0.4c-0.9,0.6-1.9,0.9-3,0.9l0,0c-2.5,0-5-1.6-6.7-4.1
					c-0.2,0.2-0.4,0.4-0.6,0.6C40.8,64,38.8,65,37,65c-1.6,0-3-0.7-4.1-2c-0.1-0.1-0.1-0.1-0.1-0.2h-0.7c-0.4,0-1.1,0-1.9-0.2
					c-2.7-0.7-5.9-3.6-6.2-6.5c0-0.6-0.1-1.1-0.1-1.6c-0.1-0.8-0.1-1.8-0.2-2c-0.8-1.6-0.9-3.7,0.3-5.7c-3-2-4.6-5.1-4.5-8.8
					c0-0.1-0.1-0.2-0.1-0.4C18.9,36.5,18.6,35.1,19.7,32.9z"/>
				<path class="st32" d="M57.8,18c0.1-1-0.6-1.8-1.6-1.9c-0.9-0.1-1.7,0.7-1.8,1.7c0,0.6,0.2,1.1,0.6,1.5
					c-5.2,13.6-11.4,20.3-11.4,20.3c-0.9,1.2,1.3,2.3,1.7,1.7c7.5-12.1,9.8-19.4,10.7-21.6C57,19.7,57.7,19,57.8,18z"/>
				<path class="st32" d="M51.6,22.4c-0.5,0-1,0.4-1,0.9s0.4,1,0.9,1.1c0.5,0,1-0.4,1-0.9C52.5,22.9,52.1,22.4,51.6,22.4z"/>
				<path class="st32" d="M55.8,24.5c-0.5,0-1,0.4-1,0.9c0,0.6,0.4,1,0.9,1.1c0.5,0,1-0.4,1-0.9C56.8,25,56.4,24.6,55.8,24.5z"/>
				<path class="st32" d="M53.3,19.8c0-0.7-0.4-1.2-1-1.3c-0.6,0-1.2,0.5-1.2,1.1c0,0.7,0.4,1.2,1,1.3
					C52.8,20.9,53.3,20.5,53.3,19.8z"/>
				<path class="st32" d="M59,22.3c0-0.7-0.4-1.2-1-1.3c-0.6,0-1.2,0.5-1.2,1.1c0,0.7,0.4,1.2,1,1.3C58.4,23.4,58.9,22.9,59,22.3z"
					/>
				<path class="st33" d="M21.7,38.2c-0.1,3.3,1.5,5.8,4.3,7.3c0.1-0.1,0.2-0.1,0.2-0.2c3.2-2,11.5-3.2,14.9-3.2
					c0.3,0,0.9-0.1,0.8-0.5c-0.1-0.7-0.6-0.9-1.4-1.5c-0.7-0.5-2-1-3.7-1.5s-3.6-0.9-5.1-1.1c-0.8-0.1-1.5-0.1-2.1-0.1
					s-1,0.1-1.2,0.1c-0.5,0.1-0.8,0-1-0.1S27,37.2,27,37s0-0.4,0.2-0.5c0.2-0.2,0.5-0.4,1.1-0.4c0.3,0,0.7-0.1,1.4-0.1
					c0.6,0,1.4,0,2.3,0.1c1.7,0.2,3.7,0.6,5.4,1.2c1.7,0.5,3,1,3.8,1.1c0.7,0.1,1.2,0.4,1.5,0.2c0.1-0.1,0.2-0.4-0.1-0.7
					c-0.5-0.8-1.2-1.7-1.9-2.6c-2.6-3-6.6-6.5-11-6.5c-1.6,0-4.3,0.4-4.5,2.4c-0.2,0.5-2.1,0.1-3.4,2.7
					C20.4,36.2,21.8,36.8,21.7,38.2z"/>
				<path class="st33" d="M44.1,59c0.2,0.4,0.4,0.8,0.6,1.2c1.8,2.9,4.9,4.1,6.8,2.8c1.7-1.1,3.3-0.7,5.3-0.7c2.2,0,3.2-1.2,3.7-2.8
					c0.7-2,0.6-4.5,1.1-5.1c1-1.1,1.2-3.1-0.8-6.4c-3.1-5.4-10.6-6.2-13.3-6.1c-0.8,0-0.2,0.5,0.2,0.9c0.7,0.5,1.7,1.4,3,2.8
					c0.6,0.7,1.2,1.4,1.7,2.3c0.5,0.8,0.9,1.6,1.3,2.4c0.7,1.6,1,2.9,1.1,3.4c0.2,1-0.2,1.5-0.5,1.5s-0.8-0.3-1-1.2
					c-0.1-0.5-0.4-1.7-1-3.1c-0.3-0.7-0.7-1.5-1.2-2.2s-1-1.4-1.6-2s-1.1-1.1-1.6-1.4c-0.5-0.3-1.7-1.2-2-1.4
					c-0.8-0.5-0.9,0.1-0.4,0.7c0.4,0.7,0.8,1.5,0.9,2.5C47.3,50.5,46.2,55.2,44.1,59z"/>
				<path class="st33" d="M61.4,45.8c0.1,0,0.9,1.4,0.9,1.4c3.5-1.2,3.1-6.5,2.4-7.6c-0.8-2.3,0.5-2.3-0.1-4.6
					c-0.8-2.8-4.4-2.4-4.6-2.9c-0.3-0.6-0.7-1.9-2.6-2.7c-1.1-0.5-2.3-0.3-3.6,0.3c-1.4,2.7-3.2,5.9-5.7,9.6
					c0.7-0.2,1.6-0.6,2.7-1.2c1.4-0.7,3.1-1.4,4.5-1.9s2.6-0.8,3-0.9c0.9-0.2,1.3,0.1,1.3,0.4c0,0.3-0.3,0.6-1.1,0.8
					c-0.4,0.1-1.5,0.3-2.9,0.8s-3.5,1.4-4.9,1.9c-1.2,0.5-4.2,1.4-1.7,1.3C51.8,40.8,57.8,41.6,61.4,45.8z"/>
				<path class="st33" d="M48.8,28.2c1.1-2.2,0.4-4-1-4.1c-3.2-0.3-3.7-3.1-7.2-3.1c-3.6,0-3.3,2.4-4.4,2.5
					c-2.6,0.2-5.4,1.3-5.4,3.9c3-0.2,8,3.9,9.7,6.1c0.2,0.2,0.3,0.4,0.5,0.6c0.5,0.6,1.1,1.2,1.7,1.8c0.5,0.8,0.3-0.5,0.2-1.9
					c-0.1-1.3-0.6-3.9-1-5c-0.4-1.3-1-2.5-1.1-3c-0.2-0.7,0.1-1.1,0.3-1.1c0.3-0.1,0.6,0.1,0.9,0.8c0.2,0.5,0.7,1.8,1.1,3.1
					c0.3,1.2,1,4.6,1.1,5.9c0.1,1.4,0,2,0.4,1.1C46,33.5,46.6,32.5,48.8,28.2z"/>
				<path class="st33" d="M25.7,51.5c0.4,0.8,0.4,2.2,0.5,4.4c0.1,1.7,2.5,4,4.5,4.5c1.9,0.5,2.5-0.5,3.8,1.1
					c1.5,1.8,3.9,1.5,6.3-0.9c4-4.2,5.6-11.3,3.9-15.6c-0.7-2.5-2,0.4-4.1,2.5c-2.4,2.4-5.2,5.4-5.8,6.1c-0.6,0.7-1.2,0.6-1.5,0.3
					S33,53,33.6,52.3c0.7-0.7,3.5-3.7,5.9-6.1c1.6-1.6,2.4-2.4,2.6-3c0.3-0.8-11.3,0.6-14.2,2.5C24.9,47.9,25,50.2,25.7,51.5z"/>
			</g>
			<g>
				<path class="st6" d="M11.5,23.2c1.4-2.6,3.2-3.5,4.4-4c1-2.1,3.4-3.4,6.6-3.7c0.4-3.5,3.5-6,8.3-6.6c0.8-1.1,2.4-3.1,6.5-3.1
					c3.2,0,5,1.5,6.4,2.5c1,0.8,1.6,1.2,2.6,1.3c0.3,0,0.5,0.1,0.7,0.2c0.2-0.4,0.4-0.7,0.7-1c-0.3-0.6-0.5-1.3-0.4-2.1
					c0.1-2.2,1.9-3.9,4.1-3.9h0.3h0.1c0.7-1.7,2.4-3,4.4-3c0.1,0,0.2,0,0.3,0C59,0.2,61,2.5,60.9,5.2c0,0.5-0.2,1-0.3,1.5
					c1.2,0.8,1.9,2.2,1.8,3.7c-0.1,1.7-1.3,3.1-2.8,3.6c0,0.1,0,0.3,0,0.4c0,0.8-0.3,1.5-0.7,2.1c2.3,1,3.5,2.5,4.1,3.6
					c1.8,0.4,5.3,1.3,6.3,5.1c0.5,1.9,0.3,3,0,4.1c-0.1,0.5-0.2,0.6,0,1.2c0.8,1.8,1.1,5.2,0.1,8c-0.7,2-2,3.6-3.8,4.4
					c1.7,4.2,0.7,6.8-0.4,8.2C65.1,51.4,65,52,65,52.5c-0.2,1.2-0.4,2.8-0.9,4.2c-1.6,4.5-5.1,5.2-7.2,5.2l0,0c-0.5,0-1.1,0-1.6-0.1
					c-0.4,0-0.9,0-1.3,0c-1,0-1.5,0.1-2.1,0.5c-1.1,0.7-2.3,1.1-3.7,1.1l0,0c-3.1,0-6.2-1.9-8.2-5c-0.2,0.3-0.4,0.5-0.7,0.8
					c-2.1,2.2-4.5,3.4-6.8,3.4c-1.9,0-3.7-0.9-5-2.4c-0.1-0.1-0.1-0.2-0.2-0.2h-0.9c-0.5,0-1.3,0-2.3-0.3c-3.3-0.9-7.3-4.5-7.5-7.9
					c-0.1-0.7-0.1-1.4-0.1-2c-0.1-1-0.1-2.2-0.2-2.5c-1-1.9-1.2-4.5,0.3-7c-3.7-2.5-5.7-6.3-5.5-10.7c0-0.1-0.1-0.3-0.1-0.4
					C10.5,27.7,10.1,25.9,11.5,23.2z"/>
				<path class="st13" d="M58.2,5c0.1-1.2-0.8-2.3-1.9-2.3c-1.1-0.1-2.1,0.8-2.2,2c0,0.7,0.3,1.4,0.8,1.8C48.5,23.1,41,31.3,41,31.3
					c-1.1,1.5,1.6,2.9,2,2.1C52.1,18.8,54.9,9.7,56,7.1C57.1,7.1,58.1,6.2,58.2,5z"/>
				<path class="st13" d="M50.5,10.4c-0.6,0-1.2,0.5-1.2,1.1c0,0.7,0.4,1.3,1.1,1.3c0.6,0,1.2-0.5,1.2-1.1
					C51.6,11,51.2,10.4,50.5,10.4z"/>
				<path class="st13" d="M55.8,13c-0.6,0-1.2,0.5-1.2,1.1c0,0.7,0.4,1.3,1.1,1.3c0.6,0,1.2-0.5,1.2-1.1C56.9,13.6,56.4,13,55.8,13z
					"/>
				<path class="st13" d="M52.7,7.2c0.1-0.8-0.5-1.5-1.3-1.5C50.7,5.6,50,6.2,50,7c-0.1,0.8,0.5,1.5,1.3,1.5C52,8.6,52.7,8,52.7,7.2
					z"/>
				<path class="st13" d="M59.6,10.2c0.1-0.8-0.5-1.5-1.3-1.6s-1.4,0.6-1.5,1.4c-0.1,0.8,0.5,1.5,1.3,1.6
					C58.9,11.6,59.6,11,59.6,10.2z"/>
				<path class="st5" d="M13.9,29.7c-0.1,4,1.9,7.1,5.3,8.9c0.1-0.1,0.2-0.1,0.3-0.2c3.9-2.5,14.1-3.9,18.3-3.9c0.4,0,1.1-0.2,1-0.6
					c-0.2-0.8-0.7-1.1-1.7-1.8c-0.8-0.6-2.4-1.2-4.5-1.8c-2.1-0.6-4.4-1.2-6.3-1.4c-1-0.1-1.8-0.1-2.5-0.1s-1.2,0.1-1.5,0.1
					c-0.6,0.1-1,0-1.3-0.1s-0.5-0.3-0.5-0.5c-0.1-0.2,0-0.4,0.2-0.7c0.2-0.2,0.7-0.5,1.3-0.5c0.3,0,0.9-0.1,1.7-0.1
					c0.8,0,1.7,0,2.8,0.1c2.1,0.2,4.5,0.8,6.6,1.4c2.1,0.7,3.6,1.2,4.7,1.4c0.9,0.2,1.5,0.4,1.8,0.3c0.1-0.1,0.2-0.5-0.1-0.9
					c-0.6-1-1.4-2.1-2.4-3.2c-3.2-3.7-8.1-7.9-13.5-7.9c-1.9,0-5.3,0.5-5.5,3c-0.2,0.6-2.5,0.1-4.2,3.3
					C12.4,27.3,14.1,28.1,13.9,29.7z"/>
				<path class="st5" d="M41.4,55.2c0.2,0.5,0.5,1,0.8,1.4c2.2,3.6,5.9,5,8.3,3.4c2-1.4,4-0.9,6.5-0.9c2.7,0,3.9-1.5,4.6-3.4
					c0.9-2.5,0.7-5.5,1.4-6.2c1.2-1.3,1.4-3.8-1-7.9C58.1,35,49,34,45.7,34.1c-1,0-0.2,0.6,0.3,1.1c0.8,0.7,2.1,1.8,3.6,3.4
					c0.8,0.8,1.5,1.8,2.1,2.8s1.2,2,1.6,3c0.8,1.9,1.2,3.6,1.3,4.2c0.3,1.2-0.2,1.8-0.6,1.8c-0.4,0.1-1-0.3-1.2-1.4
					c-0.1-0.6-0.5-2.1-1.2-3.8c-0.4-0.9-0.8-1.8-1.4-2.7c-0.6-0.9-1.2-1.7-1.9-2.5s-1.4-1.3-2-1.7s-2.1-1.5-2.5-1.8
					c-1-0.6-1.1,0.1-0.5,0.9c0.5,0.9,0.9,1.9,1.2,3.1C45.3,44.8,44,50.6,41.4,55.2z"/>
				<path class="st5" d="M62.7,39c0.1,0,1.1,1.8,1.1,1.7c4.3-1.5,3.8-7.9,3-9.3c-0.9-2.8,0.6-2.8-0.2-5.6c-0.9-3.4-5.4-3-5.7-3.6
					c-0.3-0.7-0.9-2.4-3.2-3.3c-1.4-0.6-2.9-0.3-4.4,0.4c-1.7,3.3-4,7.3-6.9,11.8c0.8-0.3,1.9-0.8,3.3-1.5c1.8-0.9,3.8-1.8,5.5-2.4
					s3.2-1,3.7-1.1c1.1-0.2,1.6,0.2,1.6,0.5s-0.3,0.8-1.3,1c-0.5,0.1-1.9,0.4-3.5,1c-1.7,0.6-4.2,1.7-6,2.3c-1.5,0.6-5.1,1.7-2,1.6
					C50.8,32.9,58.1,34,62.7,39z"/>
				<path class="st5" d="M47.2,17.4c1.4-2.6,0.5-4.9-1.2-5.1c-3.9-0.3-4.5-3.8-8.8-3.8c-4.4,0-4.1,2.9-5.4,3
					c-3.2,0.3-6.7,1.6-6.7,4.8C28.8,16,34.9,21,37,23.7c0.2,0.3,0.4,0.5,0.6,0.8c0.6,0.8,1.4,1.5,2,2.2c0.6,1,0.4-0.6,0.3-2.3
					c-0.1-1.6-0.8-4.7-1.2-6.2c-0.5-1.6-1.2-3.1-1.4-3.6c-0.3-0.8,0.1-1.3,0.4-1.4c0.3-0.1,0.7,0.1,1,1c0.2,0.6,0.9,2.2,1.4,3.8
					c0.4,1.5,1.2,5.6,1.3,7.2c0.1,1.7,0,2.5,0.5,1.3C43.8,24,44.5,22.8,47.2,17.4z"/>
				<path class="st5" d="M18.8,46.1c0.5,0.9,0.4,2.7,0.7,5.4c0.2,2.1,3,4.9,5.6,5.6c2.3,0.6,3.1-0.6,4.7,1.4
					c1.8,2.2,4.8,1.9,7.7-1.2c4.9-5.1,6.9-13.8,4.8-19.1c-0.9-3-2.5,0.5-5,3c-2.9,3-6.4,6.7-7.2,7.5c-0.8,0.9-1.5,0.7-1.8,0.4
					s-0.4-1.1,0.4-2s4.3-4.5,7.2-7.5c1.9-2,3-3,3.2-3.7c0.4-1-13.8,0.8-17.4,3.1C17.9,41.6,18,44.4,18.8,46.1z"/>
			</g>
			<g>
				<g>
					<path class="st0" d="M107.6,70.3h-2.5c-2.1,0-3.7,1.7-3.7,3.7v17.2H52.3V74c0-2.1-1.7-3.7-3.7-3.7h-2.4c-2.1,0-3.8,1.7-3.8,3.8
						V98c0,2.1,1.7,3.8,3.8,3.8h6.2h49.1h6.2c2.1,0,3.8-1.7,3.8-3.8V74.1C111.4,72,109.7,70.3,107.6,70.3z"/>
					<polygon class="st1" points="49.8,110.7 53.8,110.7 54.3,103.5 49.3,103.5 					"/>
					<polygon class="st1" points="100,110.7 104,110.7 104.5,103.5 99.5,103.5 					"/>
					<path class="st0" d="M54.4,72.6v16.5h44.9V72.6c0-2.4,2-4.4,4.4-4.4h0.1v-3.9c0-4.3-3.6-7.9-7.9-7.9H57.7
						c-4.3,0-7.9,3.6-7.9,7.9v3.9h0.1C52.4,68.2,54.4,70.2,54.4,72.6z"/>
				</g>
			</g>
			<g id="ico_x5F_lounge_2_">
				<g>
					<path id="XMLID_28_" class="st2" d="M36.5,77.7c5.5-3.1,9.2-9.1,9.2-15.9c0-10.2-8.2-18.3-18.3-18.3S9,51.6,9,61.8
						c0,6.8,3.8,12.8,9.2,15.9c-7.6,3.6-13,11.5-13,20.7v9h44.4v-9C49.5,89.2,44.1,81.2,36.5,77.7z"/>
					<g>
						<path id="XMLID_27_" class="st3" d="M27.4,43.4c10.2,0,18.3,8.2,18.3,18.3c0,6.8-3.8,12.8-9.2,15.9
							c7.7,3.5,13.1,11.5,13.1,20.6v9H5.2v-9c0-9.2,5.4-17.1,13.1-20.7c-5.6-3-9.3-9-9.3-15.8C9,51.6,17.2,43.4,27.4,43.4
							 M27.4,38.7c-12.7,0-23,10.4-23,23.1c0,5.8,2.2,11.3,6,15.5c-6.1,5-9.8,12.8-9.8,21.1v9c0,2.6,2.1,4.7,4.7,4.7h44.4
							c2.6,0,4.7-2.1,4.7-4.7v-9c0-8.3-3.7-16-9.8-21.1c3.8-4.2,6-9.7,6-15.5C50.4,49.1,40.1,38.7,27.4,38.7L27.4,38.7z"/>
						<ellipse id="XMLID_26_" class="st3" cx="19.7" cy="57.9" rx="2.1" ry="3.6"/>
						<ellipse id="XMLID_25_" class="st3" cx="34.3" cy="57.9" rx="2.1" ry="3.6"/>
						<path id="XMLID_24_" class="st3" d="M26.8,72.6c-5.1,0-7.3-3.8-7.3-6.9h2.9c0.3,2.3,1.7,3.9,4.5,3.9c3.1,0,5-1.6,5-3.9h2.8
							C34.5,68.8,32.3,72.6,26.8,72.6z"/>
					</g>
				</g>
			</g>
			<g>
				<path class="st4" d="M40.1,105.5h-4.5v3c0,1.9,1.5,3.5,3.5,3.5h21.6c1.9,0,3.5-1.5,3.5-3.5v-3h-4.9c0.1-0.1,0.2-0.1,0.2-0.2l0,0
					l0,0c1.7-1.4,3-3.1,3.8-5.2c0.3,0.1,0.7,0.1,1,0.1c0.2,0,0.3,0,0.5,0c2.4-0.2,4.5-1.1,6.1-2.6s2.5-3.7,2.5-6.1
					c0-4.8-3.9-8.7-8.7-8.7c-0.4,0-6.8,0-13.2,0s-12.6,0-12.6,0c-1.8,0-3.3,1.5-3.3,3.3v9c0,3.4,0.8,6.1,2.4,8.1
					C38.6,104.2,39.2,104.9,40.1,105.5z"/>
				<g>
					<path class="st1" d="M40.1,105.5h-4.5v3c0,1.9,1.5,3.5,3.5,3.5h21.6c1.9,0,3.5-1.5,3.5-3.5v-3h-4.9c0.1-0.1,0.2-0.1,0.2-0.2
						l0,0l0,0c1.7-1.4,3-3.1,3.8-5.2c0.3,0.1,0.7,0.1,1,0.1c0.2,0,0.3,0,0.5,0c2.4-0.2,4.5-1.1,6.1-2.6s2.5-3.7,2.5-6.1
						c0-4.8-3.9-8.7-8.7-8.7c-0.4,0-6.8,0-13.2,0s-12.6,0-12.6,0c-1.8,0-3.3,1.5-3.3,3.3v9c0,3.4,0.8,6.1,2.4,8.1
						C38.6,104.2,39.2,104.9,40.1,105.5z M44.2,107.6H55h7v0.8c0,0.8-0.6,1.4-1.4,1.4H39c-0.8,0-1.4-0.6-1.4-1.4v-0.8H44.2z
						 M39.7,102.1c-1.2-1.7-2-3.8-2-6.9v-9c0-0.6,0.5-1.1,1.1-1.1c0,0,25.1,0,25.8,0c1.8,0,3.4,0.7,4.6,1.9c1.1,1.1,1.9,2.8,1.9,4.6
						c0,1.8-0.7,3.4-1.9,4.5c-1.1,1.1-2.8,1.9-4.7,2c-0.2,0-0.2,0-0.4,0c-0.5,0-1-0.1-1.4-0.2l-1-0.3l-0.3,1c-0.6,2-1.8,3.8-3.4,5.1
						l0,0l0,0c-0.2,0.2-0.5,0.5-1.1,0.8c-0.5,0.3-1.3,0.7-2.1,1H44.5C42.5,104.8,40.9,103.7,39.7,102.1z"/>
					<path class="st1" d="M62.3,88.1l-0.5,0.2v6.4l0.5,0.2c0.5,0.3,1.2,0.5,1.9,0.5c2.2,0,4-1.8,4-4s-1.8-4-4-4
						C63.5,87.6,62.8,87.8,62.3,88.1z M63.7,89.5c0.2-0.1,0.4-0.1,0.6-0.1c1.2,0,2.1,1,2.1,2.1c0,1.2-1,2.1-2.1,2.1
						c-0.2,0-0.4,0-0.6-0.1C63.7,93.5,63.7,89.5,63.7,89.5z"/>
				</g>
			</g>
		</g>
	</g>
</g>
</svg>
