<?xml version="1.0" encoding="utf-8"?>
<!-- Generator: Adobe Illustrator 22.0.1, SVG Export Plug-In . SVG Version: 6.00 Build 0)  -->
<svg version="1.1" xmlns="http://www.w3.org/2000/svg" xmlns:xlink="http://www.w3.org/1999/xlink" x="0px" y="0px"
	 viewBox="0 0 112 112" style="enable-background:new 0 0 112 112;" xml:space="preserve">
<style type="text/css">
	.st0{fill:#D1D1D1;}
	.st1{fill:#4B4B4B;}
	.st2{fill:#F5F4F4;}
	.st3{fill:#4D4D4D;}
	.st4{fill:#FFFFF3;}
	.st5{fill:#FFFFFF;}
	.st6{fill:#4B4948;}
	.st7{fill:#4C4948;}
	.st8{fill:#1474B8;}
	.st9{fill:#F5F4F5;}
	.st10{fill:#606060;}
	.st11{fill:#E25450;}
	.st12{fill:#E35450;}
	.st13{fill:#FFFFFF;stroke:#4D4D4D;stroke-width:2.126;stroke-miterlimit:10;}
	.st14{display:none;fill:#1474B8;}
	.st15{fill:#FFFFFF;stroke:#B3B3B3;stroke-miterlimit:10;}
	.st16{fill:#156A9E;}
	.st17{fill:#F6F5F5;}
	.st18{fill:#F1CF49;}
	.st19{fill:#EEFCFF;}
	.st20{fill-rule:evenodd;clip-rule:evenodd;fill:#E25450;}
	.st21{fill:#575757;}
	.st22{fill:#585757;}
	.st23{fill-rule:evenodd;clip-rule:evenodd;fill:#E35450;}
	.st24{display:none;fill:#4D4D4D;stroke:#4D4D4D;stroke-width:2.2677;stroke-miterlimit:10;}
	.st25{fill:#FFFFFF;stroke:#4D4D4D;stroke-width:2.2677;stroke-miterlimit:10;}
	.st26{fill:#84AC67;}
	.st27{fill:#F7DB52;}
</style>
<g id="レイヤー_8">
</g>
<g id="レイヤー_15">
</g>
<g id="レイヤー_13">
	<g>
		<g>
			<g>
				<g>
					<path class="st12" d="M80.2,11.2c-17.1,0-31,13.9-31,31c0,7.2,2.5,13.9,6.6,19.2l-2.6,12.5l11.6-4.7c4.5,2.6,9.8,4.1,15.4,4.1
						c17.1,0,31-13.9,31-31C111.3,25.1,97.4,11.2,80.2,11.2z"/>
				</g>
				<g>
					<path class="st5" d="M70,25.6c0,0-0.2,0.2-2,1.1l4.9,9.1l2-1.1c0.8-0.5,1.2-1.6,0.7-2.4l-3.2-6C71.9,25.4,70.9,25.1,70,25.6z"
						/>
					<path class="st5" d="M68.4,48.3c4.6,8.5,12.5,15.1,16.3,13c0.2-0.1,0.4-0.2,0.5-0.3l-5-9.2c-0.7,0.2-1.5-0.1-2-0.7
						c0,0-1.6-1.9-3.9-6.1s-3-6.6-3-6.6c-0.3-0.7-0.1-1.5,0.5-2l-4.9-9.2c-0.2,0.1-0.4,0.2-0.5,0.3C62.5,29.6,63.8,39.8,68.4,48.3z"
						/>
					<path class="st5" d="M83.4,50.2l-2,1.1l4.9,9.1c1.7-1,2-1.1,2-1.1c0.8-0.5,1.2-1.6,0.7-2.4l-3.3-6
						C85.4,50.1,84.3,49.8,83.4,50.2z"/>
				</g>
				<g id="Wi-fi_1_">
					<path class="st5" d="M93.2,44.3c-0.2-0.4-0.3-0.8-0.2-1.2c0.8-2.9,0.4-6-1.2-8.7c-1.5-2.6-4-4.5-7-5.3c-0.4-0.1-0.7-0.4-1-0.7
						c-0.2-0.4-0.3-0.8-0.2-1.2c0.1-0.4,0.4-0.7,0.7-1c0.4-0.2,0.8-0.3,1.2-0.2c3.8,1,6.9,3.4,8.9,6.8c2,3.4,2.5,7.3,1.5,11.1
						c-0.2,0.8-1.1,1.3-1.9,1.1C93.8,44.9,93.4,44.6,93.2,44.3z"/>
					<path class="st5" d="M85.6,26.6c-0.6-0.1-1.1,0.2-1.3,0.7c-0.1,0.6,0.2,1.1,0.7,1.3c3.2,0.8,5.7,2.9,7.3,5.6
						c1.5,2.7,2.1,5.9,1.2,9.1c-0.1,0.6,0.2,1.1,0.7,1.3c0.6,0.1,1.1-0.2,1.3-0.7C97.6,36.3,93.1,28.6,85.6,26.6z"/>
					<path class="st5" d="M88.2,42.9c-0.2-0.4-0.3-0.8-0.2-1.2c0.4-1.6,0.2-3.3-0.6-4.7c-0.8-1.4-2.2-2.5-3.8-2.9
						c-0.4-0.1-0.7-0.4-1-0.7c-0.2-0.4-0.3-0.8-0.2-1.2c0.2-0.8,1.1-1.3,1.9-1.1c2.4,0.6,4.4,2.2,5.7,4.4s1.6,4.7,1,7.1
						c-0.2,0.8-1.1,1.3-1.9,1.1C88.7,43.6,88.4,43.3,88.2,42.9z"/>
					<path class="st5" d="M84.3,31.6c-0.6-0.1-1.1,0.2-1.3,0.7c-0.1,0.6,0.2,1.1,0.7,1.3c1.8,0.5,3.2,1.6,4.1,3.1
						c0.9,1.5,1.2,3.3,0.7,5.1c-0.1,0.6,0.2,1.1,0.7,1.3c0.6,0.1,1.1-0.2,1.3-0.7C91.8,37.7,89,32.9,84.3,31.6z"/>
				</g>
			</g>
			<g>
				<path id="_パス__3_" class="st2" d="M33.9,63.1c8.3-4.7,11.2-15.3,6.5-23.6S25,28.3,16.7,33S5.6,48.3,10.3,56.6
					c1.5,2.7,3.8,4.9,6.5,6.5C9.2,66.6,4.4,74.2,4.4,82.6V91h41.8v-8.5C46.2,74.2,41.4,66.6,33.9,63.1z"/>
				<path id="_複合パス__3_" class="st3" d="M25.3,30.8c9.5,0,17.3,7.7,17.3,17.3c0,6.2-3.3,12-8.7,15
					c7.6,3.5,12.4,11.1,12.3,19.5V91H4.4v-8.5c0-8.3,4.8-15.9,12.3-19.5c-8.3-4.7-11.2-15.3-6.5-23.6C13.4,34.1,19.1,30.8,25.3,30.8
					 M25.3,26.4c-12,0-21.7,9.7-21.7,21.7c0,5.4,2,10.6,5.6,14.6C3.4,67.6,0,74.9,0,82.6V91c0,2.4,2,4.4,4.4,4.4h41.8
					c2.4,0,4.4-2,4.4-4.4v-8.5c0-7.7-3.4-14.9-9.2-19.9c8.1-8.9,7.4-22.6-1.5-30.6C35.9,28.4,30.7,26.4,25.3,26.4z"/>
				<ellipse id="_パス_2_3_" class="st3" cx="18.1" cy="44.5" rx="2" ry="3.4"/>
				<ellipse id="_パス_3_3_" class="st3" cx="31.9" cy="44.5" rx="2" ry="3.4"/>
				<path id="_パス_4_3_" class="st3" d="M24.8,58.3c-4.8,0-6.9-3.5-6.9-6.5h2.7c0.1,2.2,1.9,3.8,4.1,3.7c0,0,0.1,0,0.1,0
					c2.9,0,4.7-1.5,4.7-3.7h2.6C32.1,54.7,29.9,58.3,24.8,58.3z"/>
			</g>
		</g>
		<rect x="0.4" y="79.2" class="st13" width="111.6" height="21.6"/>
		<g>
			<path class="st12" d="M9.9,95.3c-1.9,0-3.5-1.2-3.5-3.1c0-0.3,0-1.6,1.3-2.5c-0.5-0.5-0.8-1.1-0.8-1.8c0-1.4,1.1-2.6,3-2.6
				c2,0,3,1.3,3,2.6c0,0.6-0.2,1.3-0.8,1.8c1.3,0.9,1.3,2.1,1.3,2.5C13.4,94.1,11.8,95.3,9.9,95.3z M9.9,90.8
				c-0.9,0-1.5,0.6-1.5,1.3c0,0.8,0.7,1.3,1.5,1.3c0.8,0,1.5-0.5,1.5-1.3C11.4,91.4,10.8,90.8,9.9,90.8z M9.9,87
				c-0.6,0-1.1,0.4-1.1,1c0,0.6,0.5,1,1.1,1c0.6,0,1.1-0.4,1.1-1C11,87.3,10.5,87,9.9,87z"/>
			<path class="st12" d="M16.5,88c-0.1,0.1-0.4,0.3-0.6,0.3c-0.5,0-0.8-0.6-0.8-1c0-0.3,0.3-0.5,0.5-0.7l1.5-1
				c0.2-0.1,0.5-0.3,1-0.3c1.1,0,1.1,0.9,1.1,1.2v7.8c0,0.4-0.1,0.9-1,0.9c-0.8,0-1-0.4-1-0.9v-6.7L16.5,88z"/>
			<path class="st12" d="M23,92.4c-0.3,0-0.9-0.1-0.9-0.9c0-0.6,0.3-0.9,0.9-0.9h1.8c0.3,0,0.9,0,0.9,0.9c0,0.7-0.3,0.9-0.9,0.9H23z
				"/>
			<path class="st12" d="M29.7,92c-1.7,0-3.2-1.2-3.2-3.2c0-2,1.5-3.5,3.5-3.5c1,0,3.7,0.4,3.7,4.5c0,3.2-1.6,5.5-4.6,5.5
				c-1,0-1.6-0.2-1.6-1c0-0.8,0.6-0.9,0.8-0.9c0.1,0,0.6,0,0.8,0c1.9,0,2.2-1.4,2.4-2C31,91.7,30.6,92,29.7,92z M28.5,88.7
				c0,0.9,0.6,1.5,1.5,1.5c0.8,0,1.6-0.6,1.6-1.5c0-0.8-0.6-1.5-1.6-1.5C29.3,87.2,28.5,87.8,28.5,88.7z"/>
			<path class="st12" d="M40.6,93.2c0.4,0,1,0.1,1,0.9c0,0.6-0.3,0.9-1,0.9H36c-0.8,0-1.6,0-1.6-1.1c0-0.7,0.3-0.9,1.2-1.6
				c0.7-0.5,1.7-1.5,2.4-2.2c0.7-0.7,1.1-1.2,1.1-1.9c0-0.6-0.4-1.2-1.2-1.2c-0.2,0-0.8,0-1.4,0.5c-0.5,0.3-0.5,0.4-0.8,0.4
				c-0.6,0-1-0.5-1-1c0-0.7,1.4-1.8,3.2-1.8c1.8,0,3.2,1.2,3.2,3c0,1.5-0.9,2.5-3.8,4.9H40.6z"/>
			<path class="st12" d="M43.2,92.4c-0.3,0-0.9-0.1-0.9-0.9c0-0.6,0.3-0.9,0.9-0.9H45c0.3,0,0.9,0,0.9,0.9c0,0.7-0.3,0.9-0.9,0.9
				H43.2z"/>
			<path class="st12" d="M53.1,91.5c0.3,0,0.9,0.1,0.9,0.9c0,0.6-0.3,0.9-0.9,0.9h-0.3v1.1c0,0.4-0.1,0.9-1,0.9c-0.8,0-1-0.3-1-0.9
				v-1.1h-2.7c-0.5,0-1.5,0-1.5-1c0-0.5,0.2-0.8,0.6-1.4l3.1-4.6c0.6-0.8,1.1-0.9,1.4-0.9c1.1,0,1.1,0.9,1.1,1.2v5H53.1z M50.7,91.5
				v-3.1l-2.1,3.1H50.7z"/>
			<path class="st12" d="M55.4,87.4c-0.4,0-1-0.1-1-0.9c0-0.7,0.3-0.9,1-0.9h5c0.8,0,1.4,0.1,1.4,1.1c0,0.7-0.2,1.1-0.4,1.4
				l-3.8,6.6c-0.2,0.4-0.4,0.7-0.9,0.7c-0.5,0-1.1-0.4-1.1-0.9c0-0.2,0-0.3,0.3-0.8l3.7-6.3H55.4z"/>
			<path class="st12" d="M68.8,91.5c0.3,0,0.9,0.1,0.9,0.9c0,0.6-0.3,0.9-0.9,0.9h-0.3v1.1c0,0.4-0.1,0.9-1,0.9c-0.8,0-1-0.3-1-0.9
				v-1.1h-2.7c-0.5,0-1.5,0-1.5-1c0-0.5,0.2-0.8,0.6-1.4l3.1-4.6c0.6-0.8,1.1-0.9,1.4-0.9c1.1,0,1.1,0.9,1.1,1.2v5H68.8z M66.5,91.5
				v-3.1l-2.1,3.1H66.5z"/>
			<path class="st12" d="M71.2,92.4c-0.3,0-0.9-0.1-0.9-0.9c0-0.6,0.3-0.9,0.9-0.9h1.8c0.3,0,0.9,0,0.9,0.9c0,0.7-0.3,0.9-0.9,0.9
				H71.2z"/>
			<path class="st12" d="M77.9,92c-1.7,0-3.2-1.2-3.2-3.2c0-2,1.5-3.5,3.5-3.5c1,0,3.7,0.4,3.7,4.5c0,3.2-1.6,5.5-4.6,5.5
				c-1,0-1.6-0.2-1.6-1c0-0.8,0.6-0.9,0.8-0.9c0.1,0,0.6,0,0.8,0c1.9,0,2.2-1.4,2.4-2C79.2,91.7,78.8,92,77.9,92z M76.8,88.7
				c0,0.9,0.6,1.5,1.5,1.5c0.8,0,1.6-0.6,1.6-1.5c0-0.8-0.6-1.5-1.6-1.5C77.5,87.2,76.8,87.8,76.8,88.7z"/>
			<path class="st12" d="M88.9,93.2c0.4,0,1,0.1,1,0.9c0,0.6-0.3,0.9-1,0.9h-4.6c-0.8,0-1.6,0-1.6-1.1c0-0.7,0.3-0.9,1.2-1.6
				c0.7-0.5,1.7-1.5,2.4-2.2c0.7-0.7,1.1-1.2,1.1-1.9c0-0.6-0.4-1.2-1.2-1.2c-0.2,0-0.8,0-1.4,0.5c-0.5,0.3-0.5,0.4-0.8,0.4
				c-0.6,0-1-0.5-1-1c0-0.7,1.4-1.8,3.2-1.8c1.8,0,3.2,1.2,3.2,3c0,1.5-0.9,2.5-3.8,4.9H88.9z"/>
			<path class="st12" d="M91.2,87.2c0-0.7,0.1-1.7,1.6-1.7H96c0.3,0,1,0.1,1,0.9c0,0.7-0.3,0.9-1,0.9h-2.6c-0.3,0-0.4,0.1-0.4,0.4
				V89c0.4-0.1,0.8-0.2,1.2-0.2c1.6,0,3.3,1.1,3.3,3.2c0,1.8-1.2,3.3-3.9,3.3c-0.6,0-1.6-0.1-2.4-0.4c-0.4-0.2-0.6-0.4-0.6-0.8
				c0-0.5,0.4-1,0.8-1c0.2,0,0.2,0,0.7,0.2c0.3,0.1,0.7,0.2,1.4,0.2c0.3,0,1.9,0,1.9-1.5c0-0.8-0.6-1.3-1.5-1.3
				c-0.6,0-0.9,0.2-1.2,0.5c0,0-0.3,0.2-0.8,0.2c-0.9,0-0.9-0.7-0.9-1V87.2z"/>
			<path class="st12" d="M102.3,88.6c1.7,0,3.2,1.2,3.2,3.3c0,2-1.5,3.4-3.4,3.4c-1.8,0-3.7-1.2-3.7-4.3c0-3.1,1.9-5.6,4.7-5.6
				c0.4,0,1,0.2,1,0.9c0,0.9-0.4,0.9-1,0.9c-1.8,0.1-2.2,1.5-2.4,2C101,88.9,101.4,88.6,102.3,88.6z M102.1,90.4
				c-0.8,0-1.6,0.5-1.6,1.4c0,0.8,0.5,1.6,1.6,1.6c1,0,1.4-0.8,1.4-1.6C103.5,90.6,102.5,90.4,102.1,90.4z"/>
		</g>
	</g>
</g>
<g id="レイヤー_14">
</g>
<g id="レイヤー_9">
</g>
<g id="suitcase">
</g>
<g id="レイヤー_11">
</g>
<g id="レイヤー_12_2_">
</g>
<g id="ico_x5F_point">
</g>
<g id="treatment">
</g>
<g id="unknown">
</g>
<g id="number">
</g>
<g id="ico_x5F_user">
</g>
<g id="ico_x5F_helpdesk_1_">
</g>
<g id="がいど">
</g>
</svg>
