<?xml version="1.0" encoding="utf-8"?>
<!-- Generator: Adobe Illustrator 22.0.1, SVG Export Plug-In . SVG Version: 6.00 Build 0)  -->
<svg version="1.1" xmlns="http://www.w3.org/2000/svg" xmlns:xlink="http://www.w3.org/1999/xlink" x="0px" y="0px"
	 viewBox="0 0 112 112" style="enable-background:new 0 0 112 112;" xml:space="preserve">
<style type="text/css">
	.st0{fill:#D1D1D1;}
	.st1{fill:#4B4B4B;}
	.st2{fill:#F5F4F4;}
	.st3{fill:#4D4D4D;}
	.st4{fill:#FFFFF3;}
	.st5{fill:#E35450;}
	.st6{fill:#FFFFFF;}
	.st7{fill:#FFFFFF;stroke:#4D4D4D;stroke-width:2.126;stroke-miterlimit:10;}
	.st8{display:none;fill:#1474B8;}
	.st9{fill:#FFFFFF;stroke:#B3B3B3;stroke-miterlimit:10;}
	.st10{fill:#1474B8;}
	.st11{fill:#156A9E;}
	.st12{fill:#F6F5F5;}
	.st13{fill:#F1CF49;}
	.st14{fill:#EEFCFF;}
	.st15{fill-rule:evenodd;clip-rule:evenodd;fill:#E25450;}
	.st16{fill:#575757;}
	.st17{fill:#F5F4F5;}
	.st18{fill:#585757;}
	.st19{fill-rule:evenodd;clip-rule:evenodd;fill:#E35450;}
	.st20{fill:#4B4948;}
	.st21{display:none;fill:#4D4D4D;stroke:#4D4D4D;stroke-width:2.2677;stroke-miterlimit:10;}
	.st22{fill:#E25450;}
	.st23{fill:#FFFFFF;stroke:#4D4D4D;stroke-width:2.2677;stroke-miterlimit:10;}
	.st24{fill:#606060;}
	.st25{fill:#84AC67;}
	.st26{fill:#F7DB52;}
	.st27{fill:#15B785;}
	.st28{fill:#1574B8;}
	.st29{display:none;fill:#FFFFF3;}
	.st30{display:none;}
	.st31{display:inline;fill:#4D4D4D;}
	.st32{display:inline;fill:#F1CF49;}
	.st33{display:inline;fill:#E25450;}
</style>
<g id="レイヤー_8">
</g>
<g id="レイヤー_13">
</g>
<g id="レイヤー_14">
</g>
<g id="レイヤー_9">
</g>
<g id="suitcase">
</g>
<g id="レイヤー_11">
</g>
<g id="レイヤー_12_2_">
</g>
<g id="ico_x5F_point">
</g>
<g id="treatment">
</g>
<g id="unknown">
</g>
<g id="number">
</g>
<g id="ico_x5F_user">
</g>
<g id="ico_x5F_helpdesk_1_">
</g>
<g id="がいど">
</g>
<g id="Wifi">
	<g id="レイヤー_11_1_">
		<g>
			<g id="icon_world">
				<path id="Fill-1" class="st27" d="M89.6,33.6c0,18.5-15,33.5-33.5,33.5s-33.5-15-33.5-33.5S37.5,0,56,0l0,0
					C74.6,0,89.6,15,89.6,33.6L89.6,33.6"/>
				<path id="Fill-3" class="st28" d="M62.8,63.8c-2.6,0-4.4-2.8-8.3-2.6c-8.8-0.2-11.8-4.1-4.9-8.7c4-2.7,6.3-2.3,7.5-1.6
					c1.4,0.8,3.2,0.9,4.6,0.1c0.8-0.4,1.5-0.5,2.8,0.5C73,59,65.4,63.8,62.8,63.8z M55.1,25.9c0.6-0.4,1.2-1,1.6-1.7
					c0.3-0.5,0.7-0.8,1.3-0.9c1.6-0.2,1,1.8-0.6,2.8C55.6,27.3,53.7,26.8,55.1,25.9z M58.3,21.9c0.8-0.7,1.5-1.4,2-0.4
					c0.4,1-0.1,1.3-0.7,1.5C59.6,23,57.6,22.6,58.3,21.9z M89.5,32.3c-0.2-7-2.7-13.7-6.9-19.2h-0.1c-2.3,0.8-4.5-0.4-5.8-0.2
					c-3.4,0.7-3.1-2.9-5.1-3.8C64.3,6,69.5,3,69.7,2.8c-8.4-3.8-18-3.9-26.5-0.3c0,0,0.9,6.1,9.5,4.5S66.6,5.6,65,13.5
					c-1.1,3.8-8.9,4.3-11.7,10.8s-2.4,9.8-8.8,10.7s-5,8.4-3.7,12.4c0.8,1.3,0.6,8.8-3.3,4.3s0.1-13.8-3.8-15.6s-4.8,3.4-7.8,0.8
					c-3-2.7-3.1-3.6-3.3-6.1c0-0.9,0.1-1.7,0.2-2.6c-3,18.3,9.5,35.5,27.7,38.5c11.7,1.9,23.5-2.5,31.1-11.6c0.6-0.7,2.9-10,1-15.2
					C81.2,36,87,33.5,87,33.5L89.5,32.3z"/>
				<path id="Fill-7" class="st28" d="M88.8,40.1l-0.1,0.3L88.8,40.1"/>
			</g>
			<g>
				<g>
					<path class="st0" d="M107.6,70.3h-2.5c-2.1,0-3.7,1.7-3.7,3.7v17.2H52.3V74c0-2.1-1.7-3.7-3.7-3.7h-2.4c-2.1,0-3.8,1.7-3.8,3.8
						V98c0,2.1,1.7,3.8,3.8,3.8h6.2h49.1h6.2c2.1,0,3.8-1.7,3.8-3.8V74.1C111.4,72,109.7,70.3,107.6,70.3z"/>
					<polygon class="st1" points="49.8,110.7 53.8,110.7 54.3,103.5 49.3,103.5 					"/>
					<polygon class="st1" points="100,110.7 104,110.7 104.5,103.5 99.5,103.5 					"/>
					<path class="st0" d="M54.4,72.6v16.5h44.9V72.6c0-2.4,2-4.4,4.4-4.4h0.1v-3.9c0-4.3-3.6-7.9-7.9-7.9H57.7
						c-4.3,0-7.9,3.6-7.9,7.9v3.9h0.1C52.4,68.2,54.4,70.2,54.4,72.6z"/>
				</g>
			</g>
			<g id="ico_x5F_lounge_3_">
				<g>
					<path id="XMLID_38_" class="st2" d="M36.5,77.7c5.5-3.1,9.2-9.1,9.2-15.9c0-10.2-8.2-18.3-18.3-18.3S9,51.6,9,61.8
						c0,6.8,3.8,12.8,9.2,15.9c-7.6,3.6-13,11.5-13,20.7v9h44.4v-9C49.5,89.2,44.1,81.2,36.5,77.7z"/>
					<g>
						<path id="XMLID_37_" class="st3" d="M27.4,43.4c10.2,0,18.3,8.2,18.3,18.3c0,6.8-3.8,12.8-9.2,15.9
							c7.7,3.5,13.1,11.5,13.1,20.6v9H5.2v-9c0-9.2,5.4-17.1,13.1-20.7c-5.6-3-9.3-9-9.3-15.8C9,51.6,17.2,43.4,27.4,43.4
							 M27.4,38.7c-12.7,0-23,10.4-23,23.1c0,5.8,2.2,11.3,6,15.5c-6.1,5-9.8,12.8-9.8,21.1v9c0,2.6,2.1,4.7,4.7,4.7h44.4
							c2.6,0,4.7-2.1,4.7-4.7v-9c0-8.3-3.7-16-9.8-21.1c3.8-4.2,6-9.7,6-15.5C50.4,49.1,40.1,38.7,27.4,38.7L27.4,38.7z"/>
						<ellipse id="XMLID_36_" class="st3" cx="19.7" cy="57.9" rx="2.1" ry="3.6"/>
						<ellipse id="XMLID_34_" class="st3" cx="34.3" cy="57.9" rx="2.1" ry="3.6"/>
						<path id="XMLID_33_" class="st3" d="M26.8,72.6c-5.1,0-7.3-3.8-7.3-6.9h2.9c0.3,2.3,1.7,3.9,4.5,3.9c3.1,0,5-1.6,5-3.9h2.8
							C34.5,68.8,32.3,72.6,26.8,72.6z"/>
					</g>
				</g>
			</g>
			<g>
				<path class="st4" d="M40.1,105.5h-4.5v3c0,1.9,1.5,3.5,3.5,3.5h21.6c1.9,0,3.5-1.5,3.5-3.5v-3h-4.9c0.1-0.1,0.2-0.1,0.2-0.2l0,0
					l0,0c1.7-1.4,3-3.1,3.8-5.2c0.3,0.1,0.7,0.1,1,0.1c0.2,0,0.3,0,0.5,0c2.4-0.2,4.5-1.1,6.1-2.6s2.5-3.7,2.5-6.1
					c0-4.8-3.9-8.7-8.7-8.7c-0.4,0-6.8,0-13.2,0s-12.6,0-12.6,0c-1.8,0-3.3,1.5-3.3,3.3v9c0,3.4,0.8,6.1,2.4,8.1
					C38.6,104.2,39.2,104.9,40.1,105.5z"/>
				<g>
					<path class="st1" d="M40.1,105.5h-4.5v3c0,1.9,1.5,3.5,3.5,3.5h21.6c1.9,0,3.5-1.5,3.5-3.5v-3h-4.9c0.1-0.1,0.2-0.1,0.2-0.2
						l0,0l0,0c1.7-1.4,3-3.1,3.8-5.2c0.3,0.1,0.7,0.1,1,0.1c0.2,0,0.3,0,0.5,0c2.4-0.2,4.5-1.1,6.1-2.6s2.5-3.7,2.5-6.1
						c0-4.8-3.9-8.7-8.7-8.7c-0.4,0-6.8,0-13.2,0s-12.6,0-12.6,0c-1.8,0-3.3,1.5-3.3,3.3v9c0,3.4,0.8,6.1,2.4,8.1
						C38.6,104.2,39.2,104.9,40.1,105.5z M44.2,107.6H55h7v0.8c0,0.8-0.6,1.4-1.4,1.4H39c-0.8,0-1.4-0.6-1.4-1.4v-0.8H44.2z
						 M39.7,102.1c-1.2-1.7-2-3.8-2-6.9v-9c0-0.6,0.5-1.1,1.1-1.1c0,0,25.1,0,25.8,0c1.8,0,3.4,0.7,4.6,1.9c1.1,1.1,1.9,2.8,1.9,4.6
						c0,1.8-0.7,3.4-1.9,4.5c-1.1,1.1-2.8,1.9-4.7,2c-0.2,0-0.2,0-0.4,0c-0.5,0-1-0.1-1.4-0.2l-1-0.3l-0.3,1c-0.6,2-1.8,3.8-3.4,5.1
						l0,0l0,0c-0.2,0.2-0.5,0.5-1.1,0.8c-0.5,0.3-1.3,0.7-2.1,1H44.5C42.5,104.8,40.9,103.7,39.7,102.1z"/>
					<path class="st1" d="M62.3,88.1l-0.5,0.2v6.4l0.5,0.2c0.5,0.3,1.2,0.5,1.9,0.5c2.2,0,4-1.8,4-4s-1.8-4-4-4
						C63.5,87.6,62.8,87.8,62.3,88.1z M63.7,89.5c0.2-0.1,0.4-0.1,0.6-0.1c1.2,0,2.1,1,2.1,2.1c0,1.2-1,2.1-2.1,2.1
						c-0.2,0-0.4,0-0.6-0.1C63.7,93.5,63.7,89.5,63.7,89.5z"/>
				</g>
			</g>
			<g>
				<path class="st6" d="M100.5,19.4c1.5,3.2-2.3,4.8-2.3,4.8l-1-1.9c1.3-0.5,1.4-1.6,1.3-2.1c0,0-0.1-0.3-0.3-0.6
					c-1.9,0.3-4.1,1-6,1.9l-8.4,4.1l-3.6,1.7l-1.3-0.6l3.6-1.7l-9.6-4.2c-0.1,0-0.2,0-0.3,0c-0.4,0-0.8,0.2-1,0.6
					c-0.3,0.5-0.2,1,0.2,1.4l4.8,6.4l-5.4,2.7c-0.5,0.2-1.1,0.4-1.6,0.4c-0.4,0-0.8-0.1-1.1-0.2l-4.7-1.4c-0.2-0.1-0.3-0.1-0.5-0.1
					c-0.5,0-0.9,0.2-1.2,0.6c-0.4,0.5-0.5,1.2-0.2,1.7l2.6,5.6c0.7,1.4,2.2,2,4.1,2c1.5,0,3.1-0.4,4.8-1.1l4.7-2.3L77.9,36l1.1-0.7
					l0.3,1.3l0.3,1.7l0,0L82,50.7c0.1,0.7,0.7,1.3,1.4,1.3h0.1c0.7,0,1.3-0.5,1.4-1.2l4.3-19.2l8.4-4.1c2.4-1.2,7.8-4.1,6.7-6.6
					C103.4,19.9,102.1,19.4,100.5,19.4z"/>
				<path class="st28" d="M59.1,34.1l2.6,5.6l0,0l0,0c1.1,2.3,3.6,3.6,6.7,3.6c1.9,0,4-0.5,6-1.4l0,0l0,0l2.4-1.2l2,10.3
					c0.3,2.1,2,3.6,4.1,3.7h0.2c2.1,0,3.9-1.5,4.3-3.4l4-17.8l7.1-3.5c7-3.4,9.7-6.9,8-10.4c-0.6-1.2-2.1-3.1-6.3-3.1
					c-2.8,0-6.3,0.9-9.3,2.4l-7.2,3.5l-0.1-0.1L74,18.1L73.8,18h-0.2c-0.3-0.1-0.7-0.1-1-0.1c-1.4,0-2.8,0.8-3.5,2
					c-0.9,1.5-0.7,3.4,0.4,4.7l2.6,3.5l-2.3,1.1c-0.1,0.1-0.2,0.1-0.3,0.1h-0.2l0,0l0,0l-4.7-1.4c-0.4-0.1-0.9-0.2-1.3-0.2
					c-1.3,0-2.5,0.6-3.4,1.5C58.6,30.6,58.3,32.5,59.1,34.1z M61.9,31.1c0.3-0.4,0.8-0.6,1.2-0.6c0.2,0,0.3,0,0.5,0.1l4.7,1.4
					c0.4,0.1,0.7,0.2,1.1,0.2c0.6,0,1.1-0.1,1.6-0.4l5.4-2.7l-4.8-6.4c-0.4-0.4-0.4-1-0.2-1.4c0.2-0.4,0.6-0.6,1-0.6
					c0.1,0,0.2,0,0.3,0l9.6,4.2l-3.6,1.7l1.3,0.6l3.6-1.7l8.4-4.1c1.9-0.9,4-1.6,6-1.9c0.2,0.3,0.3,0.6,0.3,0.6
					c0.2,0.5,0,1.6-1.3,2.1l1,1.9c0,0,3.8-1.5,2.3-4.8c1.7,0,3,0.5,3.4,1.5c1.2,2.4-4.2,5.4-6.7,6.6l-8.4,4.1l-4.3,19.2
					c-0.1,0.7-0.7,1.2-1.4,1.2h-0.1c-0.7,0-1.3-0.6-1.4-1.3L79,38.2l0,0l0-1.7l-0.3-1.3l-1.1,0.7l0.2,1.1l-4.7,2.3
					c-1.6,0.8-3.3,1.1-4.8,1.1c-1.9,0-3.4-0.6-4.1-2l-2.6-5.6C61.4,32.3,61.5,31.6,61.9,31.1z"/>
				<path class="st28" d="M93.2,25.4c0,0.7,0.5,1.2,1.2,1.2s1.2-0.5,1.2-1.2s-0.5-1.2-1.2-1.2C93.7,24.2,93.2,24.7,93.2,25.4z"/>
				<path class="st28" d="M88.5,27.5c0,0.7,0.5,1.2,1.2,1.2s1.2-0.5,1.2-1.2s-0.5-1.2-1.2-1.2C89.1,26.3,88.5,26.9,88.5,27.5z"/>
				<path class="st28" d="M83.9,29.7c0,0.7,0.5,1.2,1.2,1.2s1.2-0.5,1.2-1.2s-0.5-1.2-1.2-1.2S83.9,29,83.9,29.7z"/>
				<path class="st28" d="M79.2,31.9c0,0.7,0.5,1.2,1.2,1.2s1.2-0.5,1.2-1.2s-0.5-1.2-1.2-1.2C79.8,30.7,79.2,31.2,79.2,31.9z"/>
			</g>
		</g>
	</g>
</g>
</svg>
