<?xml version="1.0" encoding="utf-8"?>
<!-- Generator: Adobe Illustrator 22.0.1, SVG Export Plug-In . SVG Version: 6.00 Build 0)  -->
<svg version="1.1" xmlns="http://www.w3.org/2000/svg" xmlns:xlink="http://www.w3.org/1999/xlink" x="0px" y="0px"
	 viewBox="0 0 112 112" style="enable-background:new 0 0 112 112;" xml:space="preserve">
<style type="text/css">
	.st0{fill:#D1D1D1;}
	.st1{fill:#4B4B4B;}
	.st2{fill:#F5F4F4;}
	.st3{fill:#4D4D4D;}
	.st4{fill:#FFFFF3;}
	.st5{fill:#FFFFFF;}
	.st6{fill:#4B4948;}
	.st7{fill:#4C4948;}
	.st8{fill:#1474B8;}
	.st9{fill:#F5F4F5;}
	.st10{fill:#606060;}
	.st11{fill:#E25450;}
	.st12{fill:#E35450;}
	.st13{fill:#FFFFFF;stroke:#4D4D4D;stroke-width:2.126;stroke-miterlimit:10;}
	.st14{display:none;fill:#1474B8;}
	.st15{fill:#FFFFFF;stroke:#B3B3B3;stroke-miterlimit:10;}
	.st16{fill:#156A9E;}
	.st17{fill:#F6F5F5;}
	.st18{fill:#F1CF49;}
	.st19{fill:#EEFCFF;}
	.st20{fill-rule:evenodd;clip-rule:evenodd;fill:#E25450;}
	.st21{fill:#575757;}
	.st22{fill:#585757;}
	.st23{fill-rule:evenodd;clip-rule:evenodd;fill:#E35450;}
	.st24{display:none;fill:#4D4D4D;stroke:#4D4D4D;stroke-width:2.2677;stroke-miterlimit:10;}
	.st25{fill:#FFFFFF;stroke:#4D4D4D;stroke-width:2.2677;stroke-miterlimit:10;}
	.st26{fill:#84AC67;}
	.st27{fill:#F7DB52;}
</style>
<g id="レイヤー_8">
</g>
<g id="レイヤー_15">
</g>
<g id="レイヤー_13">
</g>
<g id="レイヤー_14">
	<g>
		<g>
			<g>
				<g>
					<path class="st12" d="M80.2,11.2c-17.1,0-31,13.9-31,31c0,7.2,2.5,13.9,6.6,19.2l-2.6,12.5l11.6-4.7c4.5,2.6,9.8,4.1,15.4,4.1
						c17.1,0,31-13.9,31-31C111.3,25.1,97.4,11.2,80.2,11.2z"/>
				</g>
				<g>
					<path class="st5" d="M70,25.6c0,0-0.2,0.2-2,1.1l4.9,9.1l2-1.1c0.8-0.5,1.2-1.6,0.7-2.4l-3.2-6C71.9,25.4,70.9,25.1,70,25.6z"
						/>
					<path class="st5" d="M68.4,48.3c4.6,8.5,12.5,15.1,16.3,13c0.2-0.1,0.4-0.2,0.5-0.3l-5-9.2c-0.7,0.2-1.5-0.1-2-0.7
						c0,0-1.6-1.9-3.9-6.1s-3-6.6-3-6.6c-0.3-0.7-0.1-1.5,0.5-2l-4.9-9.2c-0.2,0.1-0.4,0.2-0.5,0.3C62.5,29.6,63.8,39.8,68.4,48.3z"
						/>
					<path class="st5" d="M83.4,50.2l-2,1.1l4.9,9.1c1.7-1,2-1.1,2-1.1c0.8-0.5,1.2-1.6,0.7-2.4l-3.3-6
						C85.4,50.1,84.3,49.8,83.4,50.2z"/>
				</g>
				<g id="Wi-fi_2_">
					<path class="st5" d="M93.2,44.3c-0.2-0.4-0.3-0.8-0.2-1.2c0.8-2.9,0.4-6-1.2-8.7c-1.5-2.6-4-4.5-7-5.3c-0.4-0.1-0.7-0.4-1-0.7
						c-0.2-0.4-0.3-0.8-0.2-1.2c0.1-0.4,0.4-0.7,0.7-1c0.4-0.2,0.8-0.3,1.2-0.2c3.8,1,6.9,3.4,8.9,6.8c2,3.4,2.5,7.3,1.5,11.1
						c-0.2,0.8-1.1,1.3-1.9,1.1C93.8,44.9,93.4,44.6,93.2,44.3z"/>
					<path class="st5" d="M85.6,26.6c-0.6-0.1-1.1,0.2-1.3,0.7c-0.1,0.6,0.2,1.1,0.7,1.3c3.2,0.8,5.7,2.9,7.3,5.6
						c1.5,2.7,2.1,5.9,1.2,9.1c-0.1,0.6,0.2,1.1,0.7,1.3c0.6,0.1,1.1-0.2,1.3-0.7C97.6,36.3,93.1,28.6,85.6,26.6z"/>
					<path class="st5" d="M88.2,42.9c-0.2-0.4-0.3-0.8-0.2-1.2c0.4-1.6,0.2-3.3-0.6-4.7c-0.8-1.4-2.2-2.5-3.8-2.9
						c-0.4-0.1-0.7-0.4-1-0.7c-0.2-0.4-0.3-0.8-0.2-1.2c0.2-0.8,1.1-1.3,1.9-1.1c2.4,0.6,4.4,2.2,5.7,4.4s1.6,4.7,1,7.1
						c-0.2,0.8-1.1,1.3-1.9,1.1C88.7,43.6,88.4,43.3,88.2,42.9z"/>
					<path class="st5" d="M84.3,31.6c-0.6-0.1-1.1,0.2-1.3,0.7c-0.1,0.6,0.2,1.1,0.7,1.3c1.8,0.5,3.2,1.6,4.1,3.1
						c0.9,1.5,1.2,3.3,0.7,5.1c-0.1,0.6,0.2,1.1,0.7,1.3c0.6,0.1,1.1-0.2,1.3-0.7C91.8,37.7,89,32.9,84.3,31.6z"/>
				</g>
			</g>
			<g>
				<path id="_パス__4_" class="st2" d="M33.9,63.1c8.3-4.7,11.2-15.3,6.5-23.6S25,28.3,16.7,33S5.6,48.3,10.3,56.6
					c1.5,2.7,3.8,4.9,6.5,6.5C9.2,66.6,4.4,74.2,4.4,82.6V91h41.8v-8.5C46.2,74.2,41.4,66.6,33.9,63.1z"/>
				<path id="_複合パス__4_" class="st3" d="M25.3,30.8c9.5,0,17.3,7.7,17.3,17.3c0,6.2-3.3,12-8.7,15
					c7.6,3.5,12.4,11.1,12.3,19.5V91H4.4v-8.5c0-8.3,4.8-15.9,12.3-19.5c-8.3-4.7-11.2-15.3-6.5-23.6C13.4,34.1,19.1,30.8,25.3,30.8
					 M25.3,26.4c-12,0-21.7,9.7-21.7,21.7c0,5.4,2,10.6,5.6,14.6C3.4,67.6,0,74.9,0,82.6V91c0,2.4,2,4.4,4.4,4.4h41.8
					c2.4,0,4.4-2,4.4-4.4v-8.5c0-7.7-3.4-14.9-9.2-19.9c8.1-8.9,7.4-22.6-1.5-30.6C35.9,28.4,30.7,26.4,25.3,26.4z"/>
				<ellipse id="_パス_2_4_" class="st3" cx="18.1" cy="44.5" rx="2" ry="3.4"/>
				<ellipse id="_パス_3_4_" class="st3" cx="31.9" cy="44.5" rx="2" ry="3.4"/>
				<path id="_パス_4_4_" class="st3" d="M24.8,58.3c-4.8,0-6.9-3.5-6.9-6.5h2.7c0.1,2.2,1.9,3.8,4.1,3.7c0,0,0.1,0,0.1,0
					c2.9,0,4.7-1.5,4.7-3.7h2.6C32.1,54.7,29.9,58.3,24.8,58.3z"/>
			</g>
		</g>
		<rect x="0.4" y="79.2" class="st13" width="111.6" height="21.6"/>
		<g>
			<path class="st12" d="M21.3,90.6c0,1.1,0,3.9-3.2,3.9c-0.9,0-1.5-0.2-1.9-0.4c-0.3-0.2-0.7-0.3-0.7-0.8c0-0.5,0.3-1,0.9-1
				c0.2,0,0.3,0.1,0.4,0.1c0.4,0.2,0.7,0.3,1.1,0.3c1.3,0,1.3-1.1,1.3-1.9v-5.3c0-0.6,0.3-0.9,1-0.9c0.8,0,1,0.4,1,0.9V90.6z"/>
			<path class="st12" d="M23.9,89.5c0-3,2.2-5,5.1-5c1.2,0,2.2,0.4,2.6,0.6c0.4,0.3,0.4,0.6,0.4,0.7c0,0.6-0.4,1-0.9,1
				c-0.2,0-0.3,0-0.6-0.1c-0.6-0.2-0.9-0.3-1.5-0.3c-2.2,0-3.2,1.5-3.2,3.1c0,1.8,1.2,3.1,3.2,3.1c0.2,0,0.8,0,1.6-0.3
				c0.3-0.1,0.4-0.1,0.6-0.1c0.4,0,0.9,0.3,0.9,0.9c0,0.5-0.2,0.7-0.6,0.8c-1.2,0.5-2.3,0.5-2.7,0.5C25.8,94.5,23.9,92.2,23.9,89.5z
				"/>
			<path class="st12" d="M35.8,94.3c-1.6,0-1.6-1.1-1.6-1.7v-6.3c0-0.6,0-1.7,1.6-1.7h1.6c0.6,0,1.2,0,1.9,0.3
				c0.8,0.3,1.5,1.1,1.5,2.3c0,1.2-0.6,1.7-1,2c0.4,0.2,1.3,0.8,1.3,2.4c0,2.7-2.7,2.7-3.6,2.7H35.8z M37.6,88.5c1,0,1.2-0.6,1.2-1
				c0-0.6-0.4-1-1.2-1h-1c-0.3,0-0.4,0.1-0.4,0.4v1.6H37.6z M36.2,92.1c0,0.3,0.1,0.4,0.4,0.4h1.1c0.4,0,1.4,0,1.4-1.1
				c0-0.3-0.1-1.2-1.4-1.2h-1.5V92.1z"/>
			<path class="st12" d="M49.2,87.1c1.1,1.5,2.4,3.1,3.9,4.6c0.9,0.9,1,0.9,1,1.4c0,0.5-0.4,1.1-1,1.1c-0.3,0-0.6,0-2.2-1.9
				c-1.3-1.5-2.3-2.9-2.8-3.6c-0.4-0.5-0.4-0.6-0.6-0.6c-0.2,0-0.3,0.1-1,1.1c-1,1.5-1.3,1.8-1.5,2.1c-0.2,0.2-0.4,0.4-0.7,0.4
				c-0.6,0-1.1-0.5-1.1-1.1c0-0.3,0.1-0.4,0.7-1.2c0.3-0.4,1.6-2.1,1.9-2.5c0.5-0.6,0.9-1.1,1.6-1.1C48.2,85.7,48.6,86.3,49.2,87.1z
				"/>
			<path class="st12" d="M59.2,85.3c0-0.3,0-1,0.9-1c0.9,0,0.9,0.7,0.9,1v0.9c0.2,0,1.3-0.2,1.5-0.2c0.7,0,0.8,0.6,0.8,0.9
				c0,0.7-0.3,0.9-2.3,1.1v0.7c0.5-0.2,1.2-0.3,2.1-0.3c2.7,0,3.6,1.8,3.6,3.3c0,1.8-1.2,3.1-3.1,3.1c-0.6,0-1.4-0.1-1.4-1
				c0-0.5,0.3-0.9,0.7-0.9c0.1,0,0.5,0,0.6,0c1.1,0,1.2-0.9,1.2-1.3c0-0.4-0.2-1.5-1.9-1.5c-0.7,0-1.2,0.2-1.8,0.3v2
				c0,0.8,0,1.3-0.3,1.7c-0.4,0.8-1.3,0.9-1.6,0.9c-1.1,0-2.8-0.8-2.8-2.4c0-1,0.6-2.2,2.7-3.2v-1.2c-0.7,0-0.8,0-1.2,0
				c-0.6,0-1.3,0-1.3-0.9c0-0.5,0.3-0.8,0.8-0.9c0.1,0,1.4,0,1.6,0V85.3z M59.2,91.3c-0.2,0.1-1.2,0.7-1.2,1.3
				c0,0.4,0.5,0.7,0.9,0.7c0.3,0,0.3-0.2,0.3-0.7V91.3z M66.2,86.2c0.8,0.7,1,1,1,1.3c0,0.5-0.4,0.9-0.9,0.9c-0.3,0-0.5-0.2-0.9-0.7
				c-0.4-0.4-0.6-0.6-1-0.9c-0.2-0.2-0.5-0.4-0.5-0.7c0-0.5,0.5-0.9,0.9-0.9C65.2,85.3,65.8,85.8,66.2,86.2z"/>
			<path class="st12" d="M75.5,88.4c0,0.2,0,0.8-0.7,0.8c-0.6,0-0.9-0.2-0.9-0.8v-1.4h-2.7c-0.2,0-0.3,0.1-0.3,0.3v0.9
				c0,0.2,0,0.8-0.8,0.8c-0.6,0-0.9-0.2-0.9-0.8v-0.7c0-1.3,0.2-1.5,1.5-1.5h3.2v-0.3h-3.4c-0.2,0-0.7,0-0.7-0.6
				c0-0.6,0.4-0.7,0.7-0.7h8.4c0.3,0,0.7,0.1,0.7,0.6c0,0.5-0.3,0.7-0.7,0.7h-3.4V86h3.2c1.3,0,1.5,0.2,1.5,1.5v0.7
				c0,0.2,0,0.8-0.8,0.8c-0.7,0-0.9-0.3-0.9-0.8v-0.9c0-0.2-0.1-0.3-0.3-0.3h-2.6V88.4z M75.1,95.3c-1.4,0-1.5-0.4-1.5-1.6h-2.4
				c-1.2,0-1.4-0.5-1.4-1.5v-1.5c0-1.1,0.5-1.4,1.4-1.4H78c0.9,0,1.4,0.3,1.4,1.4v1.5c0,0.1,0,0.2,0,0.4c0.9,0,0.9,0.6,0.9,0.8
				c0,0,0,1-0.3,1.4c-0.3,0.5-0.8,0.5-1.6,0.5H75.1z M73.3,87.4c0.1,0,0.3,0,0.3,0.3c0,0.3-0.2,0.3-0.3,0.3h-1.8
				c-0.2,0-0.3,0-0.3-0.3c0-0.2,0.1-0.3,0.3-0.3H73.3z M73.3,88.3c0.1,0,0.3,0,0.3,0.3c0,0.3-0.1,0.3-0.3,0.3h-1.8
				c-0.1,0-0.3,0-0.3-0.3c0-0.2,0.1-0.3,0.3-0.3H73.3z M73.6,90.9v-0.5h-1.8c-0.1,0-0.2,0.1-0.2,0.2v0.3H73.6z M73.6,92.5v-0.5h-2.1
				v0.3c0,0.1,0.1,0.2,0.2,0.2H73.6z M75.4,90.9h2.2v-0.3c0-0.1-0.1-0.2-0.2-0.2h-2V90.9z M75.4,91.9v0.5h2c0.1,0,0.2-0.1,0.2-0.2
				v-0.3H75.4z M75.4,93.9c0,0.3,0.2,0.3,0.3,0.3c0.3,0,2.3,0,2.5,0c0.3,0,0.3-0.2,0.4-0.5c-0.1,0-0.3,0.1-0.6,0.1h-2.6V93.9z
				 M77.9,87.4c0.2,0,0.3,0,0.3,0.3c0,0.2-0.1,0.3-0.3,0.3h-1.8c-0.2,0-0.3,0-0.3-0.3c0-0.2,0.1-0.3,0.3-0.3H77.9z M77.9,88.3
				c0.1,0,0.3,0,0.3,0.3c0,0.2-0.1,0.3-0.3,0.3h-1.8c-0.1,0-0.3,0-0.3-0.3c0-0.2,0.1-0.3,0.3-0.3H77.9z"/>
			<path class="st12" d="M86.4,86.2c0.2,0,0.7,0,0.7,0.7c0,0.6-0.3,0.7-0.7,0.7H83c-0.2,0-0.7,0-0.7-0.7c0-0.7,0.5-0.7,0.7-0.7H86.4
				z M86,84.4c0.2,0,0.7,0,0.7,0.7s-0.6,0.7-0.7,0.7h-2.7c-0.2,0-0.7,0-0.7-0.7c0-0.7,0.5-0.7,0.7-0.7H86z M86,88
				c0.2,0,0.7,0,0.7,0.7c0,0.7-0.5,0.7-0.7,0.7h-2.7c-0.2,0-0.7,0-0.7-0.7c0-0.7,0.5-0.7,0.7-0.7H86z M86,89.8c0.2,0,0.7,0,0.7,0.7
				c0,0.7-0.6,0.7-0.8,0.7h-2.6c-0.2,0-0.7,0-0.7-0.7c0-0.7,0.6-0.7,0.7-0.7H86z M86.7,93.9c0,1.1-0.2,1.4-1.3,1.4H84
				c-1.2,0-1.4-0.2-1.4-1.4v-1c0-1.1,0.2-1.4,1.4-1.4h1.3c1.1,0,1.4,0.2,1.4,1.4V93.9z M85.3,93c0-0.1-0.1-0.2-0.2-0.2h-0.5
				c-0.1,0-0.2,0.1-0.2,0.2v0.6c0,0.1,0.1,0.2,0.2,0.2H85c0.1,0,0.2-0.1,0.2-0.2V93z M89.5,89h-1.9c-0.2,0-0.8,0-0.8-0.8
				c0-0.7,0.4-0.8,0.8-0.8h1.9v-1.2c-0.4,0-1.3,0.1-1.6,0.1c-0.2,0-0.8,0-0.8-0.9c0-0.7,0.4-0.7,0.7-0.8c1.4,0,2-0.1,3.1-0.2
				c0.3,0,1.5-0.3,1.7-0.3c0.7,0,0.7,0.8,0.7,0.9c0,0.1,0,0.6-0.4,0.7c-0.3,0.1-0.9,0.2-1.8,0.3v1.3H93c0.2,0,0.8,0,0.8,0.8
				c0,0.7-0.5,0.8-0.8,0.8h-1.8v1.3h0.6c0.9,0,1.5,0.3,1.5,1.5v2.1c0,1.1-0.5,1.5-1.5,1.5h-3c-1,0-1.5-0.3-1.5-1.5v-2.1
				c0-1.2,0.5-1.5,1.5-1.5h0.6V89z M91.5,92.2c0-0.2-0.1-0.3-0.3-0.3h-1.8c-0.2,0-0.3,0.1-0.3,0.3v1.1c0,0.2,0.1,0.3,0.3,0.3h1.8
				c0.2,0,0.3-0.1,0.3-0.3V92.2z"/>
		</g>
	</g>
</g>
<g id="レイヤー_9">
</g>
<g id="suitcase">
</g>
<g id="レイヤー_11">
</g>
<g id="レイヤー_12_2_">
</g>
<g id="ico_x5F_point">
</g>
<g id="treatment">
</g>
<g id="unknown">
</g>
<g id="number">
</g>
<g id="ico_x5F_user">
</g>
<g id="ico_x5F_helpdesk_1_">
</g>
<g id="がいど">
</g>
</svg>
