<?xml version="1.0" encoding="utf-8"?>
<!-- Generator: Adobe Illustrator 22.0.1, SVG Export Plug-In . SVG Version: 6.00 Build 0)  -->
<svg version="1.1" xmlns="http://www.w3.org/2000/svg" xmlns:xlink="http://www.w3.org/1999/xlink" x="0px" y="0px"
	 viewBox="0 0 112 112" style="enable-background:new 0 0 112 112;" xml:space="preserve">
<style type="text/css">
	.st0{fill:#1474B8;}
	.st1{fill:#FFFFFF;}
	.st2{display:none;fill:#4D4D4D;stroke:#4D4D4D;stroke-width:2.2677;stroke-miterlimit:10;}
	.st3{fill:#D1D1D1;}
	.st4{fill:#4D4D4D;}
	.st5{fill:#E25450;}
	.st6{fill:#FFFFFF;stroke:#4D4D4D;stroke-width:2.2677;stroke-miterlimit:10;}
	.st7{fill:#606060;}
	.st8{fill-rule:evenodd;clip-rule:evenodd;fill:#E35450;}
	.st9{fill:#F5F4F4;}
	.st10{fill:#585757;}
	.st11{fill:#F5F4F5;}
	.st12{fill:#4B4948;}
	.st13{fill:#84AC67;}
	.st14{fill:#F7DB52;}
</style>
<g id="コールセンター">
</g>
<g id="confirm">
</g>
<g id="がいど">
	<g>
		<g>
			<path class="st0" d="M60.6,39.6l2.5,5.4l0,0l0,0c1.1,2.2,3.4,3.5,6.5,3.5c1.9,0,3.8-0.5,5.8-1.4l0,0l0,0l2.3-1.1l1.9,10
				c0.3,2,1.9,3.5,4,3.6l0.2,0c2,0,3.7-1.4,4.1-3.3L91.8,39l6.9-3.4c6.8-3.3,9.3-6.7,7.7-10.1c-0.6-1.1-2.1-3-6.1-3
				c-2.7,0-6.1,0.9-9,2.3l-6.9,3.4l-0.1-0.1l-9.2-4.1l-0.2-0.1L74.7,24c-0.3-0.1-0.7-0.1-1-0.1c-1.4,0-2.7,0.7-3.4,1.9
				c-0.9,1.5-0.7,3.3,0.4,4.6l2.6,3.4L71,34.9c-0.1,0-0.2,0.1-0.3,0.1l-0.2,0l0,0l0,0l-4.5-1.3c-0.4-0.1-0.8-0.2-1.3-0.2
				c-1.3,0-2.5,0.5-3.3,1.5C60.1,36.2,59.9,38,60.6,39.6z M63.4,36.7c0.3-0.3,0.7-0.5,1.2-0.5c0.2,0,0.3,0,0.5,0.1l4.6,1.3
				c0.4,0.1,0.7,0.2,1.1,0.2c0.5,0,1.1-0.1,1.6-0.4l5.3-2.6l-4.7-6.2c-0.4-0.4-0.4-0.9-0.2-1.4c0.2-0.4,0.6-0.6,1-0.6
				c0.1,0,0.2,0,0.3,0l9.2,4.1l-3.4,1.6L81,33l3.5-1.7l8.1-4c1.8-0.9,3.9-1.6,5.8-1.8c0.2,0.3,0.3,0.6,0.3,0.6c0.2,0.5,0,1.5-1.2,2
				l0.9,1.9c0,0,3.7-1.5,2.2-4.6c1.6,0,2.9,0.5,3.3,1.4c1.1,2.3-4.1,5.2-6.4,6.3l-8.1,4l-4.2,18.5c-0.1,0.7-0.7,1.1-1.4,1.1l-0.1,0
				c-0.7,0-1.3-0.6-1.3-1.3l-2.3-12l0,0l-0.3-1.7l-0.2-1.2l-1,0.7l0.2,1.1l-4.5,2.2c-1.6,0.7-3.2,1.1-4.6,1.1c-1.8,0-3.3-0.6-4-1.9
				l-2.5-5.4C62.9,37.8,63,37.2,63.4,36.7z"/>
			<path class="st0" d="M93.5,31.1c0,0.6,0.5,1.2,1.2,1.2c0.6,0,1.2-0.5,1.2-1.2S95.3,30,94.7,30C94,30,93.5,30.5,93.5,31.1z"/>
			<path class="st0" d="M89,33.2c0,0.6,0.5,1.2,1.2,1.2c0.6,0,1.2-0.5,1.2-1.2s-0.5-1.2-1.2-1.2C89.6,32.1,89,32.6,89,33.2z"/>
			<path class="st0" d="M84.6,35.3c0,0.6,0.5,1.2,1.2,1.2c0.6,0,1.2-0.5,1.2-1.2c0-0.6-0.5-1.2-1.2-1.2
				C85.1,34.2,84.6,34.7,84.6,35.3z"/>
			<path class="st0" d="M80.1,37.4c0,0.6,0.5,1.2,1.2,1.2c0.6,0,1.2-0.5,1.2-1.2c0-0.6-0.5-1.2-1.2-1.2
				C80.6,36.3,80.1,36.8,80.1,37.4z"/>
		</g>
		<g>
			<path id="XMLID_4423_" class="st9" d="M51.1,59c7.1-4,11.8-11.6,11.8-20.4c0-13-10.5-23.5-23.5-23.5S16,25.6,16,38.6
				c0,8.7,4.8,16.3,11.8,20.4C18,63.5,11.1,73.6,11.1,85.4v11.5h56.7V85.4C67.8,73.6,60.9,63.5,51.1,59z"/>
			<g>
				<path id="XMLID_4420_" class="st10" d="M39.5,15.1c13,0,23.5,10.5,23.5,23.5c0,8.7-4.8,16.3-11.8,20.4
					c9.9,4.5,16.7,14.7,16.7,26.4v11.5H11.1V85.4c0-11.8,6.9-21.9,16.7-26.4C20.8,54.9,16,47.3,16,38.6C16,25.6,26.5,15.1,39.5,15.1
					 M39.5,9.1C23.2,9.1,10,22.4,10,38.6c0,7.4,2.8,14.4,7.7,19.8c-7.8,6.6-12.5,16.4-12.5,27v11.5c0,3.3,2.7,6,6,6h56.7
					c3.3,0,6-2.7,6-6V85.4c0-10.6-4.7-20.5-12.5-27c4.8-5.3,7.7-12.4,7.7-19.8C68.9,22.4,55.7,9.1,39.5,9.1L39.5,9.1z"/>
				<ellipse id="XMLID_4419_" class="st10" cx="29.7" cy="33.8" rx="2.7" ry="4.6"/>
				<ellipse id="XMLID_4418_" class="st10" cx="48.4" cy="33.8" rx="2.7" ry="4.6"/>
				<path id="XMLID_4374_" class="st10" d="M38.7,52.4c-6.6,0-9.4-4.8-9.4-8.8H33c0.3,2.9,2.2,5,5.7,5c3.9,0,6.4-2,6.4-5h3.5
					C48.6,47.7,45.7,52.4,38.7,52.4z"/>
			</g>
		</g>
		<g>
			<path class="st10" d="M82.4,102.9c-0.9,0-1.7-0.3-2.3-0.9L67.6,89.8c-1-1-1.6-2.4-1.6-3.9V60.6c0-1.3,0.8-2.5,2-3
				c0.4-0.2,0.8-0.3,1.3-0.3c0.9,0,1.7,0.3,2.3,0.9l10.9,10.6l10.9-10.6c0.6-0.6,1.4-0.9,2.3-0.9c0.4,0,0.9,0.1,1.3,0.3
				c1.2,0.5,2,1.7,2,3v25.4c0,1.4-0.6,2.9-1.6,3.9l-12.6,12.1C84.1,102.5,83.2,102.9,82.4,102.9z M69.6,85.9c0,0.4,0.2,0.9,0.5,1.2
				L82.4,99l12.3-11.9c0.3-0.3,0.5-0.8,0.5-1.2V61.6L82.4,73.9L69.6,61.6V85.9z"/>
			<g>
				<path class="st13" d="M82.4,73.9V99l12.3-11.8c0.3-0.3,0.5-0.8,0.5-1.2V61.6L82.4,73.9z"/>
				<path class="st14" d="M82.4,73.9L69.6,61.6v24.4c0,0.4,0.2,0.9,0.5,1.2L82.4,99l0,0L82.4,73.9L82.4,73.9z"/>
			</g>
		</g>
	</g>
</g>
</svg>
