<?xml version="1.0" encoding="utf-8"?>
<!-- Generator: Adobe Illustrator 22.0.1, SVG Export Plug-In . SVG Version: 6.00 Build 0)  -->
<svg version="1.1" xmlns="http://www.w3.org/2000/svg" xmlns:xlink="http://www.w3.org/1999/xlink" x="0px" y="0px"
	 viewBox="0 0 112 112" style="enable-background:new 0 0 112 112;" xml:space="preserve">
<style type="text/css">
	.st0{fill:#D1D1D1;}
	.st1{fill:#4B4B4B;}
	.st2{fill:#F5F4F4;}
	.st3{fill:#4D4D4D;}
	.st4{fill:#FFFFF3;}
	.st5{fill:#FFFFFF;}
	.st6{fill:#4B4948;}
	.st7{fill:#4C4948;}
	.st8{fill:#1474B8;}
	.st9{fill:#F5F4F5;}
	.st10{fill:#606060;}
	.st11{fill:#E25450;}
	.st12{fill:#E35450;}
	.st13{fill:#FFFFFF;stroke:#4D4D4D;stroke-width:2.126;stroke-miterlimit:10;}
	.st14{display:none;fill:#1474B8;}
	.st15{fill:#FFFFFF;stroke:#B3B3B3;stroke-miterlimit:10;}
	.st16{fill:#156A9E;}
	.st17{fill:#F6F5F5;}
	.st18{fill:#F1CF49;}
	.st19{fill:#EEFCFF;}
	.st20{fill-rule:evenodd;clip-rule:evenodd;fill:#E25450;}
	.st21{fill:#575757;}
	.st22{fill:#585757;}
	.st23{fill-rule:evenodd;clip-rule:evenodd;fill:#E35450;}
	.st24{display:none;fill:#4D4D4D;stroke:#4D4D4D;stroke-width:2.2677;stroke-miterlimit:10;}
	.st25{fill:#FFFFFF;stroke:#4D4D4D;stroke-width:2.2677;stroke-miterlimit:10;}
	.st26{fill:#84AC67;}
	.st27{fill:#F7DB52;}
</style>
<g id="レイヤー_8">
</g>
<g id="レイヤー_15">
</g>
<g id="レイヤー_13">
</g>
<g id="レイヤー_14">
</g>
<g id="レイヤー_9">
	<circle class="st14" cx="65.5" cy="46.7" r="46.7"/>
	<g>
		<g>
			<rect x="18" class="st15" width="77.6" height="49.2"/>
			<circle class="st12" cx="56.8" cy="24.2" r="13.6"/>
		</g>
		<g>
			<g>
				<path class="st0" d="M107.6,70.3h-2.5c-2.1,0-3.7,1.7-3.7,3.7v17.2H52.3V74c0-2.1-1.7-3.7-3.7-3.7h-2.4c-2.1,0-3.8,1.7-3.8,3.8
					V98c0,2.1,1.7,3.8,3.8,3.8h6.2h49.1h6.2c2.1,0,3.8-1.7,3.8-3.8V74.1C111.4,72,109.7,70.3,107.6,70.3z"/>
				<polygon class="st1" points="49.8,110.7 53.8,110.7 54.3,103.5 49.3,103.5 				"/>
				<polygon class="st1" points="100,110.7 104,110.7 104.5,103.5 99.5,103.5 				"/>
				<path class="st0" d="M54.4,72.6v16.5h44.9V72.6c0-2.4,2-4.4,4.4-4.4h0.1v-3.9c0-4.3-3.6-7.9-7.9-7.9H57.7
					c-4.3,0-7.9,3.6-7.9,7.9v3.9h0.1C52.4,68.2,54.4,70.2,54.4,72.6z"/>
			</g>
		</g>
		<g id="ico_x5F_lounge_1_">
			<g>
				<path id="XMLID_23_" class="st2" d="M36.5,77.7c5.5-3.1,9.2-9.1,9.2-15.9c0-10.2-8.2-18.3-18.3-18.3S9,51.6,9,61.8
					c0,6.8,3.8,12.8,9.2,15.9C10.6,81.3,5.2,89.2,5.2,98.4v9h44.4v-9C49.5,89.2,44.1,81.2,36.5,77.7z"/>
				<g>
					<path id="XMLID_22_" class="st3" d="M27.4,43.4c10.2,0,18.3,8.2,18.3,18.3c0,6.8-3.8,12.8-9.2,15.9
						c7.7,3.5,13.1,11.5,13.1,20.6v9H5.2v-9c0-9.2,5.4-17.1,13.1-20.7C12.7,74.5,9,68.5,9,61.7C9,51.6,17.2,43.4,27.4,43.4
						 M27.4,38.7c-12.7,0-23,10.4-23,23.1c0,5.8,2.2,11.3,6,15.5c-6.1,5-9.8,12.8-9.8,21.1v9c0,2.6,2.1,4.7,4.7,4.7h44.4
						c2.6,0,4.7-2.1,4.7-4.7v-9c0-8.3-3.7-16-9.8-21.1c3.8-4.2,6-9.7,6-15.5C50.4,49.1,40.1,38.7,27.4,38.7L27.4,38.7z"/>
					<ellipse id="XMLID_20_" class="st3" cx="19.7" cy="57.9" rx="2.1" ry="3.6"/>
					<ellipse id="XMLID_19_" class="st3" cx="34.3" cy="57.9" rx="2.1" ry="3.6"/>
					<path id="XMLID_13_" class="st3" d="M26.8,72.6c-5.1,0-7.3-3.8-7.3-6.9h2.9c0.3,2.3,1.7,3.9,4.5,3.9c3.1,0,5-1.6,5-3.9h2.8
						C34.5,68.8,32.3,72.6,26.8,72.6z"/>
				</g>
			</g>
		</g>
		<g>
			<path class="st4" d="M40.1,104.9h-4.5v3c0,1.9,1.5,3.5,3.5,3.5h21.6c1.9,0,3.5-1.5,3.5-3.5v-3h-4.9c0.1-0.1,0.2-0.1,0.2-0.2l0,0
				l0,0c1.7-1.4,3-3.1,3.8-5.2c0.3,0.1,0.7,0.1,1,0.1c0.2,0,0.3,0,0.5,0c2.4-0.2,4.5-1.1,6.1-2.6s2.5-3.7,2.5-6.1
				c0-4.8-3.9-8.7-8.7-8.7c-0.4,0-6.8,0-13.2,0c-6.4,0-12.6,0-12.6,0c-1.8,0-3.3,1.5-3.3,3.3v9c0,3.4,0.8,6.1,2.4,8.1
				C38.6,103.6,39.2,104.3,40.1,104.9z"/>
			<g>
				<path class="st1" d="M40.1,104.9h-4.5v3c0,1.9,1.5,3.5,3.5,3.5h21.6c1.9,0,3.5-1.5,3.5-3.5v-3h-4.9c0.1-0.1,0.2-0.1,0.2-0.2l0,0
					l0,0c1.7-1.4,3-3.1,3.8-5.2c0.3,0.1,0.7,0.1,1,0.1c0.2,0,0.3,0,0.5,0c2.4-0.2,4.5-1.1,6.1-2.6s2.5-3.7,2.5-6.1
					c0-4.8-3.9-8.7-8.7-8.7c-0.4,0-6.8,0-13.2,0c-6.4,0-12.6,0-12.6,0c-1.8,0-3.3,1.5-3.3,3.3v9c0,3.4,0.8,6.1,2.4,8.1
					C38.6,103.6,39.2,104.3,40.1,104.9z M44.2,107.1H55h7v0.8c0,0.8-0.6,1.4-1.4,1.4H39c-0.8,0-1.4-0.6-1.4-1.4v-0.8H44.2z
					 M39.7,101.6c-1.2-1.7-2-3.8-2-6.9v-9c0-0.6,0.5-1.1,1.1-1.1c0,0,25.1,0,25.8,0c1.8,0,3.4,0.7,4.6,1.9c1.1,1.1,1.9,2.8,1.9,4.6
					s-0.7,3.4-1.9,4.5c-1.1,1.1-2.8,1.9-4.7,2c-0.2,0-0.2,0-0.4,0c-0.5,0-1-0.1-1.4-0.2l-1-0.3l-0.3,1c-0.6,2-1.8,3.8-3.4,5.1l0,0
					l0,0c-0.2,0.2-0.5,0.5-1.1,0.8c-0.5,0.3-1.3,0.7-2.1,1H44.5C42.5,104.2,40.9,103.2,39.7,101.6z"/>
				<path class="st1" d="M62.3,87.5l-0.5,0.2v6.4l0.5,0.2c0.5,0.3,1.2,0.5,1.9,0.5c2.2,0,4-1.8,4-4c0-2.2-1.8-4-4-4
					C63.5,87.1,62.8,87.2,62.3,87.5z M63.7,88.9c0.2-0.1,0.4-0.1,0.6-0.1c1.2,0,2.1,1,2.1,2.1c0,1.2-1,2.1-2.1,2.1
					c-0.2,0-0.4,0-0.6-0.1V88.9z"/>
			</g>
		</g>
	</g>
</g>
<g id="suitcase">
</g>
<g id="レイヤー_11">
</g>
<g id="レイヤー_12_2_">
</g>
<g id="ico_x5F_point">
</g>
<g id="treatment">
</g>
<g id="unknown">
</g>
<g id="number">
</g>
<g id="ico_x5F_user">
</g>
<g id="ico_x5F_helpdesk_1_">
</g>
<g id="がいど">
</g>
</svg>
