<?xml version="1.0" encoding="utf-8"?>
<!-- Generator: Adobe Illustrator 22.0.1, SVG Export Plug-In . SVG Version: 6.00 Build 0)  -->
<svg version="1.1" xmlns="http://www.w3.org/2000/svg" xmlns:xlink="http://www.w3.org/1999/xlink" x="0px" y="0px"
	 viewBox="0 0 112 112" style="enable-background:new 0 0 112 112;" xml:space="preserve">
<style type="text/css">
	.st0{fill:#D1D1D1;}
	.st1{fill:#4B4B4B;}
	.st2{fill:#F5F4F4;}
	.st3{fill:#4D4D4D;}
	.st4{fill:#FFFFF3;}
	.st5{fill:#FFFFFF;}
	.st6{fill:#4B4948;}
	.st7{fill:#4C4948;}
	.st8{fill:#1474B8;}
	.st9{fill:#F5F4F5;}
	.st10{fill:#606060;}
	.st11{fill:#E25450;}
	.st12{fill:#E35450;}
	.st13{fill:#FFFFFF;stroke:#4D4D4D;stroke-width:2.126;stroke-miterlimit:10;}
	.st14{display:none;fill:#1474B8;}
	.st15{fill:#FFFFFF;stroke:#B3B3B3;stroke-miterlimit:10;}
	.st16{fill:#156A9E;}
	.st17{fill:#F6F5F5;}
	.st18{fill:#F1CF49;}
	.st19{fill:#EEFCFF;}
	.st20{fill-rule:evenodd;clip-rule:evenodd;fill:#E25450;}
	.st21{fill:#575757;}
	.st22{fill:#585757;}
	.st23{fill-rule:evenodd;clip-rule:evenodd;fill:#E35450;}
	.st24{display:none;fill:#4D4D4D;stroke:#4D4D4D;stroke-width:2.2677;stroke-miterlimit:10;}
	.st25{fill:#FFFFFF;stroke:#4D4D4D;stroke-width:2.2677;stroke-miterlimit:10;}
	.st26{fill:#84AC67;}
	.st27{fill:#F7DB52;}
</style>
<g id="レイヤー_8">
</g>
<g id="レイヤー_15">
</g>
<g id="レイヤー_13">
</g>
<g id="レイヤー_14">
</g>
<g id="レイヤー_9">
</g>
<g id="suitcase">
</g>
<g id="レイヤー_11">
</g>
<g id="レイヤー_12_2_">
</g>
<g id="ico_x5F_point">
</g>
<g id="treatment">
</g>
<g id="unknown">
</g>
<g id="number">
	<g>
		<g>
			<circle class="st23" cx="22.3" cy="22.3" r="22.3"/>
			<g>
				<path class="st5" d="M7.8,24.1l1.1-1.8L7,21.4l0.4-1.2l2.1,0.5l0.2-2.1h1.3l0.2,2.1l2.1-0.5l0.4,1.2l-1.9,0.9l1.1,1.8l-1,0.7
					l-1.4-1.6l-1.4,1.6L7.8,24.1z"/>
				<path class="st5" d="M16,24.1l1.1-1.8l-1.9-0.9l0.4-1.2l2.1,0.5l0.2-2.1h1.3l0.2,2.1l2.1-0.5l0.4,1.2l-1.9,0.9l1.1,1.8l-1,0.7
					l-1.4-1.6L17,24.9L16,24.1z"/>
				<path class="st5" d="M24.2,24.1l1.1-1.8l-1.9-0.9l0.4-1.2l2.1,0.5l0.2-2.1h1.3l0.2,2.1l2.1-0.5l0.4,1.2L28,22.3l1.1,1.8l-1,0.7
					l-1.4-1.6l-1.4,1.6L24.2,24.1z"/>
				<path class="st5" d="M32.3,24.1l1.1-1.8l-1.9-0.9l0.4-1.2l2.1,0.5l0.2-2.1h1.3l0.2,2.1l2.1-0.5l0.4,1.2l-1.9,0.9l1.1,1.8l-1,0.7
					l-1.4-1.6l-1.4,1.6L32.3,24.1z"/>
			</g>
			<circle class="st23" cx="34" cy="40.8" r="5"/>
			<circle class="st23" cx="40.5" cy="48" r="2.8"/>
		</g>
		<g>
			<path id="XMLID_8_" class="st2" d="M85.2,52.4c7.4-4.3,12.5-12.2,12.5-21.4c0-13.6-11-24.7-24.7-24.7S48.3,17.4,48.3,31
				c0,9.2,5,17.2,12.5,21.4c-10.4,4.8-17.6,15.4-17.6,27.8v12.1h59.7V80.2C102.9,67.8,95.6,57.2,85.2,52.4z"/>
			<path id="XMLID_5_" class="st22" d="M73,6.3c13.6,0,24.7,11,24.7,24.7c0,9.2-5,17.2-12.5,21.4c10.4,4.8,17.6,15.4,17.6,27.8v12.1
				H43.2V80.2c0-12.4,7.2-23,17.6-27.8C53.4,48.2,48.3,40.2,48.3,31C48.3,17.4,59.4,6.3,73,6.3 M73,0C55.9,0,42,13.9,42,31
				c0,7.8,3,15.2,8.1,20.8c-8.2,6.9-13.2,17.3-13.2,28.4v12.1c0,3.5,2.8,6.3,6.3,6.3h59.7c3.5,0,6.3-2.8,6.3-6.3V80.2
				c0-11.1-5-21.5-13.2-28.4c5.1-5.6,8.1-13,8.1-20.8C104,13.9,90.1,0,73,0L73,0z"/>
			<ellipse id="XMLID_4_" class="st22" cx="60.6" cy="25.9" rx="2.8" ry="4.8"/>
			<ellipse id="XMLID_3_" class="st22" cx="80.4" cy="25.9" rx="2.8" ry="4.8"/>
			<path id="XMLID_2_" class="st22" d="M70.1,45.6c-6.9,0-9.9-5-9.9-9.2h3.9c0.4,3.1,2.3,5.3,6,5.3c4.1,0,6.7-2.1,6.7-5.3h3.7
				C80.6,40.5,77.5,45.6,70.1,45.6z"/>
			<g>
				<path class="st9" d="M72.2,108.9c-0.1,0-0.2,0-0.3,0l-54.6-4.8c-1.1-0.1-2.1-0.8-2.5-1.9L3.3,75.1c-0.5-1.3-0.2-2.8,0.9-3.6
					l8.3-6.5c0.5-0.4,1.2-0.6,1.9-0.6c0,0,53.9,1.9,53.9,1.9c1.2,0,2.2,0.8,2.7,1.9l9,21.1L91.5,91c1.1,0.2,2,0.9,2.4,2l3,8.1
					c0.3,0.8,0.2,1.8-0.2,2.6c-0.5,0.8-1.2,1.3-2.1,1.5l-21.8,3.8C72.6,108.9,72.4,108.9,72.2,108.9z"/>
				<path class="st22" d="M14.4,67.4l53.8,1.9L77.9,92l13.1,2l3,8.1l-21.8,3.8l-54.6-4.8L6.1,73.9L14.4,67.4 M14.4,61.3
					c-1.4,0-2.7,0.4-3.7,1.3l-8.3,6.5c-2.2,1.7-3,4.7-1.9,7.2L12,103.5c0.9,2.1,2.8,3.5,5.1,3.7l54.6,4.8c0.2,0,0.4,0,0.5,0
					c0.3,0,0.7,0,1-0.1l21.8-3.8c1.8-0.3,3.3-1.4,4.2-3s1.1-3.5,0.5-5.1l-3-8.1C96,89.8,94.2,88.3,92,88l-9.8-1.5l-8.3-19.6
					c-0.9-2.2-3-3.6-5.4-3.7l-53.8-1.9C14.6,61.3,14.5,61.3,14.4,61.3L14.4,61.3z"/>
			</g>
			<g>
				<path class="st6" d="M71.7,101.4c-0.9,0-1.9-0.6-2.2-1.5l-9-21.3l-47.5-1.7c-1.3,0-2.4-1.2-2.3-2.5c0-1.3,1.2-2.4,2.5-2.3
					l49.1,1.8c0.9,0,1.8,0.6,2.2,1.5L73.9,98c0.5,1.2-0.1,2.7-1.3,3.2C72.3,101.3,72,101.4,71.7,101.4z"/>
			</g>
		</g>
	</g>
</g>
<g id="ico_x5F_user">
</g>
<g id="ico_x5F_helpdesk_1_">
</g>
<g id="がいど">
</g>
</svg>
