<?xml version="1.0" encoding="utf-8"?>
<!-- Generator: Adobe Illustrator 22.0.1, SVG Export Plug-In . SVG Version: 6.00 Build 0)  -->
<svg version="1.1" xmlns="http://www.w3.org/2000/svg" xmlns:xlink="http://www.w3.org/1999/xlink" x="0px" y="0px"
	 viewBox="0 0 112 112" style="enable-background:new 0 0 112 112;" xml:space="preserve">
<style type="text/css">
	.st0{fill:#D1D1D1;}
	.st1{fill:#4B4B4B;}
	.st2{fill:#F5F4F4;}
	.st3{fill:#4D4D4D;}
	.st4{fill:#FFFFF3;}
	.st5{fill:#FFFFFF;}
	.st6{fill:#4B4948;}
	.st7{fill:#4C4948;}
	.st8{fill:#1474B8;}
	.st9{fill:#F5F4F5;}
	.st10{fill:#606060;}
	.st11{fill:#E25450;}
	.st12{fill:#E35450;}
	.st13{fill:#FFFFFF;stroke:#4D4D4D;stroke-width:2.126;stroke-miterlimit:10;}
	.st14{display:none;fill:#1474B8;}
	.st15{fill:#FFFFFF;stroke:#B3B3B3;stroke-miterlimit:10;}
	.st16{fill:#156A9E;}
	.st17{fill:#F6F5F5;}
	.st18{fill:#F1CF49;}
	.st19{fill:#EEFCFF;}
	.st20{fill-rule:evenodd;clip-rule:evenodd;fill:#E25450;}
	.st21{fill:#575757;}
	.st22{fill:#585757;}
	.st23{fill-rule:evenodd;clip-rule:evenodd;fill:#E35450;}
	.st24{display:none;fill:#4D4D4D;stroke:#4D4D4D;stroke-width:2.2677;stroke-miterlimit:10;}
	.st25{fill:#FFFFFF;stroke:#4D4D4D;stroke-width:2.2677;stroke-miterlimit:10;}
	.st26{fill:#84AC67;}
	.st27{fill:#F7DB52;}
</style>
<g id="レイヤー_8">
</g>
<g id="レイヤー_15">
</g>
<g id="レイヤー_13">
</g>
<g id="レイヤー_14">
</g>
<g id="レイヤー_9">
</g>
<g id="suitcase">
</g>
<g id="レイヤー_11">
</g>
<g id="レイヤー_12_2_">
</g>
<g id="ico_x5F_point">
	<g>
		<g>
			<path class="st0" d="M87.5,26.4h-8.1v22.4h4.3v-7.2h3.8c4.2,0.1,7.6-3.3,7.7-7.5c0.1-4.2-3.3-7.6-7.5-7.7
				C87.6,26.4,87.5,26.4,87.5,26.4L87.5,26.4z M87.2,37.5h-3.6v-7.2h3.6c1.9,0,3.4,1.5,3.4,3.4c0,0,0,0.1,0,0.1
				C90.7,35.8,89.2,37.5,87.2,37.5C87.2,37.5,87.2,37.5,87.2,37.5L87.2,37.5z"/>
			<path class="st0" d="M85.5,10.7c-14.7,0-26.5,11.9-26.5,26.5s11.9,26.5,26.5,26.5S112,51.8,112,37.2S100.1,10.7,85.5,10.7z
				 M85.5,59.9c-12.6,0-22.7-10.2-22.7-22.7s10.2-22.7,22.7-22.7s22.7,10.2,22.7,22.7C108.2,49.7,98,59.9,85.5,59.9z"/>
		</g>
		<g>
			<path id="_パス__2_" class="st2" d="M51.4,59.3c12.6-7.2,17-23.2,9.8-35.8S38,6.5,25.4,13.7s-17,23.2-9.8,35.8
				c2.3,4.1,5.7,7.5,9.8,9.8C14,64.7,6.7,76.2,6.7,88.9v12.8h63.4V88.9C70.2,76.2,62.9,64.7,51.4,59.3z"/>
			<path id="_複合パス__2_" class="st3" d="M38.4,10.3c14.5,0,26.2,11.7,26.2,26.2c0,9.4-5,18.1-13.2,22.8
				c11.5,5.4,18.8,16.9,18.7,29.6v12.8H6.7V88.9C6.7,76.2,14,64.7,25.4,59.3c-12.6-7.2-17-23.2-9.8-35.8
				C20.3,15.4,29,10.3,38.4,10.3 M38.4,3.6C20.2,3.6,5.5,18.3,5.5,36.5c0,8.2,3,16.1,8.6,22.2C5.1,66.2,0,77.2,0,88.9v12.8
				c0,3.7,3,6.7,6.7,6.7h63.4c3.7,0,6.7-3,6.7-6.7V88.9c0-11.6-5.1-22.7-14-30.2C75,45.2,74,24.4,60.6,12.1
				C54.5,6.6,46.6,3.6,38.4,3.6z"/>
			<ellipse id="_パス_2_2_" class="st3" cx="27.5" cy="31.1" rx="3" ry="5.1"/>
			<ellipse id="_パス_3_2_" class="st3" cx="48.4" cy="31.1" rx="3" ry="5.1"/>
			<path id="_パス_4_2_" class="st3" d="M37.6,52c-7.3,0-10.5-5.3-10.5-9.8h4.2c0.2,3.3,2.9,5.8,6.2,5.7c0.1,0,0.1,0,0.2,0
				c4.3,0,7.2-2.3,7.2-5.6h3.9C48.7,46.7,45.4,52,37.6,52z"/>
			<rect x="48.1" y="74.2" class="st17" width="47.1" height="32.1"/>
			<path class="st3" d="M93,76.3v27.8H50.2V76.3H93 M93,72H50.2c-2.4,0-4.3,1.9-4.3,4.3v27.8c0,2.4,1.9,4.3,4.3,4.3H93
				c2.4,0,4.3-1.9,4.3-4.3V76.3C97.3,74,95.3,72,93,72z"/>
			<path id="_長方形__2_" class="st18" d="M79.1,91.3h8.6c1.2,0,2.1,1,2.1,2.1v5.3c0,1.2-1,2.1-2.1,2.1h-8.6
				c-1.2,0-2.1-1-2.1-2.1v-5.3C76.9,92.3,77.9,91.3,79.1,91.3z"/>
			<polygon class="st3" points="94,80.6 49.1,80.6 49.1,87 94,87 94,80.6 			"/>
		</g>
	</g>
</g>
<g id="treatment">
</g>
<g id="unknown">
</g>
<g id="number">
</g>
<g id="ico_x5F_user">
</g>
<g id="ico_x5F_helpdesk_1_">
</g>
<g id="がいど">
</g>
</svg>
