<?xml version="1.0" encoding="utf-8"?>
<!-- Generator: Adobe Illustrator 22.0.1, SVG Export Plug-In . SVG Version: 6.00 Build 0)  -->
<svg version="1.1" xmlns="http://www.w3.org/2000/svg" xmlns:xlink="http://www.w3.org/1999/xlink" x="0px" y="0px"
	 viewBox="0 0 112 112" style="enable-background:new 0 0 112 112;" xml:space="preserve">
<style type="text/css">
	.st0{fill:#D1D1D1;}
	.st1{fill:#4B4B4B;}
	.st2{fill:#F5F4F4;}
	.st3{fill:#4D4D4D;}
	.st4{fill:#FFFFF3;}
	.st5{fill:#1474B8;}
	.st6{fill:#FFFFFF;}
	.st7{display:none;fill:#4D4D4D;stroke:#4D4D4D;stroke-width:2.2677;stroke-miterlimit:10;}
	.st8{fill:#E25450;}
	.st9{fill:#FFFFFF;stroke:#4D4D4D;stroke-width:2.2677;stroke-miterlimit:10;}
	.st10{fill:#606060;}
	.st11{fill:#E35450;}
	.st12{fill:#FFF9C1;}
	.st13{fill:#84AC67;}
	.st14{fill:#F7DB52;}
</style>
<g id="ico_x5F_lounge">
	<g>
		<g>
			<path class="st0" d="M108.4,29.5H106c-2,0-3.5,1.6-3.5,3.5v16.4H55.7V33c0-2-1.6-3.5-3.5-3.5h-2.3c-2,0-3.6,1.6-3.6,3.6v22.8
				c0,2,1.6,3.6,3.6,3.6h5.9h46.8h5.9c2,0,3.6-1.6,3.6-3.6V33.1C112,31.1,110.4,29.5,108.4,29.5z"/>
			<polygon class="st1" points="53.3,68 57.1,68 57.6,61.1 52.8,61.1 			"/>
			<polygon class="st1" points="101.1,68 104.9,68 105.4,61.1 100.6,61.1 			"/>
			<path class="st0" d="M57.7,31.7v15.7h42.8V31.7c0-2.3,1.9-4.2,4.2-4.2h0.1v-3.7c0-4.1-3.4-7.5-7.5-7.5H60.8
				c-4.1,0-7.5,3.4-7.5,7.5v3.7h0.1C55.8,27.5,57.7,29.4,57.7,31.7z"/>
		</g>
	</g>
	<g>
		<path id="XMLID_35_" class="st2" d="M50.6,59.3c7.8-4.4,13-12.8,13-22.4c0-14.3-11.6-25.8-25.8-25.8S12,22.6,12,36.9
			c0,9.6,5.3,18,13,22.4c-10.8,5-18.4,16.1-18.4,29.1v12.6H69V88.3C69,75.4,61.4,64.2,50.6,59.3z"/>
		<g>
			<path id="XMLID_32_" class="st3" d="M37.8,11.1c14.3,0,25.8,11.6,25.8,25.8c0,9.6-5.3,18-13,22.4C61.4,64.2,69,75.4,69,88.3v12.6
				H6.6V88.3c0-13,7.6-24.1,18.4-29.1c-7.8-4.4-13-12.8-13-22.4C12,22.6,23.5,11.1,37.8,11.1 M37.8,4.4C19.9,4.4,5.4,19,5.4,36.9
				c0,8.1,3.1,15.9,8.4,21.8C5.2,65.8,0,76.7,0,88.3v12.6c0,3.6,3,6.6,6.6,6.6H69c3.6,0,6.6-3,6.6-6.6V88.3
				c0-11.7-5.2-22.5-13.8-29.7c5.3-5.9,8.4-13.6,8.4-21.8C70.2,19,55.7,4.4,37.8,4.4L37.8,4.4z"/>
			<ellipse id="XMLID_31_" class="st3" cx="27" cy="31.5" rx="3" ry="5"/>
			<ellipse id="XMLID_30_" class="st3" cx="47.6" cy="31.5" rx="3" ry="5"/>
			<path id="XMLID_29_" class="st3" d="M37,52.1c-7.2,0-10.3-5.3-10.3-9.7h4.1c0.4,3.2,2.4,5.5,6.3,5.5c4.3,0,7-2.2,7-5.5h3.9
				C47.9,46.8,44.7,52.1,37,52.1z"/>
		</g>
	</g>
	<g>
		<path class="st4" d="M62.2,98.7h-5.9v3.9c0,2.5,2,4.6,4.6,4.6h28.2c2.5,0,4.6-2,4.6-4.6v-3.9h-6.4c0.1-0.1,0.2-0.1,0.2-0.2l0,0
			l0,0c2.2-1.8,3.9-4.1,4.9-6.8c0.4,0.1,0.9,0.1,1.3,0.1c0.2,0,0.4,0,0.6,0c3.1-0.2,5.9-1.4,7.9-3.4c2-2,3.3-4.8,3.3-7.9
			c0-6.2-5.1-11.3-11.3-11.3c-0.5,0-8.9,0-17.2,0c-8.3,0-16.5,0-16.5,0c-2.4,0-4.3,1.9-4.3,4.3v11.8c0,4.4,1.1,7.9,3.1,10.6
			C60.2,97,61.1,97.9,62.2,98.7z"/>
		<g>
			<path class="st1" d="M62.2,98.7h-5.9v3.9c0,2.5,2,4.6,4.6,4.6h28.2c2.5,0,4.6-2,4.6-4.6v-3.9h-6.4c0.1-0.1,0.2-0.1,0.2-0.2l0,0
				l0,0c2.2-1.8,3.9-4.1,4.9-6.8c0.4,0.1,0.9,0.1,1.3,0.1c0.2,0,0.4,0,0.6,0c3.1-0.2,5.9-1.4,7.9-3.4c2-2,3.3-4.8,3.3-7.9
				c0-6.2-5.1-11.3-11.3-11.3c-0.5,0-8.9,0-17.2,0c-8.3,0-16.5,0-16.5,0c-2.4,0-4.3,1.9-4.3,4.3v11.8c0,4.4,1.1,7.9,3.1,10.6
				C60.2,97,61.1,97.9,62.2,98.7z M67.5,101.5h14.2h9.1v1.1c0,1-0.8,1.8-1.8,1.8H60.8c-1,0-1.8-0.8-1.8-1.8v-1.1H67.5z M61.7,94.3
				c-1.6-2.2-2.6-5-2.6-9V73.6c0-0.8,0.7-1.5,1.5-1.5c0,0,32.8,0,33.7,0c2.4,0,4.5,0.9,6,2.5c1.5,1.5,2.5,3.7,2.5,6
				c0,2.3-0.9,4.4-2.5,5.9c-1.5,1.5-3.7,2.5-6.1,2.6c-0.2,0-0.3,0-0.5,0c-0.7,0-1.3-0.1-1.8-0.2l-1.3-0.4l-0.4,1.3
				c-0.8,2.6-2.4,5-4.5,6.7l0,0l0,0c-0.2,0.2-0.7,0.6-1.5,1c-0.7,0.4-1.7,0.9-2.8,1.3H68C65.4,97.8,63.2,96.4,61.7,94.3z"/>
			<path class="st1" d="M91.2,76l-0.6,0.3v8.4l0.6,0.3c0.7,0.4,1.6,0.7,2.5,0.7c2.9,0,5.2-2.3,5.2-5.2c0-2.9-2.3-5.2-5.2-5.2
				C92.8,75.4,91.9,75.6,91.2,76z M93,77.8c0.2-0.1,0.5-0.1,0.8-0.1c1.6,0,2.8,1.3,2.8,2.8c0,1.6-1.3,2.8-2.8,2.8
				c-0.3,0-0.5,0-0.8-0.1V77.8z"/>
		</g>
	</g>
</g>
<g id="ico_x5F_helpdesk">
</g>
<g id="ico_x5F_treatment">
</g>
<g id="ico_x5F_foreignHoken">
</g>
<g id="ico_x5F_foreignGuide">
</g>
</svg>
